<?xml version="1.0" standalone="no"?>
<!DOCTYPE svg PUBLIC "-//W3C//DTD SVG 1.1//EN" "http://www.w3.org/Graphics/SVG/1.1/DTD/svg11.dtd" >
<svg xmlns="http://www.w3.org/2000/svg" xmlns:xlink="http://www.w3.org/1999/xlink" version="1.1">
<metadata>
Created by FontForge 20170731 at Wed Jan 13 17:03:18 2021
 By Aleksey,,,
2011 Mitja Miklavcic published by FSI FontShop International GmbH
</metadata>
<defs>
<font id="TisaSansPro-Light" horiz-adv-x="1167" >
  <font-face 
    font-family="TisaSansPro-Light"
    font-weight="350"
    font-stretch="normal"
    units-per-em="2048"
    panose-1="2 11 5 4 2 1 1 1 1 2"
    ascent="1493"
    descent="-555"
    x-height="971"
    cap-height="1411"
    bbox="-743 -754 2865 2023"
    underline-thickness="102"
    underline-position="-388"
    unicode-range="U+000D-FEFF"
  />
<missing-glyph horiz-adv-x="1507" 
d="M209 0v1481h1089v-1481h-1089zM504 1186q-15 -18 -22.5 -52t-4.5 -61q118 109 273 109q92 0 136 -37t44 -96q0 -33 -16 -64t-42 -56.5t-57 -51t-62.5 -52t-57.5 -54.5t-42 -64t-16 -76q0 -92 70 -146q46 3 73 47q-25 23 -35 44t-10 55q0 32 22.5 64.5t55.5 58.5t72.5 60
t72.5 66.5t55.5 79t22.5 97.5q0 103 -68.5 161t-197.5 58q-90 0 -158.5 -26.5t-107.5 -63.5zM745 348q-34 0 -53.5 -19.5t-19.5 -54.5q0 -71 73 -71q34 0 53 19t19 54q0 33 -20.5 52.5t-51.5 19.5z" />
    <glyph glyph-name="f_b" unicode="fb" horiz-adv-x="1753" 
d="M922 1448v-365q0 -139 -13 -225h6q36 67 117.5 110.5t194.5 43.5q66 0 124 -15t111.5 -51.5t91.5 -92t61 -142.5t23 -197q0 -274 -138.5 -414.5t-391.5 -140.5q-164 0 -305 55v1375q-69 34 -170 34q-44 0 -80.5 -7t-75.5 -27.5t-65 -54t-43 -92t-17 -136.5v-135h281
q8 -16 8 -53q0 -40 -8 -56h-281v-856q-17 -10 -59 -10q-43 0 -60 10v856h-153q0 61 20 109h133v127q0 432 392 432q176 0 297 -82zM922 752v-660q71 -26 184 -26q412 0 412 436q0 195 -82 298t-234 103q-174 0 -280 -151z" />
    <glyph glyph-name="f_f" unicode="ff" horiz-adv-x="1236" 
d="M100 971h133v184q0 97 21.5 166t61.5 106t89 53.5t113 16.5q126 0 189 -55q15 -21 21.5 -54.5t0.5 -66.5q-87 70 -190 70q-108 0 -147.5 -58.5t-39.5 -169.5v-192h473v211q0 98 22 167.5t63.5 108t92.5 55.5t117 17q123 0 195 -57q15 -21 21.5 -55.5t0.5 -67.5
q-91 73 -200 73q-111 0 -152 -59.5t-41 -173.5v-219h287q8 -16 8 -53q0 -40 -8 -56h-287v-856q-17 -10 -59 -10q-43 0 -60 10v856h-473v-856q-17 -10 -59 -10q-43 0 -60 10v856h-153q0 61 20 109z" />
    <glyph glyph-name="f_f_b" unicode="ffb" horiz-adv-x="2344" 
d="M1513 1448v-365q0 -145 -12 -225h6q36 67 117.5 110.5t194.5 43.5q66 0 124 -15t111.5 -51.5t91.5 -92t61 -142.5t23 -197q0 -274 -138.5 -414.5t-391.5 -140.5q-164 0 -305 55v1375q-69 34 -170 34q-44 0 -80.5 -7t-75.5 -27.5t-65 -54t-43 -92t-17 -136.5v-135h281
q8 -16 8 -53q0 -40 -8 -56h-281v-856q-17 -10 -59 -10q-43 0 -60 10v856h-473v-856q-17 -10 -59 -10q-43 0 -60 10v856h-153q0 61 20 109h133v184q0 97 21.5 166t61.5 106t89 53.5t113 16.5q126 0 189 -55q15 -21 21.5 -54.5t0.5 -66.5q-87 70 -190 70q-108 0 -147.5 -58.5
t-39.5 -169.5v-192h473v127q0 432 392 432q175 0 296 -82zM1513 752v-660q71 -26 185 -26q411 0 411 436q0 195 -81.5 298t-233.5 103q-175 0 -281 -151z" />
    <glyph glyph-name="f_f_h" unicode="ffh" horiz-adv-x="2383" 
d="M1513 729v-723q-17 -10 -59 -10t-59 10v1383q-69 34 -170 34q-44 0 -80.5 -7t-75.5 -27.5t-65 -54t-43 -92t-17 -136.5v-135h281q8 -16 8 -53q0 -40 -8 -56h-281v-856q-17 -10 -59 -10q-43 0 -60 10v856h-473v-856q-17 -10 -59 -10q-43 0 -60 10v856h-153q0 61 20 109
h133v184q0 97 21.5 166t61.5 106t89 53.5t113 16.5q126 0 189 -55q15 -21 21.5 -54.5t0.5 -66.5q-87 70 -190 70q-108 0 -147.5 -58.5t-39.5 -169.5v-192h473v127q0 432 392 432q175 0 296 -82v-363q0 -150 -14 -245h6q19 33 46 61t68.5 54.5t103 41.5t135.5 15q55 0 100 -8
t91.5 -33.5t78.5 -66.5t52 -112.5t20 -166.5v-619q-17 -10 -60 -10q-42 0 -59 10v592q0 149 -57.5 226t-192.5 77q-119 0 -199.5 -49.5t-118.5 -122.5z" />
    <glyph glyph-name="f_f_i" unicode="ffi" horiz-adv-x="1708" 
d="M825 862h-473v-856q-17 -10 -59 -10q-43 0 -60 10v856h-153q0 61 20 109h133v184q0 97 21.5 166t61.5 106t89 53.5t113 16.5q126 0 189 -55q15 -21 21.5 -54.5t0.5 -66.5q-87 70 -190 70q-108 0 -147.5 -58.5t-39.5 -169.5v-192h473v125q0 434 383 434q151 0 242 -64
q17 -20 24 -54.5t1 -68.5q-118 80 -250 80q-44 0 -81.5 -7t-75.5 -28t-64.5 -55.5t-43 -93t-16.5 -135.5v-133h281q8 -16 8 -53q0 -40 -8 -56h-281v-856q-17 -10 -59 -10q-43 0 -60 10v856zM1393 6v959q17 10 59 10t59 -10v-959q-17 -10 -59 -10t-59 10z" />
    <glyph glyph-name="f_f_iogonek" unicode="ff&#x12f;" horiz-adv-x="1708" 
d="M825 862h-473v-856q-17 -10 -59 -10q-43 0 -60 10v856h-153q0 61 20 109h133v184q0 97 21.5 166t61.5 106t89 53.5t113 16.5q126 0 189 -55q15 -21 21.5 -54.5t0.5 -66.5q-87 70 -190 70q-108 0 -147.5 -58.5t-39.5 -169.5v-192h473v125q0 434 383 434q151 0 242 -64
q17 -20 24 -54.5t1 -68.5q-118 80 -250 80q-44 0 -81.5 -7t-75.5 -28t-64.5 -55.5t-43 -93t-16.5 -135.5v-133h281q8 -16 8 -53q0 -40 -8 -56h-281v-856q-17 -10 -59 -10q-43 0 -60 10v856zM1530 -334q24 -30 24 -86q-41 -18 -100 -18q-97 0 -160 52t-63 153q0 165 162 237
v961q17 10 59 10t59 -10v-961q-165 -85 -165 -217q0 -63 38.5 -96t100.5 -33q21 0 45 8z" />
    <glyph glyph-name="f_f_j" unicode="ffj" horiz-adv-x="1722" 
d="M825 862h-473v-856q-17 -10 -59 -10q-43 0 -60 10v856h-153q0 61 20 109h133v184q0 97 21.5 166t61.5 106t89 53.5t113 16.5q126 0 189 -55q15 -21 21.5 -54.5t0.5 -66.5q-87 70 -190 70q-108 0 -147.5 -58.5t-39.5 -169.5v-192h473v125q0 434 394 434q152 0 247 -68
q17 -20 24 -54.5t1 -68.5q-122 84 -258 84q-46 0 -84 -7t-77.5 -28t-66.5 -55.5t-44 -93t-17 -135.5v-133h289q8 -16 8 -53q0 -40 -8 -56h-289v-856q-17 -10 -59 -10q-43 0 -60 10v856zM1530 965v-850q0 -113 -21.5 -206t-63 -164.5t-88.5 -124t-112 -105.5q-57 22 -67 84
q54 44 92.5 87t72.5 102t51 135t17 169v873q17 10 59 10q43 0 60 -10z" />
    <glyph glyph-name="f_f_k" unicode="ffk" horiz-adv-x="2240" 
d="M1513 575h168l332 396q15 6 53 6q56 0 80 -14l-374 -443q119 -165 208.5 -277t208.5 -235q-9 -12 -71 -12q-63 0 -84 12q-170 183 -369 467h-152v-469q-17 -10 -59 -10t-59 10v1383q-69 34 -170 34q-44 0 -80.5 -7t-75.5 -27.5t-65 -54t-43 -92t-17 -136.5v-135h281
q8 -16 8 -53q0 -40 -8 -56h-281v-856q-17 -10 -59 -10q-43 0 -60 10v856h-473v-856q-17 -10 -59 -10q-43 0 -60 10v856h-153q0 61 20 109h133v184q0 97 21.5 166t61.5 106t89 53.5t113 16.5q126 0 189 -55q15 -21 21.5 -54.5t0.5 -66.5q-87 70 -190 70q-108 0 -147.5 -58.5
t-39.5 -169.5v-192h473v127q0 432 392 432q175 0 296 -82v-873z" />
    <glyph glyph-name="f_f_kcommaaccent" unicode="ff&#x137;" horiz-adv-x="2240" 
d="M1513 575h168l332 396q15 6 53 6q56 0 80 -14l-374 -443q119 -165 208.5 -277t208.5 -235q-9 -12 -71 -12q-63 0 -84 12q-170 183 -369 467h-152v-469q-17 -10 -59 -10t-59 10v1383q-69 34 -170 34q-44 0 -80.5 -7t-75.5 -27.5t-65 -54t-43 -92t-17 -136.5v-135h281
q8 -16 8 -53q0 -40 -8 -56h-281v-856q-17 -10 -59 -10q-43 0 -60 10v856h-473v-856q-17 -10 -59 -10q-43 0 -60 10v856h-153q0 61 20 109h133v184q0 97 21.5 166t61.5 106t89 53.5t113 16.5q126 0 189 -55q15 -21 21.5 -54.5t0.5 -66.5q-87 70 -190 70q-108 0 -147.5 -58.5
t-39.5 -169.5v-192h473v127q0 432 392 432q175 0 296 -82v-873zM1655 -428q59 150 71 315q43 25 117 25q-3 -91 -33.5 -202.5t-66.5 -178.5q-63 7 -88 41z" />
    <glyph glyph-name="f_f_l" unicode="ffl" horiz-adv-x="1767" 
d="M100 971h133v184q0 97 21.5 166t61.5 106t89 53.5t113 16.5q126 0 189 -55q15 -21 21.5 -54.5t0.5 -66.5q-87 70 -190 70q-108 0 -147.5 -58.5t-39.5 -169.5v-192h473v127q0 100 21 176.5t56 124.5t86 78t105.5 41.5t120.5 11.5q174 0 295 -82v-1268q0 -63 24 -86.5
t71 -23.5q72 0 125 43q2 -33 -6 -66.5t-21 -50.5q-54 -37 -131 -37q-180 0 -180 203v1227q-69 34 -168 34q-44 0 -80.5 -7t-74.5 -27.5t-64.5 -54t-43 -92t-16.5 -136.5v-135h281q8 -16 8 -53q0 -40 -8 -56h-281v-856q-17 -10 -59 -10q-43 0 -60 10v856h-473v-856
q-17 -10 -59 -10q-43 0 -60 10v856h-153q0 61 20 109z" />
    <glyph glyph-name="f_f_lcaron" unicode="ff&#x13e;" horiz-adv-x="1771" 
d="M100 971h133v184q0 97 21.5 166t61.5 106t89 53.5t113 16.5q126 0 189 -55q15 -21 21.5 -54.5t0.5 -66.5q-87 70 -190 70q-108 0 -147.5 -58.5t-39.5 -169.5v-192h473v127q0 100 21 176.5t56 124.5t86 78t105.5 41.5t120.5 11.5q174 0 295 -82v-1268q0 -63 24 -86.5
t71 -23.5q72 0 125 43q2 -33 -6 -66.5t-21 -50.5q-54 -37 -131 -37q-180 0 -180 203v1227q-69 34 -168 34q-44 0 -80.5 -7t-74.5 -27.5t-64.5 -54t-43 -92t-16.5 -136.5v-135h281q8 -16 8 -53q0 -40 -8 -56h-281v-856q-17 -10 -59 -10q-43 0 -60 10v856h-473v-856
q-17 -10 -59 -10q-43 0 -60 10v856h-153q0 61 20 109zM1821 1513q-4 -92 -37 -208t-68 -185q-60 3 -84 41q63 166 74 328q44 24 115 24z" />
    <glyph glyph-name="f_f_lcommaaccent" unicode="ff&#x13c;" horiz-adv-x="1767" 
d="M100 971h133v184q0 97 21.5 166t61.5 106t89 53.5t113 16.5q126 0 189 -55q15 -21 21.5 -54.5t0.5 -66.5q-87 70 -190 70q-108 0 -147.5 -58.5t-39.5 -169.5v-192h473v127q0 100 21 176.5t56 124.5t86 78t105.5 41.5t120.5 11.5q174 0 295 -82v-1268q0 -63 24 -86.5
t71 -23.5q72 0 125 43q2 -33 -6 -66.5t-21 -50.5q-54 -37 -131 -37q-180 0 -180 203v1227q-69 34 -168 34q-44 0 -80.5 -7t-74.5 -27.5t-64.5 -54t-43 -92t-16.5 -136.5v-135h281q8 -16 8 -53q0 -40 -8 -56h-281v-856q-17 -10 -59 -10q-43 0 -60 10v856h-473v-856
q-17 -10 -59 -10q-43 0 -60 10v856h-153q0 61 20 109zM1436 -428q59 150 71 315q43 25 117 25q-3 -91 -33.5 -202.5t-66.5 -178.5q-63 7 -88 41z" />
    <glyph glyph-name="f_f_ldot" unicode="ff&#x140;" horiz-adv-x="1906" 
d="M100 971h133v184q0 97 21.5 166t61.5 106t89 53.5t113 16.5q126 0 189 -55q15 -21 21.5 -54.5t0.5 -66.5q-87 70 -190 70q-108 0 -147.5 -58.5t-39.5 -169.5v-192h473v127q0 100 21 176.5t56 124.5t86 78t105.5 41.5t120.5 11.5q174 0 295 -82v-1268q0 -63 24 -86.5
t71 -23.5q72 0 125 43q2 -33 -6 -66.5t-21 -50.5q-54 -37 -131 -37q-180 0 -180 203v1227q-69 34 -168 34q-44 0 -80.5 -7t-74.5 -27.5t-64.5 -54t-43 -92t-16.5 -136.5v-135h281q8 -16 8 -53q0 -40 -8 -56h-281v-856q-17 -10 -59 -10q-43 0 -60 10v856h-473v-856
q-17 -10 -59 -10q-43 0 -60 10v856h-153q0 61 20 109zM1802 639q38 0 61 -22t23 -62q0 -86 -84 -86q-86 0 -86 84q0 41 23 63.5t63 22.5z" />
    <glyph glyph-name="f_f_t" unicode="fft" horiz-adv-x="1931" 
d="M1524 862v-602q0 -98 32 -144t123 -46q114 0 203 80q4 -35 -5 -72.5t-26 -57.5q-77 -61 -198 -61q-127 0 -187.5 66.5t-60.5 218.5v618h-461v-856q-17 -10 -59 -10q-43 0 -60 10v856h-473v-856q-17 -10 -59 -10q-43 0 -60 10v856h-153q0 61 20 109h133v184q0 97 21.5 166
t61.5 106t89 53.5t113 16.5q126 0 189 -55q15 -21 21.5 -54.5t0.5 -66.5q-87 70 -190 70q-108 0 -147.5 -58.5t-39.5 -169.5v-192h473v205q0 98 22 167.5t63.5 108t92.5 55.5t117 17q122 0 195 -58q15 -21 21.5 -55.5t0.5 -67.5q-92 74 -200 74q-111 0 -152 -59.5
t-41 -173.5v-213h461v229q42 36 119 39v-268h315q8 -16 8 -53q0 -40 -8 -56h-315z" />
    <glyph glyph-name="f_f_tbar" unicode="ff&#x167;" horiz-adv-x="1937" 
d="M1524 971h315q8 -16 8 -53q0 -40 -8 -56h-315v-305h272q8 -12 8 -47q0 -37 -8 -49h-272v-201q0 -98 32 -144t123 -46q114 0 203 80q4 -35 -5 -72.5t-26 -57.5q-77 -61 -198 -61q-127 0 -187.5 66.5t-60.5 218.5v217h-137q0 53 16 96h121v305h-461v-856q-17 -10 -59 -10
q-43 0 -60 10v856h-473v-856q-17 -10 -59 -10q-43 0 -60 10v856h-153q0 61 20 109h133v184q0 97 21.5 166t61.5 106t89 53.5t113 16.5q126 0 189 -55q15 -21 21.5 -54.5t0.5 -66.5q-87 70 -190 70q-108 0 -147.5 -58.5t-39.5 -169.5v-192h473v205q0 98 22 167.5t63.5 108
t92.5 55.5t117 17q122 0 195 -58q15 -21 21.5 -55.5t0.5 -67.5q-92 74 -200 74q-111 0 -152 -59.5t-41 -173.5v-213h461v229q42 36 119 39v-268z" />
    <glyph glyph-name="f_f_tcaron" unicode="ff&#x165;" horiz-adv-x="1939" 
d="M1524 862v-602q0 -98 32 -144t123 -46q114 0 203 80q4 -35 -5 -72.5t-26 -57.5q-77 -61 -198 -61q-127 0 -187.5 66.5t-60.5 218.5v618h-461v-856q-17 -10 -59 -10q-43 0 -60 10v856h-473v-856q-17 -10 -59 -10q-43 0 -60 10v856h-153q0 61 20 109h133v184q0 97 21.5 166
t61.5 106t89 53.5t113 16.5q126 0 189 -55q15 -21 21.5 -54.5t0.5 -66.5q-87 70 -190 70q-108 0 -147.5 -58.5t-39.5 -169.5v-192h473v205q0 98 22 167.5t63.5 108t92.5 55.5t117 17q122 0 195 -58q15 -21 21.5 -55.5t0.5 -67.5q-92 74 -200 74q-111 0 -152 -59.5
t-41 -173.5v-213h461v229q42 36 119 39v-268h315q8 -16 8 -53q0 -40 -8 -56h-315zM1948 1450q-3 -85 -31.5 -190.5t-61.5 -172.5q-63 7 -88 41q53 149 64 297q43 25 117 25z" />
    <glyph glyph-name="f_f_tcommaaccent" unicode="ff&#x163;" horiz-adv-x="1931" 
d="M1524 971h315q8 -16 8 -53q0 -40 -8 -56h-315v-602q0 -98 32 -144t123 -46q114 0 203 80q4 -35 -5 -72.5t-26 -57.5q-70 -54 -159 -59l-17 -74q119 -44 119 -149q0 -80 -60 -132.5t-157 -70.5q-50 24 -68 70q78 11 125 43.5t47 81.5q0 41 -33 69t-87 39l36 125
q-98 12 -145 79t-47 202v618h-461v-856q-17 -10 -59 -10q-43 0 -60 10v856h-473v-856q-17 -10 -59 -10q-43 0 -60 10v856h-153q0 61 20 109h133v184q0 97 21.5 166t61.5 106t89 53.5t113 16.5q126 0 189 -55q15 -21 21.5 -54.5t0.5 -66.5q-87 70 -190 70
q-108 0 -147.5 -58.5t-39.5 -169.5v-192h473v205q0 98 22 167.5t63.5 108t92.5 55.5t117 17q122 0 195 -58q15 -21 21.5 -55.5t0.5 -67.5q-92 74 -200 74q-111 0 -152 -59.5t-41 -173.5v-213h461v229q42 36 119 39v-268z" />
    <glyph glyph-name="f_f_uni021B" unicode="ff&#x21b;" horiz-adv-x="1931" 
d="M1524 862v-602q0 -98 32 -144t123 -46q114 0 203 80q4 -35 -5 -72.5t-26 -57.5q-77 -61 -198 -61q-127 0 -187.5 66.5t-60.5 218.5v618h-461v-856q-17 -10 -59 -10q-43 0 -60 10v856h-473v-856q-17 -10 -59 -10q-43 0 -60 10v856h-153q0 61 20 109h133v184q0 97 21.5 166
t61.5 106t89 53.5t113 16.5q126 0 189 -55q15 -21 21.5 -54.5t0.5 -66.5q-87 70 -190 70q-108 0 -147.5 -58.5t-39.5 -169.5v-192h473v205q0 98 22 167.5t63.5 108t92.5 55.5t117 17q122 0 195 -58q15 -21 21.5 -55.5t0.5 -67.5q-92 74 -200 74q-111 0 -152 -59.5
t-41 -173.5v-213h461v229q42 36 119 39v-268h315q8 -16 8 -53q0 -40 -8 -56h-315zM1520 -428q59 150 71 315q43 25 117 25q-3 -91 -33.5 -202.5t-66.5 -178.5q-63 7 -88 41z" />
    <glyph glyph-name="f_h" unicode="fh" horiz-adv-x="1792" 
d="M922 729v-723q-17 -10 -60 -10q-42 0 -59 10v1383q-69 34 -170 34q-44 0 -80.5 -7t-75.5 -27.5t-65 -54t-43 -92t-17 -136.5v-135h281q8 -16 8 -53q0 -40 -8 -56h-281v-856q-17 -10 -59 -10q-43 0 -60 10v856h-153q0 61 20 109h133v127q0 432 392 432q176 0 297 -82v-363
q0 -143 -15 -245h6q19 33 46 61t68.5 54.5t103 41.5t135.5 15q55 0 100 -8t91.5 -33.5t78.5 -66.5t52 -112.5t20 -166.5v-619q-17 -10 -60 -10q-42 0 -59 10v592q0 149 -57.5 226t-192.5 77q-119 0 -199 -49.5t-118 -122.5z" />
    <glyph glyph-name="f_i" unicode="fi" horiz-adv-x="1116" 
d="M233 862h-153q0 61 20 109h133v125q0 434 383 434q151 0 242 -64q17 -20 24 -54.5t1 -68.5q-118 80 -250 80q-44 0 -81.5 -7t-75.5 -28t-64.5 -55.5t-43 -93t-16.5 -135.5v-133h281q8 -16 8 -53q0 -40 -8 -56h-281v-856q-17 -10 -59 -10q-43 0 -60 10v856zM801 6v959
q17 10 59 10q43 0 60 -10v-959q-17 -10 -60 -10q-42 0 -59 10z" />
    <glyph glyph-name="f_iacute" unicode="f&#xed;" horiz-adv-x="1122" 
d="M233 862h-153q0 61 20 109h133v211q0 97 21.5 166t61.5 106t89 53.5t113 16.5q124 0 189 -56q35 -47 22 -120q-86 69 -190 69q-108 0 -147.5 -58t-39.5 -169v-219h283q8 -16 8 -53q0 -40 -8 -56h-283v-856q-17 -10 -59 -10q-43 0 -60 10v856zM807 6v959q17 10 59 10
q43 0 60 -10v-959q-17 -10 -60 -10q-42 0 -59 10zM1104 1434l-270 -306q-52 12 -72 54l231 288q72 0 111 -36z" />
    <glyph glyph-name="f_iogonek" unicode="f&#x12f;" horiz-adv-x="1116" 
d="M233 862h-153q0 61 20 109h133v125q0 434 383 434q151 0 242 -64q17 -20 24 -54.5t1 -68.5q-118 80 -250 80q-44 0 -81.5 -7t-75.5 -28t-64.5 -55.5t-43 -93t-16.5 -135.5v-133h281q8 -16 8 -53q0 -40 -8 -56h-281v-856q-17 -10 -59 -10q-43 0 -60 10v856zM938 -334
q25 -31 25 -86q-41 -18 -101 -18q-97 0 -160 52t-63 153q0 165 162 237v961q17 10 59 10q43 0 60 -10v-961q-166 -85 -166 -217q0 -63 38.5 -96t100.5 -33q21 0 45 8z" />
    <glyph glyph-name="f_j" unicode="fj" horiz-adv-x="1130" 
d="M233 862h-153q0 61 20 109h133v125q0 434 394 434q152 0 247 -68q17 -20 24 -54.5t1 -68.5q-122 84 -258 84q-46 0 -84 -7t-77.5 -28t-66.5 -55.5t-44 -93t-17 -135.5v-133h289q8 -16 8 -53q0 -40 -8 -56h-289v-856q-17 -10 -59 -10q-43 0 -60 10v856zM938 965v-850
q0 -113 -21.5 -206t-63 -164.5t-88.5 -124t-112 -105.5q-57 22 -67 84q54 44 92.5 87t72.5 102t51 135t17 169v873q17 10 60 10q42 0 59 -10z" />
    <glyph glyph-name="f_k" unicode="fk" horiz-adv-x="1648" 
d="M922 575h168l331 396q15 6 54 6q55 0 79 -14l-374 -443q119 -165 208.5 -277t208.5 -235q-9 -12 -71 -12q-63 0 -84 12q-170 183 -369 467h-151v-469q-17 -10 -60 -10q-42 0 -59 10v1383q-69 34 -170 34q-44 0 -80.5 -7t-75.5 -27.5t-65 -54t-43 -92t-17 -136.5v-135h281
q8 -16 8 -53q0 -40 -8 -56h-281v-856q-17 -10 -59 -10q-43 0 -60 10v856h-153q0 61 20 109h133v127q0 432 392 432q176 0 297 -82v-873z" />
    <glyph glyph-name="f_kcommaaccent" unicode="f&#x137;" horiz-adv-x="1648" 
d="M922 575h168l331 396q15 6 54 6q55 0 79 -14l-374 -443q119 -165 208.5 -277t208.5 -235q-9 -12 -71 -12q-63 0 -84 12q-170 183 -369 467h-151v-469q-17 -10 -60 -10q-42 0 -59 10v1383q-69 34 -170 34q-44 0 -80.5 -7t-75.5 -27.5t-65 -54t-43 -92t-17 -136.5v-135h281
q8 -16 8 -53q0 -40 -8 -56h-281v-856q-17 -10 -59 -10q-43 0 -60 10v856h-153q0 61 20 109h133v127q0 432 392 432q176 0 297 -82v-873zM1063 -428q61 153 72 315q43 25 116 25q-3 -91 -33.5 -202.5t-66.5 -178.5q-63 7 -88 41z" />
    <glyph glyph-name="f_l" unicode="fl" horiz-adv-x="1175" 
d="M100 971h133v127q0 432 390 432q174 0 295 -82v-1268q0 -63 23.5 -86.5t70.5 -23.5q72 0 125 43q2 -33 -6 -66.5t-21 -50.5q-54 -37 -131 -37q-180 0 -180 203v1227q-69 34 -168 34q-44 0 -80.5 -7t-74.5 -27.5t-64.5 -54t-43 -92t-16.5 -136.5v-135h281q8 -16 8 -53
q0 -40 -8 -56h-281v-856q-17 -10 -59 -10q-43 0 -60 10v856h-153q0 61 20 109z" />
    <glyph glyph-name="f_lcaron" unicode="f&#x13e;" horiz-adv-x="1179" 
d="M100 971h133v127q0 432 390 432q174 0 295 -82v-1268q0 -63 23.5 -86.5t70.5 -23.5q72 0 125 43q2 -33 -6 -66.5t-21 -50.5q-54 -37 -131 -37q-180 0 -180 203v1227q-69 34 -168 34q-44 0 -80.5 -7t-74.5 -27.5t-64.5 -54t-43 -92t-16.5 -136.5v-135h281q8 -16 8 -53
q0 -40 -8 -56h-281v-856q-17 -10 -59 -10q-43 0 -60 10v856h-153q0 61 20 109zM1229 1513q-4 -92 -37 -208t-68 -185q-60 3 -84 41q63 166 74 328q44 24 115 24z" />
    <glyph glyph-name="f_lcommaaccent" unicode="f&#x13c;" horiz-adv-x="1175" 
d="M100 971h133v127q0 432 390 432q174 0 295 -82v-1268q0 -63 23.5 -86.5t70.5 -23.5q72 0 125 43q2 -33 -6 -66.5t-21 -50.5q-54 -37 -131 -37q-180 0 -180 203v1227q-69 34 -168 34q-44 0 -80.5 -7t-74.5 -27.5t-64.5 -54t-43 -92t-16.5 -136.5v-135h281q8 -16 8 -53
q0 -40 -8 -56h-281v-856q-17 -10 -59 -10q-43 0 -60 10v856h-153q0 61 20 109zM844 -428q59 150 71 315q43 25 117 25q-3 -91 -33.5 -202.5t-66.5 -178.5q-63 7 -88 41z" />
    <glyph glyph-name="f_ldot" unicode="f&#x140;" horiz-adv-x="1314" 
d="M100 971h133v127q0 432 390 432q174 0 295 -82v-1268q0 -63 23.5 -86.5t70.5 -23.5q72 0 125 43q2 -33 -6 -66.5t-21 -50.5q-54 -37 -131 -37q-180 0 -180 203v1227q-69 34 -168 34q-44 0 -80.5 -7t-74.5 -27.5t-64.5 -54t-43 -92t-16.5 -136.5v-135h281q8 -16 8 -53
q0 -40 -8 -56h-281v-856q-17 -10 -59 -10q-43 0 -60 10v856h-153q0 61 20 109zM1210 639q38 0 61 -22t23 -62q0 -86 -84 -86q-86 0 -86 84q0 41 23 63.5t63 22.5z" />
    <glyph glyph-name="f_t" unicode="ft" horiz-adv-x="1339" 
d="M932 862v-602q0 -98 32 -144t123 -46q114 0 203 80q4 -35 -4.5 -72.5t-25.5 -57.5q-77 -61 -199 -61q-127 0 -187.5 66.5t-60.5 218.5v618h-461v-856q-17 -10 -59 -10q-43 0 -60 10v856h-153q0 61 20 109h133v205q0 98 22 167.5t63.5 108t92.5 55.5t117 17q122 0 195 -58
q15 -21 21.5 -55.5t0.5 -67.5q-92 74 -200 74q-111 0 -152 -59.5t-41 -173.5v-213h461v229q42 36 119 39v-268h315q8 -16 8 -53q0 -40 -8 -56h-315z" />
    <glyph glyph-name="f_tbar" unicode="f&#x167;" horiz-adv-x="1345" 
d="M932 971h315q8 -16 8 -53q0 -40 -8 -56h-315v-305h272q8 -12 8 -47q0 -37 -8 -49h-272v-201q0 -98 32 -144t123 -46q114 0 203 80q4 -35 -4.5 -72.5t-25.5 -57.5q-77 -61 -199 -61q-127 0 -187.5 66.5t-60.5 218.5v217h-137q0 53 16 96h121v305h-461v-856
q-17 -10 -59 -10q-43 0 -60 10v856h-153q0 61 20 109h133v205q0 98 22 167.5t63.5 108t92.5 55.5t117 17q122 0 195 -58q15 -21 21.5 -55.5t0.5 -67.5q-92 74 -200 74q-111 0 -152 -59.5t-41 -173.5v-213h461v229q42 36 119 39v-268z" />
    <glyph glyph-name="f_tcaron" unicode="f&#x165;" horiz-adv-x="1347" 
d="M932 862v-602q0 -98 32 -144t123 -46q114 0 203 80q4 -35 -4.5 -72.5t-25.5 -57.5q-77 -61 -199 -61q-127 0 -187.5 66.5t-60.5 218.5v618h-461v-856q-17 -10 -59 -10q-43 0 -60 10v856h-153q0 61 20 109h133v205q0 98 22 167.5t63.5 108t92.5 55.5t117 17q122 0 195 -58
q15 -21 21.5 -55.5t0.5 -67.5q-92 74 -200 74q-111 0 -152 -59.5t-41 -173.5v-213h461v229q42 36 119 39v-268h315q8 -16 8 -53q0 -40 -8 -56h-315zM1356 1450q-3 -85 -31.5 -191t-60.5 -172q-63 7 -88 41q51 145 63 297q43 25 117 25z" />
    <glyph glyph-name="f_tcommaaccent" unicode="f&#x163;" horiz-adv-x="1339" 
d="M932 971h315q8 -16 8 -53q0 -40 -8 -56h-315v-602q0 -98 32 -144t123 -46q114 0 203 80q4 -35 -4.5 -72.5t-25.5 -57.5q-70 -54 -160 -59l-17 -74q119 -44 119 -149q0 -80 -60 -132.5t-157 -70.5q-49 24 -67 70q78 11 125 43.5t47 81.5q0 41 -33.5 69t-87.5 39l37 125
q-98 12 -145.5 79t-47.5 202v618h-461v-856q-17 -10 -59 -10q-43 0 -60 10v856h-153q0 61 20 109h133v205q0 98 22 167.5t63.5 108t92.5 55.5t117 17q122 0 195 -58q15 -21 21.5 -55.5t0.5 -67.5q-92 74 -200 74q-111 0 -152 -59.5t-41 -173.5v-213h461v229q42 36 119 39
v-268z" />
    <glyph glyph-name="f_uni021B" unicode="f&#x21b;" horiz-adv-x="1339" 
d="M932 862v-602q0 -98 32 -144t123 -46q114 0 203 80q4 -35 -4.5 -72.5t-25.5 -57.5q-77 -61 -199 -61q-127 0 -187.5 66.5t-60.5 218.5v618h-461v-856q-17 -10 -59 -10q-43 0 -60 10v856h-153q0 61 20 109h133v205q0 98 22 167.5t63.5 108t92.5 55.5t117 17q122 0 195 -58
q15 -21 21.5 -55.5t0.5 -67.5q-92 74 -200 74q-111 0 -152 -59.5t-41 -173.5v-213h461v229q42 36 119 39v-268h315q8 -16 8 -53q0 -40 -8 -56h-315zM928 -428q59 150 71 315q43 25 117 25q-3 -91 -33.5 -202.5t-66.5 -178.5q-63 7 -88 41z" />
    <glyph glyph-name=".notdef" horiz-adv-x="1507" 
d="M209 0v1481h1089v-1481h-1089zM504 1186q-15 -18 -22.5 -52t-4.5 -61q118 109 273 109q92 0 136 -37t44 -96q0 -33 -16 -64t-42 -56.5t-57 -51t-62.5 -52t-57.5 -54.5t-42 -64t-16 -76q0 -92 70 -146q46 3 73 47q-25 23 -35 44t-10 55q0 32 22.5 64.5t55.5 58.5t72.5 60
t72.5 66.5t55.5 79t22.5 97.5q0 103 -68.5 161t-197.5 58q-90 0 -158.5 -26.5t-107.5 -63.5zM745 348q-34 0 -53.5 -19.5t-19.5 -54.5q0 -71 73 -71q34 0 53 19t19 54q0 33 -20.5 52.5t-51.5 19.5z" />
    <glyph glyph-name=".null" horiz-adv-x="0" 
 />
    <glyph glyph-name=".null" horiz-adv-x="0" 
 />
    <glyph glyph-name="nonmarkingreturn" horiz-adv-x="682" 
 />
    <glyph glyph-name="CR" unicode="&#xd;" horiz-adv-x="405" 
 />
    <glyph glyph-name="space" unicode=" " horiz-adv-x="405" 
 />
    <glyph glyph-name="exclam" unicode="!" horiz-adv-x="589" 
d="M360 1409l-14 -1012q-17 -10 -55 -10q-36 0 -53 10l-15 1002q32 16 86 16q33 0 51 -6zM295 156q39 0 64.5 -24t25.5 -66q0 -45 -24 -70t-66 -25q-94 0 -94 90q0 44 25.5 69.5t68.5 25.5z" />
    <glyph glyph-name="quotedbl" unicode="&#x22;" horiz-adv-x="688" 
d="M543 1053q-71 0 -103 18q25 208 25 422q70 0 117 -20q0 -172 -39 -420zM227 1053q-70 0 -102 18q25 208 25 422q69 0 116 -20q0 -172 -39 -420z" />
    <glyph glyph-name="numbersign" unicode="#" horiz-adv-x="1077" 
d="M133 829h189l38 222q39 22 107 22l-41 -244h338l37 222q39 22 104 22l-39 -244h181q6 -12 6 -34q0 -41 -13 -58h-190l-59 -372h182q6 -12 6 -35q0 -42 -12 -58h-193l-43 -266q-10 -10 -53 -10q-42 0 -55 10l45 266h-336l-45 -266q-10 -10 -54 -10q-42 0 -55 10l47 266
h-198q4 62 26 93h189l63 372h-199q4 59 27 92zM410 737l-62 -372h336l64 372h-338z" />
    <glyph glyph-name="dollar" unicode="$" horiz-adv-x="954" 
d="M98 160q72 -43 168 -67.5t193 -24.5q276 0 276 202q0 54 -25.5 94.5t-67.5 64.5t-96 46.5t-110 39t-110 42.5t-96 57t-67.5 82.5t-25.5 118.5q0 127 79 202t226 87v139q47 19 107 19v-158q130 -9 223 -70q16 -21 25.5 -61t3.5 -70q-126 96 -299 96q-122 0 -183 -45.5
t-61 -124.5q0 -57 33 -98t85.5 -66.5t116.5 -47.5t128 -47.5t116.5 -59.5t85.5 -91.5t33 -135.5q0 -82 -27 -143.5t-76 -98t-108.5 -56t-132.5 -24.5v-145q-15 -11 -53 -11q-35 0 -53 11v145q-155 8 -273 68q-45 58 -35 131z" />
    <glyph glyph-name="percent" unicode="%" horiz-adv-x="1796" 
d="M1348 1085l-779 -1142q-30 5 -53.5 20.5t-32.5 38.5l758 1112q68 0 107 -29zM399 1106q139 0 220 -81t81 -232q0 -153 -83.5 -237.5t-223.5 -84.5t-220.5 83.5t-80.5 233.5q0 151 82.5 234.5t224.5 83.5zM199 793q0 -104 52.5 -166t143.5 -62q93 0 146 62t53 166
t-52.5 162.5t-146.5 58.5t-145 -59t-51 -162zM1403 594q139 0 220 -81t81 -232q0 -153 -83.5 -237.5t-223.5 -84.5t-220.5 83.5t-80.5 233.5q0 151 82.5 234.5t224.5 83.5zM1202 281q0 -104 53 -166t144 -62q93 0 145.5 62t52.5 166t-52 162.5t-146 58.5t-145.5 -59
t-51.5 -162z" />
    <glyph glyph-name="ampersand" unicode="&#x26;" horiz-adv-x="1429" 
d="M1022 295q-239 251 -506 395q-136 -39 -215.5 -124t-79.5 -216q0 -78 28.5 -135.5t79 -90t112 -48t134.5 -15.5q281 0 447 234zM555 799q126 37 188 110t62 172q0 59 -21 102.5t-56 67t-74 34.5t-83 11q-42 0 -81.5 -10t-79 -32.5t-64 -68.5t-24.5 -110q0 -53 16.5 -95.5
t50.5 -75t71.5 -56t94.5 -49.5zM1270 -4q-94 134 -170 215q-201 -258 -533 -258q-74 0 -140 12t-127 40.5t-105 72t-70.5 110t-26.5 150.5q0 160 88 265.5t226 146.5v6q-102 54 -153.5 131t-51.5 186q0 86 31.5 152t84.5 103.5t115.5 56t130.5 18.5q66 0 126 -17.5t112 -53
t82.5 -97t30.5 -141.5q0 -127 -71 -221.5t-187 -133.5v-6q101 -62 216.5 -152t208.5 -186q43 82 68.5 190.5t28.5 221.5q40 27 119 27q-3 -140 -38.5 -280.5t-97.5 -242.5q124 -130 236 -301q-27 -20 -82 -20q-39 0 -51 6z" />
    <glyph glyph-name="quotesingle" unicode="'" horiz-adv-x="372" 
d="M227 1053q-70 0 -102 18q25 208 25 422q69 0 116 -20q0 -172 -39 -420z" />
    <glyph glyph-name="parenleft" unicode="(" horiz-adv-x="602" 
d="M473 -440q-159 235 -236 501.5t-77 509.5q0 248 77 507.5t230 484.5q56 -14 82 -62q-127 -196 -200 -437.5t-73 -488.5q0 -251 76 -498t217 -458q-27 -46 -96 -59z" />
    <glyph glyph-name="parenright" unicode=")" horiz-adv-x="602" 
d="M35 -381q291 440 291 952q0 254 -71 488.5t-200 433.5q29 59 86 74q155 -229 228 -487t73 -496q0 -252 -75 -517t-236 -509q-71 10 -96 61z" />
    <glyph glyph-name="asterisk" unicode="*" horiz-adv-x="823" 
d="M373 1200l6 4q-17 42 -17 78l-6 209q34 18 99 18l-6 -225q0 -39 -15 -82l6 -2q18 29 60 53l180 113q34 -19 65 -80l-204 -110q-34 -19 -76 -25v-6q34 -6 74 -25l200 -104q0 -24 -14 -51.5t-35 -40.5l-194 120q-33 21 -56 52l-6 -2q11 -27 15 -74l8 -225q-18 -11 -51 -11
q-34 0 -52 11l8 225q3 41 17 72l-6 2q-19 -23 -56 -47l-190 -121q-21 12 -35 38.5t-16 53.5l196 102q40 20 74 23v6q-41 8 -74 25l-190 104q4 54 35 96l198 -121q35 -19 58 -53z" />
    <glyph glyph-name="plus" unicode="+" 
d="M115 600h409v414q41 20 115 20v-434h420q8 -16 8 -53t-8 -53h-420v-431q-17 -10 -57 -10q-41 0 -58 10v431h-428q0 63 19 106z" />
    <glyph glyph-name="comma" unicode="," horiz-adv-x="432" 
d="M170 115q46 26 129 26q-6 -110 -45 -244t-82 -208q-72 7 -96 45q82 186 94 381z" />
    <glyph glyph-name="hyphen" unicode="-" horiz-adv-x="665" 
d="M106 606h459q8 -16 8 -55t-8 -55h-477q0 70 18 110z" />
    <glyph glyph-name="period" unicode="." horiz-adv-x="462" 
d="M231 156q39 0 65 -24t26 -66q0 -45 -24.5 -70t-66.5 -25q-94 0 -94 90q0 44 25.5 69.5t68.5 25.5z" />
    <glyph glyph-name="slash" unicode="/" horiz-adv-x="823" 
d="M788 1466l-690 -1820q-30 0 -59.5 11.5t-42.5 29.5l690 1812q63 0 102 -33z" />
    <glyph glyph-name="zero" unicode="0" horiz-adv-x="1243" 
d="M623 1106q227 0 362 -146t135 -413q0 -278 -134 -433t-363 -155q-239 0 -369.5 151.5t-130.5 436.5q0 259 137 409t363 150zM248 547q0 -225 97 -350t278 -125q179 0 275.5 127.5t96.5 347.5q0 205 -100.5 326.5t-271.5 121.5q-181 0 -278 -120.5t-97 -327.5z" />
    <glyph glyph-name="one" unicode="1" horiz-adv-x="759" 
d="M389 6v965l-319 -60q4 62 28 109q59 22 184 47t230 37v-1098q-17 -10 -61 -10q-45 0 -62 10z" />
    <glyph glyph-name="two" unicode="2" horiz-adv-x="1107" 
d="M295 113h688q0 -67 -18 -113h-826q-24 50 -24 125q42 30 127.5 83t153 95.5t148.5 104t135.5 116.5t92 123.5t37.5 134.5q0 103 -79.5 157t-209.5 54q-190 0 -379 -131q-3 33 7 71.5t28 61.5q148 111 369 111q176 0 283.5 -75t107.5 -224q0 -69 -25 -137t-63.5 -124.5
t-97 -113.5t-112.5 -99t-123 -86.5t-116 -71t-104 -56.5v-6z" />
    <glyph glyph-name="three" unicode="3" horiz-adv-x="1089" 
d="M279 395q-8 20 -5 54.5t15 52.5q88 0 174 19t159 54.5t117.5 93.5t44.5 130q0 70 -45.5 115.5t-111 63t-148.5 17.5q-97 0 -190 -24.5t-158 -63.5q-5 26 4.5 64.5t28.5 60.5q56 32 153 53t193 21q66 0 124 -10t109 -32.5t87.5 -55.5t57.5 -82.5t21 -110.5
q0 -134 -92.5 -227.5t-238.5 -120.5v-6q370 -30 370 -318q0 -99 -45.5 -176t-124 -123t-176 -69t-209.5 -23q-170 0 -276 41q-18 24 -26.5 58.5t-4.5 64.5q57 -23 143 -36t166 -13q84 0 158 15.5t136 47.5t98 88t36 129q0 85 -51 138.5t-171.5 81.5t-321.5 28z" />
    <glyph glyph-name="four" unicode="4" horiz-adv-x="1183" 
d="M918 166v-356q-18 -11 -62 -11q-43 0 -61 11v356h-715q-21 47 -21 110q279 389 701 805q92 0 158 -32v-773h184q10 -17 10 -55t-10 -55h-184zM795 276v537q0 105 12 160h-6q-347 -344 -600 -699v-6q55 8 145 8h449z" />
    <glyph glyph-name="five" unicode="5" horiz-adv-x="1103" 
d="M238 1065h751q0 -67 -18 -113h-631l-37 -426q86 27 225 27q445 0 445 -354q0 -115 -46.5 -203t-126 -140t-177.5 -78t-209 -26q-70 0 -146.5 10t-120.5 25q-18 21 -27.5 57t-4.5 66q120 -43 293 -43q70 0 132.5 10t119.5 34t98 60.5t65.5 92.5t24.5 126
q0 135 -89.5 193.5t-273.5 58.5q-156 0 -303 -41z" />
    <glyph glyph-name="six" unicode="6" horiz-adv-x="1171" 
d="M764 1188q-219 0 -351 -152.5t-149 -435.5h6q116 180 377 180q198 0 305 -107t107 -288q0 -194 -124.5 -310t-334.5 -116q-231 0 -345 149t-114 431q0 181 47 326t130 239t195 144t245 50q132 0 223 -51q17 -18 26.5 -55.5t6.5 -69.5q-101 66 -250 66zM623 670
q-117 0 -202 -47t-157 -138v-8q0 -195 90 -301t254 -106q153 0 239.5 86.5t86.5 222.5q0 132 -81 211.5t-230 79.5z" />
    <glyph glyph-name="seven" unicode="7" horiz-adv-x="1026" 
d="M842 952h-779q0 57 23 113h872q21 -48 21 -111q-194 -257 -359.5 -575t-230.5 -567q-30 -13 -74 -13q-52 0 -65 13q70 251 236 571t356 563v6z" />
    <glyph glyph-name="eight" unicode="8" horiz-adv-x="1150" 
d="M428 672v6q-111 35 -177.5 110t-66.5 193q0 83 34.5 146t93.5 99t129.5 54t150.5 18q61 0 117 -10.5t106.5 -34t87.5 -58.5t58.5 -87.5t21.5 -116.5q0 -124 -71 -208t-171 -113v-6q281 -94 281 -347q0 -90 -35 -160t-97.5 -112.5t-143 -64t-175.5 -21.5q-68 0 -129.5 11
t-119.5 36.5t-100 65t-67.5 100t-25.5 137.5q0 145 84 235.5t215 127.5zM555 612q-305 -68 -305 -290q0 -67 27.5 -117.5t75.5 -79.5t105 -43t122 -14q63 0 117 13t100 40t73 75.5t27 114.5q0 53 -19 96.5t-49 74t-77 56t-92 42t-105 32.5zM616 721q248 76 248 258
q0 57 -24.5 100t-66.5 67t-89.5 35t-101.5 11q-51 0 -97 -10.5t-87.5 -33.5t-66 -65.5t-24.5 -99.5q0 -46 17 -83t41 -61.5t69.5 -47.5t82 -36.5t99.5 -33.5z" />
    <glyph glyph-name="nine" unicode="9" horiz-adv-x="1155" 
d="M395 -135q219 0 351 158.5t149 445.5h-6q-113 -180 -365 -180q-194 0 -301.5 106.5t-107.5 284.5q0 194 121 310t325 116q228 0 342.5 -150t114.5 -436q0 -184 -47 -331t-130.5 -242t-196.5 -145t-247 -50q-141 0 -239 49q-18 20 -28 60t-5 69q107 -65 270 -65zM551 401
q113 0 194 46t150 135v8q0 188 -91.5 297.5t-250.5 109.5q-146 0 -229.5 -87t-83.5 -224q0 -131 80.5 -208t230.5 -77z" />
    <glyph glyph-name="colon" unicode=":" horiz-adv-x="481" 
d="M242 193q39 0 64.5 -24.5t25.5 -66.5q0 -45 -24 -69.5t-66 -24.5q-95 0 -95 90q0 44 26 69.5t69 25.5zM242 954q39 0 64.5 -24t25.5 -64q0 -44 -24 -68t-66 -24q-44 0 -68 22.5t-24 65.5q0 42 25 67t67 25z" />
    <glyph glyph-name="semicolon" unicode=";" horiz-adv-x="462" 
d="M184 115q44 24 125 24q-6 -109 -45 -242.5t-82 -207.5q-69 7 -92 43q82 186 94 383zM246 954q39 0 64.5 -24t25.5 -64q0 -44 -24 -68t-66 -24q-44 0 -68 22.5t-24 65.5q0 42 25 67t67 25z" />
    <glyph glyph-name="less" unicode="&#x3c;" 
d="M205 604l639 438q51 -15 92 -65l-629 -426v-6l621 -424q-5 -27 -23.5 -52.5t-44.5 -37.5l-672 467q0 64 17 106z" />
    <glyph glyph-name="equal" unicode="=" 
d="M145 406h883q8 -16 8 -54q0 -37 -8 -53h-901q0 67 18 107zM145 791h883q8 -16 8 -54q0 -37 -8 -53h-901q0 66 18 107z" />
    <glyph glyph-name="greater" unicode="&#x3e;" 
d="M979 502l-678 -471q-52 25 -65 90l626 422v6l-635 432q37 46 95 66l639 -439q18 -45 18 -106z" />
    <glyph glyph-name="question" unicode="?" horiz-adv-x="811" 
d="M23 1194q-5 36 4.5 76t27.5 63q52 50 148 85.5t217 35.5q176 0 271 -80t95 -221q0 -70 -31 -133.5t-77 -108.5t-100.5 -91.5t-100.5 -83.5t-77 -83t-31 -92q0 -48 14 -77t51 -64q-26 -50 -88 -60q-98 78 -98 201q0 53 22.5 102t58 87.5t79 75t86.5 72t78.5 72t58 80.5
t22.5 91q0 86 -63.5 142t-194.5 56q-212 0 -372 -145zM391 156q39 0 64.5 -24t25.5 -66q0 -45 -24 -70t-66 -25q-94 0 -94 90q0 44 25.5 69.5t68.5 25.5z" />
    <glyph glyph-name="at" unicode="@" horiz-adv-x="2043" 
d="M1411 868l-76 -571q-13 -97 17.5 -138.5t101.5 -41.5q53 0 108 20.5t109 65t95.5 108t67.5 157.5t26 204q0 138 -40 252t-110 193t-166 133.5t-206 80t-232 25.5q-265 0 -469.5 -117t-316 -325.5t-111.5 -473.5q0 -373 219 -591t602 -218q152 0 299.5 35t241.5 94
q17 -9 30.5 -31t18.5 -46q-115 -71 -277 -111.5t-329 -40.5q-277 0 -483.5 111t-317.5 315.5t-111 476.5q0 177 47 335t135.5 282.5t210.5 215t279 139t334 48.5q182 0 337.5 -51t270.5 -147.5t180.5 -246t65.5 -335.5q0 -133 -33 -245t-87 -187t-123.5 -128t-141 -76.5
t-141.5 -23.5q-89 0 -143 38t-64 112h-6q-47 -77 -133.5 -113.5t-178.5 -36.5q-141 0 -220 86.5t-79 268.5q0 115 33 218t95.5 184t162.5 129t225 48q166 0 283 -80zM1219 285l73 524q-60 37 -168 37q-81 0 -147.5 -27.5t-111 -72.5t-75 -106t-44 -126t-13.5 -133
q0 -258 207 -258q87 0 162.5 41.5t116.5 120.5z" />
    <glyph glyph-name="A" unicode="A" horiz-adv-x="1302" 
d="M1130 8l-165 443h-633l-164 -443q-20 -12 -66 -12q-45 0 -61 12l534 1403q21 12 76 12q57 0 78 -12l533 -1403q-16 -12 -62 -12q-50 0 -70 12zM373 559h553l-127 342q-109 290 -148 442h-6q-38 -153 -145 -442z" />
    <glyph glyph-name="B" unicode="B" horiz-adv-x="1304" 
d="M918 748v-7q301 -72 301 -348q0 -103 -43 -181t-120 -125t-176.5 -70t-220.5 -23q-283 0 -438 12v1389q179 28 369 28q123 0 221.5 -20.5t174 -62.5t116.5 -113t41 -166q0 -121 -62.5 -204t-162.5 -109zM346 680v-567q138 -9 295 -9q216 0 332.5 71t116.5 216
q0 140 -113 214.5t-311 74.5h-320zM346 1298v-510h322q160 0 254 66.5t94 189.5q0 136 -115.5 202.5t-320.5 66.5q-142 0 -234 -15z" />
    <glyph glyph-name="C" unicode="C" horiz-adv-x="1257" 
d="M1149 1253q-164 84 -330 84q-124 0 -225 -38t-177.5 -114.5t-118.5 -201t-42 -287.5q0 -309 147 -466.5t398 -157.5q197 0 366 88q3 -28 -7 -64.5t-27 -56.5q-154 -86 -367 -86q-300 0 -469.5 195t-169.5 540q0 187 51 334t142 241t213 142.5t268 48.5q187 0 317 -74
q17 -20 26.5 -58t4.5 -69z" />
    <glyph glyph-name="D" unicode="D" horiz-adv-x="1396" 
d="M221 0v1397q141 24 320 24q169 0 308.5 -45t242.5 -132.5t160 -227t57 -318.5q0 -177 -54.5 -313.5t-151.5 -221.5t-225 -128t-282 -43q-206 0 -375 8zM346 1298v-1185q117 -9 240 -9q280 0 437 149t157 437q0 154 -47.5 273.5t-134.5 195t-205.5 114t-264.5 38.5
q-105 0 -182 -13z" />
    <glyph glyph-name="E" unicode="E" horiz-adv-x="1232" 
d="M221 1407h875q10 -17 10 -55q0 -39 -10 -56h-750v-524h696q11 -18 11 -53q0 -37 -11 -55h-696v-551h770q10 -17 10 -56q0 -40 -10 -57h-895v1407z" />
    <glyph glyph-name="F" unicode="F" horiz-adv-x="1120" 
d="M221 6v1401h832q10 -17 10 -55q0 -39 -10 -56h-707v-561h658q10 -17 10 -53q0 -38 -10 -55h-658v-621q-17 -10 -63 -10q-45 0 -62 10z" />
    <glyph glyph-name="G" unicode="G" horiz-adv-x="1404" 
d="M1257 63q-83 -46 -208 -78t-256 -32q-314 0 -490 193t-176 540q0 189 53 336.5t148 241t223 142t283 48.5q193 0 333 -76q16 -21 25.5 -58t5.5 -67q-168 86 -356 86q-129 0 -234.5 -38.5t-185 -115t-123 -202t-43.5 -289.5q0 -309 150 -466.5t407 -157.5q178 0 324 63
v502h-402q-10 17 -10 53t10 53h522v-678z" />
    <glyph glyph-name="H" unicode="H" horiz-adv-x="1517" 
d="M1171 6v672h-825v-672q-17 -10 -63 -10q-45 0 -62 10v1395q17 10 62 10q46 0 63 -10v-613h825v613q17 10 62 10q46 0 63 -10v-1395q-17 -10 -63 -10q-45 0 -62 10z" />
    <glyph glyph-name="I" unicode="I" horiz-adv-x="567" 
d="M221 6v1395q17 10 62 10q46 0 63 -10v-1395q-17 -10 -63 -10q-45 0 -62 10z" />
    <glyph glyph-name="J" unicode="J" horiz-adv-x="636" 
d="M422 1401v-1116q0 -265 -96 -429.5t-295 -258.5q-48 33 -54 100q172 88 246 221t74 344v1139q17 10 61 10q47 0 64 -10z" />
    <glyph glyph-name="K" unicode="K" horiz-adv-x="1265" 
d="M221 6v1395q17 10 62 10q46 0 63 -10v-625h193l485 621q21 14 76 14q50 0 67 -14l-526 -672l582 -715q-17 -14 -74 -14q-63 0 -84 14l-535 658h-184v-662q-17 -10 -63 -10q-45 0 -62 10z" />
    <glyph glyph-name="L" unicode="L" horiz-adv-x="1159" 
d="M346 113h731q10 -17 10 -56q0 -40 -10 -57h-856v1401q17 10 62 10q46 0 63 -10v-1288z" />
    <glyph glyph-name="M" unicode="M" horiz-adv-x="1763" 
d="M1423 6v1311h-6q-48 -182 -104 -336l-361 -985q-18 -12 -71 -12q-54 0 -72 12l-360 985q-48 131 -103 336h-6v-1311q-17 -10 -59 -10q-43 0 -60 10v1393q28 12 98 12q67 0 99 -12l348 -942q71 -192 113 -375h6q41 174 114 375l347 942q32 12 98 12q70 0 98 -12v-1393
q-17 -10 -59 -10q-43 0 -60 10z" />
    <glyph glyph-name="N" unicode="N" horiz-adv-x="1513" 
d="M340 1303v-1297q-17 -10 -59 -10q-43 0 -60 10v1393q36 12 86 12q48 0 84 -12l635 -1010q89 -142 141 -283h7v1295q17 10 59 10t59 -10v-1401q-23 -10 -86 -10q-57 0 -80 10l-663 1057q-73 115 -117 246h-6z" />
    <glyph glyph-name="O" unicode="O" horiz-adv-x="1497" 
d="M750 1454q280 0 448 -192.5t168 -542.5q0 -364 -166 -565t-450 -201q-298 0 -458.5 195t-160.5 571q0 341 169.5 538t449.5 197zM260 719q0 -309 127.5 -480t362.5 -171q234 0 360.5 172.5t126.5 478.5q0 287 -132 454.5t-355 167.5q-238 0 -364 -165.5t-126 -456.5z" />
    <glyph glyph-name="P" unicode="P" horiz-adv-x="1216" 
d="M221 6v1389q152 32 357 32q282 0 435.5 -115t153.5 -345q0 -153 -69.5 -257.5t-187.5 -152t-277 -47.5q-150 0 -287 18v-522q-17 -10 -63 -10q-45 0 -62 10zM569 1315q-124 0 -223 -17v-655q117 -18 275 -18q203 0 310 79t107 252q0 126 -60 207.5t-162 116.5t-247 35z
" />
    <glyph glyph-name="Q" unicode="Q" horiz-adv-x="1497" 
d="M752 1454q138 0 251.5 -48.5t195 -140t126.5 -231t45 -315.5q0 -257 -84.5 -434t-238.5 -262q93 -216 331 -216q107 0 205 41q3 -25 -7.5 -59t-25.5 -49q-84 -41 -204 -41q-298 0 -410 278q-92 -24 -184 -24q-299 0 -460 195t-161 571q0 341 170 538t451 197zM260 719
q0 -309 128 -480t364 -171q235 0 362 172.5t127 478.5q0 287 -132 454.5t-357 167.5q-239 0 -365.5 -165.5t-126.5 -456.5z" />
    <glyph glyph-name="R" unicode="R" horiz-adv-x="1294" 
d="M221 6v1389q150 32 350 32q278 0 430 -109.5t152 -328.5q0 -305 -289 -401l373 -580q-13 -10 -66 -10q-59 0 -84 10l-350 553q-44 -6 -108 -6q-150 0 -283 18v-567q-17 -10 -63 -10q-45 0 -62 10zM565 1315q-123 0 -219 -17v-612q114 -18 268 -18q410 0 410 311
q0 174 -121 255t-338 81z" />
    <glyph glyph-name="S" unicode="S" horiz-adv-x="1134" 
d="M111 190q86 -59 201 -90.5t233 -31.5q182 0 270 74t88 210q0 67 -25.5 119.5t-68.5 87t-99 61.5t-117.5 49.5t-123.5 46t-118 55.5t-99 72.5t-68.5 102.5t-25.5 141q0 173 113 270t315 97q201 0 348 -98q15 -23 23.5 -65t0.5 -72q-165 122 -366 122q-150 0 -228.5 -63
t-78.5 -174q0 -62 25.5 -111t68.5 -81.5t99 -59.5t118 -50t123.5 -47.5t117.5 -58.5t99 -76.5t68.5 -107t25.5 -145.5q0 -91 -26 -163t-71 -118.5t-108 -77t-133 -43t-151 -12.5q-241 0 -402 96q-17 26 -25 65.5t-3 75.5z" />
    <glyph glyph-name="T" unicode="T" horiz-adv-x="1157" 
d="M1102 1296h-461v-1290q-17 -10 -63 -10q-45 0 -62 10v1290h-461q-10 17 -10 56q0 38 10 55h1047q10 -17 10 -55q0 -39 -10 -56z" />
    <glyph glyph-name="U" unicode="U" horiz-adv-x="1462" 
d="M328 1401v-891q0 -225 99.5 -333.5t301.5 -108.5q420 0 420 448v885q17 10 59 10q45 0 62 -10v-875q0 -276 -133 -424.5t-414 -148.5q-520 0 -520 545v903q17 10 61 10q47 0 64 -10z" />
    <glyph glyph-name="V" unicode="V" horiz-adv-x="1273" 
d="M641 72h6q39 177 86 301l375 1026q20 12 68 12q45 0 61 -12l-520 -1403q-21 -12 -78 -12t-78 12l-522 1403q16 12 61 12q50 0 70 -12l383 -1037q54 -150 88 -290z" />
    <glyph glyph-name="W" unicode="W" horiz-adv-x="1894" 
d="M1368 68h6q15 100 56 254l284 1077q20 12 62 12q41 0 57 -12l-375 -1403q-24 -12 -88 -12t-88 12l-266 1024q-43 153 -66 321h-6q-21 -151 -70 -325l-272 -1020q-24 -12 -86 -12q-60 0 -84 12l-369 1403q16 12 60 12q45 0 65 -12l277 -1065q36 -138 53 -266h6
q20 156 49 262l293 1083q27 10 82 10q57 0 84 -10l283 -1089q35 -140 53 -256z" />
    <glyph glyph-name="X" unicode="X" horiz-adv-x="1214" 
d="M262 1399l281 -434q65 -102 84 -140h6q38 74 86 144l282 430q24 12 78 12q52 0 64 -12l-447 -668l473 -723q-12 -12 -65 -12q-58 0 -82 12l-322 500q-45 67 -82 139h-6q-29 -57 -90 -143l-332 -496q-24 -12 -79 -12q-52 0 -64 12l500 733l-428 658q12 12 63 12
q56 0 80 -12z" />
    <glyph glyph-name="Y" unicode="Y" horiz-adv-x="1148" 
d="M514 526l-485 873q16 12 65 12q54 0 74 -12l321 -584q55 -98 89 -209h6q31 111 86 209l319 584q20 12 72 12q47 0 63 -12l-485 -877v-516q-17 -10 -64 -10q-44 0 -61 10v520z" />
    <glyph glyph-name="Z" unicode="Z" horiz-adv-x="1187" 
d="M1073 1309l-809 -1190v-6h821q11 -18 11 -56q0 -39 -11 -57h-958q-18 42 -18 104l811 1186v6h-779q-10 17 -10 56q0 38 10 55h916q16 -43 16 -98z" />
    <glyph glyph-name="bracketleft" unicode="[" horiz-adv-x="595" 
d="M197 -377v1878h313q14 -44 14 -106h-213v-1665h209q8 -16 8 -54q0 -37 -8 -53h-323z" />
    <glyph glyph-name="backslash" unicode="\" horiz-adv-x="823" 
d="M127 1522l702 -1839q-37 -43 -106 -43l-686 1814q12 22 38 41t52 27z" />
    <glyph glyph-name="bracketright" unicode="]" horiz-adv-x="595" 
d="M399 1501v-1878h-323q-8 16 -8 53q0 38 8 54h209v1665h-211q0 65 14 106h311z" />
    <glyph glyph-name="asciicircum" unicode="^" 
d="M621 1372l407 -637q-32 -49 -98 -55l-281 448q-49 74 -76 154h-6q-35 -92 -75 -154l-285 -458q-58 35 -72 90l375 598q37 10 111 14z" />
    <glyph glyph-name="underscore" unicode="_" horiz-adv-x="1024" 
d="M-2 -371h1028q8 -16 8 -51t-8 -51h-1046q0 65 18 102z" />
    <glyph glyph-name="grave" unicode="`" horiz-adv-x="851" 
d="M584 1186q-20 -44 -80 -56l-260 306q40 37 118 37z" />
    <glyph glyph-name="a" unicode="a" horiz-adv-x="1050" 
d="M729 74h-6q-97 -115 -291 -115q-68 0 -125 16.5t-103.5 50t-73 91.5t-26.5 135q0 111 53.5 185t140.5 106t204 32q135 0 221 -34v82q0 149 -54.5 214.5t-183.5 65.5q-163 0 -307 -94q-7 26 -3 63t18 60q53 35 139 57.5t180 22.5q168 0 248 -85.5t80 -285.5v-489
q0 -48 18.5 -66t52.5 -18q65 0 101 32q3 -64 -25 -106q-44 -35 -115 -35q-57 0 -95 29t-48 86zM723 186v256q-103 35 -209 35q-141 0 -216 -58t-75 -161q0 -94 65.5 -142t168.5 -48q79 0 152.5 29t113.5 89z" />
    <glyph glyph-name="b" unicode="b" horiz-adv-x="1146" 
d="M315 1493v-410q0 -145 -12 -225h6q36 67 117.5 110.5t194.5 43.5q66 0 124 -15t111.5 -51.5t91.5 -92t61 -142.5t23 -197q0 -274 -138.5 -414.5t-391.5 -140.5q-164 0 -305 55v1454q45 25 118 25zM315 752v-660q71 -26 185 -26q411 0 411 436q0 195 -81.5 298t-233.5 103
q-175 0 -281 -151z" />
    <glyph glyph-name="c" unicode="c" horiz-adv-x="980" 
d="M866 827q-126 74 -254 74q-177 0 -276.5 -103t-99.5 -309q0 -203 98 -310t272 -107q148 0 277 80q5 -29 -5 -66t-28 -55q-111 -72 -279 -72q-218 0 -337 138t-119 384q0 135 37 238t102.5 166.5t151 95t188.5 31.5q153 0 248 -64q34 -53 24 -121z" />
    <glyph glyph-name="d" unicode="d" horiz-adv-x="1146" 
d="M831 971v497q45 25 119 25v-1489q-35 -18 -90 -18l-16 102h-6q-48 -58 -126.5 -93.5t-181.5 -35.5q-88 0 -161.5 28.5t-131.5 86t-90 155t-32 226.5q0 270 132.5 413.5t362.5 143.5q134 0 221 -41zM831 186v684q-75 37 -196 37q-105 0 -183.5 -33.5t-125 -94.5
t-68.5 -140t-22 -176q0 -191 82.5 -292t240.5 -101q93 0 155.5 32t116.5 84z" />
    <glyph glyph-name="e" unicode="e" horiz-adv-x="1064" 
d="M928 459h-695q3 -194 110.5 -292.5t291.5 -98.5q163 0 297 82q6 -64 -29 -113q-116 -78 -299 -78q-230 0 -360.5 140.5t-130.5 375.5q0 236 126 386.5t341 150.5q182 0 276 -109t94 -287q0 -92 -22 -157zM236 561h595q7 62 -1.5 119t-35 110t-83 85t-138.5 32
q-146 0 -235.5 -95.5t-101.5 -250.5z" />
    <glyph glyph-name="f" unicode="f" horiz-adv-x="645" 
d="M100 971h133v205q0 98 22 167.5t63.5 108t92.5 55.5t117 17q122 0 195 -58q15 -21 21.5 -55.5t0.5 -67.5q-92 74 -200 74q-111 0 -152 -59.5t-41 -173.5v-213h287q8 -16 8 -53q0 -40 -8 -56h-287v-856q-17 -10 -59 -10q-43 0 -60 10v856h-153q0 61 20 109z" />
    <glyph glyph-name="g" unicode="g" horiz-adv-x="1034" 
d="M502 293q-105 0 -172 31q-25 -19 -40.5 -48t-15.5 -59q0 -65 68 -89t207 -24q82 0 145 -6.5t122.5 -24.5t98 -48.5t61.5 -81.5t23 -121q0 -166 -125 -249t-342 -83q-77 0 -144 10t-126 33t-100.5 58t-65.5 87t-24 117q0 96 46.5 159.5t117.5 92.5v6q-78 51 -78 148
q0 47 22.5 89.5t65.5 69.5v7q-115 94 -115 286q0 171 100 265t271 94q108 0 192 -41h271q18 -34 18 -99h-178v-4q69 -72 69 -215q0 -171 -98.5 -265.5t-273.5 -94.5zM537 0q-131 0 -199 16q-72 -31 -111 -83.5t-39 -120.5q0 -59 29 -103t80.5 -68t112 -35.5t131.5 -11.5
q156 0 248 54.5t92 167.5q0 96 -78.5 140t-265.5 44zM244 653q0 -125 67 -191.5t191 -66.5q123 0 190.5 68.5t67.5 189.5q0 122 -67.5 189t-190.5 67q-126 0 -192 -68t-66 -188z" />
    <glyph glyph-name="h" unicode="h" horiz-adv-x="1185" 
d="M315 729v-723q-17 -10 -59 -10t-59 10v1462q45 25 118 25v-408q0 -150 -14 -245h6q41 73 126 122.5t226 49.5q55 0 100 -8t91.5 -33.5t78.5 -66.5t52 -112.5t20 -166.5v-619q-17 -10 -59 -10t-59 10v592q0 149 -57.5 226t-192.5 77q-119 0 -199.5 -49.5t-118.5 -122.5z
" />
    <glyph glyph-name="i" unicode="i" horiz-adv-x="512" 
d="M197 6v959q17 10 59 10t59 -10v-959q-17 -10 -59 -10t-59 10zM258 1417q39 0 63.5 -23t24.5 -65q0 -44 -23 -67t-65 -23q-90 0 -90 88q0 42 24 66t66 24z" />
    <glyph glyph-name="j" unicode="j" horiz-adv-x="526" 
d="M334 965v-850q0 -113 -21.5 -206t-63 -164.5t-88.5 -124t-112 -105.5q-57 22 -67 84q54 44 92.5 87t72.5 102t51 135t17 169v873q17 10 59 10q43 0 60 -10zM276 1417q39 0 64 -23t25 -65q0 -44 -23.5 -67t-65.5 -23q-90 0 -90 88q0 42 24 66t66 24z" />
    <glyph glyph-name="k" unicode="k" horiz-adv-x="1042" 
d="M315 575h168l332 396q15 6 53 6q56 0 80 -14l-375 -443q117 -162 208 -275.5t210 -236.5q-9 -12 -71 -12q-63 0 -84 12q-170 183 -369 467h-152v-469q-17 -10 -59 -10t-59 10v1462q45 25 118 25v-918z" />
    <glyph glyph-name="l" unicode="l" horiz-adv-x="569" 
d="M504 -4q-54 -37 -131 -37q-180 0 -180 203v1306q45 25 118 25v-1313q0 -63 24 -86.5t71 -23.5q71 0 124 43q2 -33 -5.5 -66.5t-20.5 -50.5z" />
    <glyph glyph-name="m" unicode="m" horiz-adv-x="1837" 
d="M315 729v-723q-17 -10 -59 -10t-59 10v961q37 18 98 18l8 -139h6q98 166 344 166q70 0 123 -14t102 -57.5t76 -115.5h7q18 35 45 65t68.5 59t104.5 46t140 17q54 0 98 -8t90 -33.5t76.5 -66.5t50 -112.5t19.5 -166.5v-619q-17 -10 -60 -10q-42 0 -59 10v594
q0 148 -55.5 224.5t-192.5 76.5q-116 0 -192.5 -51.5t-116.5 -130.5q8 -36 8 -107v-606q-17 -10 -59 -10q-43 0 -60 10v592q0 149 -55.5 226t-189.5 77q-112 0 -190.5 -50t-115.5 -122z" />
    <glyph glyph-name="n" unicode="n" horiz-adv-x="1177" 
d="M315 729v-723q-17 -10 -59 -10t-59 10v961q37 18 98 18l8 -139h6q102 166 348 166q45 0 82.5 -6t77.5 -21t70 -43t55 -69.5t38 -104.5t13 -143v-619q-17 -10 -59 -10q-43 0 -60 10v594q0 149 -55 225t-192 76q-115 0 -194.5 -49.5t-117.5 -122.5z" />
    <glyph glyph-name="o" unicode="o" horiz-adv-x="1126" 
d="M565 1012q206 0 325.5 -133t119.5 -379q0 -259 -118.5 -400t-326.5 -141q-219 0 -333.5 137t-114.5 404q0 241 120.5 376.5t327.5 135.5zM238 500q0 -207 83 -320.5t244 -113.5q159 0 241.5 114.5t82.5 319.5q0 189 -85.5 297t-238.5 108q-161 0 -244 -107.5t-83 -297.5z
" />
    <glyph glyph-name="p" unicode="p" horiz-adv-x="1148" 
d="M303 854h6q41 69 119 113.5t195 44.5q67 0 125 -15t111.5 -51.5t91.5 -92t60.5 -141t22.5 -194.5q0 -263 -129.5 -411t-369.5 -148q-140 0 -220 39v-459q-17 -10 -59 -10t-59 10v1428q37 18 98 18zM315 748v-644q79 -36 199 -36q105 0 183.5 33t125 94t68.5 139.5
t22 175.5q0 191 -81 292t-234 101q-72 0 -129.5 -24t-90 -55t-63.5 -76z" />
    <glyph glyph-name="q" unicode="q" horiz-adv-x="1142" 
d="M844 113h-6q-89 -154 -306 -154q-67 0 -126 15t-113.5 51t-93 91.5t-61.5 141.5t-23 195q0 271 136.5 415t379.5 144q182 0 319 -82v-1391q-17 -10 -59 -10q-43 0 -60 10v344q0 141 13 230zM831 221v645q-77 41 -196 41q-105 0 -183 -32.5t-124.5 -92t-69 -138
t-22.5 -177.5q0 -194 83 -296.5t236 -102.5q178 0 276 153z" />
    <glyph glyph-name="r" unicode="r" horiz-adv-x="778" 
d="M313 815q78 197 287 197q71 0 111 -19q18 -25 18 -75q0 -38 -8 -54q-48 31 -125 31q-198 0 -281 -254v-635q-17 -10 -59 -10t-59 10v961q37 18 98 18l12 -170h6z" />
    <glyph glyph-name="s" unicode="s" horiz-adv-x="901" 
d="M745 811q-118 98 -272 98q-98 0 -147.5 -40.5t-49.5 -110.5q0 -48 28.5 -84.5t74 -60t100.5 -45t109.5 -46.5t100 -57t74 -85t28.5 -122q0 -78 -28.5 -137t-79 -93.5t-114 -51.5t-139.5 -17q-80 0 -158 18.5t-129 51.5q-16 22 -22.5 61t-1.5 72q55 -44 142 -70t169 -26
q111 0 175.5 47.5t64.5 130.5q0 53 -28 93t-73.5 65.5t-100 47t-109 45.5t-100 54t-73.5 79.5t-28 114.5q0 132 78.5 200.5t226.5 68.5q156 0 256 -74q14 -19 22 -59.5t4 -67.5z" />
    <glyph glyph-name="t" unicode="t" horiz-adv-x="745" 
d="M338 862v-602q0 -97 32.5 -143.5t123.5 -46.5q113 0 202 80q4 -35 -4.5 -72.5t-25.5 -57.5q-77 -61 -199 -61q-127 0 -187.5 66.5t-60.5 218.5v618h-151q0 61 20 109h131v229q42 36 119 39v-268h315q9 -18 9 -53q0 -38 -9 -56h-315z" />
    <glyph glyph-name="u" unicode="u" horiz-adv-x="1171" 
d="M864 100h-6q-100 -141 -334 -141q-55 0 -99.5 8t-91 33.5t-78 67t-51.5 113t-20 167.5v608q45 25 119 25v-608q0 -153 56.5 -228t195.5 -75q103 0 181 39.5t120 99.5v756q17 10 59 10q43 0 60 -10v-961q-35 -18 -92 -18z" />
    <glyph glyph-name="v" unicode="v" horiz-adv-x="962" 
d="M485 72h7q17 89 51 180l274 717q20 8 47 8q48 0 70 -16l-373 -959q-57 -16 -145 -16l-383 975q22 16 71 16q30 0 50 -8l278 -715q35 -92 53 -182z" />
    <glyph glyph-name="w" unicode="w" horiz-adv-x="1503" 
d="M1090 76h4q15 103 47 213l207 680q20 8 47 8q45 0 65 -16l-297 -959q-61 -18 -143 -18l-215 706q-35 110 -43 195h-6q-11 -87 -47 -197l-222 -686q-59 -18 -141 -18l-299 977q20 16 66 16q29 0 49 -8l207 -680q33 -116 47 -213h6q14 97 45 200l217 682q68 21 147 21
l209 -696q32 -107 50 -207z" />
    <glyph glyph-name="x" unicode="x" horiz-adv-x="989" 
d="M248 969l198 -287q51 -73 60 -96h6q11 35 59 102l189 281q20 8 51 8q52 0 74 -16l-312 -453l351 -500q-9 -12 -62 -12t-71 12l-228 324q-49 71 -61 100h-6q-6 -15 -62 -96l-229 -328q-18 -12 -72 -12q-50 0 -59 12l358 504l-313 449q22 16 76 16q33 0 53 -8z" />
    <glyph glyph-name="y" unicode="y" horiz-adv-x="972" 
d="M504 39h6q16 95 55 205l264 725q20 8 48 8q47 0 69 -16l-160 -426q-175 -467 -245 -611q-81 -165 -185.5 -261.5t-267.5 -151.5q-47 37 -53 100q280 78 399 354l-397 996q22 16 74 16q29 0 49 -8l284 -725q40 -99 60 -205z" />
    <glyph glyph-name="z" unicode="z" horiz-adv-x="917" 
d="M805 879l-557 -768v-7h571q8 -16 8 -51q0 -37 -8 -53h-706q-19 38 -19 88l563 774v6h-546q0 62 18 103h659q17 -42 17 -92z" />
    <glyph glyph-name="braceleft" unicode="{" horiz-adv-x="632" 
d="M90 541q0 58 19 102q90 13 118.5 73t28.5 197v267q0 65 6 112.5t25.5 94t53 76t90 48t134.5 19.5q0 -66 -22 -105q-93 -3 -132.5 -53t-39.5 -164v-311q0 -135 -30.5 -206t-109.5 -95v-6q80 -27 110 -93.5t30 -195.5v-373q0 -120 44.5 -170t147.5 -55q6 -18 4 -54.5
t-12 -54.5q-76 2 -130 19.5t-86.5 45.5t-51 74.5t-25 96.5t-6.5 121v311q0 57 -3 93t-12.5 71t-27.5 55.5t-48 36.5t-75 23z" />
    <glyph glyph-name="bar" unicode="|" horiz-adv-x="532" 
d="M324 1513v-1878q-17 -10 -58 -10q-40 0 -57 10v1858q45 20 115 20z" />
    <glyph glyph-name="braceright" unicode="}" horiz-adv-x="632" 
d="M92 1530q70 -6 120 -24t82 -45t50.5 -69.5t25.5 -90t7 -113.5v-275q0 -141 27.5 -198.5t117.5 -71.5q21 -44 21 -102q-99 -12 -132.5 -68t-33.5 -186v-318q0 -76 -7 -130.5t-26.5 -101.5t-52.5 -76.5t-85 -47t-124 -19.5q-11 14 -13 52t7 55q107 1 146.5 56t39.5 188v340
q0 135 29.5 206t107.5 95v6q-80 27 -108.5 93.5t-28.5 195.5v319q0 122 -46 171t-153 54q0 60 29 105z" />
    <glyph glyph-name="asciitilde" unicode="~" 
d="M170 449q-41 29 -51 88q32 61 98 98t154 37q59 0 118.5 -19t100.5 -41.5t98 -41.5t113 -19q106 0 155 92q60 -6 91 -45q-34 -76 -100.5 -117t-158.5 -41q-65 0 -124.5 19t-98 41.5t-94 41.5t-111.5 19q-124 0 -190 -112z" />
    <glyph glyph-name="uni00A0" unicode="&#xa0;" horiz-adv-x="405" 
 />
    <glyph glyph-name="exclamdown" unicode="&#xa1;" horiz-adv-x="589" 
d="M229 -434l13 1003q25 15 69 15q27 0 41 -9l15 -1009q-18 -12 -70 -12q-50 0 -68 12zM299 999q39 0 64.5 -24t25.5 -66q0 -45 -24 -69.5t-66 -24.5q-94 0 -94 90q0 44 25.5 69t68.5 25z" />
    <glyph glyph-name="cent" unicode="&#xa2;" horiz-adv-x="954" 
d="M862 815q-126 74 -254 74q-176 0 -275.5 -90.5t-99.5 -272.5q0 -178 98.5 -272t270.5 -94q148 0 277 80q5 -29 -5 -66t-28 -55q-97 -62 -228 -70v-147q-15 -11 -53 -11q-35 0 -53 11v147q-193 17 -297 140t-104 331q0 218 110 336.5t295 138.5v142q45 18 107 18v-156
q134 -9 215 -63q34 -53 24 -121z" />
    <glyph glyph-name="sterling" unicode="&#xa3;" horiz-adv-x="980" 
d="M119 590h129q-41 102 -41 186q0 161 94.5 245.5t265.5 84.5q162 0 262 -74q15 -23 23.5 -64t3.5 -69q-122 96 -278 96q-248 0 -248 -215q0 -80 43 -190h401q8 -12 8 -47q0 -33 -8 -49h-368q16 -50 16 -111q0 -84 -36.5 -157t-92.5 -113v-7h633q10 -15 10 -53t-10 -53
h-768q-19 36 -19 96q160 115 160 275q0 64 -16 123h-183q0 53 19 96z" />
    <glyph glyph-name="currency" unicode="&#xa4;" horiz-adv-x="1107" 
d="M555 958q153 0 248 -65l129 156q28 -8 53 -27.5t35 -42.5l-137 -156q92 -106 92 -284q0 -181 -92 -293l139 -160q-10 -23 -35 -42.5t-53 -27.5l-129 158q-101 -70 -250 -70q-151 0 -254 64l-127 -154q-28 8 -53 27.5t-35 42.5l137 156q-90 110 -90 299q0 173 92 280
l-139 162q12 24 36.5 43t51.5 25l133 -158q98 67 248 67zM246 539q0 -158 79.5 -246t229.5 -88q146 0 226.5 90t80.5 244q0 149 -82.5 234t-224.5 85q-153 0 -231 -83.5t-78 -235.5z" />
    <glyph glyph-name="yen" unicode="&#xa5;" horiz-adv-x="1026" 
d="M514 471h6q27 101 72 172l258 420q20 10 53 10q52 0 74 -18l-272 -441h196q8 -12 8 -45t-8 -45h-252l-78 -127v-78h330q8 -12 8 -45t-8 -45h-330v-223q-17 -10 -61 -10q-42 0 -59 10v223h-340q0 58 16 90h324v76l-78 129h-262q0 58 16 90h190l-268 441q22 18 76 18
q37 0 57 -10l252 -420q55 -91 80 -172z" />
    <glyph glyph-name="brokenbar" unicode="&#xa6;" horiz-adv-x="532" 
d="M324 338v-703q-17 -10 -58 -10q-40 0 -57 10v682q47 21 115 21zM324 1513v-671q-18 -11 -58 -11q-39 0 -57 11v651q45 20 115 20z" />
    <glyph glyph-name="section" unicode="&#xa7;" horiz-adv-x="956" 
d="M893 410q0 -78 -28 -146t-72 -112q12 -32 12 -86q0 -71 -21 -125.5t-56.5 -89.5t-87 -58t-107.5 -32t-123 -9q-188 0 -310 68q-19 23 -28 58t-4 65q133 -88 340 -88q282 0 282 202q0 50 -21 91.5t-56 71t-80.5 55t-96 48t-101 46t-96 53t-80.5 64.5t-56 85t-21 111
q0 161 121 260q-13 32 -13 82q0 131 91.5 202.5t253.5 71.5q165 0 268 -71q17 -21 25.5 -56.5t5.5 -64.5q-123 94 -295 94q-119 0 -177.5 -44t-58.5 -124q0 -58 32.5 -102.5t84.5 -74.5t115 -58t126 -60.5t115 -73t84.5 -105t32.5 -148.5zM780 397q0 65 -29.5 116.5t-75 84
t-105.5 64t-116 55t-112 59.5t-88 76q-28 -25 -46 -69t-18 -89q0 -57 30 -103.5t77 -76t108.5 -60t120.5 -55.5t118 -63.5t95 -81.5q41 57 41 143z" />
    <glyph glyph-name="dieresis" unicode="&#xa8;" horiz-adv-x="851" 
d="M227 1337q36 0 58 -20.5t22 -59.5q0 -81 -80 -81q-82 0 -82 79q0 39 21.5 60.5t60.5 21.5zM625 1337q36 0 58 -20.5t22 -59.5q0 -81 -80 -81q-82 0 -82 79q0 39 21.5 60.5t60.5 21.5z" />
    <glyph glyph-name="copyright" unicode="&#xa9;" horiz-adv-x="1642" 
d="M1546 678q0 -205 -94 -371t-260 -260t-371 -94q-212 0 -378 94t-256.5 259t-90.5 372q0 153 56 288t152.5 231t230.5 151t286 55q153 0 287.5 -56t230.5 -152.5t151.5 -231t55.5 -285.5zM1454 678q0 177 -80.5 323t-226 231t-326.5 85q-180 0 -325 -84t-226.5 -230
t-81.5 -325q0 -184 80.5 -330t225 -227.5t327.5 -81.5q182 0 326.5 81.5t225.5 227.5t81 330zM1067 922q-95 53 -197 53q-129 0 -202.5 -73t-73.5 -220q0 -144 72 -216.5t200 -72.5q116 0 213 56q3 -25 -5.5 -58.5t-22.5 -50.5q-86 -51 -217 -51q-167 0 -261 105t-94 286
q0 194 104.5 294.5t274.5 100.5q117 0 184 -45q14 -19 21 -49.5t4 -58.5z" />
    <glyph glyph-name="ordfeminine" unicode="&#xaa;" horiz-adv-x="735" 
d="M502 700h-6q-66 -75 -191 -75q-92 0 -153.5 46t-61.5 144q0 105 73.5 160t196.5 55q70 0 138 -20v45q0 76 -34.5 115.5t-117.5 39.5q-116 0 -207 -61q-7 19 -3.5 48t14.5 48q79 53 215 53q119 0 176 -55t57 -184v-289q0 -32 11.5 -43.5t33.5 -11.5q38 0 64 22
q4 -21 -3.5 -48.5t-19.5 -39.5q-27 -24 -80 -24q-42 0 -69 20.5t-33 54.5zM498 784v148q-58 20 -123 20q-91 0 -138 -34t-47 -95q0 -55 38.5 -82.5t103.5 -27.5q109 0 166 71zM119 510h547q8 -12 8 -45q0 -31 -8 -47h-564q0 53 17 92z" />
    <glyph glyph-name="guillemotleft" unicode="&#xab;" horiz-adv-x="966" 
d="M621 512q116 -241 198 -377q-34 -43 -96 -49q-131 208 -229 418q80 177 202 377q50 26 133 26q-120 -199 -208 -395zM262 512q112 -233 199 -377q-34 -43 -96 -49q-135 214 -230 418q77 170 203 377q50 26 133 26q-124 -206 -209 -395z" />
    <glyph glyph-name="logicalnot" unicode="&#xac;" 
d="M1024 618v-380q-18 -11 -57 -11q-40 0 -58 11v272h-803q0 65 19 108h899z" />
    <glyph glyph-name="uni00AD" unicode="&#xad;" horiz-adv-x="665" 
d="M106 606h459q8 -16 8 -55t-8 -55h-477q0 70 18 110z" />
    <glyph glyph-name="registered" unicode="&#xae;" horiz-adv-x="1046" 
d="M971 1124q0 -198 -126.5 -326t-324.5 -128q-196 0 -320 126.5t-124 323.5t125.5 325t322.5 128t322 -126.5t125 -322.5zM889 1120q0 165 -100 270t-265 105q-164 0 -265 -105t-101 -268q0 -164 100.5 -269t265.5 -105q163 0 264 104t101 268zM635 911l-92 150
q-10 -2 -23 -2q-33 0 -69 4v-152q-16 -8 -45 -8q-30 0 -46 8v441q64 18 144 18q209 0 209 -151q0 -46 -21 -81.5t-59 -54.5l108 -170q-13 -10 -53 -10q-37 0 -53 8zM451 1288v-147q18 -6 63 -6q107 0 107 82q0 42 -29.5 59.5t-85.5 17.5q-25 0 -55 -6z" />
    <glyph glyph-name="macron" unicode="&#xaf;" horiz-adv-x="851" 
d="M170 1303h516q8 -12 8 -48q0 -35 -8 -47h-532q0 52 16 95z" />
    <glyph glyph-name="degree" unicode="&#xb0;" horiz-adv-x="784" 
d="M383 1298q126 0 201 -71.5t75 -200.5q0 -134 -75.5 -209.5t-200.5 -75.5q-134 0 -206.5 73.5t-72.5 211.5q0 126 76.5 199t202.5 73zM207 1026q0 -90 45.5 -140t130.5 -50q83 0 128.5 50.5t45.5 139.5q0 83 -47 130.5t-127 47.5q-86 0 -131 -46.5t-45 -131.5z" />
    <glyph glyph-name="plusminus" unicode="&#xb1;" 
d="M188 805h334v336q37 18 113 18v-354h346q8 -16 8 -51q0 -38 -8 -54h-346v-350q-17 -10 -57 -10q-39 0 -56 10v350h-352q0 64 18 105zM186 104h803q8 -16 8 -51q0 -37 -8 -53h-821q0 64 18 104z" />
    <glyph glyph-name="twosuperior" unicode="&#xb2;" horiz-adv-x="788" 
d="M268 872h381q8 -16 8 -47t-8 -51h-518q-16 36 -16 94q28 24 94.5 77t111.5 92t96 91.5t78 106t27 104.5q0 65 -42 99.5t-118 34.5q-120 0 -227 -80q-5 53 25 108q89 68 223 68q112 0 181 -54.5t69 -158.5q0 -58 -24 -117.5t-59.5 -107t-87.5 -97.5t-96 -84t-98 -71v-7z
" />
    <glyph glyph-name="threesuperior" unicode="&#xb3;" horiz-adv-x="788" 
d="M238 1128q-6 20 -4.5 47t10.5 42q272 4 272 149q0 111 -154 111q-121 0 -212 -60q-7 62 30 105q30 21 87 34t118 13q109 0 173.5 -47t64.5 -144q0 -79 -42 -129.5t-110 -62.5v-6q76 -10 126 -56t50 -137q0 -117 -86 -174t-221 -57q-118 0 -193 32q-30 49 -24 107
q84 -41 217 -41q199 0 199 135q0 73 -67 106t-234 33z" />
    <glyph glyph-name="acute" unicode="&#xb4;" horiz-adv-x="851" 
d="M618 1434l-270 -306q-52 12 -72 54l232 288q71 0 110 -36z" />
    <glyph glyph-name="mu" unicode="&#xb5;" horiz-adv-x="1218" 
d="M881 211v754q17 10 59 10t59 -10v-807q0 -52 19 -69t57 -17q64 0 105 32q2 -29 -5.5 -61t-19.5 -47q-47 -33 -119 -33q-65 0 -102 32.5t-45 90.5h-6q-21 -28 -53 -53.5t-101 -49.5t-154 -24q-215 0 -272 141h-6q18 -111 18 -276v-285q-17 -10 -59 -10t-59 10v1417
q45 25 118 25v-612q0 -145 62 -222t203 -77q107 0 185.5 40.5t115.5 100.5z" />
    <glyph glyph-name="paragraph" unicode="&#xb6;" horiz-adv-x="1073" 
d="M616 1331v-1665q-17 -10 -51 -10q-36 0 -53 10v1049q-50 -4 -80 -4q-80 0 -146.5 18.5t-121 57.5t-85 108.5t-30.5 163.5q0 184 127 276t402 92q176 0 299 -32v-1729q-17 -10 -52 -10q-36 0 -53 10v1653q-71 12 -156 12z" />
    <glyph glyph-name="periodcentered" unicode="&#xb7;" horiz-adv-x="475" 
d="M240 604q39 0 64.5 -24t25.5 -66q0 -45 -24 -69.5t-66 -24.5q-95 0 -95 90q0 44 26 69t69 25z" />
    <glyph glyph-name="cedilla" unicode="&#xb8;" horiz-adv-x="851" 
d="M338 -162l49 166q40 19 94 19l-28 -136q118 -43 118 -149q0 -80 -60 -132.5t-157 -70.5q-49 24 -67 70q78 11 125 43.5t47 81.5q0 41 -33.5 69t-87.5 39z" />
    <glyph glyph-name="onesuperior" unicode="&#xb9;" horiz-adv-x="788" 
d="M375 780v672l-217 -39q3 52 24 92q43 17 128.5 35t168.5 27v-787q-17 -10 -53 -10q-34 0 -51 10z" />
    <glyph glyph-name="ordmasculine" unicode="&#xba;" horiz-adv-x="772" 
d="M121 510h541q8 -12 8 -45q0 -31 -8 -47h-558q0 53 17 92zM389 1298q139 0 221 -85t82 -242q0 -165 -81 -255.5t-222 -90.5q-151 0 -230 88t-79 258q0 153 84 240t225 87zM184 971q0 -122 51 -187t154 -65q99 0 150 66.5t51 185.5q0 109 -53 172t-148 63
q-103 0 -154 -61.5t-51 -173.5z" />
    <glyph glyph-name="guillemotright" unicode="&#xbb;" horiz-adv-x="966" 
d="M252 86q-31 1 -55.5 15t-36.5 36q120 199 194 365q-98 210 -196 372q39 33 102 33q111 -166 221 -399q-95 -198 -229 -422zM614 86q-31 1 -55.5 15t-36.5 36q124 206 195 365q-95 203 -197 372q39 33 103 33q111 -166 221 -399q-91 -189 -230 -422z" />
    <glyph glyph-name="onequarter" unicode="&#xbc;" horiz-adv-x="1853" 
d="M1593 205v-199q-17 -10 -53 -10q-34 0 -51 10v199h-393q-17 38 -17 90l383 491q73 0 131 -22v-471h107q8 -12 8 -43q0 -29 -8 -45h-107zM1491 293v297q0 46 8 92h-6l-299 -391v-6q36 8 96 8h201zM1417 1380l-975 -1431q-59 15 -82 61l959 1401q36 -2 55 -7.5t43 -23.5z
M311 586v671l-217 -38q3 50 25 92q98 39 297 61v-786q-18 -11 -54 -11q-33 0 -51 11z" />
    <glyph glyph-name="onehalf" unicode="&#xbd;" horiz-adv-x="1853" 
d="M1403 1380l-975 -1431q-59 15 -82 61l959 1401q36 -2 55 -7.5t43 -23.5zM311 586v671l-217 -38q3 50 25 92q98 39 297 61v-786q-18 -11 -54 -11q-33 0 -51 11zM1335 98h381q8 -16 8 -47t-8 -51h-518q-16 36 -16 94q28 24 94.5 77t111.5 92t96 91.5t78 106t27 104.5
q0 65 -41.5 99t-117.5 34q-121 0 -228 -80q-6 54 25 109q89 68 223 68q112 0 181 -54.5t69 -158.5q0 -58 -24 -117.5t-59.5 -107.5t-87.5 -98t-96 -84t-98 -71v-6z" />
    <glyph glyph-name="threequarters" unicode="&#xbe;" horiz-adv-x="1853" 
d="M1632 205v-199q-17 -10 -53 -10q-34 0 -51 10v199h-393q-17 38 -17 90l383 491q73 0 131 -22v-471h107q8 -12 8 -43q0 -29 -8 -45h-107zM1530 293v297q0 46 8 92h-6l-299 -391v-6q36 8 96 8h201zM1520 1380l-975 -1431q-59 15 -82 61l958 1401q36 -2 55.5 -7.5
t43.5 -23.5zM254 934q-6 20 -4.5 46.5t10.5 41.5q272 4 272 149q0 111 -153 111q-124 0 -213 -59q-7 60 31 104q30 21 86.5 34t117.5 13q109 0 173.5 -46.5t64.5 -143.5q0 -79 -42 -130t-110 -63v-6q76 -10 126.5 -56t50.5 -136q0 -117 -86.5 -174.5t-221.5 -57.5
q-114 0 -192 33q-31 51 -25 106q84 -41 217 -41q199 0 199 136q0 73 -67 106t-234 33z" />
    <glyph glyph-name="questiondown" unicode="&#xbf;" horiz-adv-x="811" 
d="M422 999q39 0 64.5 -24t25.5 -66q0 -45 -24 -69.5t-66 -24.5q-94 0 -94 90q0 44 25.5 69t68.5 25zM788 -240q5 -36 -4.5 -76t-27.5 -63q-52 -50 -148 -85.5t-217 -35.5q-176 0 -271 80t-95 221q0 70 31 133.5t77 108.5t100.5 91.5t100.5 83.5t77 83t31 92q0 48 -14 77.5
t-51 64.5q25 49 88 59q98 -78 98 -201q0 -61 -30 -117.5t-75 -97.5t-97.5 -85.5t-97.5 -83t-75 -90t-30 -105.5q0 -86 63.5 -142.5t194.5 -56.5q212 0 372 145z" />
    <glyph glyph-name="Agrave" unicode="&#xc0;" horiz-adv-x="1302" 
d="M1130 8l-165 443h-633l-164 -443q-20 -12 -66 -12q-45 0 -61 12l534 1403q21 12 76 12q57 0 78 -12l533 -1403q-16 -12 -62 -12q-50 0 -70 12zM373 559h553l-127 342q-109 290 -148 442h-6q-38 -153 -145 -442zM387 1796l385 -192q0 -59 -37 -88l-424 190q8 26 29 51.5
t47 38.5z" />
    <glyph glyph-name="Aacute" unicode="&#xc1;" horiz-adv-x="1302" 
d="M1130 8l-165 443h-633l-164 -443q-20 -12 -66 -12q-45 0 -61 12l534 1403q21 12 76 12q57 0 78 -12l533 -1403q-16 -12 -62 -12q-50 0 -70 12zM373 559h553l-127 342q-109 290 -148 442h-6q-38 -153 -145 -442zM940 1800q42 -35 45 -100l-430 -187q-23 32 -23 95z" />
    <glyph glyph-name="Acircumflex" unicode="&#xc2;" horiz-adv-x="1302" 
d="M1130 8l-165 443h-633l-164 -443q-20 -12 -66 -12q-45 0 -61 12l534 1403q21 12 76 12q57 0 78 -12l533 -1403q-16 -12 -62 -12q-50 0 -70 12zM373 559h553l-127 342q-109 290 -148 442h-6q-38 -153 -145 -442zM647 1700l-282 -180q-29 25 -35 86l250 174q25 10 67 10
q43 0 68 -10l260 -183q-6 -56 -53 -79z" />
    <glyph glyph-name="Atilde" unicode="&#xc3;" horiz-adv-x="1302" 
d="M1130 8l-165 443h-633l-164 -443q-20 -12 -66 -12q-45 0 -61 12l534 1403q21 12 76 12q57 0 78 -12l533 -1403q-16 -12 -62 -12q-50 0 -70 12zM373 559h553l-127 342q-109 290 -148 442h-6q-38 -153 -145 -442zM291 1602q20 66 76 108.5t137 42.5q48 0 90.5 -16t69 -35
t62.5 -35t73 -16q44 0 76.5 23t44.5 61q56 0 88 -29q-20 -73 -75.5 -116.5t-141.5 -43.5q-45 0 -86 16.5t-67 36t-64 36t-78 16.5q-92 0 -125 -97q-52 6 -80 48z" />
    <glyph glyph-name="Adieresis" unicode="&#xc4;" horiz-adv-x="1302" 
d="M1130 8l-165 443h-633l-164 -443q-20 -12 -66 -12q-45 0 -61 12l534 1403q21 12 76 12q57 0 78 -12l533 -1403q-16 -12 -62 -12q-50 0 -70 12zM373 559h553l-127 342q-109 290 -148 442h-6q-38 -153 -145 -442zM870 1720q38 0 61 -21t23 -61q0 -86 -84 -86q-88 0 -88 82
q0 42 23 64t65 22zM436 1720q38 0 61 -21t23 -61q0 -86 -84 -86q-88 0 -88 82q0 42 23 64t65 22z" />
    <glyph glyph-name="Aring" unicode="&#xc5;" horiz-adv-x="1302" 
d="M1130 8l-165 443h-633l-164 -443q-20 -12 -66 -12q-45 0 -61 12l520 1358q-66 17 -100.5 64.5t-34.5 119.5q0 91 60.5 145t162.5 54q104 0 163.5 -52.5t59.5 -146.5q0 -69 -34 -116t-95 -66l519 -1360q-16 -12 -62 -12q-50 0 -70 12zM373 559h553l-127 342
q-109 290 -148 442h-6q-38 -153 -145 -442zM649 1665q-58 0 -92.5 -30t-34.5 -85q0 -54 34.5 -83t92.5 -29q56 0 91.5 29.5t35.5 82.5q0 56 -34.5 85.5t-92.5 29.5z" />
    <glyph glyph-name="AE" unicode="&#xc6;" horiz-adv-x="1970" 
d="M909 1407h924q10 -17 10 -55q0 -39 -10 -56h-733v-524h680q10 -17 10 -53q0 -38 -10 -55h-680v-551h753q11 -18 11 -56q0 -39 -11 -57h-878v473h-520l-293 -465q-24 -12 -78 -12q-46 0 -66 12zM748 938l-226 -358h453v735h-6q-98 -183 -221 -377z" />
    <glyph glyph-name="Ccedilla" unicode="&#xc7;" horiz-adv-x="1257" 
d="M657 -178l39 135q-268 22 -418.5 214.5t-150.5 516.5q0 187 51 334t142 241t213 142.5t268 48.5q187 0 317 -74q17 -20 26.5 -58t4.5 -69q-164 84 -330 84q-124 0 -225 -38t-177.5 -114.5t-118.5 -201t-42 -287.5q0 -309 147 -466.5t398 -157.5q197 0 366 88
q3 -28 -7 -64.5t-27 -56.5q-138 -78 -338 -86l-19 -80q142 -44 142 -158q0 -86 -67 -142.5t-175 -74.5q-51 23 -70 72q88 11 141.5 47t53.5 90q0 44 -40.5 74t-103.5 41z" />
    <glyph glyph-name="Egrave" unicode="&#xc8;" horiz-adv-x="1232" 
d="M221 1407h875q10 -17 10 -55q0 -39 -10 -56h-750v-524h696q11 -18 11 -53q0 -37 -11 -55h-696v-551h770q10 -17 10 -56q0 -40 -10 -57h-895v1407zM426 1796l385 -192q0 -59 -37 -88l-424 190q8 26 29 51.5t47 38.5z" />
    <glyph glyph-name="Eacute" unicode="&#xc9;" horiz-adv-x="1232" 
d="M221 1407h875q10 -17 10 -55q0 -39 -10 -56h-750v-524h696q11 -18 11 -53q0 -37 -11 -55h-696v-551h770q10 -17 10 -56q0 -40 -10 -57h-895v1407zM963 1800q42 -35 45 -100l-430 -187q-23 32 -23 95z" />
    <glyph glyph-name="Ecircumflex" unicode="&#xca;" horiz-adv-x="1232" 
d="M221 1407h875q10 -17 10 -55q0 -39 -10 -56h-750v-524h696q11 -18 11 -53q0 -37 -11 -55h-696v-551h770q10 -17 10 -56q0 -40 -10 -57h-895v1407zM672 1700l-283 -180q-29 25 -35 86l250 174q25 10 68 10q42 0 67 -10l260 -183q-6 -56 -53 -79z" />
    <glyph glyph-name="Edieresis" unicode="&#xcb;" horiz-adv-x="1232" 
d="M221 1407h875q10 -17 10 -55q0 -39 -10 -56h-750v-524h696q11 -18 11 -53q0 -37 -11 -55h-696v-551h770q10 -17 10 -56q0 -40 -10 -57h-895v1407zM897 1720q38 0 61 -21t23 -61q0 -86 -84 -86q-88 0 -88 82q0 42 23 64t65 22zM463 1720q38 0 61 -21t23 -61q0 -86 -84 -86
q-88 0 -88 82q0 42 23 64t65 22z" />
    <glyph glyph-name="Igrave" unicode="&#xcc;" horiz-adv-x="567" 
d="M221 6v1395q17 10 62 10q46 0 63 -10v-1395q-17 -10 -63 -10q-45 0 -62 10zM33 1796l385 -192q0 -59 -37 -88l-424 190q8 26 29 51.5t47 38.5z" />
    <glyph glyph-name="Iacute" unicode="&#xcd;" horiz-adv-x="567" 
d="M221 6v1395q17 10 62 10q46 0 63 -10v-1395q-17 -10 -63 -10q-45 0 -62 10zM561 1800q42 -35 45 -100l-430 -187q-22 31 -22 95z" />
    <glyph glyph-name="Icircumflex" unicode="&#xce;" horiz-adv-x="567" 
d="M221 6v1395q17 10 62 10q46 0 63 -10v-1395q-17 -10 -63 -10q-45 0 -62 10zM283 1700l-283 -180q-29 25 -35 86l250 174q25 10 68 10q42 0 67 -10l260 -183q-6 -56 -53 -79z" />
    <glyph glyph-name="Idieresis" unicode="&#xcf;" horiz-adv-x="567" 
d="M221 6v1395q17 10 62 10q46 0 63 -10v-1395q-17 -10 -63 -10q-45 0 -62 10zM473 1720q38 0 61 -21t23 -61q0 -86 -84 -86q-88 0 -88 82q0 42 23 64t65 22zM96 1720q38 0 61 -21t23 -61q0 -86 -84 -86q-88 0 -88 82q0 42 23 64t65 22z" />
    <glyph glyph-name="Eth" unicode="&#xd0;" horiz-adv-x="1411" 
d="M236 0v662h-187q-10 17 -10 51t10 51h187v633q141 24 319 24q169 0 308.5 -45t242.5 -132.5t160 -227t57 -318.5q0 -177 -54.5 -313.5t-151.5 -221.5t-225 -128t-282 -43q-205 0 -374 8zM793 662h-433v-549q117 -9 240 -9q280 0 437 149t157 437q0 154 -47.5 273.5
t-134 195t-205 114t-264.5 38.5q-106 0 -183 -13v-534h433q10 -17 10 -51t-10 -51z" />
    <glyph glyph-name="Ntilde" unicode="&#xd1;" horiz-adv-x="1513" 
d="M340 1303v-1297q-17 -10 -59 -10q-43 0 -60 10v1393q36 12 86 12q48 0 84 -12l635 -1010q89 -142 141 -283h7v1295q17 10 59 10t59 -10v-1401q-23 -10 -86 -10q-57 0 -80 10l-663 1057q-73 115 -117 246h-6zM399 1602q20 66 76 108.5t137 42.5q48 0 90.5 -16t69 -35
t62.5 -35t73 -16q44 0 76.5 23t44.5 61q56 0 88 -29q-20 -73 -75.5 -116.5t-141.5 -43.5q-45 0 -86 16.5t-67 36t-64 36t-78 16.5q-92 0 -125 -97q-52 6 -80 48z" />
    <glyph glyph-name="Ograve" unicode="&#xd2;" horiz-adv-x="1497" 
d="M750 1454q280 0 448 -192.5t168 -542.5q0 -364 -166 -565t-450 -201q-298 0 -458.5 195t-160.5 571q0 341 169.5 538t449.5 197zM260 719q0 -309 127.5 -480t362.5 -171q234 0 360.5 172.5t126.5 478.5q0 287 -132 454.5t-355 167.5q-238 0 -364 -165.5t-126 -456.5z
M502 1796l385 -192q0 -59 -37 -88l-424 190q8 26 29 51.5t47 38.5z" />
    <glyph glyph-name="Oacute" unicode="&#xd3;" horiz-adv-x="1497" 
d="M750 1454q280 0 448 -192.5t168 -542.5q0 -364 -166 -565t-450 -201q-298 0 -458.5 195t-160.5 571q0 341 169.5 538t449.5 197zM260 719q0 -309 127.5 -480t362.5 -171q234 0 360.5 172.5t126.5 478.5q0 287 -132 454.5t-355 167.5q-238 0 -364 -165.5t-126 -456.5z
M1024 1800q42 -35 45 -100l-430 -187q-23 32 -23 95z" />
    <glyph glyph-name="Ocircumflex" unicode="&#xd4;" horiz-adv-x="1497" 
d="M750 1454q280 0 448 -192.5t168 -542.5q0 -364 -166 -565t-450 -201q-298 0 -458.5 195t-160.5 571q0 341 169.5 538t449.5 197zM260 719q0 -309 127.5 -480t362.5 -171q234 0 360.5 172.5t126.5 478.5q0 287 -132 454.5t-355 167.5q-238 0 -364 -165.5t-126 -456.5z
M745 1700l-282 -180q-29 25 -35 86l250 174q25 10 67 10q43 0 68 -10l260 -183q-6 -56 -53 -79z" />
    <glyph glyph-name="Otilde" unicode="&#xd5;" horiz-adv-x="1497" 
d="M750 1454q280 0 448 -192.5t168 -542.5q0 -364 -166 -565t-450 -201q-298 0 -458.5 195t-160.5 571q0 341 169.5 538t449.5 197zM260 719q0 -309 127.5 -480t362.5 -171q234 0 360.5 172.5t126.5 478.5q0 287 -132 454.5t-355 167.5q-238 0 -364 -165.5t-126 -456.5z
M389 1602q20 66 76 108.5t137 42.5q48 0 90.5 -16t69 -35t62.5 -35t73 -16q44 0 76.5 23t44.5 61q56 0 88 -29q-20 -73 -75.5 -116.5t-141.5 -43.5q-45 0 -86 16.5t-67 36t-64 36t-78 16.5q-92 0 -125 -97q-52 6 -80 48z" />
    <glyph glyph-name="Odieresis" unicode="&#xd6;" horiz-adv-x="1497" 
d="M750 1454q280 0 448 -192.5t168 -542.5q0 -364 -166 -565t-450 -201q-298 0 -458.5 195t-160.5 571q0 341 169.5 538t449.5 197zM260 719q0 -309 127.5 -480t362.5 -171q234 0 360.5 172.5t126.5 478.5q0 287 -132 454.5t-355 167.5q-238 0 -364 -165.5t-126 -456.5z
M1034 1720q38 0 61 -21t23 -61q0 -86 -84 -86q-88 0 -88 82q0 42 23 64t65 22zM465 1720q38 0 61 -21t23 -61q0 -86 -84 -86q-88 0 -88 82q0 42 23 64t65 22z" />
    <glyph glyph-name="multiply" unicode="&#xd7;" 
d="M248 963l334 -334l325 332q58 -12 101 -58l-349 -350l357 -356q-9 -26 -30.5 -48t-49.5 -32l-356 356l-353 -354q-28 11 -49 32.5t-28 47.5l354 350l-354 352q39 46 98 62z" />
    <glyph glyph-name="Oslash" unicode="&#xd8;" horiz-adv-x="1505" 
d="M754 1454q255 0 411 -156l168 207q67 -16 88 -69l-182 -226q131 -182 131 -491q0 -364 -166 -565t-450 -201q-258 0 -414 147l-178 -219q-69 19 -84 76l188 231q-131 193 -131 531q0 341 169.5 538t449.5 197zM264 719q0 -260 90 -422l733 901q-128 143 -333 143
q-238 0 -364 -165.5t-126 -456.5zM1241 719q0 229 -88 389l-733 -905q126 -135 334 -135q234 0 360.5 172.5t126.5 478.5z" />
    <glyph glyph-name="Ugrave" unicode="&#xd9;" horiz-adv-x="1462" 
d="M328 1401v-891q0 -225 99.5 -333.5t301.5 -108.5q420 0 420 448v885q17 10 59 10q45 0 62 -10v-875q0 -276 -133 -424.5t-414 -148.5q-520 0 -520 545v903q17 10 61 10q47 0 64 -10zM496 1796l385 -192q0 -59 -37 -88l-424 190q8 26 29 51.5t47 38.5z" />
    <glyph glyph-name="Uacute" unicode="&#xda;" horiz-adv-x="1462" 
d="M328 1401v-891q0 -225 99.5 -333.5t301.5 -108.5q420 0 420 448v885q17 10 59 10q45 0 62 -10v-875q0 -276 -133 -424.5t-414 -148.5q-520 0 -520 545v903q17 10 61 10q47 0 64 -10zM1008 1800q42 -35 45 -100l-430 -187q-23 32 -23 95z" />
    <glyph glyph-name="Ucircumflex" unicode="&#xdb;" horiz-adv-x="1462" 
d="M328 1401v-891q0 -225 99.5 -333.5t301.5 -108.5q420 0 420 448v885q17 10 59 10q45 0 62 -10v-875q0 -276 -133 -424.5t-414 -148.5q-520 0 -520 545v903q17 10 61 10q47 0 64 -10zM735 1700l-282 -180q-29 25 -35 86l250 174q25 10 67 10q43 0 68 -10l260 -183
q-6 -56 -53 -79z" />
    <glyph glyph-name="Udieresis" unicode="&#xdc;" horiz-adv-x="1462" 
d="M328 1401v-891q0 -225 99.5 -333.5t301.5 -108.5q420 0 420 448v885q17 10 59 10q45 0 62 -10v-875q0 -276 -133 -424.5t-414 -148.5q-520 0 -520 545v903q17 10 61 10q47 0 64 -10zM958 1720q38 0 61 -21t23 -61q0 -86 -84 -86q-88 0 -88 82q0 42 23 64t65 22zM524 1720
q38 0 61 -21t23 -61q0 -86 -84 -86q-88 0 -88 82q0 42 23 64t65 22z" />
    <glyph glyph-name="Yacute" unicode="&#xdd;" horiz-adv-x="1148" 
d="M514 526l-485 873q16 12 65 12q54 0 74 -12l321 -584q55 -98 89 -209h6q31 111 86 209l319 584q20 12 72 12q47 0 63 -12l-485 -877v-516q-17 -10 -64 -10q-44 0 -61 10v520zM860 1800q42 -35 45 -100l-430 -187q-22 31 -22 95z" />
    <glyph glyph-name="Thorn" unicode="&#xde;" horiz-adv-x="1155" 
d="M221 6v1395q17 10 62 10q46 0 63 -10v-268q95 18 221 18q265 0 413 -109t148 -331q0 -110 -37.5 -194.5t-106.5 -137t-161 -79t-205 -26.5q-150 0 -272 23v-291q-17 -10 -63 -10q-45 0 -62 10zM346 1020v-610q118 -23 256 -23q397 0 397 313q0 338 -448 338
q-118 0 -205 -18z" />
    <glyph glyph-name="germandbls" unicode="&#xdf;" horiz-adv-x="1249" 
d="M494 158q56 -43 144.5 -69t170.5 -26q121 0 190.5 52t69.5 149q0 52 -21 93t-55 66t-77.5 49t-89 42.5t-89 45t-77.5 56.5t-55 79t-21 110q0 59 16.5 105.5t42.5 76.5t57.5 54.5t63.5 45t58 42t42.5 52t16.5 68.5q0 87 -66 128.5t-164 41.5q-72 0 -130 -23.5
t-106.5 -76.5t-75 -149t-26.5 -230v-934q-17 -10 -59 -10t-59 10v930q0 159 35 275.5t99 183.5t143.5 98t178.5 31q62 0 117.5 -12t108.5 -39t84.5 -81t31.5 -128q0 -56 -16 -99.5t-41.5 -71.5t-56 -51t-61 -44t-56 -43.5t-41.5 -56.5t-16 -77q0 -48 21 -86t54.5 -61.5
t77 -46.5t89 -41t89 -46t77 -60.5t54.5 -85.5t21 -120q0 -83 -30.5 -145.5t-84.5 -98.5t-121 -53.5t-147 -17.5q-81 0 -158 18.5t-129 51.5q-16 22 -22.5 60t-1.5 69z" />
    <glyph glyph-name="agrave" unicode="&#xe0;" horiz-adv-x="1050" 
d="M729 74h-6q-97 -115 -291 -115q-68 0 -125 16.5t-103.5 50t-73 91.5t-26.5 135q0 111 53.5 185t140.5 106t204 32q135 0 221 -34v82q0 149 -54.5 214.5t-183.5 65.5q-163 0 -307 -94q-7 26 -3 63t18 60q53 35 139 57.5t180 22.5q168 0 248 -85.5t80 -285.5v-489
q0 -48 18.5 -66t52.5 -18q65 0 101 32q3 -64 -25 -106q-44 -35 -115 -35q-57 0 -95 29t-48 86zM723 186v256q-103 35 -209 35q-141 0 -216 -58t-75 -161q0 -94 65.5 -142t168.5 -48q79 0 152.5 29t113.5 89zM616 1186q-20 -44 -79 -56l-261 306q40 37 119 37z" />
    <glyph glyph-name="aacute" unicode="&#xe1;" horiz-adv-x="1050" 
d="M729 74h-6q-97 -115 -291 -115q-68 0 -125 16.5t-103.5 50t-73 91.5t-26.5 135q0 111 53.5 185t140.5 106t204 32q135 0 221 -34v82q0 149 -54.5 214.5t-183.5 65.5q-163 0 -307 -94q-7 26 -3 63t18 60q53 35 139 57.5t180 22.5q168 0 248 -85.5t80 -285.5v-489
q0 -48 18.5 -66t52.5 -18q65 0 101 32q3 -64 -25 -106q-44 -35 -115 -35q-57 0 -95 29t-48 86zM723 186v256q-103 35 -209 35q-141 0 -216 -58t-75 -161q0 -94 65.5 -142t168.5 -48q79 0 152.5 29t113.5 89zM731 1434l-270 -306q-52 12 -72 54l232 288q71 0 110 -36z" />
    <glyph glyph-name="acircumflex" unicode="&#xe2;" horiz-adv-x="1050" 
d="M729 74h-6q-97 -115 -291 -115q-68 0 -125 16.5t-103.5 50t-73 91.5t-26.5 135q0 111 53.5 185t140.5 106t204 32q135 0 221 -34v82q0 149 -54.5 214.5t-183.5 65.5q-163 0 -307 -94q-7 26 -3 63t18 60q53 35 139 57.5t180 22.5q168 0 248 -85.5t80 -285.5v-489
q0 -48 18.5 -66t52.5 -18q65 0 101 32q3 -64 -25 -106q-44 -35 -115 -35q-57 0 -95 29t-48 86zM723 186v256q-103 35 -209 35q-141 0 -216 -58t-75 -161q0 -94 65.5 -142t168.5 -48q79 0 152.5 29t113.5 89zM227 1198l219 254q40 14 105 14l233 -282q-20 -45 -73 -62
l-211 244l-224 -250q-40 32 -49 82z" />
    <glyph glyph-name="atilde" unicode="&#xe3;" horiz-adv-x="1050" 
d="M729 74h-6q-97 -115 -291 -115q-68 0 -125 16.5t-103.5 50t-73 91.5t-26.5 135q0 111 53.5 185t140.5 106t204 32q135 0 221 -34v82q0 149 -54.5 214.5t-183.5 65.5q-163 0 -307 -94q-7 26 -3 63t18 60q53 35 139 57.5t180 22.5q168 0 248 -85.5t80 -285.5v-489
q0 -48 18.5 -66t52.5 -18q65 0 101 32q3 -64 -25 -106q-44 -35 -115 -35q-57 0 -95 29t-48 86zM723 186v256q-103 35 -209 35q-141 0 -216 -58t-75 -161q0 -94 65.5 -142t168.5 -48q79 0 152.5 29t113.5 89zM809 1311q-12 -76 -58.5 -119t-119.5 -43q-40 0 -78 16.5
t-63.5 36.5t-58.5 36.5t-64 16.5q-83 0 -109 -98q-25 5 -45.5 20.5t-26.5 36.5q15 63 63.5 103.5t115.5 40.5q54 0 102.5 -27t88.5 -53.5t75 -26.5q77 0 92 88q51 0 86 -28z" />
    <glyph glyph-name="adieresis" unicode="&#xe4;" horiz-adv-x="1050" 
d="M729 74h-6q-97 -115 -291 -115q-68 0 -125 16.5t-103.5 50t-73 91.5t-26.5 135q0 111 53.5 185t140.5 106t204 32q135 0 221 -34v82q0 149 -54.5 214.5t-183.5 65.5q-163 0 -307 -94q-7 26 -3 63t18 60q53 35 139 57.5t180 22.5q168 0 248 -85.5t80 -285.5v-489
q0 -48 18.5 -66t52.5 -18q65 0 101 32q3 -64 -25 -106q-44 -35 -115 -35q-57 0 -95 29t-48 86zM723 186v256q-103 35 -209 35q-141 0 -216 -58t-75 -161q0 -94 65.5 -142t168.5 -48q79 0 152.5 29t113.5 89zM301 1337q36 0 58 -20.5t22 -59.5q0 -81 -80 -81q-82 0 -82 79
q0 39 21.5 60.5t60.5 21.5zM698 1337q36 0 58 -20.5t22 -59.5q0 -81 -80 -81q-82 0 -82 79q0 39 21.5 60.5t60.5 21.5z" />
    <glyph glyph-name="aring" unicode="&#xe5;" horiz-adv-x="1050" 
d="M729 74h-6q-97 -115 -291 -115q-68 0 -125 16.5t-103.5 50t-73 91.5t-26.5 135q0 111 53.5 185t140.5 106t204 32q135 0 221 -34v82q0 149 -54.5 214.5t-183.5 65.5q-163 0 -307 -94q-7 26 -3 63t18 60q53 35 139 57.5t180 22.5q168 0 248 -85.5t80 -285.5v-489
q0 -48 18.5 -66t52.5 -18q65 0 101 32q3 -64 -25 -106q-44 -35 -115 -35q-57 0 -95 29t-48 86zM723 186v256q-103 35 -209 35q-141 0 -216 -58t-75 -161q0 -94 65.5 -142t168.5 -48q79 0 152.5 29t113.5 89zM500 1489q91 0 143.5 -50t52.5 -139q0 -88 -53.5 -137t-142.5 -49
q-95 0 -147 48.5t-52 137.5q0 85 53.5 137t145.5 52zM500 1409q-50 0 -80.5 -28.5t-30.5 -80.5t29.5 -79t81.5 -27q47 0 77.5 28t30.5 78q0 53 -29 81t-79 28z" />
    <glyph glyph-name="ae" unicode="&#xe6;" horiz-adv-x="1673" 
d="M842 459q3 -194 110 -292.5t291 -98.5q163 0 297 82q6 -64 -29 -113q-116 -78 -299 -78q-134 0 -238 49.5t-157 136.5h-6q-48 -79 -141.5 -132.5t-231.5 -53.5q-70 0 -129 16t-106.5 49.5t-74 91.5t-26.5 136q0 112 55 189t144 112t205 35q122 0 217 -29v64
q0 149 -54.5 214.5t-185.5 65.5q-163 0 -307 -94q-8 26 -3.5 63t17.5 60q53 35 138.5 57.5t177.5 22.5q137 0 210.5 -52.5t90.5 -164.5h6q42 99 142.5 158t234.5 59q180 0 274.5 -109.5t94.5 -286.5q0 -89 -23 -157h-694zM459 68q201 0 309 163q-42 89 -45 230
q-96 28 -201 28q-146 0 -223.5 -59t-77.5 -166q0 -99 65 -147.5t173 -48.5zM844 561h596q7 62 -1.5 119t-35 110t-83 85t-138.5 32q-146 0 -236 -95.5t-102 -250.5z" />
    <glyph glyph-name="ccedilla" unicode="&#xe7;" horiz-adv-x="980" 
d="M479 -162l37 123q-193 19 -297 154.5t-104 365.5q0 135 37 238t102.5 166.5t151 95t188.5 31.5q153 0 248 -64q34 -53 24 -121q-126 74 -254 74q-177 0 -276.5 -103t-99.5 -309q0 -203 98 -310t272 -107q148 0 277 80q5 -29 -5 -66t-28 -55q-99 -64 -240 -70l-16 -74
q119 -44 119 -149q0 -80 -60 -132.5t-157 -70.5q-50 24 -68 70q78 11 125 43.5t47 81.5q0 41 -33.5 69t-87.5 39z" />
    <glyph glyph-name="egrave" unicode="&#xe8;" horiz-adv-x="1064" 
d="M928 459h-695q3 -194 110.5 -292.5t291.5 -98.5q163 0 297 82q6 -64 -29 -113q-116 -78 -299 -78q-230 0 -360.5 140.5t-130.5 375.5q0 236 126 386.5t341 150.5q182 0 276 -109t94 -287q0 -92 -22 -157zM236 561h595q7 62 -1.5 119t-35 110t-83 85t-138.5 32
q-146 0 -235.5 -95.5t-101.5 -250.5zM674 1186q-20 -44 -80 -56l-260 306q40 37 119 37z" />
    <glyph glyph-name="eacute" unicode="&#xe9;" horiz-adv-x="1064" 
d="M928 459h-695q3 -194 110.5 -292.5t291.5 -98.5q163 0 297 82q6 -64 -29 -113q-116 -78 -299 -78q-230 0 -360.5 140.5t-130.5 375.5q0 236 126 386.5t341 150.5q182 0 276 -109t94 -287q0 -92 -22 -157zM236 561h595q7 62 -1.5 119t-35 110t-83 85t-138.5 32
q-146 0 -235.5 -95.5t-101.5 -250.5zM793 1434l-271 -306q-51 12 -71 54l231 288q72 0 111 -36z" />
    <glyph glyph-name="ecircumflex" unicode="&#xea;" horiz-adv-x="1064" 
d="M928 459h-695q3 -194 110.5 -292.5t291.5 -98.5q163 0 297 82q6 -64 -29 -113q-116 -78 -299 -78q-230 0 -360.5 140.5t-130.5 375.5q0 236 126 386.5t341 150.5q182 0 276 -109t94 -287q0 -92 -22 -157zM236 561h595q7 62 -1.5 119t-35 110t-83 85t-138.5 32
q-146 0 -235.5 -95.5t-101.5 -250.5zM287 1198l219 254q40 14 104 14l234 -282q-20 -45 -74 -62l-211 244l-223 -250q-40 32 -49 82z" />
    <glyph glyph-name="edieresis" unicode="&#xeb;" horiz-adv-x="1064" 
d="M928 459h-695q3 -194 110.5 -292.5t291.5 -98.5q163 0 297 82q6 -64 -29 -113q-116 -78 -299 -78q-230 0 -360.5 140.5t-130.5 375.5q0 236 126 386.5t341 150.5q182 0 276 -109t94 -287q0 -92 -22 -157zM236 561h595q7 62 -1.5 119t-35 110t-83 85t-138.5 32
q-146 0 -235.5 -95.5t-101.5 -250.5zM365 1337q36 0 57.5 -20.5t21.5 -59.5q0 -81 -79 -81q-82 0 -82 79q0 39 21.5 60.5t60.5 21.5zM762 1337q36 0 58 -20.5t22 -59.5q0 -81 -80 -81q-82 0 -82 79q0 39 21.5 60.5t60.5 21.5z" />
    <glyph glyph-name="igrave" unicode="&#xec;" horiz-adv-x="512" 
d="M197 6v959q17 10 59 10t59 -10v-959q-17 -10 -59 -10t-59 10zM373 1186q-20 -44 -80 -56l-260 306q40 37 119 37z" />
    <glyph glyph-name="iacute" unicode="&#xed;" horiz-adv-x="512" 
d="M197 6v959q17 10 59 10t59 -10v-959q-17 -10 -59 -10t-59 10zM483 1434l-270 -306q-52 12 -72 54l232 288q71 0 110 -36z" />
    <glyph glyph-name="icircumflex" unicode="&#xee;" horiz-adv-x="512" 
d="M-18 1198l219 254q40 14 104 14l234 -282q-20 -45 -74 -62l-211 244l-223 -250q-40 32 -49 82zM197 6v959q17 10 59 10t59 -10v-959q-17 -10 -59 -10t-59 10z" />
    <glyph glyph-name="idieresis" unicode="&#xef;" horiz-adv-x="512" 
d="M197 6v959q17 10 59 10t59 -10v-959q-17 -10 -59 -10t-59 10zM96 1337q36 0 58 -20.5t22 -59.5q0 -81 -80 -81q-82 0 -82 79q0 39 21.5 60.5t60.5 21.5zM420 1337q36 0 58 -20.5t22 -59.5q0 -81 -80 -81q-82 0 -82 79q0 39 21.5 60.5t60.5 21.5z" />
    <glyph glyph-name="eth" unicode="&#xf0;" horiz-adv-x="1134" 
d="M307 1522q251 -53 410 -179l198 109q17 -12 30 -34t16 -44l-175 -94q224 -230 224 -684q0 -100 -14.5 -189t-49.5 -172.5t-87.5 -143.5t-135 -96t-186.5 -36q-197 0 -314 123.5t-117 345.5q0 226 121.5 367t337.5 141q204 0 307 -129h7q-44 272 -197 422l-301 -164
q-16 39 -16 92l243 133q-135 98 -350 148q8 47 49 84zM883 688q-132 139 -301 139q-168 0 -262.5 -105t-94.5 -286q0 -170 85 -268t233 -98q79 0 141 30t99.5 79t62 117t34 137.5t9.5 148.5q0 60 -6 106z" />
    <glyph glyph-name="ntilde" unicode="&#xf1;" horiz-adv-x="1177" 
d="M315 729v-723q-17 -10 -59 -10t-59 10v961q37 18 98 18l8 -139h6q102 166 348 166q45 0 82.5 -6t77.5 -21t70 -43t55 -69.5t38 -104.5t13 -143v-619q-17 -10 -59 -10q-43 0 -60 10v594q0 149 -55 225t-192 76q-115 0 -194.5 -49.5t-117.5 -122.5zM915 1311
q-12 -76 -58.5 -119t-119.5 -43q-40 0 -78 16.5t-63.5 36.5t-58.5 36.5t-64 16.5q-82 0 -108 -98q-25 5 -45.5 20.5t-26.5 36.5q15 63 63 103.5t115 40.5q54 0 102.5 -27t88.5 -53.5t75 -26.5q77 0 92 88q51 0 86 -28z" />
    <glyph glyph-name="ograve" unicode="&#xf2;" horiz-adv-x="1126" 
d="M565 1012q206 0 325.5 -133t119.5 -379q0 -259 -118.5 -400t-326.5 -141q-219 0 -333.5 137t-114.5 404q0 241 120.5 376.5t327.5 135.5zM238 500q0 -207 83 -320.5t244 -113.5q159 0 241.5 114.5t82.5 319.5q0 189 -85.5 297t-238.5 108q-161 0 -244 -107.5t-83 -297.5z
M680 1186q-20 -44 -80 -56l-260 306q40 37 119 37z" />
    <glyph glyph-name="oacute" unicode="&#xf3;" horiz-adv-x="1126" 
d="M565 1012q206 0 325.5 -133t119.5 -379q0 -259 -118.5 -400t-326.5 -141q-219 0 -333.5 137t-114.5 404q0 241 120.5 376.5t327.5 135.5zM238 500q0 -207 83 -320.5t244 -113.5q159 0 241.5 114.5t82.5 319.5q0 189 -85.5 297t-238.5 108q-161 0 -244 -107.5t-83 -297.5z
M793 1434l-271 -306q-51 12 -71 54l231 288q72 0 111 -36z" />
    <glyph glyph-name="ocircumflex" unicode="&#xf4;" horiz-adv-x="1126" 
d="M565 1012q206 0 325.5 -133t119.5 -379q0 -259 -118.5 -400t-326.5 -141q-219 0 -333.5 137t-114.5 404q0 241 120.5 376.5t327.5 135.5zM238 500q0 -207 83 -320.5t244 -113.5q159 0 241.5 114.5t82.5 319.5q0 189 -85.5 297t-238.5 108q-161 0 -244 -107.5t-83 -297.5z
M289 1198l219 254q40 14 104 14l234 -282q-20 -45 -74 -62l-211 244l-223 -250q-40 32 -49 82z" />
    <glyph glyph-name="otilde" unicode="&#xf5;" horiz-adv-x="1126" 
d="M565 1012q206 0 325.5 -133t119.5 -379q0 -259 -118.5 -400t-326.5 -141q-219 0 -333.5 137t-114.5 404q0 241 120.5 376.5t327.5 135.5zM238 500q0 -207 83 -320.5t244 -113.5q159 0 241.5 114.5t82.5 319.5q0 189 -85.5 297t-238.5 108q-161 0 -244 -107.5t-83 -297.5z
M874 1311q-12 -76 -58.5 -119t-119.5 -43q-40 0 -78 16.5t-63.5 36.5t-58.5 36.5t-64 16.5q-82 0 -108 -98q-25 5 -45.5 20.5t-26.5 36.5q15 63 63 103.5t115 40.5q54 0 102.5 -27t88.5 -53.5t75 -26.5q77 0 92 88q51 0 86 -28z" />
    <glyph glyph-name="odieresis" unicode="&#xf6;" horiz-adv-x="1126" 
d="M565 1012q206 0 325.5 -133t119.5 -379q0 -259 -118.5 -400t-326.5 -141q-219 0 -333.5 137t-114.5 404q0 241 120.5 376.5t327.5 135.5zM238 500q0 -207 83 -320.5t244 -113.5q159 0 241.5 114.5t82.5 319.5q0 189 -85.5 297t-238.5 108q-161 0 -244 -107.5t-83 -297.5z
M348 1337q36 0 58 -20.5t22 -59.5q0 -81 -80 -81q-82 0 -82 79q0 39 21.5 60.5t60.5 21.5zM786 1337q36 0 58 -20.5t22 -59.5q0 -81 -80 -81q-81 0 -81 79q0 39 21.5 60.5t59.5 21.5z" />
    <glyph glyph-name="divide" unicode="&#xf7;" 
d="M133 602h907q9 -18 9 -53q0 -37 -9 -55h-925q0 68 18 108zM584 238q36 0 59 -22t23 -60q0 -41 -21.5 -63.5t-60.5 -22.5q-41 0 -63.5 21t-22.5 61t23 63t63 23zM584 1028q36 0 59 -22t23 -60q0 -41 -21.5 -63.5t-60.5 -22.5q-41 0 -63.5 21t-22.5 61t23 63t63 23z" />
    <glyph glyph-name="oslash" unicode="&#xf8;" horiz-adv-x="1138" 
d="M571 1012q170 0 279 -86l106 133q58 -12 84 -62l-116 -147q96 -135 96 -350q0 -259 -119.5 -400t-329.5 -141q-177 0 -290 90l-123 -153q-47 33 -60 94l113 137q-92 136 -92 373q0 241 121.5 376.5t330.5 135.5zM899 500q0 149 -57 254l-488 -609q82 -79 217 -79
q160 0 244 114.5t84 319.5zM240 500q0 -171 55 -273l483 604q-80 74 -207 74q-162 0 -246.5 -107.5t-84.5 -297.5z" />
    <glyph glyph-name="ugrave" unicode="&#xf9;" horiz-adv-x="1171" 
d="M864 100h-6q-100 -141 -334 -141q-55 0 -99.5 8t-91 33.5t-78 67t-51.5 113t-20 167.5v608q45 25 119 25v-608q0 -153 56.5 -228t195.5 -75q103 0 181 39.5t120 99.5v756q17 10 59 10q43 0 60 -10v-961q-35 -18 -92 -18zM698 1186q-20 -44 -80 -56l-260 306q40 37 119 37
z" />
    <glyph glyph-name="uacute" unicode="&#xfa;" horiz-adv-x="1171" 
d="M864 100h-6q-100 -141 -334 -141q-55 0 -99.5 8t-91 33.5t-78 67t-51.5 113t-20 167.5v608q45 25 119 25v-608q0 -153 56.5 -228t195.5 -75q103 0 181 39.5t120 99.5v756q17 10 59 10q43 0 60 -10v-961q-35 -18 -92 -18zM813 1434l-270 -306q-52 12 -72 54l231 288
q72 0 111 -36z" />
    <glyph glyph-name="ucircumflex" unicode="&#xfb;" horiz-adv-x="1171" 
d="M864 100h-6q-100 -141 -334 -141q-55 0 -99.5 8t-91 33.5t-78 67t-51.5 113t-20 167.5v608q45 25 119 25v-608q0 -153 56.5 -228t195.5 -75q103 0 181 39.5t120 99.5v756q17 10 59 10q43 0 60 -10v-961q-35 -18 -92 -18zM317 1198l220 254q40 14 104 14l233 -282
q-20 -45 -73 -62l-211 244l-223 -250q-42 33 -50 82z" />
    <glyph glyph-name="udieresis" unicode="&#xfc;" horiz-adv-x="1171" 
d="M864 100h-6q-100 -141 -334 -141q-55 0 -99.5 8t-91 33.5t-78 67t-51.5 113t-20 167.5v608q45 25 119 25v-608q0 -153 56.5 -228t195.5 -75q103 0 181 39.5t120 99.5v756q17 10 59 10q43 0 60 -10v-961q-35 -18 -92 -18zM395 1337q36 0 58 -20.5t22 -59.5q0 -81 -80 -81
q-82 0 -82 79q0 39 21.5 60.5t60.5 21.5zM793 1337q36 0 57.5 -20.5t21.5 -59.5q0 -81 -79 -81q-82 0 -82 79q0 39 21.5 60.5t60.5 21.5z" />
    <glyph glyph-name="yacute" unicode="&#xfd;" horiz-adv-x="972" 
d="M504 39h6q16 95 55 205l264 725q20 8 48 8q47 0 69 -16l-160 -426q-175 -467 -245 -611q-81 -165 -185.5 -261.5t-267.5 -151.5q-47 37 -53 100q280 78 399 354l-397 996q22 16 74 16q29 0 49 -8l284 -725q40 -99 60 -205zM725 1434l-270 -306q-52 12 -72 54l231 288
q72 0 111 -36z" />
    <glyph glyph-name="thorn" unicode="&#xfe;" horiz-adv-x="1146" 
d="M315 -2v-459q-17 -10 -59 -10t-59 10v1929q45 25 118 25v-410q0 -145 -12 -225h6q36 67 117.5 110.5t194.5 43.5q66 0 124 -15t111.5 -51.5t91.5 -92t61 -142.5t23 -197q0 -259 -130 -407t-367 -148q-140 0 -220 39zM315 104q79 -36 199 -36q203 0 300 118.5t97 315.5
q0 195 -81.5 298t-233.5 103q-175 0 -281 -151v-648z" />
    <glyph glyph-name="ydieresis" unicode="&#xff;" horiz-adv-x="972" 
d="M504 39h6q16 95 55 205l264 725q20 8 48 8q47 0 69 -16l-160 -426q-175 -467 -245 -611q-81 -165 -185.5 -261.5t-267.5 -151.5q-47 37 -53 100q280 78 399 354l-397 996q22 16 74 16q29 0 49 -8l284 -725q40 -99 60 -205zM305 1337q36 0 58 -20.5t22 -59.5
q0 -81 -80 -81q-82 0 -82 79q0 39 21.5 60.5t60.5 21.5zM702 1337q36 0 58 -20.5t22 -59.5q0 -81 -80 -81q-81 0 -81 79q0 39 21.5 60.5t59.5 21.5z" />
    <glyph glyph-name="Amacron" unicode="&#x100;" horiz-adv-x="1302" 
d="M1130 8l-165 443h-633l-164 -443q-20 -12 -66 -12q-45 0 -61 12l534 1403q21 12 76 12q57 0 78 -12l533 -1403q-16 -12 -62 -12q-50 0 -70 12zM373 559h553l-127 342q-109 290 -148 442h-6q-38 -153 -145 -442zM356 1694h588q10 -15 10 -49q0 -35 -10 -50h-588
q-10 10 -10 50q0 39 10 49z" />
    <glyph glyph-name="amacron" unicode="&#x101;" horiz-adv-x="1050" 
d="M729 74h-6q-97 -115 -291 -115q-68 0 -125 16.5t-103.5 50t-73 91.5t-26.5 135q0 111 53.5 185t140.5 106t204 32q135 0 221 -34v82q0 149 -54.5 214.5t-183.5 65.5q-163 0 -307 -94q-7 26 -3 63t18 60q53 35 139 57.5t180 22.5q168 0 248 -85.5t80 -285.5v-489
q0 -48 18.5 -66t52.5 -18q65 0 101 32q3 -64 -25 -106q-44 -35 -115 -35q-57 0 -95 29t-48 86zM723 186v256q-103 35 -209 35q-141 0 -216 -58t-75 -161q0 -94 65.5 -142t168.5 -48q79 0 152.5 29t113.5 89zM244 1303h516q8 -12 8 -48q0 -35 -8 -47h-533q0 49 17 95z" />
    <glyph glyph-name="Abreve" unicode="&#x102;" horiz-adv-x="1302" 
d="M1130 8l-165 443h-633l-164 -443q-20 -12 -66 -12q-45 0 -61 12l534 1403q21 12 76 12q57 0 78 -12l533 -1403q-16 -12 -62 -12q-50 0 -70 12zM373 559h553l-127 342q-109 290 -148 442h-6q-38 -153 -145 -442zM877 1798q57 0 92 -24q-26 -109 -110.5 -173.5
t-215.5 -64.5q-134 0 -212 57.5t-97 165.5q31 39 96 45q19 -90 73.5 -131t149.5 -41q84 0 141.5 43.5t82.5 122.5z" />
    <glyph glyph-name="abreve" unicode="&#x103;" horiz-adv-x="1050" 
d="M729 74h-6q-97 -115 -291 -115q-68 0 -125 16.5t-103.5 50t-73 91.5t-26.5 135q0 111 53.5 185t140.5 106t204 32q135 0 221 -34v82q0 149 -54.5 214.5t-183.5 65.5q-163 0 -307 -94q-7 26 -3 63t18 60q53 35 139 57.5t180 22.5q168 0 248 -85.5t80 -285.5v-489
q0 -48 18.5 -66t52.5 -18q65 0 101 32q3 -64 -25 -106q-44 -35 -115 -35q-57 0 -95 29t-48 86zM723 186v256q-103 35 -209 35q-141 0 -216 -58t-75 -161q0 -94 65.5 -142t168.5 -48q79 0 152.5 29t113.5 89zM303 1452q19 -217 197 -217q156 0 198 209q63 0 90 -27
q-19 -128 -97 -203t-202 -75t-194 68.5t-88 197.5q35 41 96 47z" />
    <glyph glyph-name="Aogonek" unicode="&#x104;" horiz-adv-x="1302" 
d="M1262 -362q24 -34 24 -91q-38 -18 -104 -18q-101 0 -167.5 54.5t-66.5 162.5q0 188 182 262l-165 443h-633l-164 -443q-20 -12 -66 -12q-45 0 -61 12l534 1403q21 12 76 12q57 0 78 -12l533 -1403q-197 -101 -197 -244q0 -64 40 -100.5t103 -36.5q29 0 54 11zM373 559
h553l-127 342q-109 290 -148 442h-6q-38 -153 -145 -442z" />
    <glyph glyph-name="aogonek" unicode="&#x105;" horiz-adv-x="1050" 
d="M1020 -334q24 -30 24 -86q-40 -18 -100 -18q-97 0 -160 52t-63 153q0 68 28 118t74 74v6q-79 23 -94 109h-6q-97 -115 -291 -115q-68 0 -125 16.5t-103.5 50t-73 91.5t-26.5 135q0 111 53.5 185t140.5 106t204 32q135 0 221 -34v82q0 149 -54.5 214.5t-183.5 65.5
q-163 0 -307 -94q-7 26 -3 63t18 60q53 35 139 57.5t180 22.5q168 0 248 -85.5t80 -285.5v-489q0 -48 18.5 -66t52.5 -18q65 0 101 32q3 -64 -25 -106q-151 -91 -151 -207q0 -63 38.5 -96t100.5 -33q21 0 45 8zM723 186v256q-103 35 -209 35q-141 0 -216 -58t-75 -161
q0 -94 65.5 -142t168.5 -48q79 0 152.5 29t113.5 89z" />
    <glyph glyph-name="Cacute" unicode="&#x106;" horiz-adv-x="1257" 
d="M1149 1253q-164 84 -330 84q-124 0 -225 -38t-177.5 -114.5t-118.5 -201t-42 -287.5q0 -309 147 -466.5t398 -157.5q197 0 366 88q3 -28 -7 -64.5t-27 -56.5q-154 -86 -367 -86q-300 0 -469.5 195t-169.5 540q0 187 51 334t142 241t213 142.5t268 48.5q187 0 317 -74
q17 -20 26.5 -58t4.5 -69zM1059 1800q42 -35 45 -100l-430 -187q-23 32 -23 95z" />
    <glyph glyph-name="cacute" unicode="&#x107;" horiz-adv-x="980" 
d="M866 827q-126 74 -254 74q-177 0 -276.5 -103t-99.5 -309q0 -203 98 -310t272 -107q148 0 277 80q5 -29 -5 -66t-28 -55q-111 -72 -279 -72q-218 0 -337 138t-119 384q0 135 37 238t102.5 166.5t151 95t188.5 31.5q153 0 248 -64q34 -53 24 -121zM801 1434l-271 -306
q-51 12 -71 54l231 288q72 0 111 -36z" />
    <glyph glyph-name="Ccircumflex" unicode="&#x108;" horiz-adv-x="1257" 
d="M1149 1253q-164 84 -330 84q-124 0 -225 -38t-177.5 -114.5t-118.5 -201t-42 -287.5q0 -309 147 -466.5t398 -157.5q197 0 366 88q3 -28 -7 -64.5t-27 -56.5q-154 -86 -367 -86q-300 0 -469.5 195t-169.5 540q0 187 51 334t142 241t213 142.5t268 48.5q187 0 317 -74
q17 -20 26.5 -58t4.5 -69zM772 1700l-283 -180q-28 24 -34 86l250 174q25 10 67 10q43 0 68 -10l260 -183q-6 -56 -53 -79z" />
    <glyph glyph-name="ccircumflex" unicode="&#x109;" horiz-adv-x="980" 
d="M866 827q-126 74 -254 74q-177 0 -276.5 -103t-99.5 -309q0 -203 98 -310t272 -107q148 0 277 80q5 -29 -5 -66t-28 -55q-111 -72 -279 -72q-218 0 -337 138t-119 384q0 135 37 238t102.5 166.5t151 95t188.5 31.5q153 0 248 -64q34 -53 24 -121zM289 1198l219 254
q40 14 104 14l234 -282q-20 -45 -74 -62l-211 244l-223 -250q-40 32 -49 82z" />
    <glyph glyph-name="Cdotaccent" unicode="&#x10a;" horiz-adv-x="1257" 
d="M1149 1253q-164 84 -330 84q-124 0 -225 -38t-177.5 -114.5t-118.5 -201t-42 -287.5q0 -309 147 -466.5t398 -157.5q197 0 366 88q3 -28 -7 -64.5t-27 -56.5q-154 -86 -367 -86q-300 0 -469.5 195t-169.5 540q0 187 51 334t142 241t213 142.5t268 48.5q187 0 317 -74
q17 -20 26.5 -58t4.5 -69zM776 1735q41 0 64.5 -22.5t23.5 -65.5q0 -91 -88 -91q-90 0 -90 89q0 44 23.5 67t66.5 23z" />
    <glyph glyph-name="cdotaccent" unicode="&#x10b;" horiz-adv-x="980" 
d="M866 827q-126 74 -254 74q-177 0 -276.5 -103t-99.5 -309q0 -203 98 -310t272 -107q148 0 277 80q5 -29 -5 -66t-28 -55q-111 -72 -279 -72q-218 0 -337 138t-119 384q0 135 37 238t102.5 166.5t151 95t188.5 31.5q153 0 248 -64q34 -53 24 -121zM567 1346q38 0 61 -22
t23 -62q0 -86 -84 -86q-86 0 -86 84q0 41 23 63.5t63 22.5z" />
    <glyph glyph-name="Ccaron" unicode="&#x10c;" horiz-adv-x="1257" 
d="M1149 1253q-164 84 -330 84q-124 0 -225 -38t-177.5 -114.5t-118.5 -201t-42 -287.5q0 -309 147 -466.5t398 -157.5q197 0 366 88q3 -28 -7 -64.5t-27 -56.5q-154 -86 -367 -86q-300 0 -469.5 195t-169.5 540q0 187 51 334t142 241t213 142.5t268 48.5q187 0 317 -74
q17 -20 26.5 -58t4.5 -69zM516 1804l258 -176l275 174q46 -22 55 -76l-264 -180q-25 -10 -68 -10q-42 0 -67 10l-261 191q17 46 72 67z" />
    <glyph glyph-name="ccaron" unicode="&#x10d;" horiz-adv-x="980" 
d="M866 827q-126 74 -254 74q-177 0 -276.5 -103t-99.5 -309q0 -203 98 -310t272 -107q148 0 277 80q5 -29 -5 -66t-28 -55q-111 -72 -279 -72q-218 0 -337 138t-119 384q0 135 37 238t102.5 166.5t151 95t188.5 31.5q153 0 248 -64q34 -53 24 -121zM514 1135l-233 284
q28 38 86 45l200 -231l213 237q49 -12 68 -55l-225 -268q-40 -12 -109 -12z" />
    <glyph glyph-name="Dcaron" unicode="&#x10e;" horiz-adv-x="1396" 
d="M221 0v1397q141 24 320 24q169 0 308.5 -45t242.5 -132.5t160 -227t57 -318.5q0 -177 -54.5 -313.5t-151.5 -221.5t-225 -128t-282 -43q-206 0 -375 8zM346 1298v-1185q117 -9 240 -9q280 0 437 149t157 437q0 154 -47.5 273.5t-134.5 195t-205.5 114t-264.5 38.5
q-105 0 -182 -13zM449 1804l258 -176l274 174q46 -22 55 -76l-264 -180q-25 -10 -67 -10q-43 0 -68 10l-260 191q17 46 72 67z" />
    <glyph glyph-name="dcaron" unicode="&#x10f;" horiz-adv-x="1150" 
d="M1247 1513q-4 -92 -36.5 -208t-67.5 -185q-60 3 -84 41q63 166 74 328q43 24 114 24zM831 971v497q45 25 119 25v-1489q-35 -18 -90 -18l-16 102h-6q-48 -58 -126.5 -93.5t-181.5 -35.5q-88 0 -161.5 28.5t-131.5 86t-90 155t-32 226.5q0 270 132.5 413.5t362.5 143.5
q134 0 221 -41zM831 186v684q-75 37 -196 37q-105 0 -183.5 -33.5t-125 -94.5t-68.5 -140t-22 -176q0 -191 82.5 -292t240.5 -101q93 0 155.5 32t116.5 84z" />
    <glyph glyph-name="Dcroat" unicode="&#x110;" horiz-adv-x="1411" 
d="M236 0v662h-187q-10 17 -10 51t10 51h187v633q141 24 319 24q169 0 308.5 -45t242.5 -132.5t160 -227t57 -318.5q0 -177 -54.5 -313.5t-151.5 -221.5t-225 -128t-282 -43q-205 0 -374 8zM793 662h-433v-549q117 -9 240 -9q280 0 437 149t157 437q0 154 -47.5 273.5
t-134 195t-205 114t-264.5 38.5q-106 0 -183 -13v-534h433q10 -17 10 -51t-10 -51z" />
    <glyph glyph-name="dcroat" unicode="&#x111;" horiz-adv-x="1148" 
d="M471 1266h360v202q45 25 119 25v-227h162q8 -12 8 -47q0 -38 -8 -50h-162v-1165q-35 -18 -90 -18l-16 102h-6q-48 -58 -126.5 -93.5t-181.5 -35.5q-88 0 -161.5 28t-131.5 85.5t-90 154t-32 224.5q0 267 132.5 408.5t362.5 141.5q136 0 221 -40v208h-376q0 54 16 97z
M831 186v674q-75 37 -196 37q-105 0 -183.5 -33t-125 -93.5t-68.5 -138t-22 -173.5q0 -189 82.5 -289t240.5 -100q93 0 155.5 32t116.5 84z" />
    <glyph glyph-name="Emacron" unicode="&#x112;" horiz-adv-x="1232" 
d="M221 1407h875q10 -17 10 -55q0 -39 -10 -56h-750v-524h696q11 -18 11 -53q0 -37 -11 -55h-696v-551h770q10 -17 10 -56q0 -40 -10 -57h-895v1407zM389 1694h588q10 -15 10 -49q0 -35 -10 -50h-588q-10 10 -10 50q0 39 10 49z" />
    <glyph glyph-name="emacron" unicode="&#x113;" horiz-adv-x="1064" 
d="M928 459h-695q3 -194 110.5 -292.5t291.5 -98.5q163 0 297 82q6 -64 -29 -113q-116 -78 -299 -78q-230 0 -360.5 140.5t-130.5 375.5q0 236 126 386.5t341 150.5q182 0 276 -109t94 -287q0 -92 -22 -157zM236 561h595q7 62 -1.5 119t-35 110t-83 85t-138.5 32
q-146 0 -235.5 -95.5t-101.5 -250.5zM311 1303h516q9 -14 9 -48q0 -33 -9 -47h-532q0 52 16 95z" />
    <glyph glyph-name="Ebreve" unicode="&#x114;" horiz-adv-x="1232" 
d="M221 1407h875q10 -17 10 -55q0 -39 -10 -56h-750v-524h696q11 -18 11 -53q0 -37 -11 -55h-696v-551h770q10 -17 10 -56q0 -40 -10 -57h-895v1407zM909 1798q57 0 92 -24q-26 -109 -110 -173.5t-215 -64.5q-134 0 -212 57.5t-97 165.5q31 39 96 45q19 -90 73.5 -131
t149.5 -41q84 0 141 43.5t82 122.5z" />
    <glyph glyph-name="ebreve" unicode="&#x115;" horiz-adv-x="1064" 
d="M928 459h-695q3 -194 110.5 -292.5t291.5 -98.5q163 0 297 82q6 -64 -29 -113q-116 -78 -299 -78q-230 0 -360.5 140.5t-130.5 375.5q0 236 126 386.5t341 150.5q182 0 276 -109t94 -287q0 -92 -22 -157zM236 561h595q7 62 -1.5 119t-35 110t-83 85t-138.5 32
q-146 0 -235.5 -95.5t-101.5 -250.5zM375 1452q19 -217 196 -217q78 0 128.5 53.5t70.5 155.5q63 0 90 -27q-19 -128 -97 -203t-202 -75t-194 68.5t-88 197.5q35 41 96 47z" />
    <glyph glyph-name="Edotaccent" unicode="&#x116;" horiz-adv-x="1232" 
d="M221 1407h875q10 -17 10 -55q0 -39 -10 -56h-750v-524h696q11 -18 11 -53q0 -37 -11 -55h-696v-551h770q10 -17 10 -56q0 -40 -10 -57h-895v1407zM684 1735q41 0 64.5 -22.5t23.5 -65.5q0 -91 -88 -91q-90 0 -90 89q0 44 23.5 67t66.5 23z" />
    <glyph glyph-name="edotaccent" unicode="&#x117;" horiz-adv-x="1064" 
d="M928 459h-695q3 -194 110.5 -292.5t291.5 -98.5q163 0 297 82q6 -64 -29 -113q-116 -78 -299 -78q-230 0 -360.5 140.5t-130.5 375.5q0 236 126 386.5t341 150.5q182 0 276 -109t94 -287q0 -92 -22 -157zM236 561h595q7 62 -1.5 119t-35 110t-83 85t-138.5 32
q-146 0 -235.5 -95.5t-101.5 -250.5zM565 1346q38 0 61 -22t23 -62q0 -86 -84 -86q-86 0 -86 84q0 41 23 63.5t63 22.5z" />
    <glyph glyph-name="Eogonek" unicode="&#x118;" horiz-adv-x="1232" 
d="M1133 -362q24 -34 24 -91q-37 -18 -104 -18q-101 0 -167.5 54.5t-66.5 162.5q0 171 156 248v6h-754v1407h875q10 -17 10 -55q0 -39 -10 -56h-750v-524h696q11 -18 11 -53q0 -37 -11 -55h-696v-551h770q10 -17 10 -56q0 -40 -10 -57q-180 -97 -180 -236q0 -64 40 -100.5
t103 -36.5q29 0 54 11z" />
    <glyph glyph-name="eogonek" unicode="&#x119;" horiz-adv-x="1064" 
d="M836 -334q24 -30 24 -86q-41 -18 -100 -18q-97 0 -160 52t-63 153q0 119 100 188v6q-8 -2 -33 -2q-230 0 -360.5 140.5t-130.5 375.5q0 236 126 386.5t341 150.5q182 0 276 -109t94 -287q0 -92 -22 -157h-695q3 -194 110.5 -292.5t291.5 -98.5q163 0 297 82
q6 -64 -29 -113q-13 -7 -43.5 -22.5t-49 -26t-46 -28t-45 -34t-34.5 -38t-25.5 -47t-8.5 -54.5q0 -63 39 -96t101 -33q21 0 45 8zM236 561h595q7 62 -1.5 119t-35 110t-83 85t-138.5 32q-146 0 -235.5 -95.5t-101.5 -250.5z" />
    <glyph glyph-name="Ecaron" unicode="&#x11a;" horiz-adv-x="1232" 
d="M221 1407h875q10 -17 10 -55q0 -39 -10 -56h-750v-524h696q11 -18 11 -53q0 -37 -11 -55h-696v-551h770q10 -17 10 -56q0 -40 -10 -57h-895v1407zM422 1804l258 -176l274 174q47 -23 56 -76l-265 -180q-25 -10 -67 -10q-43 0 -68 10l-260 191q17 46 72 67z" />
    <glyph glyph-name="ecaron" unicode="&#x11b;" horiz-adv-x="1064" 
d="M928 459h-695q3 -194 110.5 -292.5t291.5 -98.5q163 0 297 82q6 -64 -29 -113q-116 -78 -299 -78q-230 0 -360.5 140.5t-130.5 375.5q0 236 126 386.5t341 150.5q182 0 276 -109t94 -287q0 -92 -22 -157zM236 561h595q7 62 -1.5 119t-35 110t-83 85t-138.5 32
q-146 0 -235.5 -95.5t-101.5 -250.5zM510 1135l-234 284q28 38 86 45l201 -231l213 237q49 -12 68 -55l-226 -268q-40 -12 -108 -12z" />
    <glyph glyph-name="Gcircumflex" unicode="&#x11c;" horiz-adv-x="1404" 
d="M1257 63q-83 -46 -208 -78t-256 -32q-314 0 -490 193t-176 540q0 189 53 336.5t148 241t223 142t283 48.5q193 0 333 -76q16 -21 25.5 -58t5.5 -67q-168 86 -356 86q-129 0 -234.5 -38.5t-185 -115t-123 -202t-43.5 -289.5q0 -309 150 -466.5t407 -157.5q178 0 324 63
v502h-402q-10 17 -10 53t10 53h522v-678zM788 1700l-282 -180q-29 25 -35 86l250 174q25 10 67 10q43 0 68 -10l260 -183q-6 -56 -53 -79z" />
    <glyph glyph-name="gcircumflex" unicode="&#x11d;" horiz-adv-x="1034" 
d="M502 293q-105 0 -172 31q-25 -19 -40.5 -48t-15.5 -59q0 -65 68 -89t207 -24q82 0 145 -6.5t122.5 -24.5t98 -48.5t61.5 -81.5t23 -121q0 -166 -125 -249t-342 -83q-77 0 -144 10t-126 33t-100.5 58t-65.5 87t-24 117q0 96 46.5 159.5t117.5 92.5v6q-78 51 -78 148
q0 47 22.5 89.5t65.5 69.5v7q-115 94 -115 286q0 171 100 265t271 94q108 0 192 -41h271q18 -34 18 -99h-178v-4q69 -72 69 -215q0 -171 -98.5 -265.5t-273.5 -94.5zM537 0q-131 0 -199 16q-72 -31 -111 -83.5t-39 -120.5q0 -59 29 -103t80.5 -68t112 -35.5t131.5 -11.5
q156 0 248 54.5t92 167.5q0 96 -78.5 140t-265.5 44zM244 653q0 -125 67 -191.5t191 -66.5q123 0 190.5 68.5t67.5 189.5q0 122 -67.5 189t-190.5 67q-126 0 -192 -68t-66 -188zM236 1198l219 254q40 14 104 14l234 -282q-20 -45 -74 -62l-211 244l-223 -250q-40 32 -49 82z
" />
    <glyph glyph-name="Gbreve" unicode="&#x11e;" horiz-adv-x="1404" 
d="M1257 63q-83 -46 -208 -78t-256 -32q-314 0 -490 193t-176 540q0 189 53 336.5t148 241t223 142t283 48.5q193 0 333 -76q16 -21 25.5 -58t5.5 -67q-168 86 -356 86q-129 0 -234.5 -38.5t-185 -115t-123 -202t-43.5 -289.5q0 -309 150 -466.5t407 -157.5q178 0 324 63
v502h-402q-10 17 -10 53t10 53h522v-678zM1024 1798q57 0 92 -24q-26 -109 -110 -173.5t-215 -64.5q-134 0 -212.5 58t-97.5 165q31 39 97 45q19 -90 73.5 -131t149.5 -41q84 0 141 43.5t82 122.5z" />
    <glyph glyph-name="gbreve" unicode="&#x11f;" horiz-adv-x="1034" 
d="M502 293q-105 0 -172 31q-25 -19 -40.5 -48t-15.5 -59q0 -65 68 -89t207 -24q82 0 145 -6.5t122.5 -24.5t98 -48.5t61.5 -81.5t23 -121q0 -166 -125 -249t-342 -83q-77 0 -144 10t-126 33t-100.5 58t-65.5 87t-24 117q0 96 46.5 159.5t117.5 92.5v6q-78 51 -78 148
q0 47 22.5 89.5t65.5 69.5v7q-115 94 -115 286q0 171 100 265t271 94q108 0 192 -41h271q18 -34 18 -99h-178v-4q69 -72 69 -215q0 -171 -98.5 -265.5t-273.5 -94.5zM537 0q-131 0 -199 16q-72 -31 -111 -83.5t-39 -120.5q0 -59 29 -103t80.5 -68t112 -35.5t131.5 -11.5
q156 0 248 54.5t92 167.5q0 96 -78.5 140t-265.5 44zM244 653q0 -125 67 -191.5t191 -66.5q123 0 190.5 68.5t67.5 189.5q0 122 -67.5 189t-190.5 67q-126 0 -192 -68t-66 -188zM315 1452q19 -217 197 -217q78 0 128.5 53.5t70.5 155.5q63 0 90 -27q-19 -128 -97 -203
t-202 -75t-194.5 68.5t-88.5 197.5q35 41 96 47z" />
    <glyph glyph-name="Gdotaccent" unicode="&#x120;" horiz-adv-x="1404" 
d="M1257 63q-83 -46 -208 -78t-256 -32q-314 0 -490 193t-176 540q0 189 53 336.5t148 241t223 142t283 48.5q193 0 333 -76q16 -21 25.5 -58t5.5 -67q-168 86 -356 86q-129 0 -234.5 -38.5t-185 -115t-123 -202t-43.5 -289.5q0 -309 150 -466.5t407 -157.5q178 0 324 63
v502h-402q-10 17 -10 53t10 53h522v-678zM795 1735q41 0 64.5 -22.5t23.5 -65.5q0 -91 -88 -91q-90 0 -90 89q0 44 23.5 67t66.5 23z" />
    <glyph glyph-name="gdotaccent" unicode="&#x121;" horiz-adv-x="1034" 
d="M502 293q-105 0 -172 31q-25 -19 -40.5 -48t-15.5 -59q0 -65 68 -89t207 -24q82 0 145 -6.5t122.5 -24.5t98 -48.5t61.5 -81.5t23 -121q0 -166 -125 -249t-342 -83q-77 0 -144 10t-126 33t-100.5 58t-65.5 87t-24 117q0 96 46.5 159.5t117.5 92.5v6q-78 51 -78 148
q0 47 22.5 89.5t65.5 69.5v7q-115 94 -115 286q0 171 100 265t271 94q108 0 192 -41h271q18 -34 18 -99h-178v-4q69 -72 69 -215q0 -171 -98.5 -265.5t-273.5 -94.5zM537 0q-131 0 -199 16q-72 -31 -111 -83.5t-39 -120.5q0 -59 29 -103t80.5 -68t112 -35.5t131.5 -11.5
q156 0 248 54.5t92 167.5q0 96 -78.5 140t-265.5 44zM244 653q0 -125 67 -191.5t191 -66.5q123 0 190.5 68.5t67.5 189.5q0 122 -67.5 189t-190.5 67q-126 0 -192 -68t-66 -188zM512 1346q38 0 61 -22t23 -62q0 -86 -84 -86q-86 0 -86 84q0 41 23 63.5t63 22.5z" />
    <glyph glyph-name="Gcommaaccent" unicode="&#x122;" horiz-adv-x="1404" 
d="M1257 63q-83 -46 -208 -78t-256 -32q-314 0 -490 193t-176 540q0 189 53 336.5t148 241t223 142t283 48.5q193 0 333 -76q16 -21 25.5 -58t5.5 -67q-168 86 -356 86q-129 0 -234.5 -38.5t-185 -115t-123 -202t-43.5 -289.5q0 -309 150 -466.5t407 -157.5q178 0 324 63
v502h-402q-10 17 -10 53t10 53h522v-678zM850 -98q-4 -95 -33.5 -207t-64.5 -172q-65 7 -90 39q58 152 67 313q42 27 121 27z" />
    <glyph glyph-name="gcommaaccent" unicode="&#x123;" horiz-adv-x="1034" 
d="M502 293q-105 0 -172 31q-25 -19 -40.5 -48t-15.5 -59q0 -65 68 -89t207 -24q82 0 145 -6.5t122.5 -24.5t98 -48.5t61.5 -81.5t23 -121q0 -166 -125 -249t-342 -83q-77 0 -144 10t-126 33t-100.5 58t-65.5 87t-24 117q0 96 46.5 159.5t117.5 92.5v6q-78 51 -78 148
q0 47 22.5 89.5t65.5 69.5v7q-115 94 -115 286q0 171 100 265t271 94q108 0 192 -41h271q18 -34 18 -99h-178v-4q69 -72 69 -215q0 -171 -98.5 -265.5t-273.5 -94.5zM537 0q-131 0 -199 16q-72 -31 -111 -83.5t-39 -120.5q0 -59 29 -103t80.5 -68t112 -35.5t131.5 -11.5
q156 0 248 54.5t92 167.5q0 96 -78.5 140t-265.5 44zM244 653q0 -125 67 -191.5t191 -66.5q123 0 190.5 68.5t67.5 189.5q0 122 -67.5 189t-190.5 67q-126 0 -192 -68t-66 -188zM451 1155q6 82 29 169t52 149q41 26 109 26q-64 -159 -76 -340q-19 -16 -63 -16q-39 0 -51 12z
" />
    <glyph glyph-name="Hcircumflex" unicode="&#x124;" horiz-adv-x="1517" 
d="M1171 6v672h-825v-672q-17 -10 -63 -10q-45 0 -62 10v1395q17 10 62 10q46 0 63 -10v-613h825v613q17 10 62 10q46 0 63 -10v-1395q-17 -10 -63 -10q-45 0 -62 10zM756 1700l-283 -180q-29 25 -35 86l250 174q25 10 68 10q42 0 67 -10l260 -183q-6 -56 -53 -79z" />
    <glyph glyph-name="hcircumflex" unicode="&#x125;" horiz-adv-x="1185" 
d="M260 1702l-274 -174q-26 32 -29 88l240 166q34 10 112 10l269 -188q-10 -54 -54 -78zM315 729v-723q-17 -10 -59 -10t-59 10v1462q45 25 118 25v-408q0 -150 -14 -245h6q41 73 126 122.5t226 49.5q55 0 100 -8t91.5 -33.5t78.5 -66.5t52 -112.5t20 -166.5v-619
q-17 -10 -59 -10t-59 10v592q0 149 -57.5 226t-192.5 77q-119 0 -199.5 -49.5t-118.5 -122.5z" />
    <glyph glyph-name="Hbar" unicode="&#x126;" horiz-adv-x="1533" 
d="M1466 1014h-161v-1008q-17 -10 -64 -10q-44 0 -61 10v639h-826v-639q-17 -10 -63 -10q-45 0 -62 10v1008h-161q-11 18 -11 51t11 51h161v285q17 10 62 10q46 0 63 -10v-285h826v285q17 10 61 10q47 0 64 -10v-285h161q11 -18 11 -51t-11 -51zM354 756h826v258h-826v-258z
" />
    <glyph glyph-name="hbar" unicode="&#x127;" horiz-adv-x="1189" 
d="M68 1266h133v202q45 25 118 25v-227h381q9 -14 9 -47q0 -37 -9 -50h-381v-100q0 -151 -14 -246h6q19 33 46 61t68.5 54.5t103 41.5t135.5 15q55 0 100 -8t91.5 -33.5t78.5 -66.5t52 -112.5t20 -166.5v-602q-17 -10 -60 -10q-42 0 -59 10v576q0 149 -57.5 226t-192.5 77
q-119 0 -199.5 -49.5t-118.5 -122.5v-707q-17 -10 -59 -10t-59 10v1163h-150q0 51 17 97z" />
    <glyph glyph-name="Itilde" unicode="&#x128;" horiz-adv-x="567" 
d="M221 6v1395q17 10 62 10q46 0 63 -10v-1395q-17 -10 -63 -10q-45 0 -62 10zM-74 1602q20 66 76 108.5t137 42.5q48 0 90.5 -16t69 -35t62.5 -35t73 -16q44 0 76.5 23t44.5 61q56 0 88 -29q-20 -73 -75.5 -116.5t-141.5 -43.5q-45 0 -86 16.5t-67 36t-64 36t-78 16.5
q-92 0 -125 -97q-52 6 -80 48z" />
    <glyph glyph-name="itilde" unicode="&#x129;" horiz-adv-x="512" 
d="M197 6v959q17 10 59 10t59 -10v-959q-17 -10 -59 -10t-59 10zM567 1311q-12 -76 -58.5 -119t-119.5 -43q-40 0 -78 16.5t-63.5 36.5t-58.5 36.5t-64 16.5q-83 0 -109 -98q-24 5 -44.5 20.5t-26.5 36.5q15 63 63 103.5t115 40.5q54 0 102.5 -27t88.5 -53.5t75 -26.5
q77 0 92 88q51 0 86 -28z" />
    <glyph glyph-name="Imacron" unicode="&#x12a;" horiz-adv-x="567" 
d="M221 6v1395q17 10 62 10q46 0 63 -10v-1395q-17 -10 -63 -10q-45 0 -62 10zM47 1694h473q10 -15 10 -49q0 -35 -10 -50h-473q-10 10 -10 50q0 39 10 49z" />
    <glyph glyph-name="imacron" unicode="&#x12b;" horiz-adv-x="512" 
d="M197 6v959q17 10 59 10t59 -10v-959q-17 -10 -59 -10t-59 10zM57 1303h402q8 -12 8 -48q0 -35 -8 -47h-418q0 52 16 95z" />
    <glyph glyph-name="Ibreve" unicode="&#x12c;" horiz-adv-x="567" 
d="M221 6v1395q17 10 62 10q46 0 63 -10v-1395q-17 -10 -63 -10q-45 0 -62 10zM512 1798q57 0 92 -24q-26 -109 -110 -173.5t-215 -64.5q-134 0 -212.5 58t-97.5 165q31 39 97 45q19 -90 73.5 -131t149.5 -41q84 0 141 43.5t82 122.5z" />
    <glyph glyph-name="ibreve" unicode="&#x12d;" horiz-adv-x="512" 
d="M61 1452q19 -217 197 -217q78 0 128.5 53.5t70.5 155.5q63 0 90 -27q-19 -128 -97 -203t-202 -75t-194.5 68.5t-88.5 197.5q35 41 96 47zM197 6v959q17 10 59 10t59 -10v-959q-17 -10 -59 -10t-59 10z" />
    <glyph glyph-name="Iogonek" unicode="&#x12e;" horiz-adv-x="567" 
d="M350 -362q25 -36 25 -91q-37 -18 -105 -18q-101 0 -167 54.5t-66 162.5q0 185 184 262v1393q17 10 62 10q46 0 63 -10v-1395l-6 -4q-186 -97 -186 -238q0 -64 40 -100.5t103 -36.5q28 0 53 11z" />
    <glyph glyph-name="iogonek" unicode="&#x12f;" horiz-adv-x="512" 
d="M334 -334q24 -30 24 -86q-41 -18 -100 -18q-97 0 -160 52t-63 153q0 165 162 237v961q17 10 59 10t59 -10v-961q-165 -85 -165 -217q0 -63 38.5 -96t100.5 -33q21 0 45 8zM258 1417q39 0 63.5 -23t24.5 -65q0 -44 -23 -67t-65 -23q-90 0 -90 88q0 42 24 66t66 24z" />
    <glyph glyph-name="Idotaccent" unicode="&#x130;" horiz-adv-x="567" 
d="M221 6v1395q17 10 62 10q46 0 63 -10v-1395q-17 -10 -63 -10q-45 0 -62 10zM287 1735q41 0 64.5 -22.5t23.5 -65.5q0 -91 -88 -91q-90 0 -90 89q0 44 23.5 67t66.5 23z" />
    <glyph glyph-name="dotlessi" unicode="&#x131;" horiz-adv-x="512" 
d="M197 6v959q17 10 59 10t59 -10v-959q-17 -10 -59 -10t-59 10z" />
    <glyph glyph-name="IJ" unicode="&#x132;" horiz-adv-x="1204" 
d="M221 6v1395q17 10 62 10q46 0 63 -10v-1395q-17 -10 -63 -10q-45 0 -62 10zM989 1401v-1116q0 -265 -96 -429.5t-295 -258.5q-47 32 -53 100q172 88 245.5 221t73.5 344v1139q17 10 62 10q46 0 63 -10z" />
    <glyph glyph-name="ij" unicode="&#x133;" horiz-adv-x="1038" 
d="M197 6v959q17 10 59 10t59 -10v-959q-17 -10 -59 -10t-59 10zM258 1417q39 0 63.5 -23t24.5 -65q0 -44 -23 -67t-65 -23q-90 0 -90 88q0 42 24 66t66 24zM846 965v-850q0 -113 -21.5 -206t-63 -164.5t-88.5 -124t-112 -105.5q-57 22 -67 84q54 44 92.5 87t72.5 102
t51 135t17 169v873q17 10 59 10q43 0 60 -10zM788 1417q39 0 64 -23t25 -65q0 -44 -23.5 -67t-65.5 -23q-90 0 -90 88q0 42 24 66t66 24z" />
    <glyph glyph-name="Jcircumflex" unicode="&#x134;" horiz-adv-x="636" 
d="M422 1401v-1116q0 -265 -96 -429.5t-295 -258.5q-48 33 -54 100q172 88 246 221t74 344v1139q17 10 61 10q47 0 64 -10zM352 1700l-282 -180q-29 25 -35 86l250 174q25 10 67 10q43 0 68 -10l260 -183q-6 -56 -53 -79z" />
    <glyph glyph-name="jcircumflex" unicode="&#x135;" horiz-adv-x="526" 
d="M-8 1198l219 254q40 14 104 14l234 -282q-20 -45 -74 -62l-211 244l-223 -250q-40 32 -49 82zM334 965v-850q0 -113 -21.5 -206t-63 -164.5t-88.5 -124t-112 -105.5q-57 22 -67 84q54 44 92.5 87t72.5 102t51 135t17 169v873q17 10 59 10q43 0 60 -10z" />
    <glyph glyph-name="Kcommaaccent" unicode="&#x136;" horiz-adv-x="1265" 
d="M221 6v1395q17 10 62 10q46 0 63 -10v-625h193l485 621q21 14 76 14q50 0 67 -14l-526 -672l582 -715q-17 -14 -74 -14q-63 0 -84 14l-535 658h-184v-662q-17 -10 -63 -10q-45 0 -62 10zM770 -98q-4 -95 -33.5 -207t-64.5 -172q-65 7 -90 39q58 152 67 313q42 27 121 27z
" />
    <glyph glyph-name="kcommaaccent" unicode="&#x137;" horiz-adv-x="1042" 
d="M315 575h168l332 396q15 6 53 6q56 0 80 -14l-375 -443q117 -162 208 -275.5t210 -236.5q-9 -12 -71 -12q-63 0 -84 12q-170 183 -369 467h-152v-469q-17 -10 -59 -10t-59 10v1462q45 25 118 25v-918zM457 -428q59 150 71 315q43 25 117 25q-3 -91 -33.5 -202.5
t-66.5 -178.5q-63 7 -88 41z" />
    <glyph glyph-name="kgreenlandic" unicode="&#x138;" horiz-adv-x="1042" 
d="M197 6v959q17 10 59 10t59 -10v-418h168l340 424q15 6 54 6q53 0 77 -14l-376 -469q116 -155 204.5 -261.5t208.5 -224.5q-9 -12 -71 -12q-63 0 -84 12q-163 165 -365 438h-156v-440q-17 -10 -59 -10t-59 10z" />
    <glyph glyph-name="Lacute" unicode="&#x139;" horiz-adv-x="1159" 
d="M346 113h731q10 -17 10 -56q0 -40 -10 -57h-856v1401q17 10 62 10q46 0 63 -10v-1288zM575 1800q43 -36 46 -100l-431 -187q-22 31 -22 95z" />
    <glyph glyph-name="lacute" unicode="&#x13a;" horiz-adv-x="569" 
d="M508 1802q37 -30 41 -92l-387 -166q-19 31 -19 88zM504 -4q-54 -37 -131 -37q-180 0 -180 203v1306q45 25 118 25v-1313q0 -63 24 -86.5t71 -23.5q71 0 124 43q2 -33 -5.5 -66.5t-20.5 -50.5z" />
    <glyph glyph-name="Lcommaaccent" unicode="&#x13b;" horiz-adv-x="1159" 
d="M346 113h731q10 -17 10 -56q0 -40 -10 -57h-856v1401q17 10 62 10q46 0 63 -10v-1288zM754 -98q-4 -94 -33.5 -206t-65.5 -173q-65 7 -90 39q59 155 68 313q42 27 121 27z" />
    <glyph glyph-name="lcommaaccent" unicode="&#x13c;" horiz-adv-x="569" 
d="M504 -4q-54 -37 -131 -37q-180 0 -180 203v1306q45 25 118 25v-1313q0 -63 24 -86.5t71 -23.5q71 0 124 43q2 -33 -5.5 -66.5t-20.5 -50.5zM238 -428q59 150 71 315q43 25 117 25q-3 -91 -33.5 -202.5t-66.5 -178.5q-63 7 -88 41z" />
    <glyph glyph-name="Lcaron" unicode="&#x13d;" horiz-adv-x="1163" 
d="M346 113h731q10 -17 10 -56q0 -40 -10 -57h-856v1401q17 10 62 10q46 0 63 -10v-1288zM864 1415q-4 -95 -37.5 -215t-70.5 -190q-64 3 -88 41q66 171 77 340q43 24 119 24z" />
    <glyph glyph-name="lcaron" unicode="&#x13e;" horiz-adv-x="573" 
d="M504 -4q-54 -37 -131 -37q-180 0 -180 203v1306q45 25 118 25v-1313q0 -63 24 -86.5t71 -23.5q71 0 124 43q2 -33 -5.5 -66.5t-20.5 -50.5zM623 1513q-4 -92 -37 -208t-68 -185q-60 3 -84 41q63 166 74 328q44 24 115 24z" />
    <glyph glyph-name="Ldot" unicode="&#x13f;" 
d="M346 113h731q10 -17 10 -56q0 -40 -10 -57h-856v1401q17 10 62 10q46 0 63 -10v-1288zM860 831q41 0 64.5 -22.5t23.5 -65.5q0 -90 -88 -90q-90 0 -90 88q0 44 23.5 67t66.5 23z" />
    <glyph glyph-name="ldot" unicode="&#x140;" horiz-adv-x="708" 
d="M504 -4q-54 -37 -131 -37q-180 0 -180 203v1306q45 25 118 25v-1313q0 -63 24 -86.5t71 -23.5q71 0 124 43q2 -33 -5.5 -66.5t-20.5 -50.5zM604 639q38 0 61 -22t23 -62q0 -86 -84 -86q-86 0 -86 84q0 41 23 63.5t63 22.5z" />
    <glyph glyph-name="Lslash" unicode="&#x141;" 
d="M354 113h731q11 -18 11 -56q0 -39 -11 -57h-856v592l-157 -96q-38 35 -41 98l198 119v688q17 10 62 10q46 0 63 -10v-637l361 217q42 -31 49 -94l-410 -244v-530z" />
    <glyph glyph-name="lslash" unicode="&#x142;" horiz-adv-x="581" 
d="M510 -4q-54 -37 -131 -37q-180 0 -180 203v428l-125 -78q-27 39 -27 98l152 92v766q45 25 118 25v-735l150 94q42 -37 45 -88l-195 -119v-465q0 -63 24 -86.5t71 -23.5q72 0 125 43q2 -33 -6 -66.5t-21 -50.5z" />
    <glyph glyph-name="Nacute" unicode="&#x143;" horiz-adv-x="1513" 
d="M340 1303v-1297q-17 -10 -59 -10q-43 0 -60 10v1393q36 12 86 12q48 0 84 -12l635 -1010q89 -142 141 -283h7v1295q17 10 59 10t59 -10v-1401q-23 -10 -86 -10q-57 0 -80 10l-663 1057q-73 115 -117 246h-6zM1038 1800q42 -35 45 -100l-430 -187q-22 31 -22 95z" />
    <glyph glyph-name="nacute" unicode="&#x144;" horiz-adv-x="1177" 
d="M315 729v-723q-17 -10 -59 -10t-59 10v961q37 18 98 18l8 -139h6q102 166 348 166q45 0 82.5 -6t77.5 -21t70 -43t55 -69.5t38 -104.5t13 -143v-619q-17 -10 -59 -10q-43 0 -60 10v594q0 149 -55 225t-192 76q-115 0 -194.5 -49.5t-117.5 -122.5zM834 1434l-271 -306
q-51 12 -71 54l231 288q72 0 111 -36z" />
    <glyph glyph-name="Ncommaaccent" unicode="&#x145;" horiz-adv-x="1513" 
d="M340 1303v-1297q-17 -10 -59 -10q-43 0 -60 10v1393q36 12 86 12q48 0 84 -12l635 -1010q89 -142 141 -283h7v1295q17 10 59 10t59 -10v-1401q-23 -10 -86 -10q-57 0 -80 10l-663 1057q-73 115 -117 246h-6zM825 -98q-4 -95 -33.5 -207t-64.5 -172q-65 7 -90 39
q59 155 68 313q42 27 120 27z" />
    <glyph glyph-name="ncommaaccent" unicode="&#x146;" horiz-adv-x="1177" 
d="M315 729v-723q-17 -10 -59 -10t-59 10v961q37 18 98 18l8 -139h6q102 166 348 166q45 0 82.5 -6t77.5 -21t70 -43t55 -69.5t38 -104.5t13 -143v-619q-17 -10 -59 -10q-43 0 -60 10v594q0 149 -55 225t-192 76q-115 0 -194.5 -49.5t-117.5 -122.5zM485 -428q61 153 72 315
q43 25 117 25q-3 -90 -34 -201.5t-67 -179.5q-63 7 -88 41z" />
    <glyph glyph-name="Ncaron" unicode="&#x147;" horiz-adv-x="1513" 
d="M340 1303v-1297q-17 -10 -59 -10q-43 0 -60 10v1393q36 12 86 12q48 0 84 -12l635 -1010q89 -142 141 -283h7v1295q17 10 59 10t59 -10v-1401q-23 -10 -86 -10q-57 0 -80 10l-663 1057q-73 115 -117 246h-6zM498 1804l258 -176l274 174q46 -22 55 -76l-264 -180
q-25 -10 -67 -10q-43 0 -68 10l-260 191q17 46 72 67z" />
    <glyph glyph-name="ncaron" unicode="&#x148;" horiz-adv-x="1177" 
d="M315 729v-723q-17 -10 -59 -10t-59 10v961q37 18 98 18l8 -139h6q102 166 348 166q45 0 82.5 -6t77.5 -21t70 -43t55 -69.5t38 -104.5t13 -143v-619q-17 -10 -59 -10q-43 0 -60 10v594q0 149 -55 225t-192 76q-115 0 -194.5 -49.5t-117.5 -122.5zM551 1135l-234 284
q28 38 86 45l201 -231l213 237q49 -12 68 -55l-226 -268q-41 -12 -108 -12z" />
    <glyph glyph-name="napostrophe" unicode="&#x149;" horiz-adv-x="1224" 
d="M164 1489q-4 -102 -39.5 -226.5t-77.5 -191.5q-62 7 -86 41q77 179 88 352q43 25 115 25zM362 729v-723q-17 -10 -59 -10t-59 10v961q38 18 98 18l8 -139h6q102 166 349 166q54 0 98 -8t90 -33.5t77 -66.5t50.5 -112.5t19.5 -166.5v-619q-17 -10 -59 -10t-59 10v594
q0 148 -55.5 224.5t-192.5 76.5q-115 0 -194.5 -49.5t-117.5 -122.5z" />
    <glyph glyph-name="Eng" unicode="&#x14a;" horiz-adv-x="1515" 
d="M340 1298v-1292q-17 -10 -59 -10q-43 0 -60 10v1393q32 12 86 12q48 0 84 -12l643 -961q87 -134 137 -264h7v1227q17 10 59 10t59 -10v-1327q0 -412 -301 -594q-47 29 -53 90q111 74 168.5 177.5t67.5 254.5l-713 1067q-86 134 -119 229h-6z" />
    <glyph glyph-name="eng" unicode="&#x14b;" horiz-adv-x="1179" 
d="M315 729v-723q-17 -10 -59 -10t-59 10v961q37 18 98 18l8 -139h6q102 166 353 166q54 0 98.5 -8t90.5 -33.5t77 -66.5t51 -112.5t20 -166.5v-412q0 -113 -20.5 -205.5t-61.5 -164t-87.5 -124t-112.5 -106.5q-60 22 -70 84q54 45 92.5 88t72.5 102t51.5 134.5t17.5 168.5
v410q0 148 -55.5 224.5t-194.5 76.5q-117 0 -197.5 -49.5t-118.5 -122.5z" />
    <glyph glyph-name="Omacron" unicode="&#x14c;" horiz-adv-x="1497" 
d="M750 1454q280 0 448 -192.5t168 -542.5q0 -364 -166 -565t-450 -201q-298 0 -458.5 195t-160.5 571q0 341 169.5 538t449.5 197zM260 719q0 -309 127.5 -480t362.5 -171q234 0 360.5 172.5t126.5 478.5q0 287 -132 454.5t-355 167.5q-238 0 -364 -165.5t-126 -456.5z
M397 1694h703q10 -15 10 -49q0 -35 -10 -50h-703q-10 10 -10 50q0 39 10 49z" />
    <glyph glyph-name="omacron" unicode="&#x14d;" horiz-adv-x="1126" 
d="M565 1012q206 0 325.5 -133t119.5 -379q0 -259 -118.5 -400t-326.5 -141q-219 0 -333.5 137t-114.5 404q0 241 120.5 376.5t327.5 135.5zM238 500q0 -207 83 -320.5t244 -113.5q159 0 241.5 114.5t82.5 319.5q0 189 -85.5 297t-238.5 108q-161 0 -244 -107.5t-83 -297.5z
M266 1303h602q9 -14 9 -48q0 -33 -9 -47h-618q0 52 16 95z" />
    <glyph glyph-name="Obreve" unicode="&#x14e;" horiz-adv-x="1497" 
d="M750 1454q280 0 448 -192.5t168 -542.5q0 -364 -166 -565t-450 -201q-298 0 -458.5 195t-160.5 571q0 341 169.5 538t449.5 197zM260 719q0 -309 127.5 -480t362.5 -171q234 0 360.5 172.5t126.5 478.5q0 287 -132 454.5t-355 167.5q-238 0 -364 -165.5t-126 -456.5z
M983 1798q57 0 92 -24q-26 -109 -110 -173.5t-215 -64.5q-134 0 -212.5 58t-97.5 165q31 39 97 45q19 -90 73.5 -131t149.5 -41q84 0 141 43.5t82 122.5z" />
    <glyph glyph-name="obreve" unicode="&#x14f;" horiz-adv-x="1126" 
d="M565 1012q206 0 325.5 -133t119.5 -379q0 -259 -118.5 -400t-326.5 -141q-219 0 -333.5 137t-114.5 404q0 241 120.5 376.5t327.5 135.5zM238 500q0 -207 83 -320.5t244 -113.5q159 0 241.5 114.5t82.5 319.5q0 189 -85.5 297t-238.5 108q-161 0 -244 -107.5t-83 -297.5z
M373 1452q19 -217 196 -217q78 0 128.5 53.5t70.5 155.5q63 0 90 -27q-19 -128 -97 -203t-202 -75t-194.5 68.5t-88.5 197.5q35 41 97 47z" />
    <glyph glyph-name="Ohungarumlaut" unicode="&#x150;" horiz-adv-x="1497" 
d="M750 1454q280 0 448 -192.5t168 -542.5q0 -364 -166 -565t-450 -201q-298 0 -458.5 195t-160.5 571q0 341 169.5 538t449.5 197zM260 719q0 -309 127.5 -480t362.5 -171q234 0 360.5 172.5t126.5 478.5q0 287 -132 454.5t-355 167.5q-238 0 -364 -165.5t-126 -456.5z
M555 1503q-48 17 -61 70l262 256q58 -13 88 -64zM950 1503q-48 17 -61 70l262 256q58 -13 88 -64z" />
    <glyph glyph-name="ohungarumlaut" unicode="&#x151;" horiz-adv-x="1126" 
d="M565 1012q206 0 325.5 -133t119.5 -379q0 -259 -118.5 -400t-326.5 -141q-219 0 -333.5 137t-114.5 404q0 241 120.5 376.5t327.5 135.5zM238 500q0 -207 83 -320.5t244 -113.5q159 0 241.5 114.5t82.5 319.5q0 189 -85.5 297t-238.5 108q-161 0 -244 -107.5t-83 -297.5z
M627 1446l-213 -316q-56 6 -78 48l186 303q67 0 105 -35zM985 1446l-213 -316q-56 6 -78 48l187 303q66 0 104 -35z" />
    <glyph glyph-name="OE" unicode="&#x152;" horiz-adv-x="2031" 
d="M1047 1407h847q11 -18 11 -55q0 -38 -11 -56h-733v-524h680q10 -17 10 -53q0 -38 -10 -55h-680v-551h754q10 -17 10 -56q0 -40 -10 -57h-873q-121 -41 -260 -41q-311 0 -483 190.5t-172 540.5q0 359 177.5 557.5t483.5 198.5q140 0 259 -39zM1036 113v1177
q-107 43 -239 43q-267 0 -404 -167t-137 -470q0 -300 137.5 -461t403.5 -161q141 0 239 39z" />
    <glyph glyph-name="oe" unicode="&#x153;" horiz-adv-x="1841" 
d="M238 500q0 -207 83 -320.5t244 -113.5q159 0 241.5 114.5t82.5 319.5q0 189 -85.5 297t-238.5 108q-161 0 -244 -107.5t-83 -297.5zM1012 561h596q7 62 -1.5 119t-35 110t-83 85t-138.5 32q-146 0 -236 -95.5t-102 -250.5zM1010 459q3 -194 110 -292.5t291 -98.5
q163 0 297 82q6 -64 -29 -113q-116 -78 -299 -78q-158 0 -274 68.5t-154 185.5h-6q-31 -116 -132 -185t-249 -69q-219 0 -333.5 137t-114.5 404q0 241 120.5 376.5t327.5 135.5q150 0 253 -69.5t134 -188.5h6q35 112 143 185t257 73q180 0 274 -109.5t94 -286.5
q0 -92 -22 -157h-694z" />
    <glyph glyph-name="Racute" unicode="&#x154;" horiz-adv-x="1294" 
d="M221 6v1389q150 32 350 32q278 0 430 -109.5t152 -328.5q0 -305 -289 -401l373 -580q-13 -10 -66 -10q-59 0 -84 10l-350 553q-44 -6 -108 -6q-150 0 -283 18v-567q-17 -10 -63 -10q-45 0 -62 10zM565 1315q-123 0 -219 -17v-612q114 -18 268 -18q410 0 410 311
q0 174 -121 255t-338 81zM934 1800q42 -35 45 -100l-430 -187q-23 32 -23 95z" />
    <glyph glyph-name="racute" unicode="&#x155;" horiz-adv-x="778" 
d="M313 815q78 197 287 197q71 0 111 -19q18 -25 18 -75q0 -38 -8 -54q-48 31 -125 31q-198 0 -281 -254v-635q-17 -10 -59 -10t-59 10v961q37 18 98 18l12 -170h6zM717 1434l-271 -306q-51 12 -71 54l231 288q72 0 111 -36z" />
    <glyph glyph-name="Rcommaaccent" unicode="&#x156;" horiz-adv-x="1294" 
d="M221 6v1389q150 32 350 32q278 0 430 -109.5t152 -328.5q0 -305 -289 -401l373 -580q-13 -10 -66 -10q-59 0 -84 10l-350 553q-44 -6 -108 -6q-150 0 -283 18v-567q-17 -10 -63 -10q-45 0 -62 10zM565 1315q-123 0 -219 -17v-612q114 -18 268 -18q410 0 410 311
q0 174 -121 255t-338 81zM778 -98q-4 -95 -33.5 -207t-64.5 -172q-65 7 -90 39q58 152 67 313q42 27 121 27z" />
    <glyph glyph-name="rcommaaccent" unicode="&#x157;" horiz-adv-x="778" 
d="M313 815q78 197 287 197q71 0 111 -19q18 -25 18 -75q0 -38 -8 -54q-48 31 -125 31q-198 0 -281 -254v-635q-17 -10 -59 -10t-59 10v961q37 18 98 18l12 -170h6zM125 -428q61 153 72 315q43 25 116 25q-3 -91 -33.5 -202.5t-66.5 -178.5q-63 7 -88 41z" />
    <glyph glyph-name="Rcaron" unicode="&#x158;" horiz-adv-x="1294" 
d="M221 6v1389q150 32 350 32q278 0 430 -109.5t152 -328.5q0 -305 -289 -401l373 -580q-13 -10 -66 -10q-59 0 -84 10l-350 553q-44 -6 -108 -6q-150 0 -283 18v-567q-17 -10 -63 -10q-45 0 -62 10zM565 1315q-123 0 -219 -17v-612q114 -18 268 -18q410 0 410 311
q0 174 -121 255t-338 81zM406 1804l258 -176l274 174q46 -22 55 -76l-264 -180q-25 -10 -67 -10q-43 0 -68 10l-260 191q17 46 72 67z" />
    <glyph glyph-name="rcaron" unicode="&#x159;" horiz-adv-x="778" 
d="M313 815q78 197 287 197q71 0 111 -19q18 -25 18 -75q0 -38 -8 -54q-48 31 -125 31q-198 0 -281 -254v-635q-17 -10 -59 -10t-59 10v961q37 18 98 18l12 -170h6zM434 1135l-233 284q28 38 86 45l200 -231l213 237q49 -12 68 -55l-225 -268q-40 -12 -109 -12z" />
    <glyph glyph-name="Sacute" unicode="&#x15a;" horiz-adv-x="1134" 
d="M111 190q86 -59 201 -90.5t233 -31.5q182 0 270 74t88 210q0 67 -25.5 119.5t-68.5 87t-99 61.5t-117.5 49.5t-123.5 46t-118 55.5t-99 72.5t-68.5 102.5t-25.5 141q0 173 113 270t315 97q201 0 348 -98q15 -23 23.5 -65t0.5 -72q-165 122 -366 122q-150 0 -228.5 -63
t-78.5 -174q0 -62 25.5 -111t68.5 -81.5t99 -59.5t118 -50t123.5 -47.5t117.5 -58.5t99 -76.5t68.5 -107t25.5 -145.5q0 -91 -26 -163t-71 -118.5t-108 -77t-133 -43t-151 -12.5q-241 0 -402 96q-17 26 -25 65.5t-3 75.5zM862 1800q42 -35 45 -100l-430 -187q-22 31 -22 95z
" />
    <glyph glyph-name="sacute" unicode="&#x15b;" horiz-adv-x="901" 
d="M745 811q-118 98 -272 98q-98 0 -147.5 -40.5t-49.5 -110.5q0 -48 28.5 -84.5t74 -60t100.5 -45t109.5 -46.5t100 -57t74 -85t28.5 -122q0 -78 -28.5 -137t-79 -93.5t-114 -51.5t-139.5 -17q-80 0 -158 18.5t-129 51.5q-16 22 -22.5 61t-1.5 72q55 -44 142 -70t169 -26
q111 0 175.5 47.5t64.5 130.5q0 53 -28 93t-73.5 65.5t-100 47t-109 45.5t-100 54t-73.5 79.5t-28 114.5q0 132 78.5 200.5t226.5 68.5q156 0 256 -74q14 -19 22 -59.5t4 -67.5zM692 1434l-270 -306q-52 12 -72 54l232 288q71 0 110 -36z" />
    <glyph glyph-name="Scircumflex" unicode="&#x15c;" horiz-adv-x="1134" 
d="M111 190q86 -59 201 -90.5t233 -31.5q182 0 270 74t88 210q0 67 -25.5 119.5t-68.5 87t-99 61.5t-117.5 49.5t-123.5 46t-118 55.5t-99 72.5t-68.5 102.5t-25.5 141q0 173 113 270t315 97q201 0 348 -98q15 -23 23.5 -65t0.5 -72q-165 122 -366 122q-150 0 -228.5 -63
t-78.5 -174q0 -62 25.5 -111t68.5 -81.5t99 -59.5t118 -50t123.5 -47.5t117.5 -58.5t99 -76.5t68.5 -107t25.5 -145.5q0 -91 -26 -163t-71 -118.5t-108 -77t-133 -43t-151 -12.5q-241 0 -402 96q-17 26 -25 65.5t-3 75.5zM569 1700l-282 -180q-29 25 -35 86l250 174
q25 10 67 10q43 0 68 -10l260 -183q-6 -56 -53 -79z" />
    <glyph glyph-name="scircumflex" unicode="&#x15d;" horiz-adv-x="901" 
d="M745 811q-118 98 -272 98q-98 0 -147.5 -40.5t-49.5 -110.5q0 -48 28.5 -84.5t74 -60t100.5 -45t109.5 -46.5t100 -57t74 -85t28.5 -122q0 -78 -28.5 -137t-79 -93.5t-114 -51.5t-139.5 -17q-80 0 -158 18.5t-129 51.5q-16 22 -22.5 61t-1.5 72q55 -44 142 -70t169 -26
q111 0 175.5 47.5t64.5 130.5q0 53 -28 93t-73.5 65.5t-100 47t-109 45.5t-100 54t-73.5 79.5t-28 114.5q0 132 78.5 200.5t226.5 68.5q156 0 256 -74q14 -19 22 -59.5t4 -67.5zM188 1198l220 254q40 14 104 14l233 -282q-20 -45 -73 -62l-211 244l-223 -250q-42 33 -50 82z
" />
    <glyph glyph-name="Scedilla" unicode="&#x15e;" horiz-adv-x="1134" 
d="M453 -178l39 133q-210 9 -353 94q-17 26 -25 65.5t-3 75.5q86 -59 201 -90.5t233 -31.5q182 0 270 74t88 210q0 67 -25.5 119.5t-68.5 87t-99 61.5t-117.5 49.5t-123.5 46t-118 55.5t-99 72.5t-68.5 102.5t-25.5 141q0 173 113 270t315 97q201 0 348 -98q15 -23 23.5 -65
t0.5 -72q-165 122 -366 122q-150 0 -228.5 -63t-78.5 -174q0 -62 25.5 -111t68.5 -81.5t99 -59.5t118 -50t123.5 -47.5t117.5 -58.5t99 -76.5t68.5 -107t25.5 -145.5q0 -106 -34 -185.5t-95.5 -126.5t-138 -71t-170.5 -29l-21 -82q142 -44 142 -158q0 -86 -67 -142.5
t-175 -74.5q-51 23 -70 72q88 11 141.5 47t53.5 90q0 44 -40 74t-103 41z" />
    <glyph glyph-name="scedilla" unicode="&#x15f;" horiz-adv-x="901" 
d="M745 811q-118 98 -272 98q-98 0 -147.5 -40.5t-49.5 -110.5q0 -48 28.5 -84.5t74 -60t100.5 -45t109.5 -46.5t100 -57t74 -85t28.5 -122q0 -138 -84 -211t-222 -86l-16 -74q119 -44 119 -149q0 -80 -60 -132.5t-157 -70.5q-50 24 -68 70q78 11 125 43.5t47 81.5
q0 41 -33.5 69t-87.5 39l37 123q-155 7 -248 68q-16 22 -22.5 61t-1.5 72q55 -44 142 -70t169 -26q111 0 175.5 47.5t64.5 130.5q0 53 -28 93t-73.5 65.5t-100 47t-109 45.5t-100 54t-73.5 79.5t-28 114.5q0 132 78.5 200.5t226.5 68.5q156 0 256 -74q14 -19 22 -59.5
t4 -67.5z" />
    <glyph glyph-name="Scaron" unicode="&#x160;" horiz-adv-x="1134" 
d="M111 190q86 -59 201 -90.5t233 -31.5q182 0 270 74t88 210q0 67 -25.5 119.5t-68.5 87t-99 61.5t-117.5 49.5t-123.5 46t-118 55.5t-99 72.5t-68.5 102.5t-25.5 141q0 173 113 270t315 97q201 0 348 -98q15 -23 23.5 -65t0.5 -72q-165 122 -366 122q-150 0 -228.5 -63
t-78.5 -174q0 -62 25.5 -111t68.5 -81.5t99 -59.5t118 -50t123.5 -47.5t117.5 -58.5t99 -76.5t68.5 -107t25.5 -145.5q0 -91 -26 -163t-71 -118.5t-108 -77t-133 -43t-151 -12.5q-241 0 -402 96q-17 26 -25 65.5t-3 75.5zM317 1804l258 -176l275 174q46 -22 55 -76
l-264 -180q-25 -10 -68 -10q-42 0 -67 10l-260 191q17 46 71 67z" />
    <glyph glyph-name="scaron" unicode="&#x161;" horiz-adv-x="901" 
d="M745 811q-118 98 -272 98q-98 0 -147.5 -40.5t-49.5 -110.5q0 -48 28.5 -84.5t74 -60t100.5 -45t109.5 -46.5t100 -57t74 -85t28.5 -122q0 -78 -28.5 -137t-79 -93.5t-114 -51.5t-139.5 -17q-80 0 -158 18.5t-129 51.5q-16 22 -22.5 61t-1.5 72q55 -44 142 -70t169 -26
q111 0 175.5 47.5t64.5 130.5q0 53 -28 93t-73.5 65.5t-100 47t-109 45.5t-100 54t-73.5 79.5t-28 114.5q0 132 78.5 200.5t226.5 68.5q156 0 256 -74q14 -19 22 -59.5t4 -67.5zM414 1135l-234 284q28 38 86 45l201 -231l213 237q49 -12 68 -55l-226 -268q-40 -12 -108 -12z
" />
    <glyph glyph-name="Tcommaaccent" unicode="&#x162;" horiz-adv-x="1157" 
d="M481 -178l51 178q-10 0 -16 6v1290h-461q-10 17 -10 56q0 38 10 55h1047q10 -17 10 -55q0 -39 -10 -56h-461v-1290q-6 -6 -16 -6l-25 -127q141 -44 141 -158q0 -86 -66.5 -142.5t-174.5 -74.5q-51 23 -70 72q88 11 141.5 47t53.5 90q0 44 -40.5 74t-103.5 41z" />
    <glyph glyph-name="tcommaaccent" unicode="&#x163;" horiz-adv-x="745" 
d="M219 971v229q42 36 119 39v-268h315q9 -18 9 -53q0 -38 -9 -56h-315v-602q0 -97 32.5 -143.5t123.5 -46.5q113 0 202 80q4 -35 -4.5 -72.5t-25.5 -57.5q-70 -54 -160 -59l-17 -74q119 -44 119 -149q0 -80 -60 -132.5t-157 -70.5q-49 24 -67 70q78 11 125 43.5t47 81.5
q0 41 -33.5 69t-87.5 39l37 125q-98 12 -145.5 79t-47.5 202v618h-151q0 61 20 109h131z" />
    <glyph glyph-name="Tcaron" unicode="&#x164;" horiz-adv-x="1157" 
d="M1102 1296h-461v-1290q-17 -10 -63 -10q-45 0 -62 10v1290h-461q-10 17 -10 56q0 38 10 55h1047q10 -17 10 -55q0 -39 -10 -56zM319 1804l259 -176l274 174q46 -22 55 -76l-264 -180q-25 -10 -68 -10q-42 0 -67 10l-260 191q17 46 71 67z" />
    <glyph glyph-name="tcaron" unicode="&#x165;" horiz-adv-x="753" 
d="M338 862v-602q0 -97 32.5 -143.5t123.5 -46.5q113 0 202 80q4 -35 -4.5 -72.5t-25.5 -57.5q-77 -61 -199 -61q-127 0 -187.5 66.5t-60.5 218.5v618h-151q0 61 20 109h131v229q42 36 119 39v-268h315q9 -18 9 -53q0 -38 -9 -56h-315zM762 1450q-3 -85 -31.5 -191
t-60.5 -172q-63 7 -88 41q51 145 63 297q43 25 117 25z" />
    <glyph glyph-name="Tbar" unicode="&#x166;" horiz-adv-x="1165" 
d="M645 1296v-530h299q10 -17 10 -51t-10 -51h-299v-658q-17 -10 -63 -10q-45 0 -62 10v658h-299q-10 17 -10 51t10 51h299v530h-461q-10 17 -10 56q0 38 10 55h1047q10 -17 10 -55q0 -39 -10 -56h-461z" />
    <glyph glyph-name="tbar" unicode="&#x167;" horiz-adv-x="755" 
d="M342 971h315q9 -18 9 -53q0 -38 -9 -56h-315v-305h272q9 -14 9 -47q0 -36 -9 -49h-272v-201q0 -97 32.5 -143.5t123.5 -46.5q113 0 202 80q4 -35 -4.5 -72.5t-25.5 -57.5q-77 -61 -199 -61q-127 0 -187.5 66.5t-60.5 218.5v217h-137q0 53 16 96h121v305h-151q0 61 20 109
h131v229q42 36 119 39v-268z" />
    <glyph glyph-name="Utilde" unicode="&#x168;" horiz-adv-x="1462" 
d="M328 1401v-891q0 -225 99.5 -333.5t301.5 -108.5q420 0 420 448v885q17 10 59 10q45 0 62 -10v-875q0 -276 -133 -424.5t-414 -148.5q-520 0 -520 545v903q17 10 61 10q47 0 64 -10zM381 1602q20 66 76 108.5t137 42.5q48 0 90.5 -16t69 -35t62.5 -35t73 -16
q44 0 76.5 23t44.5 61q56 0 88 -29q-20 -73 -75.5 -116.5t-141.5 -43.5q-45 0 -86 16.5t-67 36t-64 36t-78 16.5q-92 0 -125 -97q-52 6 -80 48z" />
    <glyph glyph-name="utilde" unicode="&#x169;" horiz-adv-x="1171" 
d="M864 100h-6q-100 -141 -334 -141q-55 0 -99.5 8t-91 33.5t-78 67t-51.5 113t-20 167.5v608q45 25 119 25v-608q0 -153 56.5 -228t195.5 -75q103 0 181 39.5t120 99.5v756q17 10 59 10q43 0 60 -10v-961q-35 -18 -92 -18zM903 1311q-12 -76 -58.5 -119t-119.5 -43
q-40 0 -78 16.5t-63.5 36.5t-58.5 36.5t-64 16.5q-83 0 -109 -98q-24 5 -44.5 20.5t-26.5 36.5q15 63 63 103.5t115 40.5q54 0 102.5 -27t88.5 -53.5t75 -26.5q77 0 92 88q51 0 86 -28z" />
    <glyph glyph-name="Umacron" unicode="&#x16a;" horiz-adv-x="1462" 
d="M328 1401v-891q0 -225 99.5 -333.5t301.5 -108.5q420 0 420 448v885q17 10 59 10q45 0 62 -10v-875q0 -276 -133 -424.5t-414 -148.5q-520 0 -520 545v903q17 10 61 10q47 0 64 -10zM444 1694h588q10 -15 10 -49q0 -35 -10 -50h-588q-10 10 -10 50q0 39 10 49z" />
    <glyph glyph-name="umacron" unicode="&#x16b;" horiz-adv-x="1171" 
d="M864 100h-6q-100 -141 -334 -141q-55 0 -99.5 8t-91 33.5t-78 67t-51.5 113t-20 167.5v608q45 25 119 25v-608q0 -153 56.5 -228t195.5 -75q103 0 181 39.5t120 99.5v756q17 10 59 10q43 0 60 -10v-961q-35 -18 -92 -18zM340 1303h516q8 -12 8 -48q0 -35 -8 -47h-532
q0 52 16 95z" />
    <glyph glyph-name="Ubreve" unicode="&#x16c;" horiz-adv-x="1462" 
d="M328 1401v-891q0 -225 99.5 -333.5t301.5 -108.5q420 0 420 448v885q17 10 59 10q45 0 62 -10v-875q0 -276 -133 -424.5t-414 -148.5q-520 0 -520 545v903q17 10 61 10q47 0 64 -10zM969 1798q57 0 92 -24q-26 -109 -110.5 -173.5t-215.5 -64.5q-134 0 -212 57.5
t-97 165.5q31 39 96 45q19 -90 73.5 -131t149.5 -41q84 0 141.5 43.5t82.5 122.5z" />
    <glyph glyph-name="ubreve" unicode="&#x16d;" horiz-adv-x="1171" 
d="M864 100h-6q-100 -141 -334 -141q-55 0 -99.5 8t-91 33.5t-78 67t-51.5 113t-20 167.5v608q45 25 119 25v-608q0 -153 56.5 -228t195.5 -75q103 0 181 39.5t120 99.5v756q17 10 59 10q43 0 60 -10v-961q-35 -18 -92 -18zM403 1452q19 -217 197 -217q78 0 128.5 53.5
t70.5 155.5q63 0 90 -27q-19 -128 -97 -203t-202 -75t-194.5 68.5t-88.5 197.5q35 41 96 47z" />
    <glyph glyph-name="Uring" unicode="&#x16e;" horiz-adv-x="1462" 
d="M328 1401v-891q0 -225 99.5 -333.5t301.5 -108.5q420 0 420 448v885q17 10 59 10q45 0 62 -10v-875q0 -276 -133 -424.5t-414 -148.5q-520 0 -520 545v903q17 10 61 10q47 0 64 -10zM737 1882q104 0 164 -52.5t60 -146.5t-60.5 -145t-163.5 -51q-107 0 -165 51t-58 145
q0 91 60.5 145t162.5 54zM737 1798q-58 0 -92.5 -30t-34.5 -85q0 -54 34.5 -83t92.5 -29q56 0 91.5 29.5t35.5 82.5q0 56 -34.5 85.5t-92.5 29.5z" />
    <glyph glyph-name="uring" unicode="&#x16f;" horiz-adv-x="1171" 
d="M864 100h-6q-100 -141 -334 -141q-55 0 -99.5 8t-91 33.5t-78 67t-51.5 113t-20 167.5v608q45 25 119 25v-608q0 -153 56.5 -228t195.5 -75q103 0 181 39.5t120 99.5v756q17 10 59 10q43 0 60 -10v-961q-35 -18 -92 -18zM594 1489q91 0 144 -50t53 -139q0 -88 -54 -137
t-143 -49q-95 0 -147 48.5t-52 137.5q0 85 53.5 137t145.5 52zM594 1409q-50 0 -80.5 -28.5t-30.5 -80.5t29.5 -79t81.5 -27q47 0 77.5 28t30.5 78q0 53 -29 81t-79 28z" />
    <glyph glyph-name="Uhungarumlaut" unicode="&#x170;" horiz-adv-x="1462" 
d="M328 1401v-891q0 -225 99.5 -333.5t301.5 -108.5q420 0 420 448v885q17 10 59 10q45 0 62 -10v-875q0 -276 -133 -424.5t-414 -148.5q-520 0 -520 545v903q17 10 61 10q47 0 64 -10zM545 1503q-22 8 -39 27t-23 43l262 256q59 -13 89 -64zM940 1503q-48 17 -61 70
l262 256q58 -13 88 -64z" />
    <glyph glyph-name="uhungarumlaut" unicode="&#x171;" horiz-adv-x="1171" 
d="M864 100h-6q-100 -141 -334 -141q-55 0 -99.5 8t-91 33.5t-78 67t-51.5 113t-20 167.5v608q45 25 119 25v-608q0 -153 56.5 -228t195.5 -75q103 0 181 39.5t120 99.5v756q17 10 59 10q43 0 60 -10v-961q-35 -18 -92 -18zM645 1446l-213 -316q-56 6 -78 48l187 303
q66 0 104 -35zM1004 1446l-213 -316q-56 6 -78 48l186 303q67 0 105 -35z" />
    <glyph glyph-name="Uogonek" unicode="&#x172;" horiz-adv-x="1462" 
d="M985 -362q25 -36 25 -91q-38 -18 -105 -18q-101 0 -167 54.5t-66 162.5q0 133 108 205v6q-20 -4 -57 -4q-520 0 -520 545v903q17 10 61 10q47 0 64 -10v-891q0 -225 99.5 -333.5t301.5 -108.5q420 0 420 448v885q17 10 59 10q45 0 62 -10v-875q0 -202 -67.5 -332.5
t-215.5 -195.5q-96 -42 -147.5 -104t-51.5 -130q0 -64 40.5 -100.5t103.5 -36.5q28 0 53 11z" />
    <glyph glyph-name="uogonek" unicode="&#x173;" horiz-adv-x="1171" 
d="M864 100h-6q-100 -141 -334 -141q-55 0 -99.5 8t-91 33.5t-78 67t-51.5 113t-20 167.5v608q45 25 119 25v-608q0 -153 56.5 -228t195.5 -75q103 0 181 39.5t120 99.5v756q17 10 59 10q43 0 60 -10v-977q-139 -84 -139 -201q0 -63 38.5 -96t100.5 -33q21 0 45 8
q24 -30 24 -86q-40 -18 -100 -18q-97 0 -160 52t-63 153q0 161 160 235z" />
    <glyph glyph-name="Wcircumflex" unicode="&#x174;" horiz-adv-x="1894" 
d="M1368 68h6q15 100 56 254l284 1077q20 12 62 12q41 0 57 -12l-375 -1403q-24 -12 -88 -12t-88 12l-266 1024q-43 153 -66 321h-6q-21 -151 -70 -325l-272 -1020q-24 -12 -86 -12q-60 0 -84 12l-369 1403q16 12 60 12q45 0 65 -12l277 -1065q36 -138 53 -266h6
q20 156 49 262l293 1083q27 10 82 10q57 0 84 -10l283 -1089q35 -140 53 -256zM946 1700l-282 -180q-29 25 -35 86l250 174q25 10 67 10q43 0 68 -10l260 -183q-6 -56 -53 -79z" />
    <glyph glyph-name="wcircumflex" unicode="&#x175;" horiz-adv-x="1503" 
d="M1090 76h4q15 103 47 213l207 680q20 8 47 8q45 0 65 -16l-297 -959q-61 -18 -143 -18l-215 706q-35 110 -43 195h-6q-11 -87 -47 -197l-222 -686q-59 -18 -141 -18l-299 977q20 16 66 16q29 0 49 -8l207 -680q33 -116 47 -213h6q14 97 45 200l217 682q68 21 147 21
l209 -696q32 -107 50 -207zM487 1198l220 254q40 14 104 14l233 -282q-20 -45 -73 -62l-211 244l-223 -250q-42 33 -50 82z" />
    <glyph glyph-name="Ycircumflex" unicode="&#x176;" horiz-adv-x="1148" 
d="M514 526l-485 873q16 12 65 12q54 0 74 -12l321 -584q55 -98 89 -209h6q31 111 86 209l319 584q20 12 72 12q47 0 63 -12l-485 -877v-516q-17 -10 -64 -10q-44 0 -61 10v520zM575 1700l-282 -180q-29 25 -35 86l250 174q25 10 67 10q43 0 68 -10l260 -183q-6 -56 -53 -79
z" />
    <glyph glyph-name="ycircumflex" unicode="&#x177;" horiz-adv-x="972" 
d="M504 39h6q16 95 55 205l264 725q20 8 48 8q47 0 69 -16l-160 -426q-175 -467 -245 -611q-81 -165 -185.5 -261.5t-267.5 -151.5q-47 37 -53 100q280 78 399 354l-397 996q22 16 74 16q29 0 49 -8l284 -725q40 -99 60 -205zM223 1198l219 254q40 14 105 14l233 -282
q-20 -45 -73 -62l-211 244l-224 -250q-40 32 -49 82z" />
    <glyph glyph-name="Ydieresis" unicode="&#x178;" horiz-adv-x="1148" 
d="M514 526l-485 873q16 12 65 12q54 0 74 -12l321 -584q55 -98 89 -209h6q31 111 86 209l319 584q20 12 72 12q47 0 63 -12l-485 -877v-516q-17 -10 -64 -10q-44 0 -61 10v520zM799 1720q38 0 61 -21t23 -61q0 -86 -84 -86q-88 0 -88 82q0 42 23 64t65 22zM365 1720
q38 0 61 -21t23 -61q0 -86 -84 -86q-89 0 -89 82q0 42 23.5 64t65.5 22z" />
    <glyph glyph-name="Zacute" unicode="&#x179;" horiz-adv-x="1187" 
d="M1073 1309l-809 -1190v-6h821q11 -18 11 -56q0 -39 -11 -57h-958q-18 42 -18 104l811 1186v6h-779q-10 17 -10 56q0 38 10 55h916q16 -43 16 -98zM872 1800q43 -36 46 -100l-431 -187q-22 31 -22 95z" />
    <glyph glyph-name="zacute" unicode="&#x17a;" horiz-adv-x="917" 
d="M805 879l-557 -768v-7h571q8 -16 8 -51q0 -37 -8 -53h-706q-19 38 -19 88l563 774v6h-546q0 62 18 103h659q17 -42 17 -92zM698 1434l-270 -306q-52 12 -72 54l232 288q71 0 110 -36z" />
    <glyph glyph-name="Zdotaccent" unicode="&#x17b;" horiz-adv-x="1187" 
d="M1073 1309l-809 -1190v-6h821q11 -18 11 -56q0 -39 -11 -57h-958q-18 42 -18 104l811 1186v6h-779q-10 17 -10 56q0 38 10 55h916q16 -43 16 -98zM592 1735q41 0 64.5 -22.5t23.5 -65.5q0 -91 -88 -91q-90 0 -90 89q0 44 23.5 67t66.5 23z" />
    <glyph glyph-name="zdotaccent" unicode="&#x17c;" horiz-adv-x="917" 
d="M805 879l-557 -768v-7h571q8 -16 8 -51q0 -37 -8 -53h-706q-19 38 -19 88l563 774v6h-546q0 62 18 103h659q17 -42 17 -92zM465 1346q38 0 61 -22t23 -62q0 -86 -84 -86q-86 0 -86 84q0 41 23 63.5t63 22.5z" />
    <glyph glyph-name="Zcaron" unicode="&#x17d;" horiz-adv-x="1187" 
d="M1073 1309l-809 -1190v-6h821q11 -18 11 -56q0 -39 -11 -57h-958q-18 42 -18 104l811 1186v6h-779q-10 17 -10 56q0 38 10 55h916q16 -43 16 -98zM332 1804l258 -176l274 174q47 -23 56 -76l-265 -180q-25 -10 -67 -10q-43 0 -68 10l-260 191q17 46 72 67z" />
    <glyph glyph-name="zcaron" unicode="&#x17e;" horiz-adv-x="917" 
d="M805 879l-557 -768v-7h571q8 -16 8 -51q0 -37 -8 -53h-706q-19 38 -19 88l563 774v6h-546q0 62 18 103h659q17 -42 17 -92zM412 1135l-234 284q28 38 86 45l201 -231l213 237q48 -12 67 -55l-225 -268q-40 -12 -108 -12z" />
    <glyph glyph-name="longs" unicode="&#x17f;" horiz-adv-x="542" 
d="M195 6v1172q0 98 20.5 167.5t59.5 107.5t86.5 54.5t109.5 16.5q110 0 178 -47q15 -21 22 -53.5t1 -65.5q-84 59 -176 59q-103 0 -143 -59t-40 -170v-1182q-17 -10 -59 -10t-59 10z" />
    <glyph glyph-name="uni018F" unicode="&#x18f;" horiz-adv-x="1396" 
d="M193 741h970q-20 291 -162.5 445.5t-394.5 154.5q-207 0 -362 -84q-2 32 7.5 67t27.5 56q59 32 158.5 53t199.5 21q205 0 355.5 -100t226 -271.5t75.5 -394.5q0 -221 -73 -386.5t-213 -257t-332 -91.5q-130 0 -230.5 43.5t-162.5 120t-93.5 175.5t-31.5 216q0 143 35 233
zM1163 633h-870q-10 -48 -10 -117q0 -84 21.5 -160.5t67 -142.5t126.5 -105.5t188 -39.5q218 0 343.5 153.5t133.5 411.5z" />
    <glyph glyph-name="florin" unicode="&#x192;" horiz-adv-x="851" 
d="M113 578h252l16 180q9 100 36 170t69 108t90.5 54t109.5 16q109 0 174 -47q13 -22 18 -56t-1 -63q-74 57 -172 57q-107 0 -152 -59t-55 -176l-17 -184h271q6 -9 6 -37q0 -42 -15 -62h-270l-41 -459q-9 -99 -36 -168.5t-70 -107t-93 -54t-114 -16.5q-106 0 -174 43
q-32 55 -19 127q88 -59 183 -59q105 0 148.5 58t53.5 171l43 465h-268q0 22 8.5 53t18.5 46z" />
    <glyph glyph-name="uni01B5" unicode="&#x1b5;" horiz-adv-x="1204" 
d="M989 664h-346l-371 -545v-6h822q10 -17 10 -56q0 -40 -10 -57h-959q-18 42 -18 104l383 560h-279q-10 17 -10 51t10 51h348l359 524v6h-778q-11 18 -11 56q0 37 11 55h915q16 -43 16 -98l-368 -543h276q10 -17 10 -51t-10 -51z" />
    <glyph glyph-name="uni01B6" unicode="&#x1b6;" horiz-adv-x="925" 
d="M182 541h246l234 321v6h-547q0 62 18 103h660q16 -40 16 -92l-246 -338h189q8 -12 8 -47q0 -38 -8 -50h-258l-242 -333v-7h571q8 -16 8 -51q0 -37 -8 -53h-706q-19 38 -19 88l260 356h-192q0 54 16 97z" />
    <glyph glyph-name="Aringacute" unicode="&#x1fa;" horiz-adv-x="1302" 
d="M823 2023q37 -30 41 -92l-405 -176q-29 29 -29 80zM1130 8l-165 443h-633l-164 -443q-20 -12 -66 -12q-45 0 -61 12l520 1358q-66 17 -100.5 64.5t-34.5 119.5q0 91 60.5 145t162.5 54q104 0 163.5 -52.5t59.5 -146.5q0 -69 -34 -116t-95 -66l519 -1360q-16 -12 -62 -12
q-50 0 -70 12zM373 559h553l-127 342q-109 290 -148 442h-6q-38 -153 -145 -442zM649 1665q-58 0 -92.5 -30t-34.5 -85q0 -54 34.5 -83t92.5 -29q56 0 91.5 29.5t35.5 82.5q0 56 -34.5 85.5t-92.5 29.5z" />
    <glyph glyph-name="aringacute" unicode="&#x1fb;" horiz-adv-x="1050" 
d="M729 74h-6q-97 -115 -291 -115q-68 0 -125 16.5t-103.5 50t-73 91.5t-26.5 135q0 111 53.5 185t140.5 106t204 32q135 0 221 -34v82q0 149 -54.5 214.5t-183.5 65.5q-163 0 -307 -94q-7 26 -3 63t18 60q53 35 139 57.5t180 22.5q168 0 248 -85.5t80 -285.5v-489
q0 -48 18.5 -66t52.5 -18q65 0 101 32q3 -64 -25 -106q-44 -35 -115 -35q-57 0 -95 29t-48 86zM723 186v256q-103 35 -209 35q-141 0 -216 -58t-75 -161q0 -94 65.5 -142t168.5 -48q79 0 152.5 29t113.5 89zM500 1440q91 0 143.5 -50t52.5 -139q0 -88 -53.5 -137t-142.5 -49
q-95 0 -147 48.5t-52 137.5q0 85 53.5 137t145.5 52zM500 1360q-50 0 -80.5 -28.5t-30.5 -80.5t29.5 -79t81.5 -27q47 0 77.5 28t30.5 78q0 53 -29 81t-79 28zM643 1704q38 -30 41 -88l-350 -150q-19 31 -19 82z" />
    <glyph glyph-name="AEacute" unicode="&#x1fc;" horiz-adv-x="1970" 
d="M909 1407h924q10 -17 10 -55q0 -39 -10 -56h-733v-524h680q10 -17 10 -53q0 -38 -10 -55h-680v-551h753q11 -18 11 -56q0 -39 -11 -57h-878v473h-520l-293 -465q-24 -12 -78 -12q-46 0 -66 12zM748 938l-226 -358h453v735h-6q-98 -183 -221 -377zM1305 1800
q42 -35 45 -100l-430 -187q-23 32 -23 95z" />
    <glyph glyph-name="aeacute" unicode="&#x1fd;" horiz-adv-x="1673" 
d="M842 459q3 -194 110 -292.5t291 -98.5q163 0 297 82q6 -64 -29 -113q-116 -78 -299 -78q-134 0 -238 49.5t-157 136.5h-6q-48 -79 -141.5 -132.5t-231.5 -53.5q-70 0 -129 16t-106.5 49.5t-74 91.5t-26.5 136q0 112 55 189t144 112t205 35q122 0 217 -29v64
q0 149 -54.5 214.5t-185.5 65.5q-163 0 -307 -94q-8 26 -3.5 63t17.5 60q53 35 138.5 57.5t177.5 22.5q137 0 210.5 -52.5t90.5 -164.5h6q42 99 142.5 158t234.5 59q180 0 274.5 -109.5t94.5 -286.5q0 -89 -23 -157h-694zM459 68q201 0 309 163q-42 89 -45 230
q-96 28 -201 28q-146 0 -223.5 -59t-77.5 -166q0 -99 65 -147.5t173 -48.5zM844 561h596q7 62 -1.5 119t-35 110t-83 85t-138.5 32q-146 0 -236 -95.5t-102 -250.5zM1038 1434l-270 -306q-52 12 -72 54l232 288q71 0 110 -36z" />
    <glyph glyph-name="Oslashacute" unicode="&#x1fe;" horiz-adv-x="1505" 
d="M754 1454q255 0 411 -156l168 207q67 -16 88 -69l-182 -226q131 -182 131 -491q0 -364 -166 -565t-450 -201q-258 0 -414 147l-178 -219q-69 19 -84 76l188 231q-131 193 -131 531q0 341 169.5 538t449.5 197zM264 719q0 -260 90 -422l733 901q-128 143 -333 143
q-238 0 -364 -165.5t-126 -456.5zM1241 719q0 229 -88 389l-733 -905q126 -135 334 -135q234 0 360.5 172.5t126.5 478.5zM1026 1800q42 -35 45 -100l-430 -187q-23 32 -23 95z" />
    <glyph glyph-name="oslashacute" unicode="&#x1ff;" horiz-adv-x="1138" 
d="M571 1012q170 0 279 -86l106 133q58 -12 84 -62l-116 -147q96 -135 96 -350q0 -259 -119.5 -400t-329.5 -141q-177 0 -290 90l-123 -153q-47 33 -60 94l113 137q-92 136 -92 373q0 241 121.5 376.5t330.5 135.5zM899 500q0 149 -57 254l-488 -609q82 -79 217 -79
q160 0 244 114.5t84 319.5zM240 500q0 -171 55 -273l483 604q-80 74 -207 74q-162 0 -246.5 -107.5t-84.5 -297.5zM799 1434l-271 -306q-51 12 -71 54l231 288q72 0 111 -36z" />
    <glyph glyph-name="Scommaaccent" unicode="&#x218;" horiz-adv-x="1134" 
d="M111 190q86 -59 201 -90.5t233 -31.5q182 0 270 74t88 210q0 67 -25.5 119.5t-68.5 87t-99 61.5t-117.5 49.5t-123.5 46t-118 55.5t-99 72.5t-68.5 102.5t-25.5 141q0 173 113 270t315 97q201 0 348 -98q15 -23 23.5 -65t0.5 -72q-165 122 -366 122q-150 0 -228.5 -63
t-78.5 -174q0 -62 25.5 -111t68.5 -81.5t99 -59.5t118 -50t123.5 -47.5t117.5 -58.5t99 -76.5t68.5 -107t25.5 -145.5q0 -91 -26 -163t-71 -118.5t-108 -77t-133 -43t-151 -12.5q-241 0 -402 96q-17 26 -25 65.5t-3 75.5zM631 -98q-4 -94 -33.5 -206t-65.5 -173
q-65 7 -90 39q59 155 68 313q42 27 121 27z" />
    <glyph glyph-name="scommaaccent" unicode="&#x219;" horiz-adv-x="901" 
d="M745 811q-118 98 -272 98q-98 0 -147.5 -40.5t-49.5 -110.5q0 -48 28.5 -84.5t74 -60t100.5 -45t109.5 -46.5t100 -57t74 -85t28.5 -122q0 -78 -28.5 -137t-79 -93.5t-114 -51.5t-139.5 -17q-80 0 -158 18.5t-129 51.5q-16 22 -22.5 61t-1.5 72q55 -44 142 -70t169 -26
q111 0 175.5 47.5t64.5 130.5q0 53 -28 93t-73.5 65.5t-100 47t-109 45.5t-100 54t-73.5 79.5t-28 114.5q0 132 78.5 200.5t226.5 68.5q156 0 256 -74q14 -19 22 -59.5t4 -67.5zM324 -428q59 150 71 315q43 25 117 25q-3 -91 -33.5 -202.5t-66.5 -178.5q-63 7 -88 41z" />
    <glyph glyph-name="uni021A" unicode="&#x21a;" horiz-adv-x="1157" 
d="M1102 1296h-461v-1290q-17 -10 -63 -10q-45 0 -62 10v1290h-461q-10 17 -10 56q0 38 10 55h1047q10 -17 10 -55q0 -39 -10 -56zM637 -98q-4 -95 -33.5 -207t-64.5 -172q-65 7 -90 39q58 152 67 313q42 27 121 27z" />
    <glyph glyph-name="uni021B" unicode="&#x21b;" horiz-adv-x="745" 
d="M338 862v-602q0 -97 32.5 -143.5t123.5 -46.5q113 0 202 80q4 -35 -4.5 -72.5t-25.5 -57.5q-77 -61 -199 -61q-127 0 -187.5 66.5t-60.5 218.5v618h-151q0 61 20 109h131v229q42 36 119 39v-268h315q9 -18 9 -53q0 -38 -9 -56h-315zM334 -428q61 153 72 315q43 25 116 25
q-3 -91 -33.5 -202.5t-66.5 -178.5q-63 7 -88 41z" />
    <glyph glyph-name="uni0237" unicode="&#x237;" horiz-adv-x="526" 
d="M334 965v-850q0 -113 -21.5 -206t-63 -164.5t-88.5 -124t-112 -105.5q-57 22 -67 84q54 44 92.5 87t72.5 102t51 135t17 169v873q17 10 59 10q43 0 60 -10z" />
    <glyph glyph-name="uni0259" unicode="&#x259;" horiz-adv-x="1075" 
d="M141 530h705q-7 178 -107.5 275.5t-275.5 97.5q-153 0 -279 -72q0 68 33 113q109 68 277 68q227 0 350 -142t123 -381q0 -241 -122.5 -385.5t-336.5 -144.5q-188 0 -290.5 109.5t-102.5 287.5q0 107 26 174zM844 428h-608q-6 -48 -5.5 -98.5t20 -98.5t50 -85t86 -60
t127.5 -23q152 0 236.5 97.5t93.5 267.5z" />
    <glyph glyph-name="uni02BB" unicode="&#x2bb;" horiz-adv-x="413" 
d="M139 1073q6 98 37.5 206t71.5 185q45 25 117 25q-42 -89 -71.5 -199.5t-35.5 -212.5q-19 -16 -65 -16q-42 0 -54 12z" />
    <glyph glyph-name="afii57929" unicode="&#x2bc;" horiz-adv-x="413" 
d="M328 1489q-6 -108 -43 -238t-80 -200q-63 7 -88 41q78 184 90 370q42 27 121 27z" />
    <glyph glyph-name="circumflex" unicode="&#x2c6;" horiz-adv-x="851" 
d="M147 1198l220 254q40 14 104 14l234 -282q-20 -45 -74 -62l-211 244l-223 -250q-42 33 -50 82z" />
    <glyph glyph-name="caron" unicode="&#x2c7;" horiz-adv-x="851" 
d="M377 1135l-234 284q28 38 86 45l201 -231l213 237q49 -12 68 -55l-226 -268q-41 -12 -108 -12z" />
    <glyph glyph-name="breve" unicode="&#x2d8;" horiz-adv-x="851" 
d="M231 1452q19 -217 197 -217q78 0 128.5 53.5t70.5 155.5q63 0 90 -27q-19 -128 -97 -203t-202 -75t-194.5 68.5t-88.5 197.5q35 41 96 47z" />
    <glyph glyph-name="dotaccent" unicode="&#x2d9;" horiz-adv-x="851" 
d="M426 1346q38 0 61 -22t23 -62q0 -86 -84 -86q-86 0 -86 84q0 41 23 63.5t63 22.5z" />
    <glyph glyph-name="ring" unicode="&#x2da;" horiz-adv-x="851" 
d="M426 1489q91 0 144 -50t53 -139q0 -88 -54 -137t-143 -49q-95 0 -147 48.5t-52 137.5q0 85 53.5 137t145.5 52zM426 1409q-50 0 -80.5 -28.5t-30.5 -80.5t29.5 -79t81.5 -27q47 0 78 28.5t31 77.5q0 53 -29 81t-80 28z" />
    <glyph glyph-name="ogonek" unicode="&#x2db;" horiz-adv-x="851" 
d="M567 -334q25 -31 25 -86q-40 -18 -100 -18q-97 0 -160.5 52t-63.5 153q0 167 178 237q62 16 148 16q-211 -90 -211 -233q0 -63 38.5 -96t100.5 -33q21 0 45 8z" />
    <glyph glyph-name="tilde" unicode="&#x2dc;" horiz-adv-x="851" 
d="M737 1311q-12 -76 -58.5 -119t-119.5 -43q-40 0 -78 16.5t-63.5 36.5t-58.5 36.5t-64 16.5q-83 0 -109 -98q-24 5 -44.5 20.5t-26.5 36.5q15 63 63 103.5t115 40.5q54 0 102.5 -27t88.5 -53.5t75 -26.5q77 0 92 88q51 0 86 -28z" />
    <glyph glyph-name="hungarumlaut" unicode="&#x2dd;" horiz-adv-x="851" 
d="M420 1446l-213 -316q-56 6 -78 48l186 303q67 0 105 -35zM778 1446l-213 -316q-56 6 -78 48l187 303q66 0 104 -35z" />
    <glyph glyph-name="gravecomb" unicode="&#x300;" horiz-adv-x="2" 
d="M2 1186q-20 -44 -80 -56l-260 306q40 37 119 37z" />
    <glyph glyph-name="acutecomb" unicode="&#x301;" horiz-adv-x="2" 
d="M2 1434l-270 -306q-52 12 -72 54l231 288q72 0 111 -36z" />
    <glyph glyph-name="uni0302" unicode="&#x302;" horiz-adv-x="2" 
d="M-555 1198l219 254q40 14 105 14l233 -282q-20 -45 -74 -62l-211 244l-223 -250q-40 32 -49 82z" />
    <glyph glyph-name="tildecomb" unicode="&#x303;" horiz-adv-x="2" 
d="M2 1311q-12 -76 -58.5 -119t-119.5 -43q-40 0 -78 16.5t-63.5 36.5t-58.5 36.5t-64 16.5q-83 0 -109 -98q-25 5 -45.5 20.5t-26.5 36.5q15 63 63.5 103.5t115.5 40.5q54 0 102.5 -27t88.5 -53.5t75 -26.5q77 0 92 88q51 0 86 -28z" />
    <glyph glyph-name="uni0304" unicode="&#x304;" horiz-adv-x="2" 
d="M-522 1303h516q8 -12 8 -48q0 -35 -8 -47h-533q0 49 17 95z" />
    <glyph glyph-name="uni0306" unicode="&#x306;" horiz-adv-x="2" 
d="M-483 1452q19 -217 196 -217q78 0 128.5 53.5t70.5 155.5q63 0 90 -27q-19 -128 -97 -203t-202 -75t-194.5 68.5t-88.5 197.5q35 41 97 47z" />
    <glyph glyph-name="uni0307" unicode="&#x307;" horiz-adv-x="2" 
d="M-82 1346q38 0 61 -22t23 -62q0 -86 -84 -86q-86 0 -86 84q0 41 23 63.5t63 22.5z" />
    <glyph glyph-name="uni0308" unicode="&#x308;" horiz-adv-x="2" 
d="M-475 1337q36 0 58 -20.5t22 -59.5q0 -81 -80 -81q-82 0 -82 79q0 39 21.5 60.5t60.5 21.5zM-78 1337q36 0 58 -20.5t22 -59.5q0 -81 -80 -81q-82 0 -82 79q0 39 21.5 60.5t60.5 21.5z" />
    <glyph glyph-name="uni030A" unicode="&#x30a;" horiz-adv-x="2" 
d="M-195 1489q91 0 144 -50t53 -139q0 -88 -54 -137t-143 -49q-95 0 -146.5 48.5t-51.5 137.5q0 86 53.5 137.5t144.5 51.5zM-195 1409q-50 0 -80 -28.5t-30 -80.5t29 -79t81 -27q47 0 78 28.5t31 77.5q0 53 -29 81t-80 28z" />
    <glyph glyph-name="uni030B" unicode="&#x30b;" horiz-adv-x="2" 
d="M-356 1446l-213 -316q-56 6 -78 48l186 303q67 0 105 -35zM2 1446l-213 -316q-56 6 -78 48l187 303q66 0 104 -35z" />
    <glyph glyph-name="uni030C" unicode="&#x30c;" horiz-adv-x="2" 
d="M-332 1135l-233 284q28 38 86 45l200 -231l213 237q49 -12 68 -55l-225 -268q-41 -12 -109 -12z" />
    <glyph glyph-name="uni0312" unicode="&#x312;" horiz-adv-x="2" 
d="M-188 1137q12 169 82 317q42 27 108 27q-64 -159 -76 -340q-20 -17 -63 -17q-38 0 -51 13z" />
    <glyph glyph-name="uni0313" unicode="&#x313;" horiz-adv-x="2" 
d="M2 1475q-3 -85 -31.5 -191t-60.5 -172q-63 7 -88 41q51 145 63 297q43 25 117 25z" />
    <glyph glyph-name="uni0326" unicode="&#x326;" horiz-adv-x="2" 
d="M-186 -428q59 150 71 315q43 25 117 25q-3 -91 -33.5 -202.5t-66.5 -178.5q-63 7 -88 41z" />
    <glyph glyph-name="uni0394" unicode="&#x394;" horiz-adv-x="1288" 
d="M1194 0h-1100q-22 46 -22 104l491 1307q24 12 78 12q58 0 82 -12l494 -1307q0 -56 -23 -104zM1081 115l-321 864q-75 201 -115 362h-6q-36 -143 -117 -366l-317 -860h876z" />
    <glyph glyph-name="uni03A9" unicode="&#x3a9;" horiz-adv-x="1599" 
d="M100 113h381v6q-139 69 -228 244.5t-89 394.5q0 313 177.5 504.5t465.5 191.5q287 0 458 -190.5t171 -501.5q0 -233 -95 -405.5t-229 -237.5v-6h387q10 -17 10 -56q0 -40 -10 -57h-534q-19 49 -19 115q80 43 144 102t113.5 136.5t76.5 176.5t27 213q0 90 -16 173
t-54 161.5t-95 136t-144 92.5t-195 35t-195.5 -34t-145 -90.5t-96.5 -134t-56 -161t-17 -173.5q0 -220 99 -386t270 -247q0 -61 -21 -115h-541q-10 17 -10 57q0 39 10 56z" />
    <glyph glyph-name="uni03BC" unicode="&#x3bc;" horiz-adv-x="1218" 
d="M881 211v754q17 10 59 10t59 -10v-807q0 -52 19 -69t57 -17q64 0 105 32q2 -29 -5.5 -61t-19.5 -47q-47 -33 -119 -33q-65 0 -102 32.5t-45 90.5h-6q-21 -28 -53 -53.5t-101 -49.5t-154 -24q-215 0 -272 141h-6q18 -111 18 -276v-285q-17 -10 -59 -10t-59 10v1417
q45 25 118 25v-612q0 -145 62 -222t203 -77q107 0 185.5 40.5t115.5 100.5z" />
    <glyph glyph-name="pi" unicode="&#x3c0;" horiz-adv-x="1116" 
d="M45 971h1030q8 -16 8 -53q0 -40 -8 -56h-215v-672q0 -65 21.5 -88.5t64.5 -23.5q69 0 111 39q3 -31 -5.5 -64.5t-23.5 -48.5q-41 -35 -119 -35q-168 0 -168 197v696h-397v-856q-17 -10 -59 -10q-43 0 -60 10v856h-200q0 61 20 109z" />
    <glyph glyph-name="Wgrave" unicode="&#x1e80;" horiz-adv-x="1894" 
d="M1368 68h6q15 100 56 254l284 1077q20 12 62 12q41 0 57 -12l-375 -1403q-24 -12 -88 -12t-88 12l-266 1024q-43 153 -66 321h-6q-21 -151 -70 -325l-272 -1020q-24 -12 -86 -12q-60 0 -84 12l-369 1403q16 12 60 12q45 0 65 -12l277 -1065q36 -138 53 -266h6
q20 156 49 262l293 1083q27 10 82 10q57 0 84 -10l283 -1089q35 -140 53 -256zM700 1796l385 -192q0 -60 -36 -88l-424 190q8 27 28.5 52t46.5 38z" />
    <glyph glyph-name="wgrave" unicode="&#x1e81;" horiz-adv-x="1503" 
d="M1090 76h4q15 103 47 213l207 680q20 8 47 8q45 0 65 -16l-297 -959q-61 -18 -143 -18l-215 706q-35 110 -43 195h-6q-11 -87 -47 -197l-222 -686q-59 -18 -141 -18l-299 977q20 16 66 16q29 0 49 -8l207 -680q33 -116 47 -213h6q14 97 45 200l217 682q68 21 147 21
l209 -696q32 -107 50 -207zM870 1186q-20 -44 -79 -56l-261 306q40 37 119 37z" />
    <glyph glyph-name="Wacute" unicode="&#x1e82;" horiz-adv-x="1894" 
d="M1368 68h6q15 100 56 254l284 1077q20 12 62 12q41 0 57 -12l-375 -1403q-24 -12 -88 -12t-88 12l-266 1024q-43 153 -66 321h-6q-21 -151 -70 -325l-272 -1020q-24 -12 -86 -12q-60 0 -84 12l-369 1403q16 12 60 12q45 0 65 -12l277 -1065q36 -138 53 -266h6
q20 156 49 262l293 1083q27 10 82 10q57 0 84 -10l283 -1089q35 -140 53 -256zM1229 1800q42 -35 45 -100l-430 -187q-23 32 -23 95z" />
    <glyph glyph-name="wacute" unicode="&#x1e83;" horiz-adv-x="1503" 
d="M1090 76h4q15 103 47 213l207 680q20 8 47 8q45 0 65 -16l-297 -959q-61 -18 -143 -18l-215 706q-35 110 -43 195h-6q-11 -87 -47 -197l-222 -686q-59 -18 -141 -18l-299 977q20 16 66 16q29 0 49 -8l207 -680q33 -116 47 -213h6q14 97 45 200l217 682q68 21 147 21
l209 -696q32 -107 50 -207zM991 1434l-270 -306q-52 12 -72 54l232 288q71 0 110 -36z" />
    <glyph glyph-name="Wdieresis" unicode="&#x1e84;" horiz-adv-x="1894" 
d="M1276 1720q38 0 61 -21t23 -61q0 -86 -84 -86q-88 0 -88 82q0 42 23 64t65 22zM625 1720q38 0 61 -21t23 -61q0 -86 -84 -86q-88 0 -88 82q0 42 23 64t65 22zM1368 68h6q15 100 56 254l284 1077q20 12 62 12q41 0 57 -12l-375 -1403q-24 -12 -88 -12t-88 12l-266 1024
q-43 153 -66 321h-6q-21 -151 -70 -325l-272 -1020q-24 -12 -86 -12q-60 0 -84 12l-369 1403q16 12 60 12q45 0 65 -12l277 -1065q36 -138 53 -266h6q20 156 49 262l293 1083q27 10 82 10q57 0 84 -10l283 -1089q35 -140 53 -256z" />
    <glyph glyph-name="wdieresis" unicode="&#x1e85;" horiz-adv-x="1503" 
d="M1090 76h4q15 103 47 213l207 680q20 8 47 8q45 0 65 -16l-297 -959q-61 -18 -143 -18l-215 706q-35 110 -43 195h-6q-11 -87 -47 -197l-222 -686q-59 -18 -141 -18l-299 977q20 16 66 16q29 0 49 -8l207 -680q33 -116 47 -213h6q14 97 45 200l217 682q68 21 147 21
l209 -696q32 -107 50 -207zM469 1337q36 0 58 -20.5t22 -59.5q0 -81 -80 -81q-82 0 -82 79q0 39 21.5 60.5t60.5 21.5zM1055 1337q36 0 58 -20.5t22 -59.5q0 -81 -80 -81q-82 0 -82 79q0 39 21.5 60.5t60.5 21.5z" />
    <glyph glyph-name="uni1E8A" unicode="&#x1e8a;" horiz-adv-x="1214" 
d="M262 1399l281 -434q65 -102 84 -140h6q38 74 86 144l282 430q24 12 78 12q52 0 64 -12l-447 -668l473 -723q-12 -12 -65 -12q-58 0 -82 12l-322 500q-45 67 -82 139h-6q-29 -57 -90 -143l-332 -496q-24 -12 -79 -12q-52 0 -64 12l500 733l-428 658q12 12 63 12
q56 0 80 -12zM625 1735q41 0 64.5 -22.5t23.5 -65.5q0 -91 -88 -91q-90 0 -90 89q0 44 23.5 67t66.5 23z" />
    <glyph glyph-name="uni1E8B" unicode="&#x1e8b;" horiz-adv-x="989" 
d="M248 969l198 -287q51 -73 60 -96h6q11 35 59 102l189 281q20 8 51 8q52 0 74 -16l-312 -453l351 -500q-9 -12 -62 -12t-71 12l-228 324q-49 71 -61 100h-6q-6 -15 -62 -96l-229 -328q-18 -12 -72 -12q-50 0 -59 12l358 504l-313 449q22 16 76 16q33 0 53 -8zM506 1346
q38 0 61 -22t23 -62q0 -86 -84 -86q-86 0 -86 84q0 41 23 63.5t63 22.5z" />
    <glyph glyph-name="Ygrave" unicode="&#x1ef2;" horiz-adv-x="1148" 
d="M514 526l-485 873q16 12 65 12q54 0 74 -12l321 -584q55 -98 89 -209h6q31 111 86 209l319 584q20 12 72 12q47 0 63 -12l-485 -877v-516q-17 -10 -64 -10q-44 0 -61 10v520zM344 1796l385 -192q0 -59 -37 -88l-424 190q8 26 29 51.5t47 38.5z" />
    <glyph glyph-name="ygrave" unicode="&#x1ef3;" horiz-adv-x="972" 
d="M504 39h6q16 95 55 205l264 725q20 8 48 8q47 0 69 -16l-160 -426q-175 -467 -245 -611q-81 -165 -185.5 -261.5t-267.5 -151.5q-47 37 -53 100q280 78 399 354l-397 996q22 16 74 16q29 0 49 -8l284 -725q40 -99 60 -205zM618 1186q-20 -44 -79 -56l-260 306
q40 37 118 37z" />
    <glyph glyph-name="uni2007" unicode="&#x2007;" horiz-adv-x="1243" 
 />
    <glyph glyph-name="uni2008" unicode="&#x2008;" horiz-adv-x="462" 
 />
    <glyph glyph-name="uni200B" unicode="&#x200b;" horiz-adv-x="0" 
 />
    <glyph glyph-name="endash" unicode="&#x2013;" horiz-adv-x="1024" 
d="M100 588h828q8 -16 8 -53q0 -40 -8 -56h-846q0 69 18 109z" />
    <glyph glyph-name="emdash" unicode="&#x2014;" horiz-adv-x="2048" 
d="M100 588h1852q8 -16 8 -53q0 -40 -8 -56h-1870q0 69 18 109z" />
    <glyph glyph-name="quoteleft" unicode="&#x2018;" horiz-adv-x="413" 
d="M139 1073q6 98 37.5 206t71.5 185q45 25 117 25q-42 -89 -71.5 -199.5t-35.5 -212.5q-19 -16 -65 -16q-42 0 -54 12z" />
    <glyph glyph-name="quoteright" unicode="&#x2019;" horiz-adv-x="413" 
d="M328 1489q-6 -108 -43 -238t-80 -200q-63 7 -88 41q78 184 90 370q42 27 121 27z" />
    <glyph glyph-name="quotesinglbase" unicode="&#x201a;" horiz-adv-x="413" 
d="M287 139q-6 -110 -43.5 -243t-81.5 -205q-63 7 -88 41q80 183 92 381q40 26 121 26z" />
    <glyph glyph-name="quotereversed" unicode="&#x201b;" horiz-adv-x="413" 
d="M309 1047q-27 -38 -88 -41q-42 69 -77.5 187.5t-45.5 223.5q52 35 117 35q6 -101 31.5 -211.5t62.5 -193.5z" />
    <glyph glyph-name="quotedblleft" unicode="&#x201c;" horiz-adv-x="714" 
d="M139 1073q6 98 37.5 206t71.5 185q45 25 117 25q-42 -89 -71.5 -199.5t-35.5 -212.5q-19 -16 -63 -16t-56 12zM440 1073q6 98 37.5 206t71.5 185q45 25 117 25q-42 -89 -71.5 -199.5t-35.5 -212.5q-19 -16 -63 -16t-56 12z" />
    <glyph glyph-name="quotedblright" unicode="&#x201d;" horiz-adv-x="714" 
d="M328 1489q-6 -108 -43 -238t-80 -200q-61 7 -86 41q78 180 90 370q42 27 119 27zM629 1489q-6 -108 -43 -238t-80 -200q-61 7 -86 41q78 180 90 370q42 27 119 27z" />
    <glyph glyph-name="quotedblbase" unicode="&#x201e;" horiz-adv-x="714" 
d="M287 139q-6 -108 -43.5 -240t-81.5 -204q-63 7 -88 41q79 180 92 377q40 26 121 26zM588 139q-6 -108 -43.5 -240t-81.5 -204q-63 7 -88 41q79 180 92 377q40 26 121 26z" />
    <glyph glyph-name="dagger" unicode="&#x2020;" horiz-adv-x="1024" 
d="M76 971h366l-2 430q32 16 80 16q31 0 49 -6l-2 -440h387q9 -18 9 -51q0 -36 -9 -54h-389l-6 -1202q-17 -10 -55 -10q-36 0 -53 10l-7 1202h-387q0 58 19 105z" />
    <glyph glyph-name="daggerdbl" unicode="&#x2021;" horiz-adv-x="1024" 
d="M76 362h370l-2 504h-387q0 58 19 105h366l-2 430q32 16 80 16q31 0 49 -6l-2 -440h387q9 -18 9 -51q0 -36 -9 -54h-389l-2 -504h391q9 -18 9 -51q0 -35 -9 -53h-393l-2 -594q-17 -10 -55 -10q-36 0 -53 10l-2 594h-392q0 56 19 104z" />
    <glyph glyph-name="bullet" unicode="&#x2022;" horiz-adv-x="702" 
d="M356 684q80 0 132.5 -49.5t52.5 -134.5q0 -94 -49.5 -144.5t-135.5 -50.5q-94 0 -144 46t-50 138t52 143.5t142 51.5z" />
    <glyph glyph-name="ellipsis" unicode="&#x2026;" horiz-adv-x="1388" 
d="M231 156q39 0 65 -24t26 -66q0 -45 -24.5 -70t-66.5 -25q-94 0 -94 90q0 44 25.5 69.5t68.5 25.5zM694 156q39 0 64.5 -24t25.5 -66q0 -45 -24 -70t-66 -25q-94 0 -94 90q0 44 25.5 69.5t68.5 25.5zM1157 156q39 0 64.5 -24t25.5 -66q0 -45 -24 -70t-66 -25q-94 0 -94 90
q0 44 25.5 69.5t68.5 25.5z" />
    <glyph glyph-name="perthousand" unicode="&#x2030;" horiz-adv-x="2580" 
d="M1348 1085l-779 -1142q-30 5 -53.5 20.5t-32.5 38.5l758 1112q68 0 107 -29zM399 1106q139 0 220 -81t81 -232q0 -153 -83.5 -237.5t-223.5 -84.5t-220.5 83.5t-80.5 233.5q0 151 82.5 234.5t224.5 83.5zM199 793q0 -104 52.5 -166t143.5 -62q93 0 146 62t53 166
t-52.5 162.5t-146.5 58.5t-145 -59t-51 -162zM1403 594q139 0 220 -81t81 -232q0 -153 -83.5 -237.5t-223.5 -84.5t-220.5 83.5t-80.5 233.5q0 151 82.5 234.5t224.5 83.5zM1202 281q0 -104 53 -166t144 -62q93 0 145.5 62t52.5 166t-52 162.5t-146 58.5t-145.5 -59
t-51.5 -162zM2187 594q139 0 220 -81t81 -232q0 -153 -83.5 -237.5t-223.5 -84.5t-220.5 83.5t-80.5 233.5q0 151 82.5 234.5t224.5 83.5zM1987 281q0 -104 52.5 -166t143.5 -62q93 0 146 62t53 166t-52.5 162.5t-146.5 58.5t-145 -59t-51 -162z" />
    <glyph glyph-name="guilsinglleft" unicode="&#x2039;" horiz-adv-x="610" 
d="M264 512q112 -233 199 -377q-34 -43 -98 -49q-135 214 -230 418q77 170 203 377q50 26 135 26q-124 -206 -209 -395z" />
    <glyph glyph-name="guilsinglright" unicode="&#x203a;" horiz-adv-x="610" 
d="M252 86q-31 2 -56.5 15.5t-37.5 35.5q120 199 194 365q-98 210 -196 372q39 33 104 33q111 -166 221 -399q-95 -198 -229 -422z" />
    <glyph glyph-name="uni203E" unicode="&#x203e;" horiz-adv-x="1024" 
d="M-2 1487h1028q8 -16 8 -51q0 -36 -8 -52h-1046q0 66 18 103z" />
    <glyph glyph-name="fraction" unicode="&#x2044;" horiz-adv-x="337" 
d="M696 1380l-975 -1431q-58 14 -81 61l958 1401q36 -2 55 -7.5t43 -23.5z" />
    <glyph glyph-name="uni2070" unicode="&#x2070;" horiz-adv-x="788" 
d="M393 1569q147 0 228 -101t81 -297q0 -202 -80.5 -308.5t-228.5 -106.5q-152 0 -230.5 106t-78.5 309q0 192 81 295t228 103zM190 1171q0 -149 53 -234t150 -85t150 85.5t53 233.5q0 141 -53.5 222.5t-149.5 81.5q-99 0 -151 -81.5t-52 -222.5z" />
    <glyph glyph-name="uni2074" unicode="&#x2074;" horiz-adv-x="788" 
d="M594 979v-199q-17 -10 -53 -10q-35 0 -52 10v199h-393q-16 36 -16 90l383 492q70 0 131 -23v-471h106q9 -13 9 -43q0 -27 -9 -45h-106zM492 1067v297q0 46 8 92h-6l-299 -391v-6q36 8 96 8h201z" />
    <glyph glyph-name="uni2075" unicode="&#x2075;" horiz-adv-x="788" 
d="M201 1550h469q0 -49 -15 -96h-374l-15 -209q40 15 121 15q129 0 202 -61.5t73 -180.5q0 -133 -90 -197.5t-234 -64.5q-115 0 -180 30q-34 46 -27 109q74 -41 205 -41q219 0 219 162q0 80 -52.5 114.5t-162.5 34.5q-99 0 -176 -28z" />
    <glyph glyph-name="uni2076" unicode="&#x2076;" horiz-adv-x="788" 
d="M479 1475q-118 0 -182.5 -77t-73.5 -227h4q68 99 211 99q117 0 181.5 -67.5t64.5 -180.5q0 -124 -74.5 -195t-203.5 -71q-287 0 -287 366q0 214 96 330.5t260 116.5q92 0 156 -37q13 -18 20 -51.5t4 -57.5q-77 52 -176 52zM410 1176q-111 0 -187 -99v-8q0 -102 51 -161.5
t136 -59.5q80 0 125 48t45 124q0 73 -45 114.5t-125 41.5z" />
    <glyph glyph-name="uni2077" unicode="&#x2077;" horiz-adv-x="788" 
d="M561 1454h-442q0 55 18 96h522q17 -39 17 -86q-109 -171 -194.5 -351t-127.5 -333q-23 -10 -63 -10t-53 10q49 162 136.5 345t186.5 323v6z" />
    <glyph glyph-name="uni2078" unicode="&#x2078;" horiz-adv-x="788" 
d="M520 1192v-6q158 -51 158 -205q0 -111 -81 -168t-206 -57q-55 0 -103 11.5t-88.5 36t-64.5 67t-24 98.5q0 82 45 136t120 81v6q-58 19 -94.5 62.5t-36.5 113.5q0 102 75.5 151.5t182.5 49.5q69 0 124 -18t92.5 -62t37.5 -109q0 -71 -40 -122.5t-97 -65.5zM381 1143
q-168 -47 -168 -162q0 -69 52 -102t130 -33q75 0 126.5 32t51.5 101q0 35 -14 61.5t-43.5 45.5t-58 30.5t-76.5 26.5zM418 1229q139 41 139 141q0 58 -45.5 85.5t-110.5 27.5q-38 0 -70.5 -9t-57.5 -35.5t-25 -66.5q0 -30 10.5 -51t38.5 -38t49.5 -26.5t71.5 -27.5z" />
    <glyph glyph-name="uni2079" unicode="&#x2079;" horiz-adv-x="788" 
d="M567 1155h-6q-67 -86 -199 -86q-122 0 -185.5 65.5t-63.5 176.5q0 120 74 189t202 69q281 0 281 -361q0 -219 -97 -335.5t-266 -116.5q-105 0 -166 37q-17 19 -25 53.5t-5 62.5q34 -25 90 -41t112 -16q227 0 254 303zM383 1161q109 0 182 88v8q0 105 -47.5 162.5
t-134.5 57.5q-79 0 -122.5 -45t-43.5 -115q0 -71 42.5 -113.5t123.5 -42.5z" />
    <glyph glyph-name="uni2080" unicode="&#x2080;" horiz-adv-x="788" 
d="M393 600q147 0 228 -100.5t81 -296.5q0 -202 -80.5 -309t-228.5 -107q-152 0 -230.5 106.5t-78.5 309.5q0 192 81 294.5t228 102.5zM190 203q0 -150 53 -235t150 -85t150 86t53 234q0 141 -53.5 222t-149.5 81q-99 0 -151 -81t-52 -222z" />
    <glyph glyph-name="uni2081" unicode="&#x2081;" horiz-adv-x="788" 
d="M375 -188v671l-217 -39q3 53 24 93q98 39 297 61v-786q-18 -11 -53 -11q-33 0 -51 11z" />
    <glyph glyph-name="uni2082" unicode="&#x2082;" horiz-adv-x="788" 
d="M268 -96h381q8 -16 8 -47q0 -32 -8 -52h-518q-16 36 -16 95q28 24 94.5 77t111.5 92t96 91.5t78 106t27 104.5q0 65 -42 99t-118 34q-120 0 -227 -80q-5 53 25 108q89 68 223 68q112 0 181 -54.5t69 -158.5q0 -58 -24 -117.5t-59.5 -107t-87.5 -97.5t-96 -84t-98 -71v-6z
" />
    <glyph glyph-name="uni2083" unicode="&#x2083;" horiz-adv-x="788" 
d="M238 160q-6 20 -4.5 46.5t10.5 41.5q272 4 272 149q0 111 -154 111q-123 0 -212 -59q-7 61 30 104q30 21 87 34t118 13q109 0 173.5 -46.5t64.5 -143.5q0 -79 -42 -130t-110 -63v-6q76 -10 126 -56.5t50 -136.5q0 -117 -86 -174t-221 -57q-115 0 -193 33q-30 49 -24 106
q84 -41 217 -41q199 0 199 135q0 73 -67 106.5t-234 33.5z" />
    <glyph glyph-name="uni2084" unicode="&#x2084;" horiz-adv-x="788" 
d="M594 10v-198q-18 -11 -53 -11q-34 0 -52 11v198h-393q-16 36 -16 90l383 492q70 0 131 -23v-471h106q9 -13 9 -43q0 -27 -9 -45h-106zM492 98v297q0 46 8 92h-6l-299 -391v-6q36 8 96 8h201z" />
    <glyph glyph-name="uni2085" unicode="&#x2085;" horiz-adv-x="788" 
d="M201 582h469q0 -50 -15 -97h-374l-15 -209q41 15 121 15q129 0 202 -61.5t73 -180.5q0 -133 -90 -197.5t-234 -64.5q-113 0 -180 31q-34 46 -27 108q74 -41 205 -41q219 0 219 162q0 80 -52.5 115t-162.5 35q-97 0 -176 -29z" />
    <glyph glyph-name="uni2086" unicode="&#x2086;" horiz-adv-x="788" 
d="M479 506q-238 0 -256 -303h4q67 98 211 98q117 0 181.5 -67.5t64.5 -180.5q0 -124 -74.5 -195t-203.5 -71q-287 0 -287 367q0 214 96 330t260 116q92 0 156 -37q13 -18 20 -51t4 -57q-76 51 -176 51zM410 207q-111 0 -187 -98v-9q0 -102 51 -161.5t136 -59.5q80 0 125 48
t45 124q0 73 -45 114.5t-125 41.5z" />
    <glyph glyph-name="uni2087" unicode="&#x2087;" horiz-adv-x="788" 
d="M561 485h-442q0 56 18 97h522q17 -39 17 -86q-109 -171 -194.5 -351t-127.5 -333q-26 -11 -63 -11q-38 0 -53 11q49 162 136.5 344.5t186.5 322.5v6z" />
    <glyph glyph-name="uni2088" unicode="&#x2088;" horiz-adv-x="788" 
d="M520 223v-6q158 -51 158 -205q0 -111 -81 -168t-206 -57q-55 0 -103 11.5t-88.5 36t-64.5 67t-24 98.5q0 82 45 136t120 81v6q-58 19 -94.5 62.5t-36.5 113.5q0 102 75.5 151.5t182.5 49.5q69 0 124 -17.5t92.5 -61.5t37.5 -109q0 -71 -40 -123t-97 -66zM381 174
q-168 -47 -168 -162q0 -69 52 -102t130 -33q75 0 126.5 32t51.5 101q0 35 -14 61.5t-43.5 45.5t-58 30.5t-76.5 26.5zM418 260q139 41 139 141q0 58 -45.5 85.5t-110.5 27.5q-38 0 -70.5 -9t-57.5 -35.5t-25 -66.5q0 -30 10.5 -51t38.5 -38t49.5 -26.5t71.5 -27.5z" />
    <glyph glyph-name="uni2089" unicode="&#x2089;" horiz-adv-x="788" 
d="M567 186h-6q-67 -86 -199 -86q-122 0 -185.5 65.5t-63.5 176.5q0 120 74 189t202 69q281 0 281 -360q0 -219 -97 -336t-266 -117q-105 0 -166 37q-17 19 -25 54t-5 63q34 -25 90 -41.5t112 -16.5q227 0 254 303zM383 193q109 0 182 88v8q0 105 -47.5 162t-134.5 57
q-79 0 -122.5 -45t-43.5 -115q0 -71 42.5 -113t123.5 -42z" />
    <glyph glyph-name="Euro" unicode="&#x20ac;" horiz-adv-x="1120" 
d="M47 451h789q8 -12 8 -45q0 -34 -8 -46h-510q40 -144 150 -215t272 -71q157 0 309 65q3 -28 -7.5 -62.5t-27.5 -53.5q-135 -64 -307 -64q-209 0 -343.5 104.5t-174.5 296.5h-166q0 59 16 91zM836 627h-805q0 58 16 90h156q50 190 193.5 289.5t346.5 99.5q171 0 271 -59
q15 -20 23 -55.5t5 -65.5q-135 69 -284 69q-158 0 -270 -69t-156 -209h504q8 -12 8 -45t-8 -45z" />
    <glyph glyph-name="afii61289" unicode="&#x2113;" horiz-adv-x="874" 
d="M215 543v434q0 216 81.5 321t215.5 105q115 0 186.5 -73.5t71.5 -221.5q0 -336 -434 -635v-121q0 -161 46 -223.5t144 -62.5q74 0 126.5 32.5t97.5 108.5q63 -15 90 -68q-64 -97 -144 -141.5t-184 -44.5q-153 0 -225 91.5t-72 285.5v80q-43 -31 -119 -74q-26 44 -26 115
q76 42 145 92zM336 612q163 122 238 238t75 240q0 51 -11 92t-44 71.5t-84 30.5q-50 0 -85.5 -27t-54 -72t-26.5 -92.5t-8 -99.5v-381z" />
    <glyph glyph-name="afii61352" unicode="&#x2116;" horiz-adv-x="2050" 
d="M340 965v-959q-17 -10 -57 -10q-41 0 -58 10v1045q61 24 162 24l510 -778q58 -88 100 -186h7v948q17 10 57 10t57 -10v-1047q-59 -20 -160 -20l-514 782q-50 75 -98 191h-6zM1399 317h540q9 -13 9 -45q0 -29 -9 -47h-557q0 53 17 92zM1667 1106q139 0 221 -85.5
t82 -242.5q0 -165 -81 -255.5t-222 -90.5q-151 0 -230 88t-79 258q0 154 84 241t225 87zM1462 778q0 -122 51 -187t154 -65q99 0 150 66.5t51 185.5q0 110 -53 173t-148 63q-103 0 -154 -62t-51 -174z" />
    <glyph glyph-name="trademark" unicode="&#x2122;" horiz-adv-x="1626" 
d="M641 1319h-217v-488q-17 -10 -49 -10q-34 0 -51 10v488h-218q-8 12 -8 43q0 33 8 45h535q8 -12 8 -45q0 -31 -8 -43zM1458 1399v-568q-17 -10 -47 -10q-32 0 -49 10v504h-6q-15 -65 -49 -157l-136 -353q-20 -10 -59 -10q-41 0 -61 10l-140 349q-32 82 -45 161h-6v-504
q-17 -10 -47 -10q-32 0 -49 10v568q24 12 84 12q56 0 80 -12l135 -338q31 -83 47 -162h6q14 71 47 160l133 340q24 12 80 12q58 0 82 -12z" />
    <glyph glyph-name="Omega" unicode="&#x2126;" horiz-adv-x="1599" 
d="M100 113h381v6q-139 69 -228 244.5t-89 394.5q0 313 177.5 504.5t465.5 191.5q287 0 458 -190.5t171 -501.5q0 -233 -95 -405.5t-229 -237.5v-6h387q10 -17 10 -56q0 -40 -10 -57h-534q-19 49 -19 115q80 43 144 102t113.5 136.5t76.5 176.5t27 213q0 90 -16 173
t-54 161.5t-95 136t-144 92.5t-195 35t-195.5 -34t-145 -90.5t-96.5 -134t-56 -161t-17 -173.5q0 -220 99 -386t270 -247q0 -61 -21 -115h-541q-10 17 -10 57q0 39 10 56z" />
    <glyph glyph-name="estimated" unicode="&#x212e;" horiz-adv-x="1773" 
d="M1704 655h-1298q-13 0 -13 -8v-393q0 -26 21 -47q93 -99 220 -155t269 -56q155 0 288.5 63t227.5 174h119q-110 -132 -277 -206t-360 -74q-218 0 -403 97t-292.5 263t-107.5 361q0 198 107.5 366t292.5 265.5t403 97.5t403 -97.5t292.5 -265.5t107.5 -366v-19zM1411 717
v393q0 30 -22 49q-94 96 -220 149.5t-266 53.5t-266.5 -56t-220.5 -155q-23 -17 -23 -49v-385q0 -10 13 -10h997q8 0 8 10z" />
    <glyph glyph-name="uni2150" unicode="&#x2150;" horiz-adv-x="1894" 
d="M375 586v671l-217 -38q3 52 24 92q98 39 297 61v-786q-18 -11 -53 -11q-33 0 -51 11zM1464 1380l-975 -1431q-58 14 -81 61l958 1401q36 -2 55 -7.5t43 -23.5zM1667 680h-442q0 55 18 96h522q17 -39 17 -86q-109 -171 -194.5 -351t-127.5 -333q-23 -10 -63 -10
q-41 0 -54 10q49 161 137 344.5t187 323.5v6z" />
    <glyph glyph-name="uni2151" unicode="&#x2151;" horiz-adv-x="1894" 
d="M375 586v671l-217 -38q3 52 24 92q98 39 297 61v-786q-18 -11 -53 -11q-33 0 -51 11zM1464 1380l-975 -1431q-58 14 -81 61l958 1401q36 -2 55 -7.5t43 -23.5zM1673 381h-6q-67 -86 -199 -86q-122 0 -185.5 65.5t-63.5 176.5q0 120 74 189t202 69q281 0 281 -361
q0 -219 -97 -335.5t-266 -116.5q-107 0 -166 36q-17 19 -25 54t-5 63q34 -25 90 -41t112 -16q227 0 254 303zM1489 387q109 0 182 88v8q0 105 -47.5 162t-134.5 57q-79 0 -122.5 -44.5t-43.5 -114.5q0 -71 42.5 -113.5t123.5 -42.5z" />
    <glyph glyph-name="uni2152" unicode="&#x2152;" horiz-adv-x="2570" 
d="M375 586v671l-217 -38q3 52 24 92q98 39 297 61v-786q-18 -11 -53 -11q-33 0 -51 11zM1464 1380l-975 -1431q-58 14 -81 61l958 1401q36 -2 55 -7.5t43 -23.5zM1481 6v672l-217 -39q3 52 24 92q43 17 128.5 35t168.5 27v-787q-17 -10 -53 -10q-34 0 -51 10zM2175 795
q147 0 228 -101t81 -297q0 -202 -80.5 -308.5t-228.5 -106.5q-152 0 -230.5 106t-78.5 309q0 192 81 295t228 103zM1972 397q0 -149 53 -234t150 -85t150 85.5t53 233.5q0 141 -53.5 222t-149.5 81q-99 0 -151 -81t-52 -222z" />
    <glyph glyph-name="onethird" unicode="&#x2153;" horiz-adv-x="1894" 
d="M375 586v671l-217 -38q3 52 24 92q98 39 297 61v-786q-18 -11 -53 -11q-33 0 -51 11zM1464 1380l-975 -1431q-58 14 -81 61l958 1401q36 -2 55 -7.5t43 -23.5zM1343 354q-6 20 -4 46.5t11 41.5q272 4 272 150q0 110 -154 110q-124 0 -213 -59q-7 60 31 105q30 21 87 34
t118 13q109 0 173.5 -47t64.5 -144q0 -79 -42 -129.5t-110 -62.5v-6q76 -10 126 -56t50 -137q0 -117 -86 -174t-221 -57q-118 0 -193 32q-30 49 -24 107q84 -41 217 -41q199 0 199 135q0 73 -67.5 106t-234.5 33z" />
    <glyph glyph-name="twothirds" unicode="&#x2154;" horiz-adv-x="1914" 
d="M268 678h381q8 -16 8 -47t-8 -51h-518q-16 36 -16 94q28 24 94.5 77t111.5 92t96 91.5t78 106t27 104.5q0 65 -42 99t-118 34q-120 0 -227 -80q-6 54 25 109q87 67 223 67q112 0 181 -54.5t69 -158.5q0 -58 -24 -117.5t-59.5 -107t-87.5 -97.5t-96 -84t-98 -71v-6z
M1485 1380l-975 -1431q-59 15 -82 61l958 1401q36 -2 55.5 -7.5t43.5 -23.5zM1364 354q-6 20 -4.5 46.5t10.5 41.5q272 4 272 150q0 110 -153 110q-124 0 -213 -59q-7 60 31 105q30 21 86.5 34t117.5 13q109 0 173.5 -47t64.5 -144q0 -79 -42 -129.5t-110 -62.5v-6
q76 -10 126.5 -56.5t50.5 -136.5q0 -117 -86.5 -174t-221.5 -57q-117 0 -192 32q-31 51 -25 107q84 -41 217 -41q199 0 199 135q0 73 -67 106t-234 33z" />
    <glyph glyph-name="uni2155" unicode="&#x2155;" horiz-adv-x="1894" 
d="M375 586v671l-217 -38q3 52 24 92q98 39 297 61v-786q-18 -11 -53 -11q-33 0 -51 11zM1464 1380l-975 -1431q-58 14 -81 61l958 1401q36 -2 55 -7.5t43 -23.5zM1307 776h469q0 -49 -15 -96h-375l-14 -209q38 14 121 14q129 0 201.5 -61t72.5 -180q0 -133 -89.5 -197.5
t-233.5 -64.5q-115 0 -180 30q-34 46 -27 109q74 -41 205 -41q219 0 219 162q0 80 -52.5 114.5t-162.5 34.5q-97 0 -176 -29z" />
    <glyph glyph-name="uni2156" unicode="&#x2156;" horiz-adv-x="1914" 
d="M268 678h381q8 -16 8 -47t-8 -51h-518q-16 36 -16 94q28 24 94.5 77t111.5 92t96 91.5t78 106t27 104.5q0 65 -42 99t-118 34q-120 0 -227 -80q-6 54 25 109q87 67 223 67q112 0 181 -54.5t69 -158.5q0 -58 -24 -117.5t-59.5 -107t-87.5 -97.5t-96 -84t-98 -71v-6z
M1485 1380l-975 -1431q-59 15 -82 61l958 1401q36 -2 55.5 -7.5t43.5 -23.5zM1327 776h469q0 -52 -14 -96h-375l-14 -209q38 14 120 14q129 0 202 -61t73 -180q0 -133 -90 -197.5t-234 -64.5q-115 0 -180 30q-34 46 -27 109q74 -41 205 -41q219 0 219 162q0 80 -52.5 114.5
t-162.5 34.5q-97 0 -176 -29z" />
    <glyph glyph-name="uni2157" unicode="&#x2157;" horiz-adv-x="1914" 
d="M238 934q-6 20 -4.5 46.5t10.5 41.5q272 4 272 149q0 111 -154 111q-123 0 -212 -59q-7 61 30 104q30 21 87 34t118 13q109 0 173.5 -46.5t64.5 -143.5q0 -79 -42 -130t-110 -63v-6q76 -10 126 -56t50 -136q0 -80 -43 -133.5t-110 -76t-154 -22.5q-115 0 -193 33
q-30 49 -24 106q84 -41 217 -41q199 0 199 136q0 73 -67 106t-234 33zM1485 1380l-975 -1431q-59 15 -82 61l958 1401q36 -2 55.5 -7.5t43.5 -23.5zM1327 776h469q0 -52 -14 -96h-375l-14 -209q38 14 120 14q129 0 202 -61t73 -180q0 -133 -90 -197.5t-234 -64.5
q-115 0 -180 30q-34 46 -27 109q74 -41 205 -41q219 0 219 162q0 80 -52.5 114.5t-162.5 34.5q-97 0 -176 -29z" />
    <glyph glyph-name="uni2158" unicode="&#x2158;" horiz-adv-x="1914" 
d="M594 784v-198q-18 -11 -53 -11q-34 0 -52 11v198h-393q-16 36 -16 90l383 492q70 0 131 -23v-471h106q9 -14 9 -43q0 -27 -9 -45h-106zM492 872v297q0 47 8 93h-6l-299 -392v-6q36 8 96 8h201zM1485 1380l-975 -1431q-59 15 -82 61l958 1401q36 -2 55.5 -7.5t43.5 -23.5z
M1327 776h469q0 -52 -14 -96h-375l-14 -209q38 14 120 14q129 0 202 -61t73 -180q0 -133 -90 -197.5t-234 -64.5q-115 0 -180 30q-34 46 -27 109q74 -41 205 -41q219 0 219 162q0 80 -52.5 114.5t-162.5 34.5q-97 0 -176 -29z" />
    <glyph glyph-name="uni2159" unicode="&#x2159;" horiz-adv-x="1894" 
d="M375 586v671l-217 -38q3 52 24 92q98 39 297 61v-786q-18 -11 -53 -11q-33 0 -51 11zM1464 1380l-975 -1431q-58 14 -81 61l958 1401q36 -2 55 -7.5t43 -23.5zM1585 700q-238 0 -256 -303h4q68 99 211 99q117 0 181.5 -67.5t64.5 -180.5q0 -124 -75 -195t-204 -71
q-286 0 -286 366q0 214 96 330.5t260 116.5q92 0 156 -37q13 -18 20 -51.5t4 -57.5q-76 51 -176 51zM1516 401q-111 0 -187 -98v-8q0 -102 51 -161.5t136 -59.5q80 0 125 48t45 124q0 73 -45 114t-125 41z" />
    <glyph glyph-name="uni215A" unicode="&#x215a;" horiz-adv-x="1914" 
d="M201 1356h469q0 -49 -15 -96h-374l-15 -209q38 14 121 14q129 0 202 -61.5t73 -180.5q0 -133 -90 -197.5t-234 -64.5q-113 0 -180 31q-34 46 -27 108q74 -41 205 -41q219 0 219 162q0 80 -52.5 115t-162.5 35q-97 0 -176 -29zM1485 1380l-975 -1431q-59 15 -82 61
l958 1401q36 -2 55.5 -7.5t43.5 -23.5zM1606 700q-238 0 -256 -303h4q68 99 211 99q117 0 181 -67.5t64 -180.5q0 -124 -74.5 -195t-203.5 -71q-287 0 -287 366q0 214 96.5 330.5t260.5 116.5q91 0 155 -37q13 -18 20.5 -51.5t4.5 -57.5q-76 51 -176 51zM1536 401
q-110 0 -186 -98v-8q0 -102 50.5 -161.5t135.5 -59.5q80 0 125 48t45 124q0 73 -45 114t-125 41z" />
    <glyph glyph-name="oneeighth" unicode="&#x215b;" horiz-adv-x="1894" 
d="M375 586v671l-217 -38q3 52 24 92q98 39 297 61v-786q-18 -11 -53 -11q-33 0 -51 11zM1464 1380l-975 -1431q-58 14 -81 61l958 1401q36 -2 55 -7.5t43 -23.5zM1626 418v-6q158 -51 158 -205q0 -111 -81 -168t-206 -57q-55 0 -103 11.5t-88.5 36t-64.5 67t-24 98.5
q0 82 45 136t120 81v6q-58 19 -94.5 62.5t-36.5 113.5q0 102 75.5 151.5t182.5 49.5q69 0 124 -18t92.5 -62t37.5 -109q0 -71 -40 -122.5t-97 -65.5zM1487 369q-168 -47 -168 -162q0 -69 52 -102t130 -33q75 0 126.5 32t51.5 101q0 35 -14 61.5t-43.5 45.5t-58 30.5
t-76.5 26.5zM1524 455q139 41 139 141q0 58 -45.5 85.5t-110.5 27.5q-38 0 -70.5 -9t-57.5 -35.5t-25 -66.5q0 -30 10.5 -51t38.5 -38t49.5 -26.5t71.5 -27.5z" />
    <glyph glyph-name="threeeighths" unicode="&#x215c;" horiz-adv-x="1914" 
d="M238 934q-6 20 -4.5 46.5t10.5 41.5q272 4 272 149q0 111 -154 111q-123 0 -212 -59q-7 61 30 104q30 21 87 34t118 13q109 0 173.5 -46.5t64.5 -143.5q0 -79 -42 -130t-110 -63v-6q76 -10 126 -56t50 -136q0 -80 -43 -133.5t-110 -76t-154 -22.5q-115 0 -193 33
q-30 49 -24 106q84 -41 217 -41q199 0 199 136q0 73 -67 106t-234 33zM1485 1380l-975 -1431q-59 15 -82 61l958 1401q36 -2 55.5 -7.5t43.5 -23.5zM1647 418v-6q157 -51 157 -205q0 -111 -80.5 -168t-205.5 -57q-74 0 -135 19.5t-103.5 69.5t-42.5 124q0 81 45.5 135.5
t120.5 81.5v6q-58 19 -94.5 62.5t-36.5 113.5q0 102 75.5 151.5t182.5 49.5q69 0 124 -18t92.5 -62t37.5 -109q0 -71 -40 -122.5t-97 -65.5zM1507 369q-168 -47 -168 -162q0 -69 52.5 -102t130.5 -33q75 0 126.5 32t51.5 101q0 66 -48 100t-145 64zM1544 455q139 41 139 141
q0 58 -45 85.5t-110 27.5q-38 0 -70.5 -9t-58 -35.5t-25.5 -66.5q0 -30 10.5 -51t38.5 -38t49.5 -26.5t71.5 -27.5z" />
    <glyph glyph-name="fiveeighths" unicode="&#x215d;" horiz-adv-x="1914" 
d="M201 1356h469q0 -49 -15 -96h-374l-15 -209q38 14 121 14q129 0 202 -61.5t73 -180.5q0 -133 -90 -197.5t-234 -64.5q-113 0 -180 31q-34 46 -27 108q74 -41 205 -41q219 0 219 162q0 80 -52.5 115t-162.5 35q-97 0 -176 -29zM1485 1380l-975 -1431q-59 15 -82 61
l958 1401q36 -2 55.5 -7.5t43.5 -23.5zM1647 418v-6q157 -51 157 -205q0 -111 -80.5 -168t-205.5 -57q-74 0 -135 19.5t-103.5 69.5t-42.5 124q0 81 45.5 135.5t120.5 81.5v6q-58 19 -94.5 62.5t-36.5 113.5q0 102 75.5 151.5t182.5 49.5q69 0 124 -18t92.5 -62t37.5 -109
q0 -71 -40 -122.5t-97 -65.5zM1507 369q-168 -47 -168 -162q0 -69 52.5 -102t130.5 -33q75 0 126.5 32t51.5 101q0 66 -48 100t-145 64zM1544 455q139 41 139 141q0 58 -45 85.5t-110 27.5q-38 0 -70.5 -9t-58 -35.5t-25.5 -66.5q0 -30 10.5 -51t38.5 -38t49.5 -26.5
t71.5 -27.5z" />
    <glyph glyph-name="seveneighths" unicode="&#x215e;" horiz-adv-x="1771" 
d="M561 1260h-442q0 55 18 96h522q17 -39 17 -86q-109 -171 -194.5 -351t-127.5 -333q-26 -11 -63 -11q-38 0 -53 11q49 162 136.5 344.5t186.5 322.5v7zM1341 1380l-974 -1431q-59 15 -82 61l958 1401q36 -2 55 -7.5t43 -23.5zM1503 418v-6q158 -51 158 -205
q0 -111 -81 -168t-206 -57q-55 0 -103 11.5t-88.5 36t-64.5 67t-24 98.5q0 81 45.5 135.5t120.5 81.5v6q-58 19 -95 62.5t-37 113.5q0 102 75.5 151.5t182.5 49.5q69 0 124 -18t92.5 -62t37.5 -109q0 -71 -40 -122.5t-97 -65.5zM1364 369q-168 -47 -168 -162q0 -69 52 -102
t130 -33q75 0 126.5 32t51.5 101q0 35 -14 61.5t-43.5 45.5t-58 30.5t-76.5 26.5zM1401 455q139 41 139 141q0 58 -45.5 85.5t-110.5 27.5q-38 0 -70.5 -9t-57.5 -35.5t-25 -66.5q0 -30 10.5 -51t38.5 -38t49.5 -26.5t71.5 -27.5z" />
    <glyph glyph-name="uni215F" unicode="&#x215f;" horiz-adv-x="1105" 
d="M375 586v671l-217 -38q3 52 24 92q98 39 297 61v-786q-18 -11 -53 -11q-33 0 -51 11zM1464 1380l-975 -1431q-58 14 -81 61l958 1401q36 -2 55 -7.5t43 -23.5z" />
    <glyph glyph-name="uni2189" unicode="&#x2189;" horiz-adv-x="1914" 
d="M393 1374q147 0 228 -100.5t81 -296.5q0 -202 -80.5 -309t-228.5 -107q-152 0 -230.5 106.5t-78.5 309.5q0 192 81 294.5t228 102.5zM190 977q0 -150 53 -235t150 -85t150 86t53 234q0 141 -53.5 222t-149.5 81q-99 0 -151 -81t-52 -222zM1485 1380l-975 -1431
q-59 15 -82 61l958 1401q36 -2 55.5 -7.5t43.5 -23.5zM1364 354q-6 20 -4.5 46.5t10.5 41.5q272 4 272 150q0 110 -153 110q-124 0 -213 -59q-7 60 31 105q30 21 86.5 34t117.5 13q109 0 173.5 -47t64.5 -144q0 -79 -42 -129.5t-110 -62.5v-6q76 -10 126.5 -56.5
t50.5 -136.5q0 -117 -86.5 -174t-221.5 -57q-117 0 -192 32q-31 51 -25 107q84 -41 217 -41q199 0 199 135q0 73 -67 106t-234 33z" />
    <glyph glyph-name="arrowleft" unicode="&#x2190;" horiz-adv-x="2017" 
d="M1925 522h-1665l721 -715q-11 -26 -33 -48t-47 -29l-848 850l848 845q25 -8 47.5 -29t32.5 -48l-721 -715h1665q8 -16 8 -55q0 -40 -8 -56z" />
    <glyph glyph-name="arrowup" unicode="&#x2191;" horiz-adv-x="1802" 
d="M844 -352v1661l-713 -717q-28 11 -49.5 32.5t-28.5 47.5l850 848l846 -848q-7 -26 -29.5 -48.5t-48.5 -31.5l-710 717v-1661q-17 -10 -60 -10q-40 0 -57 10z" />
    <glyph glyph-name="arrowright" unicode="&#x2192;" horiz-adv-x="2017" 
d="M1757 522h-1665q-8 16 -8 56q0 39 8 55h1665l-721 715q10 27 32.5 48t47.5 29l848 -845l-848 -850q-25 7 -47 29t-33 48z" />
    <glyph glyph-name="arrowdown" unicode="&#x2193;" horiz-adv-x="1802" 
d="M958 1491v-1661l713 717q28 -11 49.5 -32.5t28.5 -47.5l-850 -848l-846 848q7 26 29.5 48.5t48.5 31.5l711 -717v1661q17 10 57 10q42 0 59 -10z" />
    <glyph glyph-name="arrowboth" unicode="&#x2194;" horiz-adv-x="2918" 
d="M2656 524h-2396l680 -676q-11 -26 -33 -48t-47 -29l-807 809l807 804q25 -8 47.5 -29t32.5 -48l-680 -674h2398l-680 674q10 27 32.5 48t47.5 29l807 -804l-807 -809q-25 7 -47 29t-33 48z" />
    <glyph glyph-name="arrowupdn" unicode="&#x2195;" horiz-adv-x="1794" 
d="M954 1702v-2245l672 676q28 -11 49.5 -32.5t28.5 -47.5l-807 -807l-807 807q7 26 29.5 48.5t48.5 31.5l672 -676v2245l-672 -676q-28 11 -49.5 32.5t-28.5 47.5l807 807l807 -807q-7 -26 -29.5 -48.5t-48.5 -31.5z" />
    <glyph glyph-name="uni2196" unicode="&#x2196;" horiz-adv-x="1720" 
d="M1573 -20l-1231 1228v-1001q-17 -10 -59 -10q-41 0 -58 10v1200h1198q11 -17 11 -53q0 -40 -11 -56h-1009l1241 -1237q-8 -26 -31 -49t-51 -32z" />
    <glyph glyph-name="uni2197" unicode="&#x2197;" horiz-adv-x="1720" 
d="M1378 1208l-1231 -1228q-28 9 -50.5 32t-30.5 49l1241 1237h-1010q-10 15 -10 56q0 38 10 53h1198v-1200q-17 -10 -57 -10q-43 0 -60 10v1001z" />
    <glyph glyph-name="uni2198" unicode="&#x2198;" horiz-adv-x="1720" 
d="M147 1427l1231 -1228v1001q17 10 60 10q40 0 57 -10v-1200h-1198q-10 15 -10 53q0 41 10 56h1010l-1241 1237q8 26 30.5 49t50.5 32z" />
    <glyph glyph-name="uni2199" unicode="&#x2199;" horiz-adv-x="1720" 
d="M342 199l1231 1228q28 -9 51 -32t31 -49l-1241 -1237h1009q11 -16 11 -56q0 -37 -11 -53h-1198v1200q17 10 58 10q42 0 59 -10v-1001z" />
    <glyph glyph-name="partialdiff" unicode="&#x2202;" horiz-adv-x="1093" 
d="M862 608q-122 146 -307 146q-86 0 -153.5 -30.5t-109.5 -82t-63.5 -116.5t-21.5 -138q0 -145 80 -230t215 -85q93 0 162 41.5t110 117.5t62 169t26 208zM860 723h6q-2 165 -29.5 291t-70.5 202t-104.5 123.5t-122.5 64.5t-133 17q-129 0 -238 -59q-4 26 4 60.5t23 56.5
q91 49 229 49q94 0 175 -27t153 -88t123 -153.5t80.5 -231.5t29.5 -313q0 -132 -17 -244.5t-54.5 -208t-93.5 -162t-138 -104t-184 -37.5q-186 0 -299 112.5t-113 309.5q0 132 52 240.5t157.5 175.5t247.5 67q114 0 194.5 -39.5t122.5 -101.5z" />
    <glyph glyph-name="Delta" unicode="&#x2206;" horiz-adv-x="1288" 
d="M1194 0h-1100q-22 46 -22 104l491 1307q24 12 78 12q58 0 82 -12l494 -1307q0 -56 -23 -104zM1081 115l-321 864q-75 201 -115 362h-6q-36 -143 -117 -366l-317 -860h876z" />
    <glyph glyph-name="product" unicode="&#x220f;" horiz-adv-x="1544" 
d="M1135 -332v1628h-725v-1628q-17 -10 -64 -10q-44 0 -61 10v1628h-203q-10 17 -10 56q0 38 10 55h1380q11 -18 11 -55q0 -38 -11 -56h-202v-1628q-17 -10 -64 -10q-44 0 -61 10z" />
    <glyph glyph-name="summation" unicode="&#x2211;" horiz-adv-x="1163" 
d="M178 -223h946q11 -18 11 -58q0 -39 -11 -57h-1056q-23 53 -23 121l621 749l-557 762q0 63 20 113h981q10 -17 10 -55q0 -41 -10 -58h-870v-6q76 -76 135 -158l444 -602l-504 -604q-64 -79 -137 -143v-4z" />
    <glyph glyph-name="minus" unicode="&#x2212;" 
d="M133 602h907q9 -18 9 -53q0 -37 -9 -55h-925q0 68 18 108z" />
    <glyph glyph-name="uni2219" unicode="&#x2219;" 
d="M588 735q80 0 132 -49.5t52 -134.5q0 -94 -49 -144.5t-135 -50.5q-94 0 -144.5 46.5t-50.5 138.5q0 91 52.5 142.5t142.5 51.5z" />
    <glyph glyph-name="radical" unicode="&#x221a;" horiz-adv-x="1052" 
d="M250 848l221 -637q34 -93 59 -236h7q24 138 59 238l463 1370q76 0 115 -33l-562 -1646q-50 -23 -149 -23l-297 836l-143 -37q0 68 20 113z" />
    <glyph glyph-name="infinity" unicode="&#x221e;" horiz-adv-x="1738" 
d="M877 451q-99 -129 -209 -197t-244 -68q-166 0 -258 97.5t-92 248.5q0 154 94 256.5t260 102.5q130 0 232.5 -67t213.5 -199q187 266 443 266q164 0 256 -96t92 -246q0 -156 -96 -260.5t-254 -104.5q-66 0 -126 20t-115 59.5t-99 82.5t-98 105zM807 532
q-50 60 -89.5 100.5t-87.5 78.5t-99.5 56.5t-106.5 18.5q-107 0 -172.5 -66.5t-65.5 -178.5t65.5 -180t182.5 -68q109 0 198.5 62t174.5 177zM946 541q109 -125 194.5 -187.5t182.5 -62.5q107 0 168 73t61 177q0 114 -70 178.5t-179 64.5q-106 0 -192 -60.5t-165 -182.5z
" />
    <glyph glyph-name="integral" unicode="&#x222b;" horiz-adv-x="636" 
d="M647 1622q25 -42 25 -117q-55 25 -121 25q-58 0 -97 -24t-59 -72.5t-27.5 -106.5t-7.5 -141q0 -136 25 -534t25 -548q0 -81 -7 -145t-26.5 -125.5t-51.5 -102.5t-85 -66t-123 -25q-95 0 -144 32q0 62 35 109q49 -27 103 -27q104 0 142 83.5t38 256.5q0 144 -23.5 544
t-23.5 546q0 224 68 341t225 117q69 0 110 -20z" />
    <glyph glyph-name="approxequal" unicode="&#x2248;" 
d="M137 719q35 58 101.5 92.5t152.5 34.5q57 0 112.5 -17t93 -37.5t90.5 -37.5t106 -17q107 0 163 88q24 -5 44.5 -20t29.5 -35q-75 -137 -252 -137q-60 0 -115 17t-90.5 37t-87.5 37t-106 17q-64 0 -115 -31t-84 -81q-37 31 -43 90zM137 334q35 58 101.5 92.5t152.5 34.5
q57 0 112.5 -17t93 -37.5t90.5 -37.5t106 -17q107 0 163 88q24 -5 44.5 -20t29.5 -35q-75 -137 -252 -137q-60 0 -115 17t-90.5 37t-87.5 37t-106 17q-64 0 -115 -31t-84 -81q-37 31 -43 90z" />
    <glyph glyph-name="notequal" unicode="&#x2260;" 
d="M145 791h521l116 190q55 0 92 -29l-98 -161h252q8 -16 8 -54q0 -37 -8 -53h-313l-170 -278h483q8 -16 8 -54q0 -37 -8 -53h-545l-131 -215q-27 3 -50 18.5t-32 34.5l101 162h-244q0 67 18 107h287l172 278h-477q0 66 18 107z" />
    <glyph glyph-name="lessequal" unicode="&#x2264;" 
d="M219 815l629 412q52 -17 94 -68l-625 -399v-6l623 -402q-5 -28 -23.5 -54t-44.5 -36l-671 443q0 67 18 110zM176 104h803q8 -16 8 -51q0 -37 -8 -53h-821q0 64 18 104z" />
    <glyph glyph-name="greaterequal" unicode="&#x2265;" 
d="M971 711l-674 -447q-54 25 -64 92l615 396v6l-612 393q35 49 94 70l624 -408q17 -42 17 -102zM205 104h803q8 -16 8 -51q0 -37 -8 -53h-822q0 61 19 104z" />
    <glyph glyph-name="dotmath" unicode="&#x22c5;" 
d="M586 639q39 0 64.5 -24t25.5 -66q0 -45 -24 -69.5t-66 -24.5q-94 0 -94 90q0 44 25.5 69t68.5 25z" />
    <glyph glyph-name="H18543" unicode="&#x25aa;" 
d="M100 0v971h967v-971h-967z" />
    <glyph glyph-name="H18551" unicode="&#x25ab;" 
d="M100 0v971h967v-971h-967zM215 862v-753h737v753h-737z" />
    <glyph glyph-name="uni25B8" unicode="&#x25b8;" 
d="M145 -66q-22 212 -22 558q0 315 22 544q197 -86 515.5 -258.5t484.5 -283.5q-167 -116 -486.5 -294.5t-513.5 -265.5z" />
    <glyph glyph-name="uni25B9" unicode="&#x25b9;" 
d="M145 -66q-22 212 -22 558q0 315 22 544q197 -86 515.5 -258.5t484.5 -283.5q-167 -116 -486.5 -294.5t-513.5 -265.5zM254 115q126 57 347.5 180t330.5 197q-112 73 -333 192t-345 172q-14 -140 -14 -367q0 -274 14 -374z" />
    <glyph glyph-name="uni25C2" unicode="&#x25c2;" 
d="M1022 -66q-193 82 -511.5 257t-487.5 290q166 114 485 290.5t514 264.5q22 -251 22 -561q0 -348 -22 -541z" />
    <glyph glyph-name="uni25C3" unicode="&#x25c3;" 
d="M1022 -66q-193 82 -511.5 257t-487.5 290q166 114 485 290.5t514 264.5q22 -251 22 -561q0 -348 -22 -541zM913 117q15 146 15 362q0 269 -15 377q-130 -60 -351 -181t-324 -192q110 -74 329.5 -193t345.5 -173z" />
    <glyph glyph-name="lozenge" unicode="&#x25ca;" horiz-adv-x="1050" 
d="M166 702l256 -419q66 -109 106 -224h7q34 115 98 224l252 434l-256 405q-74 118 -113 221h-6q-43 -125 -104 -231zM35 702l411 715q59 19 132 19l438 -723l-418 -723q-49 -17 -129 -17z" />
    <glyph glyph-name="circle" unicode="&#x25cb;" 
d="M586 1012q230 0 373 -137.5t143 -380.5q0 -166 -70.5 -289t-189 -184.5t-267.5 -61.5q-229 0 -369 141t-140 383q0 241 142.5 385t377.5 144zM586 901q-183 0 -292.5 -111t-109.5 -303q0 -193 107.5 -305t286.5 -112t293 114t114 312q0 193 -109.5 299t-289.5 106z" />
    <glyph glyph-name="H18533" unicode="&#x25cf;" 
d="M586 1012q230 0 373 -137.5t143 -380.5q0 -166 -70.5 -289t-189 -184.5t-267.5 -61.5q-229 0 -369 141t-140 383q0 241 142.5 385t377.5 144z" />
    <glyph glyph-name="uniFB00" unicode="&#xfb00;" horiz-adv-x="1236" 
d="M100 971h133v184q0 97 21.5 166t61.5 106t89 53.5t113 16.5q126 0 189 -55q15 -21 21.5 -54.5t0.5 -66.5q-87 70 -190 70q-108 0 -147.5 -58.5t-39.5 -169.5v-192h473v211q0 98 22 167.5t63.5 108t92.5 55.5t117 17q123 0 195 -57q15 -21 21.5 -55.5t0.5 -67.5
q-91 73 -200 73q-111 0 -152 -59.5t-41 -173.5v-219h287q8 -16 8 -53q0 -40 -8 -56h-287v-856q-17 -10 -59 -10q-43 0 -60 10v856h-473v-856q-17 -10 -59 -10q-43 0 -60 10v856h-153q0 61 20 109z" />
    <glyph glyph-name="fi" unicode="&#xfb01;" horiz-adv-x="1116" 
d="M233 862h-153q0 61 20 109h133v125q0 434 383 434q151 0 242 -64q17 -20 24 -54.5t1 -68.5q-118 80 -250 80q-44 0 -81.5 -7t-75.5 -28t-64.5 -55.5t-43 -93t-16.5 -135.5v-133h281q8 -16 8 -53q0 -40 -8 -56h-281v-856q-17 -10 -59 -10q-43 0 -60 10v856zM801 6v959
q17 10 59 10q43 0 60 -10v-959q-17 -10 -60 -10q-42 0 -59 10z" />
    <glyph glyph-name="fl" unicode="&#xfb02;" horiz-adv-x="1175" 
d="M100 971h133v127q0 432 390 432q174 0 295 -82v-1268q0 -63 23.5 -86.5t70.5 -23.5q72 0 125 43q2 -33 -6 -66.5t-21 -50.5q-54 -37 -131 -37q-180 0 -180 203v1227q-69 34 -168 34q-44 0 -80.5 -7t-74.5 -27.5t-64.5 -54t-43 -92t-16.5 -136.5v-135h281q8 -16 8 -53
q0 -40 -8 -56h-281v-856q-17 -10 -59 -10q-43 0 -60 10v856h-153q0 61 20 109z" />
    <glyph glyph-name="uniFB03" unicode="&#xfb03;" horiz-adv-x="1708" 
d="M825 862h-473v-856q-17 -10 -59 -10q-43 0 -60 10v856h-153q0 61 20 109h133v184q0 97 21.5 166t61.5 106t89 53.5t113 16.5q126 0 189 -55q15 -21 21.5 -54.5t0.5 -66.5q-87 70 -190 70q-108 0 -147.5 -58.5t-39.5 -169.5v-192h473v125q0 434 383 434q151 0 242 -64
q17 -20 24 -54.5t1 -68.5q-118 80 -250 80q-44 0 -81.5 -7t-75.5 -28t-64.5 -55.5t-43 -93t-16.5 -135.5v-133h281q8 -16 8 -53q0 -40 -8 -56h-281v-856q-17 -10 -59 -10q-43 0 -60 10v856zM1393 6v959q17 10 59 10t59 -10v-959q-17 -10 -59 -10t-59 10z" />
    <glyph glyph-name="uniFB04" unicode="&#xfb04;" horiz-adv-x="1767" 
d="M100 971h133v184q0 97 21.5 166t61.5 106t89 53.5t113 16.5q126 0 189 -55q15 -21 21.5 -54.5t0.5 -66.5q-87 70 -190 70q-108 0 -147.5 -58.5t-39.5 -169.5v-192h473v127q0 100 21 176.5t56 124.5t86 78t105.5 41.5t120.5 11.5q174 0 295 -82v-1268q0 -63 24 -86.5
t71 -23.5q72 0 125 43q2 -33 -6 -66.5t-21 -50.5q-54 -37 -131 -37q-180 0 -180 203v1227q-69 34 -168 34q-44 0 -80.5 -7t-74.5 -27.5t-64.5 -54t-43 -92t-16.5 -136.5v-135h281q8 -16 8 -53q0 -40 -8 -56h-281v-856q-17 -10 -59 -10q-43 0 -60 10v856h-473v-856
q-17 -10 -59 -10q-43 0 -60 10v856h-153q0 61 20 109z" />
    <glyph glyph-name="uniFB06" unicode="&#xfb06;" horiz-adv-x="1622" 
d="M119 162q55 -44 142 -70t169 -26q111 0 175.5 47.5t64.5 130.5q0 53 -28 93t-73.5 65.5t-100 47t-109 45.5t-100 54t-73.5 79.5t-28 114.5q0 132 78.5 200.5t226.5 68.5q74 0 129 -17v6q-62 52 -62 175q0 55 16.5 103.5t53.5 91.5t105.5 68t162.5 25q344 0 344 -346v-147
h318q8 -16 8 -53q0 -40 -8 -56h-316v-602q0 -97 32.5 -143.5t123.5 -46.5q114 0 203 80q4 -35 -5 -72.5t-26 -57.5q-77 -61 -199 -61q-127 0 -187 66.5t-60 218.5v618h-152q0 58 21 109h133v139q0 260 -234 260q-118 0 -172.5 -63t-54.5 -150q0 -52 19.5 -101.5t62.5 -117.5
q13 -21 20.5 -59.5t5.5 -67.5q-118 98 -272 98q-98 0 -147.5 -40.5t-49.5 -110.5q0 -48 28.5 -84.5t74 -60t100.5 -45t109.5 -46.5t100 -57t74 -85t28.5 -122q0 -78 -28.5 -137t-79 -93.5t-114 -51.5t-139.5 -17q-80 0 -158 18.5t-129 51.5q-16 22 -22.5 61t-1.5 72z" />
    <glyph glyph-name="uniFEFF" unicode="&#xfeff;" horiz-adv-x="0" 
 />
    <glyph glyph-name="i.latn_TRK" horiz-adv-x="512" 
d="M197 6v959q17 10 59 10t59 -10v-959q-17 -10 -59 -10t-59 10zM258 1417q39 0 63.5 -23t24.5 -65q0 -44 -23 -67t-65 -23q-90 0 -90 88q0 42 24 66t66 24z" />
    <glyph glyph-name="Ldot.latn_CAT" 
d="M346 113h731q10 -17 10 -56q0 -40 -10 -57h-856v1401q17 10 62 10q46 0 63 -10v-1288zM860 831q41 0 64.5 -22.5t23.5 -65.5q0 -90 -88 -90q-90 0 -90 88q0 44 23.5 67t66.5 23z" />
    <glyph glyph-name="ldot.latn_CAT" horiz-adv-x="708" 
d="M504 -4q-54 -37 -131 -37q-180 0 -180 203v1306q45 25 118 25v-1313q0 -63 24 -86.5t71 -23.5q71 0 124 43q2 -33 -5.5 -66.5t-20.5 -50.5zM604 639q38 0 61 -22t23 -62q0 -86 -84 -86q-86 0 -86 84q0 41 23 63.5t63 22.5z" />
    <glyph glyph-name="zero.numr" horiz-adv-x="788" 
d="M393 1374q147 0 228 -100.5t81 -296.5q0 -202 -80.5 -309t-228.5 -107q-152 0 -230.5 106.5t-78.5 309.5q0 192 81 294.5t228 102.5zM190 977q0 -150 53 -235t150 -85t150 86t53 234q0 141 -53.5 222t-149.5 81q-99 0 -151 -81t-52 -222z" />
    <glyph glyph-name="one.numr" horiz-adv-x="788" 
d="M375 586v671l-217 -38q3 52 24 92q98 39 297 61v-786q-18 -11 -53 -11q-33 0 -51 11z" />
    <glyph glyph-name="two.numr" horiz-adv-x="788" 
d="M268 678h381q8 -16 8 -47t-8 -51h-518q-16 36 -16 94q28 24 94.5 77t111.5 92t96 91.5t78 106t27 104.5q0 65 -42 99t-118 34q-120 0 -227 -80q-6 54 25 109q87 67 223 67q112 0 181 -54.5t69 -158.5q0 -58 -24 -117.5t-59.5 -107t-87.5 -97.5t-96 -84t-98 -71v-6z" />
    <glyph glyph-name="three.numr" horiz-adv-x="788" 
d="M238 934q-6 20 -4.5 46.5t10.5 41.5q272 4 272 149q0 111 -154 111q-123 0 -212 -59q-7 61 30 104q30 21 87 34t118 13q109 0 173.5 -46.5t64.5 -143.5q0 -79 -42 -130t-110 -63v-6q76 -10 126 -56t50 -136q0 -80 -43 -133.5t-110 -76t-154 -22.5q-115 0 -193 33
q-30 49 -24 106q84 -41 217 -41q199 0 199 136q0 73 -67 106t-234 33z" />
    <glyph glyph-name="four.numr" horiz-adv-x="788" 
d="M594 784v-198q-18 -11 -53 -11q-34 0 -52 11v198h-393q-16 36 -16 90l383 492q70 0 131 -23v-471h106q9 -14 9 -43q0 -27 -9 -45h-106zM492 872v297q0 47 8 93h-6l-299 -392v-6q36 8 96 8h201z" />
    <glyph glyph-name="five.numr" horiz-adv-x="788" 
d="M201 1356h469q0 -49 -15 -96h-374l-15 -209q38 14 121 14q129 0 202 -61.5t73 -180.5q0 -133 -90 -197.5t-234 -64.5q-113 0 -180 31q-34 46 -27 108q74 -41 205 -41q219 0 219 162q0 80 -52.5 115t-162.5 35q-97 0 -176 -29z" />
    <glyph glyph-name="six.numr" horiz-adv-x="788" 
d="M479 1280q-238 0 -256 -303h4q67 98 211 98q117 0 181.5 -67.5t64.5 -180.5q0 -124 -74.5 -195t-203.5 -71q-287 0 -287 367q0 214 96 330t260 116q92 0 156 -37q13 -18 20 -51t4 -57q-76 51 -176 51zM410 981q-111 0 -187 -98v-9q0 -102 51 -161.5t136 -59.5
q80 0 125 48t45 124q0 73 -45 114.5t-125 41.5z" />
    <glyph glyph-name="seven.numr" horiz-adv-x="788" 
d="M561 1260h-442q0 55 18 96h522q17 -39 17 -86q-109 -171 -194.5 -351t-127.5 -333q-26 -11 -63 -11q-38 0 -53 11q49 162 136.5 344.5t186.5 322.5v7z" />
    <glyph glyph-name="eight.numr" horiz-adv-x="788" 
d="M520 997v-6q158 -51 158 -205q0 -111 -81 -168t-206 -57q-55 0 -103 11.5t-88.5 36t-64.5 67t-24 98.5q0 82 45 136t120 81v6q-58 19 -94.5 63t-36.5 114t39 116.5t95 65t124 18.5q69 0 124 -17.5t92.5 -61.5t37.5 -109q0 -71 -40 -123t-97 -66zM381 948
q-168 -47 -168 -162q0 -69 52 -102t130 -33q75 0 126.5 32t51.5 101q0 35 -14 61.5t-43.5 45.5t-58 30.5t-76.5 26.5zM418 1034q139 41 139 142q0 58 -45.5 85t-110.5 27q-38 0 -70.5 -9t-57.5 -35t-25 -66q0 -30 10.5 -51t38 -38.5t50 -27t71.5 -27.5z" />
    <glyph glyph-name="nine.numr" horiz-adv-x="788" 
d="M567 961h-6q-68 -87 -199 -87q-122 0 -185.5 65.5t-63.5 176.5q0 120 74 189t202 69q281 0 281 -360q0 -219 -97 -336t-266 -117q-105 0 -166 37q-17 19 -25 54t-5 63q34 -25 90 -41.5t112 -16.5q227 0 254 304zM383 967q109 0 182 88v8q0 105 -47.5 162t-134.5 57
q-79 0 -122.5 -45t-43.5 -115q0 -71 42.5 -113t123.5 -42z" />
    <glyph glyph-name="zero.dnom" horiz-adv-x="788" 
d="M393 795q147 0 228 -101t81 -297q0 -202 -80.5 -308.5t-228.5 -106.5q-152 0 -230.5 106t-78.5 309q0 192 81 295t228 103zM190 397q0 -149 53 -234t150 -85t150 85.5t53 233.5q0 141 -53.5 222t-149.5 81q-99 0 -151 -81t-52 -222z" />
    <glyph glyph-name="one.dnom" horiz-adv-x="788" 
d="M375 6v672l-217 -39q3 52 24 92q43 17 128.5 35t168.5 27v-787q-17 -10 -53 -10q-34 0 -51 10z" />
    <glyph glyph-name="two.dnom" horiz-adv-x="788" 
d="M268 98h381q8 -16 8 -47t-8 -51h-518q-16 36 -16 94q28 24 94.5 77t111.5 92t96 91.5t78 106t27 104.5q0 65 -42 99t-118 34q-120 0 -227 -80q-6 54 25 109q89 68 223 68q112 0 181 -54.5t69 -158.5q0 -58 -24 -117.5t-59.5 -107.5t-87.5 -98t-96 -84t-98 -71v-6z" />
    <glyph glyph-name="three.dnom" horiz-adv-x="788" 
d="M238 354q-6 20 -4.5 46.5t10.5 41.5q272 4 272 150q0 110 -154 110q-123 0 -212 -59q-7 62 30 105q30 21 87 34t118 13q109 0 173.5 -47t64.5 -144q0 -79 -42 -129.5t-110 -62.5v-6q76 -10 126 -56t50 -137q0 -117 -86 -174t-221 -57q-118 0 -193 32q-30 49 -24 107
q84 -41 217 -41q199 0 199 135q0 73 -67 106t-234 33z" />
    <glyph glyph-name="four.dnom" horiz-adv-x="788" 
d="M594 205v-199q-17 -10 -53 -10q-35 0 -52 10v199h-393q-16 36 -16 90l383 491q73 0 131 -22v-471h106q9 -14 9 -43q0 -27 -9 -45h-106zM492 293v297q0 46 8 92h-6l-299 -391v-6q36 8 96 8h201z" />
    <glyph glyph-name="five.dnom" horiz-adv-x="788" 
d="M201 776h469q0 -49 -15 -96h-374l-15 -209q38 14 121 14q129 0 202 -61t73 -180q0 -133 -90 -197.5t-234 -64.5q-115 0 -180 30q-34 46 -27 109q74 -41 205 -41q219 0 219 162q0 80 -52.5 114.5t-162.5 34.5q-97 0 -176 -29z" />
    <glyph glyph-name="six.dnom" horiz-adv-x="788" 
d="M479 700q-238 0 -256 -303h4q68 99 211 99q117 0 181.5 -67.5t64.5 -180.5q0 -124 -74.5 -195t-203.5 -71q-287 0 -287 366q0 214 96 330.5t260 116.5q92 0 156 -37q13 -18 20 -51.5t4 -57.5q-76 51 -176 51zM410 401q-111 0 -187 -98v-8q0 -102 51 -161.5t136 -59.5
q80 0 125 48t45 124q0 73 -45 114t-125 41z" />
    <glyph glyph-name="seven.dnom" horiz-adv-x="788" 
d="M561 680h-442q0 55 18 96h522q17 -39 17 -86q-109 -171 -194.5 -351t-127.5 -333q-23 -10 -63 -10t-53 10q49 162 136.5 345t186.5 323v6z" />
    <glyph glyph-name="eight.dnom" horiz-adv-x="788" 
d="M520 418v-6q158 -51 158 -205q0 -111 -81 -168t-206 -57q-55 0 -103 11.5t-88.5 36t-64.5 67t-24 98.5q0 82 45 136t120 81v6q-58 19 -94.5 62.5t-36.5 113.5q0 102 75.5 151.5t182.5 49.5q69 0 124 -18t92.5 -62t37.5 -109q0 -71 -40 -122.5t-97 -65.5zM381 369
q-168 -47 -168 -162q0 -69 52 -102t130 -33q75 0 126.5 32t51.5 101q0 35 -14 61.5t-43.5 45.5t-58 30.5t-76.5 26.5zM418 455q139 41 139 141q0 58 -45.5 85.5t-110.5 27.5q-38 0 -70.5 -9t-57.5 -35.5t-25 -66.5q0 -30 10.5 -51t38.5 -38t49.5 -26.5t71.5 -27.5z" />
    <glyph glyph-name="nine.dnom" horiz-adv-x="788" 
d="M567 381h-6q-67 -86 -199 -86q-122 0 -185.5 65.5t-63.5 176.5q0 120 74 189t202 69q281 0 281 -361q0 -219 -97 -335.5t-266 -116.5q-107 0 -166 36q-17 19 -25 54t-5 63q34 -25 90 -41t112 -16q227 0 254 303zM383 387q109 0 182 88v8q0 105 -47.5 162t-134.5 57
q-79 0 -122.5 -44.5t-43.5 -114.5q0 -71 42.5 -113.5t123.5 -42.5z" />
    <glyph glyph-name="space.frac" horiz-adv-x="83" 
 />
    <glyph glyph-name="quotedbl.tf" 
d="M369 922q-71 0 -103 18q25 208 25 422q67 0 117 -21q0 -171 -39 -419zM729 922q-70 0 -102 18q24 199 24 422q67 0 117 -21q0 -171 -39 -419z" />
    <glyph glyph-name="numbersign.tf" 
d="M162 991h188l62 350q41 23 108 23l-63 -373h352l59 350q41 23 107 23l-62 -373h201q6 -12 6 -35q0 -41 -12 -57h-211l-61 -379h202q6 -12 6 -35q0 -41 -12 -57h-215l-69 -422q-10 -10 -56 -10q-42 0 -55 10l74 422h-349l-71 -422q-10 -10 -55 -10q-43 0 -56 10l74 422
h-203q4 59 27 92h190l68 379h-201q4 59 27 92zM442 899l-65 -379h350l66 379h-351z" />
    <glyph glyph-name="dollar.tf" 
d="M154 182q77 -57 185 -88t216 -31q336 0 336 275q0 65 -23.5 116t-63.5 84t-92 60t-109.5 49t-115 45t-109.5 53.5t-92 69.5t-63.5 98.5t-23.5 135.5q0 156 90.5 248t255.5 104v151q47 19 106 19v-170q155 -12 267 -94q14 -23 22 -63t0 -68q-148 118 -336 118
q-138 0 -211.5 -61.5t-73.5 -167.5q0 -60 23.5 -108t64 -79.5t92.5 -57.5t109.5 -49t114.5 -47t109 -56.5t92.5 -73.5t64 -102.5t23.5 -139.5q0 -82 -20.5 -147t-56 -109t-86.5 -74.5t-108 -46t-125 -20.5v-176q-13 -10 -53 -10q-36 0 -53 10v176q-192 8 -328 90
q-38 59 -28 137z" />
    <glyph glyph-name="percent.tf" horiz-adv-x="1843" 
d="M1462 1376l-973 -1427q-30 5 -53.5 22t-32.5 41l953 1397q64 0 106 -33zM440 1403q138 0 218.5 -93.5t80.5 -265.5q0 -178 -79.5 -275t-219.5 -97q-146 0 -222.5 94.5t-76.5 277.5q0 167 82 263t217 96zM248 1044q0 -128 51 -202t141 -74t141.5 75t51.5 201
q0 120 -52.5 191.5t-140.5 71.5q-91 0 -141.5 -70.5t-50.5 -192.5zM1401 684q138 0 218.5 -93t80.5 -265q0 -178 -79.5 -275.5t-219.5 -97.5q-146 0 -222.5 95t-76.5 278q0 167 82 262.5t217 95.5zM1208 326q0 -128 51.5 -202.5t141.5 -74.5t141 75.5t51 201.5
q0 120 -52 191t-140 71q-91 0 -142 -70.5t-51 -191.5z" />
    <glyph glyph-name="quotesingle.tf" horiz-adv-x="716" 
d="M342 922q-70 0 -102 18q24 200 24 422q68 0 117 -21q0 -171 -39 -419z" />
    <glyph glyph-name="comma.tf" horiz-adv-x="716" 
d="M244 115q46 26 129 26q-6 -110 -45 -244t-82 -208q-72 7 -96 45q82 186 94 381z" />
    <glyph glyph-name="period.tf" horiz-adv-x="716" 
d="M295 156q39 0 64.5 -24t25.5 -66q0 -45 -24 -70t-66 -25q-94 0 -94 90q0 44 25.5 69.5t68.5 25.5z" />
    <glyph glyph-name="zero.tf" 
d="M586 1403q221 0 351 -183t130 -522q0 -357 -128 -551t-353 -194q-234 0 -360 189.5t-126 555.5q0 328 131.5 516.5t354.5 188.5zM225 698q0 -296 95 -464t266 -168q167 0 261.5 169.5t94.5 462.5q0 270 -96.5 431t-259.5 161q-171 0 -266 -160t-95 -432z" />
    <glyph glyph-name="one.tf" 
d="M229 109h336v1146l-364 -67q3 58 28 106q69 22 210.5 52t248.5 43v-1280h338q8 -16 8 -54q0 -39 -8 -55h-817q0 61 20 109z" />
    <glyph glyph-name="two.tf" 
d="M293 117h711q10 -17 10 -58q0 -42 -10 -59h-854q-19 52 -19 123q45 42 134.5 118.5t158.5 136t153 145t139.5 159.5t93.5 163.5t38 172.5q0 132 -83.5 201t-223.5 69q-198 0 -367 -143q-3 36 6 75.5t27 63.5q55 48 149 83.5t211 35.5q181 0 293.5 -95t112.5 -272
q0 -58 -14 -118t-35.5 -112t-58 -109t-70 -102.5t-84.5 -99t-89 -90.5t-95 -87t-91 -78t-88 -72q-38 -31 -55 -45v-6z" />
    </font>
</defs>
</svg>
