<?xml version="1.0" standalone="no"?>
<!DOCTYPE svg PUBLIC "-//W3C//DTD SVG 1.1//EN" "http://www.w3.org/Graphics/SVG/1.1/DTD/svg11.dtd" >
<svg xmlns="http://www.w3.org/2000/svg" xmlns:xlink="http://www.w3.org/1999/xlink" version="1.1">
<metadata>
Created by FontForge 20170731 at Wed Jan 13 17:03:19 2021
 By Aleksey,,,
2011 Mitja Miklavcic published by FSI FontShop International GmbH
</metadata>
<defs>
<font id="TisaSansPro-Medium" horiz-adv-x="1167" >
  <font-face 
    font-family="TisaSansPro-Medium"
    font-weight="500"
    font-stretch="normal"
    units-per-em="2048"
    panose-1="2 11 6 4 2 1 1 1 1 2"
    ascent="1493"
    descent="-555"
    x-height="1001"
    cap-height="1446"
    bbox="-901 -784 2978 2148"
    underline-thickness="143"
    underline-position="-429"
    unicode-range="U+000D-FEFF"
  />
<missing-glyph horiz-adv-x="1507" 
d="M209 0v1483h1089v-1483h-1089zM461 1028q57 45 128 71.5t140 26.5q71 0 104 -26t33 -66q0 -30 -20 -59t-49.5 -51.5t-64.5 -51t-64.5 -57t-49.5 -70.5t-20 -90q0 -100 82 -159q85 6 133 73q-20 22 -27.5 37.5t-7.5 44.5q0 27 21.5 54t54.5 49.5t70.5 53t70.5 62.5
t54.5 81t21.5 106q0 115 -76.5 175t-218.5 60q-166 0 -274 -78q-24 -31 -36 -86.5t-5 -99.5zM752 406q-51 0 -81 -29.5t-30 -83.5q0 -51 29.5 -81t81.5 -30q50 0 80 29t30 82q0 54 -29.5 83.5t-80.5 29.5z" />
    <glyph glyph-name="f_b" unicode="fb" horiz-adv-x="1843" 
d="M1032 879h12q32 72 106.5 117.5t188.5 45.5q65 0 123.5 -16t112.5 -53.5t93 -94t62 -143.5t23 -196q0 -285 -148 -432.5t-421 -147.5q-210 0 -369 72v1300q-59 29 -139 29q-52 0 -92 -11.5t-75 -39.5t-54 -81.5t-19 -131.5v-95h238q16 -32 16 -102t-16 -102h-238v-785
q-34 -18 -119 -18q-81 0 -116 18v785h-156q0 128 33 204h123v80q0 484 465 484q228 0 385 -115v-305q0 -146 -19 -266zM1049 717v-541q67 -18 145 -18q164 0 241.5 94t77.5 264q0 158 -62.5 239t-180.5 81q-136 0 -221 -119z" />
    <glyph glyph-name="f_f" unicode="ff" horiz-adv-x="1337" 
d="M78 1001h123v132q0 391 329 391q111 0 187 -45q27 -34 37.5 -98.5t-0.5 -114.5q-73 51 -160 51q-158 0 -158 -170v-146h398v158q0 218 94.5 312t263.5 94q128 0 207 -52q27 -34 37.5 -99.5t-0.5 -115.5q-92 60 -195 60q-95 0 -133.5 -44.5t-38.5 -137.5v-175h260
q17 -34 17 -102t-17 -102h-260v-785q-35 -18 -119 -18q-82 0 -116 18v785h-398v-785q-34 -18 -119 -18q-81 0 -116 18v785h-156q0 128 33 204z" />
    <glyph glyph-name="f_f_b" unicode="ffb" horiz-adv-x="2476" 
d="M1665 879h12q32 72 106.5 117.5t188.5 45.5q65 0 123.5 -16t112.5 -53.5t93 -94t62 -143.5t23 -196q0 -285 -148 -432.5t-421 -147.5q-210 0 -369 72v1300q-59 29 -139 29q-52 0 -92 -11.5t-75 -39.5t-54 -81.5t-19 -131.5v-95h238q16 -32 16 -102t-16 -102h-238v-785
q-35 -18 -119 -18q-82 0 -116 18v785h-398v-785q-34 -18 -119 -18q-81 0 -116 18v785h-156q0 128 33 204h123v132q0 391 329 391q111 0 187 -45q27 -34 37.5 -98.5t-0.5 -114.5q-73 51 -160 51q-158 0 -158 -170v-146h398v80q0 484 464 484q228 0 385 -115v-305
q0 -152 -18 -266zM1681 717v-541q67 -18 146 -18q164 0 241.5 94t77.5 264q0 158 -62.5 239t-180.5 81q-137 0 -222 -119z" />
    <glyph glyph-name="f_f_h" unicode="ffh" horiz-adv-x="2506" 
d="M1686 690v-678q-34 -18 -119 -18q-83 0 -117 18v1319q-59 29 -139 29q-52 0 -92.5 -11.5t-76 -39.5t-54.5 -81.5t-19 -131.5v-95h238q16 -32 16 -102t-16 -102h-238v-785q-35 -18 -119 -18q-82 0 -116 18v785h-398v-785q-34 -18 -119 -18q-81 0 -116 18v785h-156
q0 128 33 204h123v132q0 391 329 391q111 0 187 -45q27 -34 37.5 -98.5t-0.5 -114.5q-73 51 -160 51q-158 0 -158 -170v-146h398v80q0 135 35 231.5t100 150.5t146 78t185 24q229 0 386 -115v-301q0 -152 -23 -283h12q84 176 336 176q54 0 99 -8t93 -33t81 -66.5t54 -113.5
t21 -168v-641q-35 -18 -118 -18t-117 18v596q0 109 -44 164t-149 55q-169 0 -245 -137z" />
    <glyph glyph-name="f_f_i" unicode="ffi" horiz-adv-x="1839" 
d="M78 1001h123v132q0 391 329 391q111 0 187 -45q27 -34 37.5 -98.5t-0.5 -114.5q-73 51 -160 51q-158 0 -158 -170v-146h398v78q0 486 452 486q170 0 283 -76q27 -33 39.5 -99t1.5 -118q-138 86 -291 86q-56 0 -97.5 -11t-78 -39t-55.5 -82.5t-19 -133.5v-91h238
q16 -32 16 -102t-16 -102h-238v-785q-35 -18 -119 -18q-82 0 -116 18v785h-398v-785q-34 -18 -119 -18q-81 0 -116 18v785h-156q0 128 33 204zM1444 12v977q36 19 117 19q82 0 118 -19v-977q-35 -18 -118 -18t-117 18z" />
    <glyph glyph-name="f_f_iogonek" unicode="ff&#x12f;" horiz-adv-x="1839" 
d="M78 1001h123v132q0 391 329 391q111 0 187 -45q27 -34 37.5 -98.5t-0.5 -114.5q-73 51 -160 51q-158 0 -158 -170v-146h398v78q0 486 452 486q170 0 283 -76q27 -33 39.5 -99t1.5 -118q-138 86 -291 86q-56 0 -97.5 -11t-78 -39t-55.5 -82.5t-19 -133.5v-91h238
q16 -32 16 -102t-16 -102h-238v-785q-35 -18 -119 -18q-82 0 -116 18v785h-398v-785q-34 -18 -119 -18q-81 0 -116 18v785h-156q0 128 33 204zM1677 -293q20 -27 33.5 -70.5t13.5 -85.5q-56 -24 -143 -24q-76 0 -135 21.5t-97 74t-38 131.5q0 87 41.5 148.5t122.5 85.5v12
q-21 6 -31 12v977q36 19 117 19q82 0 118 -19v-979q-73 -43 -113 -99.5t-40 -111.5q0 -49 29 -74.5t77 -25.5q26 0 45 8z" />
    <glyph glyph-name="f_f_j" unicode="ffj" horiz-adv-x="1851" 
d="M78 1001h123v132q0 391 329 391q111 0 187 -45q27 -34 37.5 -98.5t-0.5 -114.5q-73 51 -160 51q-158 0 -158 -170v-146h398v78q0 486 462 486q171 0 289 -80q27 -33 39.5 -99t1.5 -118q-142 90 -299 90q-45 0 -81 -6.5t-70.5 -24.5t-57 -47t-36 -76.5t-13.5 -111.5v-91
h254q16 -32 16 -102t-16 -102h-254v-785q-35 -18 -119 -18q-82 0 -116 18v785h-398v-785q-34 -18 -119 -18q-81 0 -116 18v785h-156q0 128 33 204zM1696 989v-739q0 -145 -20.5 -258t-63 -201.5t-97 -155t-133.5 -133.5q-46 13 -84.5 53t-56.5 91q110 96 164.5 217t54.5 319
v807q36 19 117 19q83 0 119 -19z" />
    <glyph glyph-name="f_f_k" unicode="ffk" horiz-adv-x="2410" 
d="M1686 1450v-811h124l271 358q35 15 100 15q107 0 152 -31l-334 -436q199 -318 385 -533q-33 -20 -133 -20q-118 0 -156 20q-157 193 -301 434h-108v-434q-34 -18 -119 -18q-83 0 -117 18v1319q-59 29 -139 29q-52 0 -92.5 -11.5t-76 -39.5t-54.5 -81.5t-19 -131.5v-95
h238q16 -32 16 -102t-16 -102h-238v-785q-35 -18 -119 -18q-82 0 -116 18v785h-398v-785q-34 -18 -119 -18q-81 0 -116 18v785h-156q0 128 33 204h123v132q0 391 329 391q111 0 187 -45q27 -34 37.5 -98.5t-0.5 -114.5q-73 51 -160 51q-158 0 -158 -170v-146h398v80
q0 135 35 231.5t100 150.5t146 78t185 24q229 0 386 -115z" />
    <glyph glyph-name="f_f_kcommaaccent" unicode="ff&#x137;" horiz-adv-x="2410" 
d="M1686 1450v-811h124l271 358q35 15 100 15q107 0 152 -31l-334 -436q199 -318 385 -533q-33 -20 -133 -20q-118 0 -156 20q-157 193 -301 434h-108v-434q-34 -18 -119 -18q-83 0 -117 18v1319q-59 29 -139 29q-52 0 -92.5 -11.5t-76 -39.5t-54.5 -81.5t-19 -131.5v-95
h238q16 -32 16 -102t-16 -102h-238v-785q-35 -18 -119 -18q-82 0 -116 18v785h-398v-785q-34 -18 -119 -18q-81 0 -116 18v785h-156q0 128 33 204h123v132q0 391 329 391q111 0 187 -45q27 -34 37.5 -98.5t-0.5 -114.5q-73 51 -160 51q-158 0 -158 -170v-146h398v80
q0 135 35 231.5t100 150.5t146 78t185 24q229 0 386 -115zM1806 -141q77 47 213 47q-6 -110 -39.5 -232.5t-74.5 -197.5q-111 10 -160 71q52 148 61 312z" />
    <glyph glyph-name="f_f_l" unicode="ffl" horiz-adv-x="1918" 
d="M78 1001h123v132q0 391 329 391q111 0 187 -45q27 -34 37.5 -98.5t-0.5 -114.5q-73 51 -160 51q-158 0 -158 -170v-146h398v80q0 107 23.5 191t63.5 138.5t98 89.5t123.5 50t143.5 15q227 0 393 -109v-1186q0 -59 21 -79.5t65 -20.5q72 0 127 39q9 -53 -6 -114.5
t-43 -94.5q-64 -41 -164 -41q-235 0 -235 277v1097q-58 27 -137 27q-52 0 -91.5 -11.5t-74.5 -39.5t-53.5 -81.5t-18.5 -131.5v-95h238q16 -32 16 -102t-16 -102h-238v-785q-35 -18 -119 -18q-82 0 -116 18v785h-398v-785q-34 -18 -119 -18q-81 0 -116 18v785h-156
q0 128 33 204z" />
    <glyph glyph-name="f_f_lcaron" unicode="ff&#x13e;" horiz-adv-x="1933" 
d="M78 1001h123v132q0 391 329 391q111 0 187 -45q27 -34 37.5 -98.5t-0.5 -114.5q-73 51 -160 51q-158 0 -158 -170v-146h398v80q0 107 23.5 191t63.5 138.5t98 89.5t123.5 50t143.5 15q227 0 393 -109v-1186q0 -59 21 -79.5t65 -20.5q72 0 127 39q9 -53 -6 -114.5
t-43 -94.5q-64 -41 -164 -41q-235 0 -235 277v1097q-58 27 -137 27q-52 0 -91.5 -11.5t-74.5 -39.5t-53.5 -81.5t-18.5 -131.5v-95h238q16 -32 16 -102t-16 -102h-238v-785q-35 -18 -119 -18q-82 0 -116 18v785h-398v-785q-34 -18 -119 -18q-81 0 -116 18v785h-156
q0 128 33 204zM2042 1534q-6 -116 -41.5 -245t-79.5 -212q-104 9 -152 74q59 171 70 336q74 47 203 47z" />
    <glyph glyph-name="f_f_lcommaaccent" unicode="ff&#x13c;" horiz-adv-x="1918" 
d="M78 1001h123v132q0 391 329 391q111 0 187 -45q27 -34 37.5 -98.5t-0.5 -114.5q-73 51 -160 51q-158 0 -158 -170v-146h398v80q0 107 23.5 191t63.5 138.5t98 89.5t123.5 50t143.5 15q227 0 393 -109v-1186q0 -59 21 -79.5t65 -20.5q72 0 127 39q9 -53 -6 -114.5
t-43 -94.5q-64 -41 -164 -41q-235 0 -235 277v1097q-58 27 -137 27q-52 0 -91.5 -11.5t-74.5 -39.5t-53.5 -81.5t-18.5 -131.5v-95h238q16 -32 16 -102t-16 -102h-238v-785q-35 -18 -119 -18q-82 0 -116 18v785h-398v-785q-34 -18 -119 -18q-81 0 -116 18v785h-156
q0 128 33 204zM1567 -141q77 47 213 47q-6 -110 -39.5 -232.5t-75.5 -197.5q-111 10 -160 71q53 151 62 312z" />
    <glyph glyph-name="f_f_ldot" unicode="ff&#x140;" horiz-adv-x="2103" 
d="M78 1001h123v132q0 391 329 391q111 0 187 -45q27 -34 37.5 -98.5t-0.5 -114.5q-73 51 -160 51q-158 0 -158 -170v-146h398v80q0 107 23.5 191t63.5 138.5t98 89.5t123.5 50t143.5 15q227 0 393 -109v-1186q0 -59 21 -79.5t65 -20.5q72 0 127 39q9 -53 -6 -114.5
t-43 -94.5q-64 -41 -164 -41q-235 0 -235 277v1097q-58 27 -137 27q-52 0 -91.5 -11.5t-74.5 -39.5t-53.5 -81.5t-18.5 -131.5v-95h238q16 -32 16 -102t-16 -102h-238v-785q-35 -18 -119 -18q-82 0 -116 18v785h-398v-785q-34 -18 -119 -18q-81 0 -116 18v785h-156
q0 128 33 204zM1966 723q62 0 98.5 -35.5t36.5 -99.5q0 -63 -37 -98t-100 -35q-65 0 -100 34t-35 97q0 65 37 101t100 36z" />
    <glyph glyph-name="f_f_t" unicode="fft" horiz-adv-x="2072" 
d="M1700 1001h285q16 -32 16 -102t-16 -102h-285v-459q0 -84 29.5 -124t111.5 -40q107 0 195 66q7 -55 -9.5 -120.5t-44.5 -99.5q-86 -61 -219 -61q-161 0 -230 86.5t-69 259.5v492h-395v-785q-35 -18 -119 -18q-82 0 -116 18v785h-398v-785q-34 -18 -119 -18q-81 0 -116 18
v785h-156q0 128 33 204h123v132q0 391 329 391q111 0 187 -45q27 -34 37.5 -98.5t-0.5 -114.5q-73 51 -160 51q-158 0 -158 -170v-146h398v150q0 218 89.5 311.5t250.5 93.5q122 0 196 -45q27 -34 37.5 -99.5t-0.5 -115.5q-82 54 -180 54q-87 0 -122.5 -44.5t-35.5 -138.5
v-166h395v224q78 66 236 69v-293z" />
    <glyph glyph-name="f_f_tbar" unicode="ff&#x167;" horiz-adv-x="2076" 
d="M1464 797h-395v-785q-35 -18 -119 -18q-82 0 -116 18v785h-398v-785q-34 -18 -119 -18q-81 0 -116 18v785h-156q0 128 33 204h123v132q0 391 329 391q111 0 187 -45q27 -34 37.5 -98.5t-0.5 -114.5q-73 51 -160 51q-158 0 -158 -170v-146h398v150q0 218 89.5 311.5
t250.5 93.5q122 0 196 -45q27 -34 37.5 -99.5t-0.5 -115.5q-82 54 -180 54q-87 0 -122.5 -44.5t-35.5 -138.5v-166h395v224q78 66 236 69v-293h285q16 -32 16 -102t-16 -102h-285v-197h239q15 -22 15 -80t-15 -80h-239v-102q0 -84 29.5 -124t111.5 -40q107 0 195 66
q7 -55 -9.5 -120.5t-44.5 -99.5q-86 -61 -219 -61q-161 0 -230 86.5t-69 259.5v135h-141q0 94 27 160h114v197z" />
    <glyph glyph-name="f_f_tcaron" unicode="ff&#x165;" horiz-adv-x="2082" 
d="M1700 1001h285q16 -32 16 -102t-16 -102h-285v-459q0 -84 29.5 -124t111.5 -40q107 0 195 66q7 -55 -9.5 -120.5t-44.5 -99.5q-86 -61 -219 -61q-161 0 -230 86.5t-69 259.5v492h-395v-785q-35 -18 -119 -18q-82 0 -116 18v785h-398v-785q-34 -18 -119 -18q-81 0 -116 18
v785h-156q0 128 33 204h123v132q0 391 329 391q111 0 187 -45q27 -34 37.5 -98.5t-0.5 -114.5q-73 51 -160 51q-158 0 -158 -170v-146h398v150q0 218 89.5 311.5t250.5 93.5q122 0 196 -45q27 -34 37.5 -99.5t-0.5 -115.5q-82 54 -180 54q-87 0 -122.5 -44.5t-35.5 -138.5
v-166h395v224q78 66 236 69v-293zM1952 1470q76 48 207 48q-6 -109 -37.5 -228t-71.5 -192q-51 4 -91.5 23.5t-62.5 49.5q47 140 56 299z" />
    <glyph glyph-name="f_f_tcommaaccent" unicode="ff&#x163;" horiz-adv-x="2072" 
d="M1700 1001h285q16 -32 16 -102t-16 -102h-285v-459q0 -84 29.5 -124t111.5 -40q107 0 195 66q7 -55 -9.5 -120.5t-44.5 -99.5q-61 -43 -149 -57l-14 -63q125 -43 125 -168q0 -96 -70.5 -157t-177.5 -77q-85 38 -113 119q67 8 109.5 36.5t42.5 72.5q0 36 -33 60t-84 34
l47 149q-107 24 -154 107.5t-47 228.5v492h-395v-785q-35 -18 -119 -18q-82 0 -116 18v785h-398v-785q-34 -18 -119 -18q-81 0 -116 18v785h-156q0 128 33 204h123v132q0 391 329 391q111 0 187 -45q27 -34 37.5 -98.5t-0.5 -114.5q-73 51 -160 51q-158 0 -158 -170v-146
h398v150q0 218 89.5 311.5t250.5 93.5q122 0 196 -45q27 -34 37.5 -99.5t-0.5 -115.5q-82 54 -180 54q-87 0 -122.5 -44.5t-35.5 -138.5v-166h395v224q78 66 236 69v-293z" />
    <glyph glyph-name="f_f_uni021B" unicode="ff&#x21b;" horiz-adv-x="2072" 
d="M1700 1001h285q16 -32 16 -102t-16 -102h-285v-459q0 -84 29.5 -124t111.5 -40q107 0 195 66q7 -55 -9.5 -120.5t-44.5 -99.5q-86 -61 -219 -61q-161 0 -230 86.5t-69 259.5v492h-395v-785q-35 -18 -119 -18q-82 0 -116 18v785h-398v-785q-34 -18 -119 -18q-81 0 -116 18
v785h-156q0 128 33 204h123v132q0 391 329 391q111 0 187 -45q27 -34 37.5 -98.5t-0.5 -114.5q-73 51 -160 51q-158 0 -158 -170v-146h398v150q0 218 89.5 311.5t250.5 93.5q122 0 196 -45q27 -34 37.5 -99.5t-0.5 -115.5q-82 54 -180 54q-87 0 -122.5 -44.5t-35.5 -138.5
v-166h395v224q78 66 236 69v-293zM1653 -141q77 47 213 47q-6 -110 -39.5 -232.5t-75.5 -197.5q-111 10 -160 71q53 151 62 312z" />
    <glyph glyph-name="f_h" unicode="fh" horiz-adv-x="1873" 
d="M1053 690v-678q-34 -18 -119 -18q-82 0 -117 18v1319q-59 29 -139 29q-52 0 -92.5 -11.5t-76 -39.5t-54.5 -81.5t-19 -131.5v-95h238q16 -32 16 -102t-16 -102h-238v-785q-34 -18 -119 -18q-81 0 -116 18v785h-156q0 128 33 204h123v80q0 484 467 484q228 0 385 -115
v-301q0 -152 -23 -283h12q84 176 336 176q54 0 99 -8t93 -33t81 -66.5t54 -113.5t21 -168v-641q-34 -18 -118 -18q-82 0 -117 18v596q0 109 -44 164t-149 55q-169 0 -245 -137z" />
    <glyph glyph-name="f_i" unicode="fi" horiz-adv-x="1206" 
d="M78 1001h123v78q0 486 452 486q170 0 283 -76q27 -33 39.5 -99t1.5 -118q-138 86 -291 86q-56 0 -97.5 -11t-78 -39t-55.5 -82.5t-19 -133.5v-91h238q16 -32 16 -102t-16 -102h-238v-785q-34 -18 -119 -18q-81 0 -116 18v785h-156q0 128 33 204zM811 12v977q36 19 117 19
q83 0 119 -19v-977q-35 -18 -119 -18q-82 0 -117 18z" />
    <glyph glyph-name="f_iacute" unicode="f&#xed;" horiz-adv-x="1214" 
d="M436 1001h242q16 -32 16 -102t-16 -102h-242v-785q-34 -18 -119 -18q-81 0 -116 18v785h-156q0 128 33 204h123v150q0 391 329 391q111 0 187 -45q27 -34 37.5 -98.5t-0.5 -114.5q-73 51 -160 51q-158 0 -158 -170v-164zM819 12v977q36 19 117 19q83 0 119 -19v-977
q-35 -18 -119 -18q-82 0 -117 18zM1247 1481l-334 -338q-83 20 -122 96l243 313q57 0 117.5 -19t95.5 -52z" />
    <glyph glyph-name="f_iogonek" unicode="f&#x12f;" horiz-adv-x="1206" 
d="M78 1001h123v78q0 486 452 486q170 0 283 -76q27 -33 39.5 -99t1.5 -118q-138 86 -291 86q-56 0 -97.5 -11t-78 -39t-55.5 -82.5t-19 -133.5v-91h238q16 -32 16 -102t-16 -102h-238v-785q-34 -18 -119 -18q-81 0 -116 18v785h-156q0 128 33 204zM1044 -293
q21 -27 34.5 -70.5t13.5 -85.5q-56 -24 -144 -24q-76 0 -135 21.5t-97 74t-38 131.5q0 87 41.5 148.5t122.5 85.5v12q-21 6 -31 12v977q36 19 117 19q83 0 119 -19v-979q-74 -43 -114 -99.5t-40 -111.5q0 -49 29 -74.5t77 -25.5q26 0 45 8z" />
    <glyph glyph-name="f_j" unicode="fj" horiz-adv-x="1218" 
d="M78 1001h123v78q0 486 463 486q170 0 288 -80q27 -33 39.5 -99t1.5 -118q-142 90 -299 90q-45 0 -81 -6.5t-70.5 -24.5t-57 -47t-36 -76.5t-13.5 -111.5v-91h254q17 -34 17 -102t-17 -102h-254v-785q-34 -18 -119 -18q-81 0 -116 18v785h-156q0 128 33 204zM1063 989
v-739q0 -145 -20 -258t-62.5 -201.5t-97 -155t-133.5 -133.5q-46 13 -85 53.5t-57 90.5q110 96 164.5 217t54.5 319v807q36 19 117 19q83 0 119 -19z" />
    <glyph glyph-name="f_k" unicode="fk" horiz-adv-x="1777" 
d="M1053 1450v-811h125l270 358q35 15 100 15q107 0 152 -31l-334 -436q199 -318 385 -533q-33 -20 -133 -20q-118 0 -156 20q-157 193 -301 434h-108v-434q-34 -18 -119 -18q-82 0 -117 18v1319q-59 29 -139 29q-52 0 -92.5 -11.5t-76 -39.5t-54.5 -81.5t-19 -131.5v-95
h238q16 -32 16 -102t-16 -102h-238v-785q-34 -18 -119 -18q-81 0 -116 18v785h-156q0 128 33 204h123v80q0 484 467 484q228 0 385 -115z" />
    <glyph glyph-name="f_kcommaaccent" unicode="f&#x137;" horiz-adv-x="1777" 
d="M1053 1450v-811h125l270 358q35 15 100 15q107 0 152 -31l-334 -436q199 -318 385 -533q-33 -20 -133 -20q-118 0 -156 20q-157 193 -301 434h-108v-434q-34 -18 -119 -18q-82 0 -117 18v1319q-59 29 -139 29q-52 0 -92.5 -11.5t-76 -39.5t-54.5 -81.5t-19 -131.5v-95
h238q16 -32 16 -102t-16 -102h-238v-785q-34 -18 -119 -18q-81 0 -116 18v785h-156q0 128 33 204h123v80q0 484 467 484q228 0 385 -115zM1174 -141q77 47 212 47q-6 -110 -39.5 -232.5t-74.5 -197.5q-111 10 -160 71q53 151 62 312z" />
    <glyph glyph-name="f_l" unicode="fl" horiz-adv-x="1286" 
d="M78 1001h123v80q0 107 23.5 191t63.5 138.5t98 89.5t123.5 50t143.5 15q228 0 394 -109v-1186q0 -59 21 -79.5t65 -20.5q72 0 127 39q9 -53 -6.5 -114.5t-43.5 -94.5q-64 -41 -163 -41q-236 0 -236 277v1097q-58 27 -137 27q-52 0 -91.5 -11.5t-74.5 -39.5t-53.5 -81.5
t-18.5 -131.5v-95h238q16 -32 16 -102t-16 -102h-238v-785q-34 -18 -119 -18q-81 0 -116 18v785h-156q0 128 33 204z" />
    <glyph glyph-name="f_lcaron" unicode="f&#x13e;" horiz-adv-x="1300" 
d="M78 1001h123v80q0 107 23.5 191t63.5 138.5t98 89.5t123.5 50t143.5 15q228 0 394 -109v-1186q0 -59 21 -79.5t65 -20.5q72 0 127 39q9 -53 -6.5 -114.5t-43.5 -94.5q-64 -41 -163 -41q-236 0 -236 277v1097q-58 27 -137 27q-52 0 -91.5 -11.5t-74.5 -39.5t-53.5 -81.5
t-18.5 -131.5v-95h238q16 -32 16 -102t-16 -102h-238v-785q-34 -18 -119 -18q-81 0 -116 18v785h-156q0 128 33 204zM1409 1534q-6 -116 -41.5 -245t-79.5 -212q-103 9 -151 74q58 168 69 336q74 47 203 47z" />
    <glyph glyph-name="f_lcommaaccent" unicode="f&#x13c;" horiz-adv-x="1286" 
d="M78 1001h123v80q0 107 23.5 191t63.5 138.5t98 89.5t123.5 50t143.5 15q228 0 394 -109v-1186q0 -59 21 -79.5t65 -20.5q72 0 127 39q9 -53 -6.5 -114.5t-43.5 -94.5q-64 -41 -163 -41q-236 0 -236 277v1097q-58 27 -137 27q-52 0 -91.5 -11.5t-74.5 -39.5t-53.5 -81.5
t-18.5 -131.5v-95h238q16 -32 16 -102t-16 -102h-238v-785q-34 -18 -119 -18q-81 0 -116 18v785h-156q0 128 33 204zM934 -141q77 47 213 47q-6 -110 -39.5 -232.5t-75.5 -197.5q-111 10 -160 71q53 151 62 312z" />
    <glyph glyph-name="f_ldot" unicode="f&#x140;" horiz-adv-x="1470" 
d="M78 1001h123v80q0 107 23.5 191t63.5 138.5t98 89.5t123.5 50t143.5 15q228 0 394 -109v-1186q0 -59 21 -79.5t65 -20.5q72 0 127 39q9 -53 -6.5 -114.5t-43.5 -94.5q-64 -41 -163 -41q-236 0 -236 277v1097q-58 27 -137 27q-52 0 -91.5 -11.5t-74.5 -39.5t-53.5 -81.5
t-18.5 -131.5v-95h238q16 -32 16 -102t-16 -102h-238v-785q-34 -18 -119 -18q-81 0 -116 18v785h-156q0 128 33 204zM1333 723q62 0 98.5 -35.5t36.5 -99.5q0 -63 -37 -98t-100 -35q-65 0 -100 34t-35 97q0 65 37 101t100 36z" />
    <glyph glyph-name="f_t" unicode="ft" horiz-adv-x="1439" 
d="M1067 1001h285q16 -32 16 -102t-16 -102h-285v-459q0 -84 29.5 -124t111.5 -40q107 0 195 66q7 -55 -9 -120.5t-44 -99.5q-86 -61 -220 -61q-161 0 -230 86.5t-69 259.5v492h-395v-785q-34 -18 -119 -18q-81 0 -116 18v785h-156q0 128 33 204h123v150q0 218 89.5 311.5
t250.5 93.5q122 0 196 -45q27 -34 37.5 -99.5t-0.5 -115.5q-82 54 -180 54q-87 0 -122.5 -44.5t-35.5 -138.5v-166h395v224q78 66 236 69v-293z" />
    <glyph glyph-name="f_tbar" unicode="f&#x167;" horiz-adv-x="1447" 
d="M721 600h115v197h-400v-785q-34 -18 -119 -18q-81 0 -116 18v785h-156q0 128 33 204h123v150q0 218 89.5 311.5t250.5 93.5q122 0 196 -45q27 -34 37.5 -99.5t-0.5 -115.5q-82 54 -180 54q-87 0 -122.5 -44.5t-35.5 -138.5v-166h400v224q78 66 235 69v-293h285
q16 -32 16 -102t-16 -102h-285v-197h240q14 -21 14 -80t-14 -80h-240v-102q0 -84 29.5 -124t111.5 -40q107 0 195 66q7 -55 -9 -120.5t-44 -99.5q-86 -61 -219 -61q-161 0 -230 86.5t-69 259.5v135h-142q0 94 27 160z" />
    <glyph glyph-name="f_tcaron" unicode="f&#x165;" horiz-adv-x="1449" 
d="M1067 1001h285q16 -32 16 -102t-16 -102h-285v-459q0 -84 29.5 -124t111.5 -40q107 0 195 66q7 -55 -9 -120.5t-44 -99.5q-86 -61 -220 -61q-161 0 -230 86.5t-69 259.5v492h-395v-785q-34 -18 -119 -18q-81 0 -116 18v785h-156q0 128 33 204h123v150q0 218 89.5 311.5
t250.5 93.5q122 0 196 -45q27 -34 37.5 -99.5t-0.5 -115.5q-82 54 -180 54q-87 0 -122.5 -44.5t-35.5 -138.5v-166h395v224q78 66 236 69v-293zM1319 1470q76 48 207 48q-6 -109 -37.5 -228t-71.5 -192q-106 9 -153 73q46 137 55 299z" />
    <glyph glyph-name="f_tcommaaccent" unicode="f&#x163;" horiz-adv-x="1439" 
d="M985 -180l47 149q-107 24 -154 107.5t-47 228.5v492h-395v-785q-34 -18 -119 -18q-81 0 -116 18v785h-156q0 128 33 204h123v150q0 218 89.5 311.5t250.5 93.5q122 0 196 -45q27 -34 37.5 -99.5t-0.5 -115.5q-82 54 -180 54q-87 0 -122.5 -44.5t-35.5 -138.5v-166h395
v224q78 66 236 69v-293h285q16 -32 16 -102t-16 -102h-285v-459q0 -84 29.5 -124t111.5 -40q107 0 195 66q7 -55 -9 -120.5t-44 -99.5q-61 -43 -150 -57l-14 -63q125 -43 125 -168q0 -96 -70.5 -157t-177.5 -77q-85 38 -113 119q67 8 109.5 36.5t42.5 72.5q0 36 -33 60
t-84 34z" />
    <glyph glyph-name="f_uni021B" unicode="f&#x21b;" horiz-adv-x="1439" 
d="M1067 1001h285q16 -32 16 -102t-16 -102h-285v-459q0 -84 29.5 -124t111.5 -40q107 0 195 66q7 -55 -9 -120.5t-44 -99.5q-86 -61 -220 -61q-161 0 -230 86.5t-69 259.5v492h-395v-785q-34 -18 -119 -18q-81 0 -116 18v785h-156q0 128 33 204h123v150q0 218 89.5 311.5
t250.5 93.5q122 0 196 -45q27 -34 37.5 -99.5t-0.5 -115.5q-82 54 -180 54q-87 0 -122.5 -44.5t-35.5 -138.5v-166h395v224q78 66 236 69v-293zM1020 -141q77 47 213 47q-6 -110 -39.5 -232.5t-75.5 -197.5q-111 10 -160 71q53 151 62 312z" />
    <glyph glyph-name=".notdef" horiz-adv-x="1507" 
d="M209 0v1483h1089v-1483h-1089zM461 1028q57 45 128 71.5t140 26.5q71 0 104 -26t33 -66q0 -30 -20 -59t-49.5 -51.5t-64.5 -51t-64.5 -57t-49.5 -70.5t-20 -90q0 -100 82 -159q85 6 133 73q-20 22 -27.5 37.5t-7.5 44.5q0 27 21.5 54t54.5 49.5t70.5 53t70.5 62.5
t54.5 81t21.5 106q0 115 -76.5 175t-218.5 60q-166 0 -274 -78q-24 -31 -36 -86.5t-5 -99.5zM752 406q-51 0 -81 -29.5t-30 -83.5q0 -51 29.5 -81t81.5 -30q50 0 80 29t30 82q0 54 -29.5 83.5t-80.5 29.5z" />
    <glyph glyph-name=".null" horiz-adv-x="0" 
 />
    <glyph glyph-name=".null" horiz-adv-x="0" 
 />
    <glyph glyph-name="nonmarkingreturn" horiz-adv-x="682" 
 />
    <glyph glyph-name="CR" unicode="&#xd;" horiz-adv-x="397" 
 />
    <glyph glyph-name="space" unicode=" " horiz-adv-x="397" 
 />
    <glyph glyph-name="exclam" unicode="!" horiz-adv-x="630" 
d="M451 1436l-31 -985q-34 -19 -109 -19q-74 0 -108 19l-33 968q68 31 170 31q76 0 111 -14zM311 264q67 0 106.5 -39t39.5 -110t-40.5 -109.5t-107.5 -38.5q-69 0 -107 38.5t-38 107.5q0 71 40 111t107 40z" />
    <glyph glyph-name="quotedbl" unicode="&#x22;" horiz-adv-x="839" 
d="M303 981q-116 0 -186 33q20 226 20 502q135 0 221 -35q0 -95 -16.5 -245t-38.5 -255zM696 981q-116 0 -186 33q20 226 20 502q136 0 222 -35q0 -94 -17 -244t-39 -256z" />
    <glyph glyph-name="numbersign" unicode="#" horiz-adv-x="1214" 
d="M141 881h181l36 206q66 37 197 37l-43 -243h303l35 206q66 37 197 37l-39 -243h168q10 -18 10 -54q0 -65 -25 -110h-178l-47 -293h168q10 -18 10 -53q0 -67 -24 -111h-181l-39 -248q-24 -18 -102 -18q-73 0 -100 18l43 248h-303l-43 -248q-24 -18 -103 -18q-73 0 -100 18
l45 248h-184q4 100 43 164h172l53 293h-193q4 100 43 164zM485 717l-51 -293h303l51 293h-303z" />
    <glyph glyph-name="dollar" unicode="$" horiz-adv-x="1024" 
d="M90 246q76 -38 182.5 -63t206.5 -25q115 0 167 36t52 107q0 45 -31.5 77t-82.5 51.5t-112 37.5t-122.5 43t-112.5 59.5t-82.5 95t-31.5 142.5q0 141 79.5 225.5t227.5 108.5v147q82 31 199 31v-174q115 -14 207 -64q27 -39 39.5 -103t3.5 -114q-147 90 -324 90
q-195 0 -195 -120q0 -43 31.5 -73.5t82.5 -50t112 -37.5t122 -44t112 -61.5t82.5 -97.5t31.5 -144q0 -314 -342 -361v-153q-31 -17 -100 -17q-68 0 -99 17v151q-145 12 -250 57q-32 45 -46.5 109.5t-6.5 116.5z" />
    <glyph glyph-name="percent" unicode="%" horiz-adv-x="1935" 
d="M1464 1112l-807 -1192q-52 8 -96 39t-59 72l766 1138q121 0 196 -57zM414 1149q156 0 247 -88t91 -248q0 -164 -92 -257t-246 -93q-164 0 -252 91t-88 259q0 156 93.5 246t246.5 90zM266 813q0 -88 39 -138t109 -50q69 0 107 51t38 137q0 83 -38.5 129.5t-106.5 46.5
q-72 0 -110 -46t-38 -130zM1524 645q156 0 247 -88t91 -248q0 -164 -92 -257t-246 -93q-164 0 -252 91t-88 259q0 156 93.5 246t246.5 90zM1376 309q0 -88 39 -138t109 -50q69 0 107 51t38 137q0 83 -38.5 129.5t-106.5 46.5q-72 0 -110 -46t-38 -130z" />
    <glyph glyph-name="ampersand" unicode="&#x26;" horiz-adv-x="1523" 
d="M958 326q-196 199 -419 325q-105 -35 -164.5 -103t-59.5 -167q0 -60 23 -104.5t64 -70.5t91.5 -38t112.5 -12q224 0 352 170zM610 858q92 31 138.5 89t46.5 132q0 86 -55 127t-132 41q-34 0 -65 -8t-60 -26.5t-46 -52.5t-17 -81q0 -79 47.5 -129.5t142.5 -91.5zM1237 -4
q-76 107 -133 166q-199 -209 -522 -209q-102 0 -188.5 20.5t-160.5 65.5t-116.5 126.5t-42.5 192.5q0 158 82.5 261t212.5 141v12q-176 89 -176 303q0 94 35 165t95 112.5t133 61.5t156 20q81 0 151 -19t128 -57.5t91.5 -105.5t33.5 -154q0 -119 -60 -209.5t-165 -130.5v-13
q161 -95 294 -225q71 121 84 297q76 45 232 45q-8 -134 -47.5 -267.5t-106.5 -236.5q150 -166 252 -335q-51 -39 -164 -39q-74 0 -98 12z" />
    <glyph glyph-name="quotesingle" unicode="'" horiz-adv-x="446" 
d="M303 981q-116 0 -186 33q20 226 20 502q135 0 221 -35q0 -95 -16.5 -245t-38.5 -255z" />
    <glyph glyph-name="parenleft" unicode="(" horiz-adv-x="684" 
d="M500 -457q-181 251 -265.5 518t-84.5 529q0 278 88 545.5t251 492.5q107 -22 166 -119q-132 -200 -203 -436t-71 -477q0 -511 305 -940q-27 -45 -76.5 -74.5t-109.5 -38.5z" />
    <glyph glyph-name="parenright" unicode=")" horiz-adv-x="684" 
d="M6 -348q297 442 297 942q0 248 -68.5 480t-197.5 429q23 43 70.5 79t101.5 48q170 -236 248 -502.5t78 -521.5q0 -566 -347 -1071q-60 11 -108.5 42t-73.5 75z" />
    <glyph glyph-name="asterisk" unicode="*" horiz-adv-x="894" 
d="M379 1225l10 6q-28 55 -31 104l-8 183q59 26 172 26l-10 -207q-3 -50 -31 -108l11 -6q42 60 73 80l168 106q29 -22 59 -61t50 -82l-197 -101q-42 -20 -108 -24v-13q52 -6 104 -26l186 -90q-1 -44 -28 -91t-62 -69l-174 115q-32 21 -69 77l-11 -6q26 -54 29 -102l12 -197
q-26 -16 -90 -16q-59 0 -88 16l12 197q3 46 31 100l-10 6q-28 -47 -68 -73l-168 -115q-35 21 -60 68.5t-28 95.5l176 86q38 17 99 20v13q-64 7 -99 24l-170 88q11 88 62 170l182 -114q35 -21 74 -80z" />
    <glyph glyph-name="plus" unicode="+" 
d="M111 668h360v362q74 35 219 35v-397h373q18 -30 18 -105q0 -74 -18 -104h-373v-381q-34 -19 -110 -19q-71 0 -109 19v381h-393q0 130 33 209z" />
    <glyph glyph-name="comma" unicode="," horiz-adv-x="524" 
d="M160 178q83 47 239 47q-7 -146 -55.5 -312.5t-105.5 -264.5q-122 9 -181 78q91 216 103 452z" />
    <glyph glyph-name="hyphen" unicode="-" horiz-adv-x="735" 
d="M109 672h524q16 -32 16 -107q0 -74 -16 -106h-557q0 134 33 213z" />
    <glyph glyph-name="period" unicode="." horiz-adv-x="532" 
d="M264 264q67 0 106.5 -39t39.5 -110t-40.5 -109.5t-107.5 -38.5q-69 0 -107 38.5t-38 107.5q0 71 40 111t107 40z" />
    <glyph glyph-name="slash" unicode="/" horiz-adv-x="917" 
d="M891 1491l-703 -1860q-58 0 -112.5 22.5t-79.5 55.5l698 1829q124 0 197 -47z" />
    <glyph glyph-name="zero" unicode="0" horiz-adv-x="1288" 
d="M645 1149q250 0 396.5 -153t146.5 -433q0 -284 -146.5 -444t-396.5 -160q-261 0 -403 156.5t-142 445.5q0 274 150.5 431t394.5 157zM344 563q0 -187 78 -291t223 -104t222 105.5t77 289.5q0 175 -79.5 277t-219.5 102q-146 0 -223.5 -101t-77.5 -278z" />
    <glyph glyph-name="one" unicode="1" horiz-adv-x="823" 
d="M371 12v883l-318 -51q1 51 16 110t35 97q75 27 221.5 55.5t282.5 40.5v-1135q-34 -18 -119 -18q-83 0 -118 18z" />
    <glyph glyph-name="two" unicode="2" horiz-adv-x="1140" 
d="M483 215h555q0 -129 -30 -215h-879q-37 87 -37 223q44 28 127 75.5t144 83t134.5 87t121 95.5t80 99.5t32.5 108.5q0 78 -62.5 119t-172.5 41q-190 0 -379 -123q-9 55 8.5 122.5t48.5 112.5q162 105 387 105q200 0 315 -81.5t115 -246.5q0 -84 -32.5 -164.5t-83 -142
t-120 -118.5t-135 -96.5t-137.5 -72.5v-12z" />
    <glyph glyph-name="three" unicode="3" horiz-adv-x="1138" 
d="M272 360q-14 38 -8 102t27 97q86 2 163.5 16.5t141.5 42t101.5 73t37.5 102.5q0 53 -34.5 87t-86.5 47t-122 13q-95 0 -194 -24.5t-179 -67.5q-10 43 6 113.5t51 109.5q66 35 167.5 56.5t205.5 21.5q74 0 138 -11.5t119.5 -36.5t95.5 -62t62.5 -91t22.5 -121
q0 -131 -80.5 -220t-212.5 -118v-12q330 -45 330 -315q0 -105 -47.5 -186.5t-129 -131t-184.5 -75t-221 -25.5q-172 0 -321 47q-31 44 -44.5 107t-4.5 116q143 -55 342 -55q74 0 136 11.5t113 35.5t80 66.5t29 99.5q0 67 -46 107.5t-155.5 60.5t-298.5 20z" />
    <glyph glyph-name="four" unicode="4" horiz-adv-x="1253" 
d="M1010 131v-319q-36 -19 -119 -19t-119 19v319h-696q-33 76 -33 197q287 415 684 809q168 -4 283 -58v-743h172q16 -32 16 -103q0 -70 -16 -102h-172zM772 336v336q0 160 16 223h-12q-241 -238 -459 -557v-12q55 10 209 10h246z" />
    <glyph glyph-name="five" unicode="5" horiz-adv-x="1140" 
d="M221 1108h830q0 -132 -33 -217h-602l-25 -307q72 20 199 20q448 0 448 -375q0 -100 -32.5 -182t-88 -137.5t-131.5 -93.5t-162 -55t-182 -17q-161 0 -290 39q-30 36 -46.5 102t-9.5 121q58 -21 147.5 -33t172.5 -12q111 0 192 22t133 78.5t52 143.5q0 105 -75 149.5
t-237 44.5q-169 0 -323 -43z" />
    <glyph glyph-name="six" unicode="6" horiz-adv-x="1232" 
d="M811 1133q-193 0 -309.5 -114.5t-139.5 -346.5h13q90 166 334 166q212 0 322 -112t110 -302q0 -214 -138.5 -339.5t-375.5 -125.5q-255 0 -382.5 156t-127.5 454q0 187 50 335t140 243t211 144.5t266 49.5q160 0 256 -55q31 -34 47 -106.5t7 -120.5q-122 74 -283 74z
M643 633q-91 0 -157.5 -34t-125.5 -101v-9q0 -154 73 -239.5t206 -85.5q120 0 190 67.5t70 174.5q0 105 -67 166t-189 61z" />
    <glyph glyph-name="seven" unicode="7" horiz-adv-x="1083" 
d="M770 887h-717q0 132 39 221h914q38 -82 38 -197q-185 -258 -335 -551.5t-217 -543.5q-44 -23 -140 -23t-133 21q75 264 223 546t328 514v13z" />
    <glyph glyph-name="eight" unicode="8" horiz-adv-x="1212" 
d="M385 682v12q-104 35 -161.5 110t-57.5 189q0 91 38 160t103.5 109t145 59.5t170.5 19.5q69 0 131 -10.5t118.5 -35.5t97.5 -62.5t65 -94t24 -126.5q0 -120 -62.5 -199.5t-150.5 -105.5v-13q117 -37 187.5 -120.5t70.5 -221.5q0 -100 -39 -176.5t-109 -123t-160.5 -70
t-199.5 -23.5q-75 0 -142.5 10.5t-131.5 37.5t-110.5 68t-74.5 105.5t-28 147.5q0 143 76.5 233t199.5 121zM571 582q-223 -62 -223 -228q0 -54 22 -94t60 -62.5t82.5 -33t95.5 -10.5q68 0 122 17t91 60.5t37 108.5q0 41 -15 74.5t-39.5 57.5t-63 45t-77.5 35.5t-92 29.5z
M653 799q176 58 176 194q0 43 -19 74.5t-51.5 49t-70 26t-78.5 8.5q-56 0 -100.5 -13.5t-75.5 -49t-31 -89.5q0 -42 17 -73t54.5 -54t75.5 -38t103 -35z" />
    <glyph glyph-name="nine" unicode="9" horiz-adv-x="1216" 
d="M406 -45q200 0 317.5 120.5t132.5 358.5h-12q-95 -168 -332 -168q-198 0 -307 114.5t-109 303.5q0 213 136 339t364 126q253 0 379.5 -160.5t126.5 -464.5q0 -192 -50.5 -342t-141 -245t-212 -144t-266.5 -49q-160 0 -272 53q-33 34 -50 107.5t-8 122.5q132 -72 304 -72z
M586 471q86 0 151 34.5t123 100.5v15q0 150 -73.5 237.5t-200.5 87.5q-115 0 -181.5 -69t-66.5 -177q0 -106 65 -167.5t183 -61.5z" />
    <glyph glyph-name="colon" unicode=":" horiz-adv-x="559" 
d="M281 264q67 0 106 -39t39 -110t-40 -109.5t-107 -38.5q-69 0 -107.5 38.5t-38.5 107.5q0 71 40.5 111t107.5 40zM281 1014q65 0 104 -39t39 -109q0 -69 -39.5 -106t-105.5 -37q-68 0 -106 37t-38 104q0 70 40.5 110t105.5 40z" />
    <glyph glyph-name="semicolon" unicode=";" horiz-adv-x="559" 
d="M176 178q83 47 240 47q-7 -145 -56 -312t-106 -265q-121 9 -180 78q90 213 102 452zM291 1014q65 0 104 -39t39 -109q0 -69 -39.5 -106t-105.5 -37q-68 0 -106 37t-38 104q0 70 40.5 110t105.5 40z" />
    <glyph glyph-name="less" unicode="&#x3c;" 
d="M201 659l622 435q103 -44 168 -133l-581 -390v-12l565 -383q-11 -50 -47.5 -100.5t-79.5 -71.5l-676 473q0 108 29 182z" />
    <glyph glyph-name="equal" unicode="=" 
d="M133 449h909q17 -31 17 -99q0 -69 -17 -100h-940q0 120 31 199zM133 874h909q17 -31 17 -98q0 -69 -17 -100h-940q0 119 31 198z" />
    <glyph glyph-name="greater" unicode="&#x3e;" 
d="M997 492l-680 -486q-47 23 -82.5 72t-44.5 102l568 377v12l-580 400q70 89 174 129l615 -428q30 -82 30 -178z" />
    <glyph glyph-name="question" unicode="?" horiz-adv-x="870" 
d="M453 1485q196 0 299.5 -82t103.5 -238q0 -67 -22 -125.5t-57.5 -100.5t-78 -79t-85.5 -68t-78.5 -60t-57.5 -62t-22 -68q0 -39 11.5 -64t41.5 -55q-63 -84 -182 -94q-111 86 -111 219q0 57 20.5 108t53 88t71.5 71t78.5 63.5t72 59t53 64t20.5 71.5q0 59 -47 98t-148 39
q-96 0 -192 -35.5t-174 -99.5q-9 57 8 129.5t49 113.5q146 107 373 107zM414 264q67 0 106 -39t39 -110t-40 -109.5t-107 -38.5q-69 0 -107.5 38.5t-38.5 107.5q0 71 40.5 111t107.5 40z" />
    <glyph glyph-name="at" unicode="@" horiz-adv-x="2093" 
d="M1475 895l-76 -561q-10 -79 14 -110t78 -31q56 0 115 30t112 87.5t87 155.5t34 218q0 128 -38.5 233.5t-104.5 178t-157 122t-194.5 72.5t-218.5 23q-256 0 -450 -110t-297 -305t-103 -447q0 -358 208.5 -563t570.5 -205q150 0 291 36t249 105q27 -19 52.5 -61.5
t31.5 -79.5q-129 -86 -302 -131.5t-349 -45.5q-283 0 -495.5 114.5t-327.5 327.5t-115 498q0 226 75.5 419t211 329.5t331 213.5t427.5 77q189 0 349.5 -52t280.5 -149.5t188 -249.5t68 -342q0 -134 -35 -249.5t-93 -194.5t-133 -135t-155 -82.5t-159 -26.5q-92 0 -152 38
t-80 110h-12q-36 -68 -111 -108t-173 -40q-146 0 -230 94.5t-84 288.5q0 117 32.5 223t96.5 193t171 138.5t245 51.5q197 0 326 -98zM1184 313l71 469q-42 29 -122 29q-81 0 -143 -38.5t-96 -100t-50.5 -129t-16.5 -135.5q0 -205 156 -205q63 0 117 28.5t84 81.5z" />
    <glyph glyph-name="A" unicode="A" horiz-adv-x="1382" 
d="M1094 14l-123 361h-565l-121 -361q-37 -22 -125 -22q-96 0 -125 22l510 1422q45 18 147 18q105 0 150 -18l504 -1422q-29 -22 -127 -22q-88 0 -125 22zM471 575h432l-96 281q-72 212 -113 434h-12q-40 -208 -115 -430z" />
    <glyph glyph-name="B" unicode="B" horiz-adv-x="1366" 
d="M993 766v-12q137 -36 212 -118t75 -226q0 -90 -30.5 -161.5t-84 -120.5t-130.5 -81t-166.5 -46.5t-194.5 -14.5q-297 0 -484 20v1415q212 39 426 39q132 0 237 -21.5t185 -66t123 -120t43 -177.5q0 -120 -57 -201t-154 -108zM434 637v-430q102 -10 232 -10q362 0 362 219
q0 111 -91 166t-257 55h-246zM434 1237v-391h244q130 0 203 50t73 148q0 207 -333 207q-113 0 -187 -14z" />
    <glyph glyph-name="C" unicode="C" horiz-adv-x="1300" 
d="M1190 1188q-157 80 -318 80q-114 0 -206.5 -32.5t-161.5 -98t-106.5 -172.5t-37.5 -248q0 -273 133.5 -407t362.5 -134q187 0 354 78q5 -49 -14.5 -119.5t-50.5 -105.5q-159 -76 -363 -76q-316 0 -494.5 198t-178.5 549q0 188 53 337.5t148 247t226.5 149t290.5 51.5
q201 0 314 -68q28 -39 43 -107.5t6 -121.5z" />
    <glyph glyph-name="D" unicode="D" horiz-adv-x="1466" 
d="M190 2v1417q172 35 398 35q177 0 320.5 -44.5t249 -133t163 -229t57.5 -324.5t-57.5 -326.5t-159.5 -230.5t-235.5 -133t-292.5 -45q-271 0 -443 14zM434 1229v-1020q84 -8 201 -8q233 0 362 129t129 381q0 267 -142.5 399.5t-393.5 132.5q-93 0 -156 -14z" />
    <glyph glyph-name="E" unicode="E" horiz-adv-x="1255" 
d="M190 1438h934q17 -39 17 -105q0 -65 -17 -104h-690v-395h639q17 -39 17 -103q0 -65 -17 -104h-639v-416h707q16 -37 16 -105q0 -69 -16 -106h-951v1438z" />
    <glyph glyph-name="F" unicode="F" horiz-adv-x="1144" 
d="M190 12v1426h887q17 -39 17 -105q0 -67 -17 -106h-643v-434h594q16 -37 16 -105q0 -67 -16 -104h-594v-572q-33 -20 -123 -20q-88 0 -121 20z" />
    <glyph glyph-name="G" unicode="G" horiz-adv-x="1464" 
d="M1331 68q-95 -49 -231 -82t-277 -33q-340 0 -527 194t-187 547q0 377 208 584t562 207q224 0 346 -70q27 -41 41 -107t8 -122q-172 82 -369 82q-255 0 -400 -137.5t-145 -423.5q0 -272 132 -404.5t362 -132.5q145 0 250 43v387h-324q-16 37 -16 102q0 66 16 103h551v-737
z" />
    <glyph glyph-name="H" unicode="H" horiz-adv-x="1556" 
d="M1122 12v621h-688v-621q-33 -20 -123 -20q-88 0 -121 20v1413q35 21 121 21q89 0 123 -21v-579h688v579q34 21 121 21q89 0 123 -21v-1413q-33 -20 -123 -20q-88 0 -121 20z" />
    <glyph glyph-name="I" unicode="I" horiz-adv-x="624" 
d="M190 12v1413q35 21 121 21q89 0 123 -21v-1413q-33 -20 -123 -20q-88 0 -121 20z" />
    <glyph glyph-name="J" unicode="J" horiz-adv-x="698" 
d="M512 1425v-1112q0 -275 -105 -451t-323 -282q-46 28 -75.5 78.5t-37.5 112.5q160 87 228.5 207t68.5 309v1138q35 21 121 21q89 0 123 -21z" />
    <glyph glyph-name="K" unicode="K" horiz-adv-x="1355" 
d="M190 12v1413q35 21 121 21q89 0 123 -21v-585h158l414 583q52 23 145 23q89 0 127 -23l-492 -686l539 -721q-27 -24 -139 -24q-108 0 -158 24l-450 613h-144v-617q-33 -20 -123 -20q-88 0 -121 20z" />
    <glyph glyph-name="L" unicode="L" horiz-adv-x="1177" 
d="M1102 0h-912v1425q35 21 121 21q89 0 123 -21v-1208h668q16 -37 16 -108q0 -72 -16 -109z" />
    <glyph glyph-name="M" unicode="M" horiz-adv-x="1871" 
d="M1450 12v1231h-12q-30 -195 -92 -381l-287 -860q-35 -18 -125 -18q-88 0 -123 18l-291 866q-52 157 -86 375h-12v-1231q-29 -20 -117 -20q-86 0 -115 20v1411q65 21 189 21q119 0 184 -21l279 -811q49 -141 92 -395h12q32 219 90 393l271 813q65 21 184 21q125 0 190 -21
v-1411q-29 -20 -116 -20q-86 0 -115 20z" />
    <glyph glyph-name="N" unicode="N" horiz-adv-x="1556" 
d="M422 1202v-1190q-29 -20 -117 -20q-86 0 -115 20v1418q52 18 162 18q115 0 156 -18l481 -824q88 -151 133 -344h13v1163q30 21 114 21q87 0 117 -21v-1419q-49 -18 -154 -18q-111 0 -147 18l-506 864q-84 143 -125 332h-12z" />
    <glyph glyph-name="O" unicode="O" horiz-adv-x="1558" 
d="M778 1485q149 0 272 -49t211 -142t136.5 -236t48.5 -323q0 -375 -179 -578.5t-489 -203.5q-323 0 -494 197t-171 585q0 231 85.5 402t235 259.5t344.5 88.5zM365 735q0 -270 107.5 -417.5t305.5 -147.5q201 0 308.5 147.5t107.5 417.5q0 249 -113 393t-303 144
q-200 0 -306.5 -141.5t-106.5 -395.5z" />
    <glyph glyph-name="P" unicode="P" horiz-adv-x="1271" 
d="M190 12v1409q165 39 406 39q637 0 637 -487q0 -128 -42.5 -225.5t-118.5 -157t-176.5 -89.5t-221.5 -30q-130 0 -240 16v-475q-33 -20 -123 -20q-88 0 -121 20zM608 1249q-99 0 -174 -16v-535q78 -16 205 -16q169 0 256.5 65.5t87.5 208.5q0 293 -375 293z" />
    <glyph glyph-name="Q" unicode="Q" horiz-adv-x="1558" 
d="M780 1485q306 0 488 -195.5t182 -554.5q0 -235 -73.5 -406t-209.5 -266q84 -217 336 -217q109 0 191 33q6 -48 -12 -109.5t-50 -93.5q-84 -38 -205 -38q-172 0 -295.5 89t-185.5 244q-66 -18 -166 -18q-324 0 -495.5 197t-171.5 585q0 231 85.5 402t235.5 259.5t346 88.5
zM365 735q0 -270 108 -417.5t307 -147.5q203 0 310.5 147.5t107.5 417.5q0 249 -113 393t-305 144q-201 0 -308 -141.5t-107 -395.5z" />
    <glyph glyph-name="R" unicode="R" horiz-adv-x="1366" 
d="M190 12v1409q162 39 402 39q629 0 629 -465q0 -155 -66 -260.5t-184 -156.5l352 -562q-27 -24 -133 -24t-152 24l-307 504q-18 -2 -61 -2q-119 0 -236 17v-523q-33 -20 -123 -20q-88 0 -121 20zM604 1249q-98 0 -170 -16v-490q75 -16 201 -16q336 0 336 252
q0 270 -367 270z" />
    <glyph glyph-name="S" unicode="S" 
d="M96 285q86 -54 211.5 -86.5t241.5 -32.5q289 0 289 213q0 69 -39 118.5t-101 79.5t-137 55.5t-150.5 58t-137.5 76t-101 120t-39 180.5q0 202 126 310t353 108q212 0 355 -92q29 -44 42 -112.5t3 -125.5q-178 121 -385 121q-123 0 -185.5 -46t-62.5 -130q0 -52 24 -91.5
t64.5 -66t93.5 -49t111 -43t116 -44t111 -58t93.5 -78t64.5 -110t24 -150.5q0 -101 -27.5 -179.5t-75.5 -130t-116.5 -85.5t-146 -48t-168.5 -14q-249 0 -406 88q-30 46 -42 116.5t-3 127.5z" />
    <glyph glyph-name="T" unicode="T" horiz-adv-x="1210" 
d="M1155 1223h-428v-1211q-33 -20 -123 -20q-88 0 -121 20v1211h-428q-18 37 -18 108q0 69 18 107h1100q19 -40 19 -107q0 -68 -19 -108z" />
    <glyph glyph-name="U" unicode="U" horiz-adv-x="1497" 
d="M416 1425v-888q0 -187 80 -275t249 -88q351 0 351 369v882q34 21 118 21t119 -21v-866q0 -292 -145 -449t-449 -157q-567 0 -567 561v911q34 21 121 21q89 0 123 -21z" />
    <glyph glyph-name="V" unicode="V" horiz-adv-x="1347" 
d="M676 166h12q30 210 86 377l295 880q38 23 123 23q94 0 125 -23l-492 -1421q-45 -18 -151 -18q-105 0 -150 18l-491 1421q31 23 129 23q89 0 127 -23l299 -882q54 -161 88 -375z" />
    <glyph glyph-name="W" unicode="W" horiz-adv-x="2009" 
d="M1442 160h12q16 183 47 321l221 942q34 23 115 23q86 0 117 -23l-346 -1419q-49 -18 -166 -18q-119 0 -168 18l-207 926q-39 170 -57 352h-13q-15 -174 -57 -356l-217 -922q-49 -18 -168 -18q-117 0 -166 18l-332 1419q31 23 123 23q85 0 123 -23l211 -940
q29 -135 45 -323h12q11 160 47 323l224 953q49 18 168 18t168 -18l208 -949q44 -210 56 -327z" />
    <glyph glyph-name="X" unicode="X" horiz-adv-x="1308" 
d="M381 1421l223 -356q54 -85 70 -137h12q18 56 72 139l225 354q45 25 139 25q95 0 123 -25l-434 -667l463 -738q-27 -24 -129 -24q-105 0 -148 24l-264 428q-50 82 -69 138h-13q-19 -57 -73 -140l-273 -426q-43 -24 -143 -24q-98 0 -125 24l487 746l-411 659q28 25 125 25
q98 0 143 -25z" />
    <glyph glyph-name="Y" unicode="Y" horiz-adv-x="1239" 
d="M500 508l-477 915q31 23 133 23q91 0 129 -23l237 -450q65 -124 103 -289h12q31 164 96 291l234 448q38 23 125 23q96 0 127 -23l-476 -913v-498q-33 -20 -122 -20q-88 0 -121 20v496z" />
    <glyph glyph-name="Z" unicode="Z" horiz-adv-x="1218" 
d="M1104 1249l-713 -1024v-12h727q19 -32 19 -107q0 -74 -19 -106h-999q-31 71 -31 193l715 1024v12h-676q-18 30 -18 104q0 75 18 105h946q31 -76 31 -189z" />
    <glyph glyph-name="bracketleft" unicode="[" horiz-adv-x="645" 
d="M170 -416v1989h418q22 -70 22 -199h-217v-1587h209q16 -32 16 -100q0 -74 -16 -103h-432z" />
    <glyph glyph-name="backslash" unicode="\" horiz-adv-x="917" 
d="M207 1575l715 -1870q-68 -77 -197 -80l-688 1825q26 41 72 75.5t98 49.5z" />
    <glyph glyph-name="bracketright" unicode="]" horiz-adv-x="645" 
d="M475 1573v-1989h-432q-16 29 -16 103q0 68 16 100h209v1587h-217q0 129 22 199h418z" />
    <glyph glyph-name="asciicircum" unicode="^" 
d="M666 1405l405 -664q-28 -40 -74.5 -66t-103.5 -32l-231 377q-55 91 -89 219h-12q-30 -128 -90 -221l-242 -387q-45 24 -81 68t-54 92l367 587q83 27 205 27z" />
    <glyph glyph-name="underscore" unicode="_" horiz-adv-x="1024" 
d="M-2 -305h1028q14 -31 14 -98q0 -69 -14 -101h-1059q0 120 31 199z" />
    <glyph glyph-name="grave" unicode="`" horiz-adv-x="923" 
d="M672 1233q-43 -75 -140 -90l-311 342q34 34 92.5 52.5t122.5 18.5z" />
    <glyph glyph-name="a" unicode="a" horiz-adv-x="1110" 
d="M711 92h-13q-81 -133 -282 -133q-70 0 -129 17.5t-106 53.5t-74 98.5t-27 145.5q0 91 31 158.5t88 108.5t130.5 60.5t164.5 19.5q116 0 196 -31v39q0 112 -50 160.5t-163 48.5q-170 0 -319 -88q-15 44 -8 113.5t34 109.5q121 69 336 69q208 0 306 -91t98 -304v-403
q0 -43 17.5 -59.5t51.5 -16.5q53 0 92 27q6 -47 -6.5 -105t-36.5 -90q-64 -41 -151 -41q-152 0 -180 133zM692 248v170q-70 26 -157 26q-106 0 -164 -42t-58 -113q0 -66 47 -98.5t125 -32.5q143 0 207 90z" />
    <glyph glyph-name="b" unicode="b" horiz-adv-x="1187" 
d="M377 879h12q32 72 106.5 117.5t188.5 45.5q65 0 123.5 -16t112.5 -53.5t93 -94t62 -143.5t23 -196q0 -285 -148.5 -432.5t-421.5 -147.5q-209 0 -368 72v1435q80 50 235 50v-371q0 -152 -18 -266zM393 717v-541q67 -18 146 -18q164 0 241.5 94t77.5 264q0 158 -63 239
t-181 81q-136 0 -221 -119z" />
    <glyph glyph-name="c" unicode="c" horiz-adv-x="1005" 
d="M330 506q0 -167 86.5 -250.5t240.5 -83.5q139 0 265 68q6 -52 -13 -118.5t-51 -101.5q-115 -61 -276 -61q-236 0 -364 140t-128 390q0 139 39 246t109.5 173.5t164 100t205.5 33.5q162 0 250 -57q26 -35 38 -99.5t3 -117.5q-115 68 -244 68q-154 0 -239.5 -81.5
t-85.5 -248.5z" />
    <glyph glyph-name="d" unicode="d" horiz-adv-x="1187" 
d="M793 1008v458q80 50 235 50v-1498q-65 -36 -174 -36l-33 129h-12q-43 -74 -122 -113t-185 -39q-196 0 -304 133t-108 375q0 276 135.5 425.5t370.5 149.5q120 0 197 -34zM795 266v543q-64 31 -152 31q-159 0 -236 -96.5t-77 -264.5q0 -305 248 -305q75 0 123.5 24.5
t93.5 67.5z" />
    <glyph glyph-name="e" unicode="e" horiz-adv-x="1105" 
d="M985 426h-653q15 -268 344 -268q179 0 317 71q5 -50 -12.5 -107.5t-46.5 -88.5q-125 -74 -316 -74q-253 0 -390.5 141t-137.5 389q0 250 136.5 401.5t369.5 151.5q206 0 311 -117.5t105 -316.5q0 -100 -27 -182zM332 606h450q3 37 1.5 73t-15.5 68.5t-35.5 57t-59.5 39
t-87 14.5q-112 0 -179 -68t-75 -184z" />
    <glyph glyph-name="f" unicode="f" horiz-adv-x="704" 
d="M78 1001h123v136q0 112 26 192t75 126t112 66.5t145 20.5q130 0 207 -51q27 -34 37.5 -99.5t-0.5 -115.5q-91 59 -195 59q-95 0 -133.5 -44.5t-38.5 -137.5v-152h260q17 -34 17 -102t-17 -102h-260v-785q-34 -18 -119 -18q-81 0 -116 18v785h-156q0 128 33 204z" />
    <glyph glyph-name="g" unicode="g" horiz-adv-x="1091" 
d="M229 360v13q-125 92 -125 297q0 180 114 276t304 96q126 0 213 -41h289q31 -70 31 -176h-156v-8q41 -52 41 -158q0 -173 -109 -269.5t-305 -96.5q-87 0 -137 20q-37 -27 -37 -80q0 -48 56 -65.5t180 -17.5q88 0 155.5 -7.5t129.5 -28.5t102 -55t64 -90.5t24 -132.5
q0 -364 -524 -364q-149 0 -256.5 30t-172.5 101.5t-65 181.5q0 95 44 158t114 86v12q-80 47 -80 149q0 62 28.5 107.5t77.5 62.5zM535 -41q-113 0 -168 18q-46 -25 -72.5 -65.5t-26.5 -87.5q0 -166 289 -166q285 0 285 166q0 74 -66 104.5t-241 30.5zM322 670
q0 -94 51 -145.5t149 -51.5q97 0 149 52.5t52 144.5q0 91 -52.5 141.5t-148.5 50.5q-98 0 -149 -50.5t-51 -141.5z" />
    <glyph glyph-name="h" unicode="h" horiz-adv-x="1216" 
d="M395 690v-678q-35 -18 -119 -18q-82 0 -116 18v1454q80 50 235 50v-367q0 -157 -22 -283h12q84 176 336 176q54 0 99 -8t93 -33t81 -66.5t54 -113.5t21 -168v-641q-35 -18 -119 -18q-82 0 -116 18v596q0 109 -44 164t-149 55q-170 0 -246 -137z" />
    <glyph glyph-name="i" unicode="i" horiz-adv-x="555" 
d="M160 12v977q36 19 116 19q83 0 119 -19v-977q-35 -18 -119 -18q-82 0 -116 18zM279 1493q67 0 106 -39.5t39 -110.5q0 -70 -40 -108.5t-108 -38.5q-69 0 -107 38t-38 107q0 71 40.5 111.5t107.5 40.5z" />
    <glyph glyph-name="j" unicode="j" horiz-adv-x="567" 
d="M412 989v-739q0 -145 -20.5 -258t-63 -201.5t-97 -155t-133.5 -133.5q-46 13 -84.5 53t-56.5 91q110 96 164.5 217t54.5 319v807q36 19 117 19q83 0 119 -19zM293 1493q67 0 106 -39.5t39 -110.5t-40 -109t-107 -38q-69 0 -107.5 38t-38.5 107q0 71 40.5 111.5
t107.5 40.5z" />
    <glyph glyph-name="k" unicode="k" horiz-adv-x="1120" 
d="M395 1516v-877h125l271 358q35 15 100 15q106 0 151 -31l-333 -436q199 -318 385 -533q-33 -20 -133 -20q-118 0 -156 20q-157 193 -301 434h-109v-434q-35 -18 -119 -18q-82 0 -116 18v1454q80 50 235 50z" />
    <glyph glyph-name="l" unicode="l" horiz-adv-x="630" 
d="M555 0q-64 -41 -164 -41q-235 0 -235 277v1230q80 50 235 50v-1246q0 -59 21 -79.5t65 -20.5q72 0 127 39q9 -53 -6 -114.5t-43 -94.5z" />
    <glyph glyph-name="m" unicode="m" horiz-adv-x="1843" 
d="M395 690v-678q-35 -18 -119 -18q-82 0 -116 18v971q67 37 190 37l15 -160h12q93 182 334 182q230 0 299 -180h12q37 79 119.5 129.5t218.5 50.5q53 0 96.5 -8t89.5 -33t77.5 -66.5t52 -113.5t20.5 -168v-641q-34 -18 -119 -18q-83 0 -117 18v596q0 110 -41 164.5
t-143 54.5q-163 0 -236 -139q4 -28 4 -96v-580q-34 -18 -116 -18q-80 0 -115 18v596q0 106 -42.5 162.5t-143.5 56.5q-162 0 -232 -137z" />
    <glyph glyph-name="n" unicode="n" horiz-adv-x="1206" 
d="M395 690v-678q-35 -18 -119 -18q-82 0 -116 18v971q67 37 190 37l15 -160h12q39 82 123.5 132t218.5 50q53 0 96.5 -8t90.5 -33t79 -66.5t53 -113.5t21 -168v-641q-35 -18 -119 -18q-82 0 -117 18v596q0 108 -42.5 163.5t-145.5 55.5q-166 0 -240 -137z" />
    <glyph glyph-name="o" unicode="o" horiz-adv-x="1163" 
d="M584 1042q225 0 355 -136t130 -390q0 -269 -128.5 -413t-356.5 -144q-238 0 -364 140.5t-126 416.5q0 246 133 386t357 140zM334 516q0 -173 63.5 -266.5t186.5 -93.5q122 0 183.5 94t61.5 266q0 154 -64.5 242t-180.5 88q-123 0 -186.5 -87t-63.5 -243z" />
    <glyph glyph-name="p" unicode="p" horiz-adv-x="1187" 
d="M365 864h12q35 82 116 130t197 48q187 0 297.5 -127.5t110.5 -375.5q0 -268 -130 -424t-376 -156q-130 0 -197 37v-469q-36 -19 -119 -19q-80 0 -116 19v1456q67 37 190 37zM393 715v-520q78 -29 158 -29q157 0 232 95.5t75 258.5q0 154 -63.5 232.5t-180.5 78.5
q-140 0 -221 -116z" />
    <glyph glyph-name="q" unicode="q" horiz-adv-x="1183" 
d="M813 117h-12q-33 -69 -106 -113.5t-187 -44.5q-66 0 -125.5 16t-113.5 53t-93.5 93.5t-62.5 143.5t-23 196q0 286 149.5 433.5t419.5 147.5q220 0 369 -100v-1415q-36 -19 -119 -19q-80 0 -116 19v287q0 177 20 303zM795 289v530q-60 29 -144 29q-165 0 -243 -95
t-78 -268q0 -315 245 -315q139 0 220 119z" />
    <glyph glyph-name="r" unicode="r" horiz-adv-x="813" 
d="M379 838q60 204 272 204q65 0 103 -18q32 -59 32 -147q0 -64 -14 -99q-61 33 -129 33q-178 0 -248 -207v-592q-35 -18 -119 -18q-82 0 -116 18v971q67 37 190 37l17 -182h12z" />
    <glyph glyph-name="s" unicode="s" horiz-adv-x="929" 
d="M96 244q60 -42 154.5 -68t179.5 -26q180 0 180 118q0 40 -26.5 69.5t-69 49t-94.5 38t-103.5 43t-94 56.5t-69 86t-26.5 125q0 148 91.5 227.5t262.5 79.5q165 0 275 -69q27 -35 39.5 -101t1.5 -114q-135 96 -291 96q-144 0 -144 -96q0 -37 26.5 -64.5t69.5 -46
t94.5 -36.5t103 -42.5t94.5 -57t69.5 -87.5t26.5 -127q0 -119 -55 -196.5t-144.5 -109.5t-212.5 -32q-186 0 -299 61q-28 40 -39.5 111.5t0.5 112.5z" />
    <glyph glyph-name="t" unicode="t" horiz-adv-x="798" 
d="M426 1001h285q16 -32 16 -102t-16 -102h-285v-459q0 -84 29.5 -124t111.5 -40q107 0 195 66q7 -55 -9 -120.5t-44 -99.5q-86 -61 -220 -61q-161 0 -230 86.5t-69 259.5v492h-155q0 128 33 204h122v224q78 66 236 69v-293z" />
    <glyph glyph-name="u" unicode="u" horiz-adv-x="1198" 
d="M827 117h-12q-81 -158 -323 -158q-55 0 -99.5 8.5t-92 33.5t-80 67t-53 114.5t-20.5 169.5v619q83 47 236 47v-629q0 -108 41.5 -160.5t144.5 -52.5q157 0 234 109v704q36 19 117 19q82 0 118 -19v-971q-62 -36 -182 -36z" />
    <glyph glyph-name="v" unicode="v" horiz-adv-x="1044" 
d="M526 166h13q19 128 55 235l199 594q34 17 100 17q90 0 133 -31l-342 -967q-108 -32 -307 -32l-354 999q43 31 137 31q66 0 100 -17l205 -594q35 -97 61 -235z" />
    <glyph glyph-name="w" unicode="w" horiz-adv-x="1638" 
d="M1174 172h12q26 193 61 322l137 501q30 17 93 17q81 0 127 -31l-273 -971q-104 -35 -293 -35l-147 533q-50 174 -64 315h-12q-17 -167 -63 -317l-148 -496q-106 -35 -291 -35l-276 1006q46 31 131 31q64 0 94 -17l137 -497q43 -160 62 -326h12q12 145 51 289l150 518
q109 41 299 41l145 -567q38 -151 56 -281z" />
    <glyph glyph-name="x" unicode="x" horiz-adv-x="1071" 
d="M616 788l132 207q34 17 104 17q96 0 139 -31l-307 -459l352 -510q-30 -20 -121 -20q-110 0 -143 20l-166 244q-54 79 -63 115h-13q-8 -31 -57 -111l-166 -248q-33 -20 -141 -20q-89 0 -119 20l361 518l-308 451q43 31 144 31q72 0 106 -17l137 -202q55 -85 62 -115h12
q9 35 55 110z" />
    <glyph glyph-name="y" unicode="y" horiz-adv-x="1048" 
d="M543 139h12q17 154 53 262l191 594q34 17 100 17q90 0 133 -31l-153 -451q-71 -212 -129.5 -362.5t-122.5 -263.5q-87 -153 -204.5 -251.5t-287.5 -152.5q-40 31 -68 84.5t-34 110.5q243 66 373 280l-386 1006q43 31 140 31q66 0 100 -17l223 -598q39 -103 60 -258z" />
    <glyph glyph-name="z" unicode="z" horiz-adv-x="966" 
d="M868 836l-477 -625v-12h486q16 -32 16 -99q0 -68 -16 -100h-766q-29 69 -29 162l487 633v12h-475q0 115 31 194h711q32 -69 32 -165z" />
    <glyph glyph-name="braceleft" unicode="{" horiz-adv-x="686" 
d="M61 512q0 50 10 105.5t25 89.5q80 10 105.5 60.5t25.5 178.5v228q0 76 8.5 134.5t35.5 118t71.5 98t122 62.5t182.5 25q0 -123 -41 -197q-84 -6 -119.5 -49t-35.5 -139v-318q0 -127 -34 -197.5t-116 -95.5v-12q80 -24 115 -90.5t35 -187.5v-377q0 -104 44 -148t144 -49
q14 -34 9.5 -103.5t-25.5 -99.5q-75 1 -134 13t-100.5 31.5t-71 51.5t-47 66t-27.5 82.5t-13 94t-3 106.5v272q0 48 -2.5 79t-12 63t-27.5 50.5t-48.5 33t-75.5 20.5z" />
    <glyph glyph-name="bar" unicode="|" horiz-adv-x="573" 
d="M393 1563v-1942q-32 -16 -106 -16q-75 0 -107 16v1905q78 37 213 37z" />
    <glyph glyph-name="braceright" unicode="}" horiz-adv-x="686" 
d="M102 1610q93 -11 158 -37t103.5 -61.5t60 -90t28.5 -109t7 -132.5v-240q0 -58 4.5 -95t18 -69t40 -48.5t68.5 -20.5q35 -75 35 -195q-98 -9 -132 -57t-34 -156v-283q0 -97 -9 -164.5t-34 -127t-68.5 -95t-113 -57t-168.5 -23.5q-21 30 -25.5 100t10.5 103
q108 1 146.5 52.5t38.5 179.5v325q0 128 33 197.5t114 93.5v12q-84 28 -115.5 95t-31.5 186v326q0 105 -43 148.5t-144 49.5q0 52 14.5 104.5t38.5 88.5z" />
    <glyph glyph-name="asciitilde" unicode="~" 
d="M195 412q-78 55 -95 151q30 79 101.5 125.5t169.5 46.5q62 0 119 -18.5t94 -40t89.5 -40t104.5 -18.5q100 0 133 91q52 -2 97 -19t69 -47q-35 -110 -112 -171.5t-193 -61.5q-67 0 -125.5 19t-94.5 41t-87 41t-105 19q-60 0 -101.5 -32.5t-63.5 -85.5z" />
    <glyph glyph-name="uni00A0" unicode="&#xa0;" horiz-adv-x="397" 
 />
    <glyph glyph-name="exclamdown" unicode="&#xa1;" horiz-adv-x="630" 
d="M180 -424l29 969q54 26 129 26q62 0 90 -14l33 -981q-52 -25 -142 -25q-87 0 -139 25zM322 1036q67 0 106 -39t39 -110t-40.5 -109.5t-107.5 -38.5q-69 0 -107 38.5t-38 107.5q0 71 40.5 111t107.5 40z" />
    <glyph glyph-name="cent" unicode="&#xa2;" horiz-adv-x="995" 
d="M328 545q0 -150 86.5 -224.5t240.5 -74.5q141 0 265 67q6 -52 -13 -118t-51 -101q-75 -43 -184 -55v-162q-29 -16 -101 -16q-69 0 -98 16v164q-186 29 -285.5 156.5t-99.5 332.5q0 216 103.5 343.5t281.5 162.5v158q82 31 199 31v-178q116 -12 184 -56q26 -35 38 -99.5
t3 -117.5q-115 68 -244 68q-155 0 -240 -73t-85 -224z" />
    <glyph glyph-name="sterling" unicode="&#xa3;" horiz-adv-x="1042" 
d="M109 649h112q-22 64 -22 139q0 171 105 266t302 95q170 0 279 -70q29 -36 42.5 -105t8.5 -120q-141 90 -297 90q-105 0 -154 -39t-49 -119q0 -64 25 -137h379q14 -24 14 -82q0 -59 -14 -84h-338q6 -27 6 -61q0 -65 -28.5 -124.5t-78.5 -92.5v-12h584q19 -28 19 -97
q0 -68 -19 -96h-817q-33 68 -33 172q135 95 135 234q0 45 -8 77h-182q0 97 29 166z" />
    <glyph glyph-name="currency" unicode="&#xa4;" 
d="M584 997q131 0 221 -43l129 158q106 -35 160 -125l-136 -153q80 -113 80 -275q0 -171 -80 -278l138 -156q-24 -42 -67.5 -76t-96.5 -49l-125 154q-95 -45 -223 -45q-142 0 -230 45l-123 -156q-51 17 -93.5 51t-65.5 76l131 151q-76 112 -76 281q0 157 80 270l-135 158
q22 44 65.5 78t98.5 49l126 -160q88 45 222 45zM336 559q0 -128 64 -199t184 -71q119 0 182 72t63 198q0 121 -64.5 190.5t-180.5 69.5q-121 0 -184.5 -69t-63.5 -191z" />
    <glyph glyph-name="yen" unicode="&#xa5;" horiz-adv-x="1120" 
d="M565 541h13q13 62 36.5 132t47.5 111l188 318q41 18 106 18q83 0 134 -28l-242 -416h162q12 -18 12 -76t-12 -76h-250l-80 -139v-61h330q12 -18 12 -76t-12 -76h-330v-160q-34 -18 -121 -18q-85 0 -119 18v160h-344q0 94 25 152h319v59l-80 141h-264q0 94 25 152h155
l-229 409q52 35 146 35q64 0 100 -18l180 -318q28 -48 54 -116.5t38 -126.5z" />
    <glyph glyph-name="brokenbar" unicode="&#xa6;" horiz-adv-x="573" 
d="M393 381v-760q-32 -16 -106 -16q-75 0 -107 16v723q78 37 213 37zM393 1563v-732q-32 -16 -106 -16q-75 0 -107 16v695q78 37 213 37z" />
    <glyph glyph-name="section" unicode="&#xa7;" horiz-adv-x="997" 
d="M74 672q0 193 141 293q-10 29 -10 71q0 148 97 226.5t269 78.5q168 0 265 -63q29 -36 42 -94t5 -105q-136 88 -297 88q-176 0 -176 -116q0 -44 29 -78t75.5 -59t103 -49.5t113 -57t103 -73.5t75.5 -106.5t29 -148.5q0 -86 -33.5 -164.5t-85.5 -124.5q17 -49 17 -108
q0 -338 -418 -338q-182 0 -314 61q-28 40 -40.5 96t-6.5 107q63 -38 156.5 -61t189.5 -23q226 0 226 148q0 50 -30.5 90t-79.5 68t-108 55.5t-118.5 60.5t-108.5 74.5t-79.5 106t-30.5 145.5zM276 690q0 -61 46 -110t105 -77.5t143.5 -72t134.5 -84.5q28 51 28 113
q0 56 -28 99.5t-76.5 74.5t-100 56t-113.5 58t-102 66q-37 -50 -37 -123z" />
    <glyph glyph-name="dieresis" unicode="&#xa8;" horiz-adv-x="923" 
d="M238 1425q58 0 91 -33t33 -92t-34 -90.5t-92 -31.5q-60 0 -92.5 31t-32.5 89q0 60 34.5 93.5t92.5 33.5zM688 1425q58 0 91.5 -33t33.5 -92t-34.5 -90.5t-92.5 -31.5q-60 0 -92.5 31t-32.5 89q0 60 34.5 93.5t92.5 33.5z" />
    <glyph glyph-name="copyright" unicode="&#xa9;" horiz-adv-x="1648" 
d="M1565 694q0 -211 -94.5 -380.5t-263.5 -265t-380 -95.5q-161 0 -299 55t-235.5 152t-153 234.5t-55.5 297.5q0 211 97 381t267 265.5t379 95.5q208 0 377 -96t265 -265.5t96 -378.5zM1423 694q0 170 -75 309.5t-212 220.5t-309 81q-173 0 -311 -80t-214.5 -219.5
t-76.5 -311.5q0 -268 168 -439t434 -171q174 0 310 77.5t211 216.5t75 316zM1100 887q-92 45 -189 45q-121 0 -187.5 -57.5t-66.5 -176.5t66 -176t184 -57t207 47q6 -41 -9 -97.5t-42 -86.5q-79 -45 -217 -45q-188 0 -292.5 107.5t-104.5 297.5q0 204 116.5 313t313.5 109
q120 0 182 -39q26 -34 36.5 -87t2.5 -97z" />
    <glyph glyph-name="ordfeminine" unicode="&#xaa;" horiz-adv-x="792" 
d="M494 719h-9q-67 -84 -192 -84q-95 0 -158 49.5t-63 155.5q0 114 75.5 171.5t200.5 57.5q74 0 133 -18v32q0 55 -32.5 83t-106.5 28q-125 0 -217 -57q-12 35 -7.5 82t23.5 75q86 47 236 47q143 0 211.5 -59.5t68.5 -198.5v-247q0 -52 45 -52q40 0 64 21q7 -32 -3 -73.5
t-26 -65.5q-47 -31 -110 -31q-116 0 -133 84zM483 829v109q-47 14 -100 14q-137 0 -137 -94q0 -40 29 -61t81 -21q79 0 127 53zM106 532h611q12 -18 12 -73q0 -58 -12 -76h-637q0 93 26 149z" />
    <glyph glyph-name="guillemotleft" unicode="&#xab;" horiz-adv-x="1173" 
d="M379 539q106 -242 190 -387q-64 -78 -188 -93q-169 260 -254 463q67 162 209 400q88 49 254 49q-113 -201 -211 -432zM842 539q106 -242 190 -387q-64 -78 -188 -93q-169 260 -254 463q67 162 209 400q88 49 254 49q-113 -201 -211 -432z" />
    <glyph glyph-name="logicalnot" unicode="&#xac;" 
d="M1042 713v-471q-34 -19 -114 -19q-73 0 -111 19v262h-737q0 130 33 209h929z" />
    <glyph glyph-name="uni00AD" unicode="&#xad;" horiz-adv-x="735" 
d="M109 672h524q16 -32 16 -107q0 -74 -16 -106h-557q0 134 33 213z" />
    <glyph glyph-name="registered" unicode="&#xae;" horiz-adv-x="1165" 
d="M1096 1122q0 -224 -145.5 -372t-368.5 -148q-228 0 -370 144.5t-142 375.5q0 225 145 371.5t367 146.5q225 0 369.5 -146t144.5 -372zM975 1122q0 177 -107.5 290.5t-285.5 113.5q-176 0 -284 -113t-108 -291q0 -180 107.5 -292.5t284.5 -112.5q179 0 286 112t107 293z
M520 1034v-139q-21 -12 -69 -12q-51 0 -72 12v465q72 29 178 29q252 0 252 -175q0 -93 -74 -143l107 -176q-15 -12 -76 -12q-59 0 -86 12l-80 137q-10 -2 -31 -2q-29 0 -49 4zM518 1270v-119q15 -6 57 -6q89 0 89 67q0 64 -93 64q-29 0 -53 -6z" />
    <glyph glyph-name="macron" unicode="&#xaf;" horiz-adv-x="923" 
d="M172 1382h584q16 -26 16 -86t-16 -86h-613q0 96 29 172z" />
    <glyph glyph-name="degree" unicode="&#xb0;" horiz-adv-x="808" 
d="M393 1341q144 0 230 -78t86 -221q0 -144 -87 -225.5t-229 -81.5q-153 0 -236 80t-83 227q0 139 88.5 219t230.5 80zM258 1042q0 -70 34.5 -108.5t100.5 -38.5q63 0 97 39t34 108q0 66 -34 103t-97 37q-135 0 -135 -140z" />
    <glyph glyph-name="plusminus" unicode="&#xb1;" 
d="M172 199h836q14 -33 14 -101q0 -61 -14 -98h-869q0 49 9.5 108.5t23.5 90.5zM182 885h293v295q69 34 213 34v-329h313q17 -31 17 -99q0 -67 -17 -98h-313v-313q-34 -19 -106 -19q-69 0 -107 19v313h-325q0 137 32 197z" />
    <glyph glyph-name="twosuperior" unicode="&#xb2;" horiz-adv-x="788" 
d="M377 954h295q14 -24 14 -84q0 -64 -14 -88h-566q-22 54 -22 142q30 26 90 73t101 81.5t85.5 78t67.5 87t23 85.5q0 96 -127 96q-115 0 -222 -73q-7 43 5.5 95.5t35.5 84.5q91 59 230 59q131 0 208.5 -59t77.5 -172q0 -116 -78 -217t-204 -176v-13z" />
    <glyph glyph-name="threesuperior" unicode="&#xb3;" horiz-adv-x="788" 
d="M217 1108q-10 31 -8 77.5t14 71.5q238 0 238 107q0 70 -119 70q-110 0 -217 -58q-6 39 6.5 89.5t38.5 82.5q75 43 219 43q126 0 199.5 -50t73.5 -155q0 -73 -36 -119.5t-100 -60.5v-12q158 -32 158 -188q0 -122 -94.5 -182t-247.5 -60q-117 0 -209 29q-53 80 -33 174
q39 -18 105.5 -29.5t126.5 -11.5q149 0 149 88q0 52 -56.5 73t-207.5 21z" />
    <glyph glyph-name="acute" unicode="&#xb4;" horiz-adv-x="923" 
d="M723 1481l-334 -338q-85 21 -123 96l244 313q57 0 117.5 -19t95.5 -52z" />
    <glyph glyph-name="mu" unicode="&#xb5;" horiz-adv-x="1273" 
d="M836 289v700q36 19 116 19q83 0 119 -19v-733q0 -51 19.5 -68.5t56.5 -17.5q53 0 100 33q6 -49 -7 -105.5t-36 -91.5q-59 -47 -157 -47q-79 0 -123 35t-56 88h-12q-28 -51 -92.5 -87t-169.5 -36q-170 0 -221 111h-13q35 -125 35 -330v-213q-36 -19 -119 -19
q-80 0 -116 19v1444q83 47 235 47v-612q0 -110 48 -168t159 -58q82 0 143 31t91 78z" />
    <glyph glyph-name="paragraph" unicode="&#xb6;" horiz-adv-x="1208" 
d="M709 1298v-1638q-22 -16 -88 -16q-67 0 -89 16v1018q-44 -6 -83 -6q-63 0 -118.5 11t-108 38.5t-89.5 69.5t-59.5 108t-22.5 150q0 207 140.5 310t443.5 103q244 0 409 -59v-1743q-22 -16 -88 -16t-88 16v1624q-71 14 -159 14z" />
    <glyph glyph-name="periodcentered" unicode="&#xb7;" horiz-adv-x="530" 
d="M266 672q67 0 106.5 -39.5t39.5 -110.5q0 -70 -40 -108.5t-108 -38.5q-69 0 -107 38t-38 107q0 71 40 111.5t107 40.5z" />
    <glyph glyph-name="cedilla" unicode="&#xb8;" horiz-adv-x="923" 
d="M326 -180l59 186q66 29 170 29l-29 -135q125 -43 125 -168q0 -96 -70.5 -157t-177.5 -77q-83 38 -112 119q67 8 109 36.5t42 72.5q0 36 -32.5 60t-83.5 34z" />
    <glyph glyph-name="onesuperior" unicode="&#xb9;" horiz-adv-x="788" 
d="M332 791v598l-201 -31q1 42 13.5 90t27.5 76q138 49 356 67v-800q-34 -15 -98 -15t-98 15z" />
    <glyph glyph-name="ordmasculine" unicode="&#xba;" horiz-adv-x="823" 
d="M414 1341q156 0 247 -91t91 -257q0 -170 -91 -264t-247 -94q-166 0 -254 92.5t-88 265.5q0 163 93.5 255.5t248.5 92.5zM254 993q0 -98 40.5 -151.5t119.5 -53.5q76 0 115.5 54.5t39.5 150.5q0 92 -40.5 144.5t-114.5 52.5q-80 0 -120 -52t-40 -145zM125 532h588
q12 -18 12 -73q0 -58 -12 -76h-615q0 91 27 149z" />
    <glyph glyph-name="guillemotright" unicode="&#xbb;" horiz-adv-x="1173" 
d="M328 61q-119 6 -185 95q110 185 185 364q-79 180 -195 391q81 62 203 62q147 -229 246 -449q-85 -182 -254 -463zM793 61q-119 6 -185 95q110 185 185 364q-79 180 -195 391q81 62 203 62q147 -229 246 -449q-85 -182 -254 -463z" />
    <glyph glyph-name="onequarter" unicode="&#xbc;" horiz-adv-x="1853" 
d="M1655 180v-172q-31 -14 -96 -14q-63 0 -95 14v172h-366q-29 57 -29 158l348 467q142 -3 238 -41v-428h94q12 -24 12 -76q0 -56 -12 -80h-94zM1466 334v192q0 50 7 78h-13l-188 -264v-12q24 6 80 6h114zM1454 1401l-975 -1477q-116 22 -160 109l945 1425q113 0 190 -57z
M252 604v598l-201 -31q1 42 13.5 90t27.5 76q141 50 357 68v-801q-31 -14 -99 -14q-66 0 -98 14z" />
    <glyph glyph-name="onehalf" unicode="&#xbd;" horiz-adv-x="1853" 
d="M1444 1401l-975 -1477q-116 22 -160 109l944 1425q114 0 191 -57zM252 604v598l-201 -31q1 42 13.5 90t27.5 76q141 50 357 68v-801q-31 -14 -99 -14q-66 0 -98 14zM1462 172h295q15 -26 15 -84q0 -62 -15 -88h-565q-23 56 -23 141q30 26 90 73t101 81.5t85.5 78.5
t67.5 87.5t23 85.5q0 96 -127 96q-112 0 -221 -74q-7 43 5.5 96t35.5 85q91 59 229 59q131 0 209 -59t78 -172q0 -116 -78.5 -217.5t-204.5 -176.5v-12z" />
    <glyph glyph-name="threequarters" unicode="&#xbe;" horiz-adv-x="1853" 
d="M1686 180v-172q-32 -14 -97 -14q-63 0 -94 14v172h-367q-28 55 -28 158l348 467q142 -3 238 -41v-428h94q12 -24 12 -76q0 -56 -12 -80h-94zM1497 334v192q0 54 6 78h-12l-188 -264v-12q24 6 79 6h115zM1542 1401l-975 -1477q-115 22 -159 109l944 1425q113 0 190 -57z
M211 922q-10 31 -8 77.5t14 71.5q238 0 238 107q0 69 -119 69q-112 0 -217 -57q-6 39 6.5 89.5t38.5 82.5q75 43 219 43q126 0 199 -50t73 -155q0 -73 -35.5 -119.5t-99.5 -60.5v-12q158 -32 158 -189q0 -122 -94.5 -181.5t-247.5 -59.5q-120 0 -209 28q-53 80 -33 174
q39 -18 105.5 -29.5t126.5 -11.5q149 0 149 88q0 52 -56.5 73.5t-207.5 21.5z" />
    <glyph glyph-name="questiondown" unicode="&#xbf;" horiz-adv-x="870" 
d="M420 -494q-195 0 -298.5 82.5t-103.5 239.5q0 67 22 125.5t57.5 100.5t78 79t85 68t78 60t57.5 62t22 68q0 40 -11 65t-40 54q61 82 180 92q112 -81 112 -217q0 -58 -20 -109t-52.5 -88t-71.5 -70.5t-78 -63t-71.5 -58.5t-52.5 -63.5t-20 -71.5q0 -57 45.5 -94t146.5 -37
q95 0 191 35t176 98q8 -59 -9 -133.5t-50 -114.5q-149 -109 -373 -109zM461 1036q67 0 106 -39t39 -110t-40 -109.5t-107 -38.5q-69 0 -107.5 38.5t-38.5 107.5q0 71 40.5 111t107.5 40z" />
    <glyph glyph-name="Agrave" unicode="&#xc0;" horiz-adv-x="1382" 
d="M1094 14l-123 361h-565l-121 -361q-37 -22 -125 -22q-96 0 -125 22l510 1422q45 18 147 18q105 0 150 -18l504 -1422q-29 -22 -127 -22q-88 0 -125 22zM471 575h432l-96 281q-72 212 -113 434h-12q-40 -208 -115 -430zM438 1907l432 -215q0 -46 -16.5 -89.5t-46.5 -70.5
l-477 190q7 55 36 104.5t72 80.5z" />
    <glyph glyph-name="Aacute" unicode="&#xc1;" horiz-adv-x="1382" 
d="M1094 14l-123 361h-565l-121 -361q-37 -22 -125 -22q-96 0 -125 22l510 1422q45 18 147 18q105 0 150 -18l504 -1422q-29 -22 -127 -22q-88 0 -125 22zM471 575h432l-96 281q-72 212 -113 434h-12q-40 -208 -115 -430zM965 1909q37 -31 58 -84t21 -109l-481 -186
q-51 54 -51 160z" />
    <glyph glyph-name="Acircumflex" unicode="&#xc2;" horiz-adv-x="1382" 
d="M1094 14l-123 361h-565l-121 -361q-37 -22 -125 -22q-96 0 -125 22l510 1422q45 18 147 18q105 0 150 -18l504 -1422q-29 -22 -127 -22q-88 0 -125 22zM471 575h432l-96 281q-72 212 -113 434h-12q-40 -208 -115 -430zM688 1698l-301 -158q-59 56 -59 154l247 164
q40 16 113 16t113 -16l258 -177q-12 -100 -84 -145z" />
    <glyph glyph-name="Atilde" unicode="&#xc3;" horiz-adv-x="1382" 
d="M1094 14l-123 361h-565l-121 -361q-37 -22 -125 -22q-96 0 -125 22l510 1422q45 18 147 18q105 0 150 -18l504 -1422q-29 -22 -127 -22q-88 0 -125 22zM471 575h432l-96 281q-72 212 -113 434h-12q-40 -208 -115 -430zM276 1632q14 97 83 160t182 63q50 0 95.5 -16
t73.5 -35t65.5 -35t74.5 -16q42 0 70.5 23.5t37.5 62.5q91 0 148 -43q-13 -100 -81.5 -166.5t-190.5 -66.5q-46 0 -89.5 16t-71.5 35t-68 35t-81 16q-80 0 -108 -90q-96 7 -140 57z" />
    <glyph glyph-name="Adieresis" unicode="&#xc4;" horiz-adv-x="1382" 
d="M1094 14l-123 361h-565l-121 -361q-37 -22 -125 -22q-96 0 -125 22l510 1422q45 18 147 18q105 0 150 -18l504 -1422q-29 -22 -127 -22q-88 0 -125 22zM471 575h432l-96 281q-72 212 -113 434h-12q-40 -208 -115 -430zM950 1823q61 0 96 -34.5t35 -96.5t-36 -95.5
t-97 -33.5q-63 0 -97 33t-34 94q0 63 36 98t97 35zM432 1823q61 0 96 -34.5t35 -96.5t-36 -95.5t-97 -33.5q-63 0 -97 33t-34 94q0 63 36 98t97 35z" />
    <glyph glyph-name="Aring" unicode="&#xc5;" horiz-adv-x="1382" 
d="M688 1794q118 0 188 -62t70 -171q0 -128 -88 -187l488 -1360q-29 -22 -127 -22q-88 0 -125 22l-123 361h-565l-121 -361q-37 -22 -125 -22q-96 0 -125 22l489 1352q-94 60 -94 195q0 103 71 168t187 65zM471 575h432l-96 281q-72 212 -113 434h-12q-40 -208 -115 -430z
M688 1663q-47 0 -76.5 -28t-29.5 -74q0 -50 28.5 -76.5t77.5 -26.5q45 0 76 27t31 76q0 48 -30 75t-77 27z" />
    <glyph glyph-name="AE" unicode="&#xc6;" horiz-adv-x="2076" 
d="M881 1438h1065q16 -37 16 -105q0 -67 -16 -104h-691v-395h639q17 -39 17 -103q0 -65 -17 -104h-639v-416h707q16 -37 16 -105q0 -69 -16 -106h-950v410h-494l-235 -394q-45 -22 -150 -22q-100 0 -125 22zM840 946l-201 -334h373v641h-13q-56 -133 -159 -307z" />
    <glyph glyph-name="Ccedilla" unicode="&#xc7;" horiz-adv-x="1300" 
d="M616 -190l48 151q-263 37 -409 230t-146 509q0 188 53 337.5t148 247t226.5 149t290.5 51.5q201 0 314 -68q28 -39 43 -107.5t6 -121.5q-157 80 -318 80q-114 0 -206.5 -32.5t-161.5 -98t-106.5 -172.5t-37.5 -248q0 -273 133.5 -407t362.5 -134q187 0 354 78
q5 -49 -14.5 -119.5t-50.5 -105.5q-139 -64 -301 -74l-15 -61q136 -47 136 -183q0 -104 -76 -168.5t-191 -83.5q-85 40 -118 125q72 8 117.5 39.5t45.5 81.5q0 41 -36 68t-91 37z" />
    <glyph glyph-name="Egrave" unicode="&#xc8;" horiz-adv-x="1255" 
d="M190 1438h934q17 -39 17 -105q0 -65 -17 -104h-690v-395h639q17 -39 17 -103q0 -65 -17 -104h-639v-416h707q16 -37 16 -105q0 -69 -16 -106h-951v1438zM410 1907l432 -215q0 -45 -17 -89t-47 -71l-477 190q7 55 36.5 104.5t72.5 80.5z" />
    <glyph glyph-name="Eacute" unicode="&#xc9;" horiz-adv-x="1255" 
d="M190 1438h934q17 -39 17 -105q0 -65 -17 -104h-690v-395h639q17 -39 17 -103q0 -65 -17 -104h-639v-416h707q16 -37 16 -105q0 -69 -16 -106h-951v1438zM954 1909q37 -31 58.5 -84.5t21.5 -108.5l-481 -186q-51 54 -51 160z" />
    <glyph glyph-name="Ecircumflex" unicode="&#xca;" horiz-adv-x="1255" 
d="M190 1438h934q17 -39 17 -105q0 -65 -17 -104h-690v-395h639q17 -39 17 -103q0 -65 -17 -104h-639v-416h707q16 -37 16 -105q0 -69 -16 -106h-951v1438zM670 1698l-301 -158q-60 57 -60 154l248 164q40 16 113 16q72 0 112 -16l258 -177q-12 -100 -84 -145z" />
    <glyph glyph-name="Edieresis" unicode="&#xcb;" horiz-adv-x="1255" 
d="M190 1438h934q17 -39 17 -105q0 -65 -17 -104h-690v-395h639q17 -39 17 -103q0 -65 -17 -104h-639v-416h707q16 -37 16 -105q0 -69 -16 -106h-951v1438zM926 1823q61 0 96 -34.5t35 -96.5t-36 -95.5t-97 -33.5q-63 0 -97 33t-34 94q0 63 36 98t97 35zM408 1823
q61 0 96 -34.5t35 -96.5t-36 -95.5t-97 -33.5q-63 0 -97.5 33t-34.5 94q0 63 36.5 98t97.5 35z" />
    <glyph glyph-name="Igrave" unicode="&#xcc;" horiz-adv-x="624" 
d="M190 12v1413q35 21 121 21q89 0 123 -21v-1413q-33 -20 -123 -20q-88 0 -121 20zM72 1907l432 -215q0 -45 -17 -89t-47 -71l-477 190q7 55 36.5 104.5t72.5 80.5z" />
    <glyph glyph-name="Iacute" unicode="&#xcd;" horiz-adv-x="624" 
d="M190 12v1413q35 21 121 21q89 0 123 -21v-1413q-33 -20 -123 -20q-88 0 -121 20zM575 1909q37 -31 58.5 -84.5t21.5 -108.5l-481 -186q-51 54 -51 160z" />
    <glyph glyph-name="Icircumflex" unicode="&#xce;" horiz-adv-x="624" 
d="M190 12v1413q35 21 121 21q89 0 123 -21v-1413q-33 -20 -123 -20q-88 0 -121 20zM311 1698l-301 -158q-59 56 -59 154l248 164q40 16 112 16q73 0 113 -16l258 -177q-12 -100 -84 -145z" />
    <glyph glyph-name="Idieresis" unicode="&#xcf;" horiz-adv-x="624" 
d="M190 12v1413q35 21 121 21q89 0 123 -21v-1413q-33 -20 -123 -20q-88 0 -121 20zM528 1823q61 0 96 -34.5t35 -96.5t-36 -95.5t-97 -33.5q-63 0 -97 33t-34 94q0 63 36 98t97 35zM96 1823q61 0 96 -34.5t35 -96.5t-36 -95.5t-97 -33.5q-63 0 -97 33t-34 94q0 63 36 98
t97 35z" />
    <glyph glyph-name="Eth" unicode="&#xd0;" horiz-adv-x="1474" 
d="M199 2v627h-164q-17 35 -17 98t17 98h164v594q172 35 397 35q177 0 320.5 -44.5t249 -133t163 -229t57.5 -324.5t-57.5 -326.5t-159.5 -230.5t-235.5 -133t-292.5 -45q-271 0 -442 14zM817 629h-375v-420q84 -8 201 -8q233 0 362.5 129t129.5 381q0 267 -143 399.5
t-394 132.5q-93 0 -156 -14v-404h375q17 -35 17 -98t-17 -98z" />
    <glyph glyph-name="Ntilde" unicode="&#xd1;" horiz-adv-x="1556" 
d="M422 1202v-1190q-29 -20 -117 -20q-86 0 -115 20v1418q52 18 162 18q115 0 156 -18l481 -824q88 -151 133 -344h13v1163q30 21 114 21q87 0 117 -21v-1419q-49 -18 -154 -18q-111 0 -147 18l-506 864q-84 143 -125 332h-12zM362 1632q14 97 83 160t182 63q50 0 95.5 -16
t73.5 -35t65.5 -35t74.5 -16q42 0 70.5 23.5t37.5 62.5q91 0 148 -43q-13 -100 -81.5 -166.5t-190.5 -66.5q-46 0 -89.5 16t-71.5 35t-68 35t-81 16q-80 0 -108 -90q-96 7 -140 57z" />
    <glyph glyph-name="Ograve" unicode="&#xd2;" horiz-adv-x="1558" 
d="M778 1485q149 0 272 -49t211 -142t136.5 -236t48.5 -323q0 -375 -179 -578.5t-489 -203.5q-323 0 -494 197t-171 585q0 231 85.5 402t235 259.5t344.5 88.5zM365 735q0 -270 107.5 -417.5t305.5 -147.5q201 0 308.5 147.5t107.5 417.5q0 249 -113 393t-303 144
q-200 0 -306.5 -141.5t-106.5 -395.5zM528 1907l433 -215q0 -45 -17 -89t-47 -71l-477 190q7 55 36 104.5t72 80.5z" />
    <glyph glyph-name="Oacute" unicode="&#xd3;" horiz-adv-x="1558" 
d="M778 1485q149 0 272 -49t211 -142t136.5 -236t48.5 -323q0 -375 -179 -578.5t-489 -203.5q-323 0 -494 197t-171 585q0 231 85.5 402t235 259.5t344.5 88.5zM365 735q0 -270 107.5 -417.5t305.5 -147.5q201 0 308.5 147.5t107.5 417.5q0 249 -113 393t-303 144
q-200 0 -306.5 -141.5t-106.5 -395.5zM1053 1909q37 -31 58.5 -84.5t21.5 -108.5l-482 -186q-51 54 -51 160z" />
    <glyph glyph-name="Ocircumflex" unicode="&#xd4;" horiz-adv-x="1558" 
d="M778 1485q149 0 272 -49t211 -142t136.5 -236t48.5 -323q0 -375 -179 -578.5t-489 -203.5q-323 0 -494 197t-171 585q0 231 85.5 402t235 259.5t344.5 88.5zM365 735q0 -270 107.5 -417.5t305.5 -147.5q201 0 308.5 147.5t107.5 417.5q0 249 -113 393t-303 144
q-200 0 -306.5 -141.5t-106.5 -395.5zM774 1698l-301 -158q-59 56 -59 154l248 164q40 16 112 16q73 0 113 -16l258 -177q-12 -100 -84 -145z" />
    <glyph glyph-name="Otilde" unicode="&#xd5;" horiz-adv-x="1558" 
d="M778 1485q149 0 272 -49t211 -142t136.5 -236t48.5 -323q0 -375 -179 -578.5t-489 -203.5q-323 0 -494 197t-171 585q0 231 85.5 402t235 259.5t344.5 88.5zM365 735q0 -270 107.5 -417.5t305.5 -147.5q201 0 308.5 147.5t107.5 417.5q0 249 -113 393t-303 144
q-200 0 -306.5 -141.5t-106.5 -395.5zM365 1632q14 97 82.5 160t181.5 63q50 0 95.5 -16t73.5 -35t65.5 -35t74.5 -16q42 0 71 23.5t38 62.5q90 0 147 -43q-13 -100 -81.5 -166.5t-190.5 -66.5q-46 0 -89.5 16t-71.5 35t-68 35t-81 16q-80 0 -108 -90q-95 7 -139 57z" />
    <glyph glyph-name="Odieresis" unicode="&#xd6;" horiz-adv-x="1558" 
d="M778 1485q149 0 272 -49t211 -142t136.5 -236t48.5 -323q0 -375 -179 -578.5t-489 -203.5q-323 0 -494 197t-171 585q0 231 85.5 402t235 259.5t344.5 88.5zM365 735q0 -270 107.5 -417.5t305.5 -147.5q201 0 308.5 147.5t107.5 417.5q0 249 -113 393t-303 144
q-200 0 -306.5 -141.5t-106.5 -395.5zM1071 1823q61 0 96 -34.5t35 -96.5t-36 -95.5t-97 -33.5q-63 0 -97 33t-34 94q0 63 36 98t97 35zM487 1823q61 0 96 -34.5t35 -96.5t-36 -95.5t-97 -33.5q-63 0 -97 33t-34 94q0 63 36 98t97 35z" />
    <glyph glyph-name="multiply" unicode="&#xd7;" 
d="M1057 895l-326 -326l326 -317q-15 -49 -56 -92.5t-94 -63.5l-323 322l-318 -322q-113 53 -147 154l321 313l-334 326q74 86 185 123l295 -295l286 291q108 -26 185 -113z" />
    <glyph glyph-name="Oslash" unicode="&#xd8;" horiz-adv-x="1570" 
d="M784 1485q241 0 402 -121l151 182q55 -15 100 -51t66 -84l-170 -203q121 -185 121 -473q0 -375 -180 -578.5t-490 -203.5q-253 0 -409 119l-166 -197q-55 18 -99 58.5t-61 91.5l178 213q-110 191 -110 497q0 174 49.5 315.5t138 236.5t211 146.5t268.5 51.5zM1202 735
q0 160 -49 283l-631 -752q104 -96 262 -96q202 0 310 147.5t108 417.5zM369 735q0 -180 49 -305l626 746q-107 96 -260 96q-200 0 -307.5 -142t-107.5 -395z" />
    <glyph glyph-name="Ugrave" unicode="&#xd9;" horiz-adv-x="1497" 
d="M416 1425v-888q0 -187 80 -275t249 -88q351 0 351 369v882q34 21 118 21t119 -21v-866q0 -292 -145 -449t-449 -157q-567 0 -567 561v911q34 21 121 21q89 0 123 -21zM504 1907l432 -215q0 -45 -17 -89t-47 -71l-477 190q7 55 36.5 104.5t72.5 80.5z" />
    <glyph glyph-name="Uacute" unicode="&#xda;" horiz-adv-x="1497" 
d="M416 1425v-888q0 -187 80 -275t249 -88q351 0 351 369v882q34 21 118 21t119 -21v-866q0 -292 -145 -449t-449 -157q-567 0 -567 561v911q34 21 121 21q89 0 123 -21zM1028 1909q37 -31 58.5 -84.5t21.5 -108.5l-481 -186q-52 55 -52 160z" />
    <glyph glyph-name="Ucircumflex" unicode="&#xdb;" horiz-adv-x="1497" 
d="M416 1425v-888q0 -187 80 -275t249 -88q351 0 351 369v882q34 21 118 21t119 -21v-866q0 -292 -145 -449t-449 -157q-567 0 -567 561v911q34 21 121 21q89 0 123 -21zM754 1698l-301 -158q-60 57 -60 154l248 164q40 16 113 16q72 0 112 -16l258 -177q-12 -100 -84 -145z
" />
    <glyph glyph-name="Udieresis" unicode="&#xdc;" horiz-adv-x="1497" 
d="M416 1425v-888q0 -187 80 -275t249 -88q351 0 351 369v882q34 21 118 21t119 -21v-866q0 -292 -145 -449t-449 -157q-567 0 -567 561v911q34 21 121 21q89 0 123 -21zM1016 1823q61 0 96 -34.5t35 -96.5t-36 -95.5t-97 -33.5q-63 0 -97 33t-34 94q0 63 36 98t97 35z
M498 1823q61 0 96 -34.5t35 -96.5t-36 -95.5t-97 -33.5q-63 0 -97 33t-34 94q0 63 36 98t97 35z" />
    <glyph glyph-name="Yacute" unicode="&#xdd;" horiz-adv-x="1239" 
d="M500 508l-477 915q31 23 133 23q91 0 129 -23l237 -450q65 -124 103 -289h12q31 164 96 291l234 448q38 23 125 23q96 0 127 -23l-476 -913v-498q-33 -20 -122 -20q-88 0 -121 20v496zM901 1909q37 -31 58.5 -84.5t21.5 -108.5l-481 -186q-51 54 -51 160z" />
    <glyph glyph-name="Thorn" unicode="&#xde;" horiz-adv-x="1228" 
d="M190 12v1413q35 21 121 21q89 0 123 -21v-247q72 14 176 14q134 0 239.5 -25.5t186.5 -79t124.5 -144t43.5 -214.5q0 -120 -41 -211t-114.5 -147t-169.5 -83.5t-213 -27.5q-151 0 -232 16v-264q-33 -20 -123 -20q-88 0 -121 20zM596 983q-83 0 -162 -14v-490
q82 -14 191 -14q163 0 246 59t83 191q0 141 -91 204.5t-267 63.5z" />
    <glyph glyph-name="germandbls" unicode="&#xdf;" horiz-adv-x="1345" 
d="M547 242q60 -41 154 -68t180 -27q95 0 144.5 35t49.5 101q0 45 -25.5 79t-66.5 57t-90 44.5t-98.5 48t-90.5 60t-66.5 88t-25.5 124.5q0 77 26 136t62.5 93.5t73 63t62.5 61.5t26 72q0 65 -53.5 99t-132.5 34q-283 0 -283 -423v-908q-35 -18 -119 -18q-82 0 -116 18v899
q0 136 26.5 243.5t73.5 179.5t114 119.5t144.5 68t169.5 20.5q58 0 111.5 -8t107 -29t92.5 -53.5t63.5 -84.5t24.5 -118q0 -74 -25 -130t-60 -89t-70.5 -62t-60.5 -66t-25 -83q0 -45 25.5 -79t66 -56t89.5 -42.5t98.5 -47t90 -61.5t66 -94t25.5 -136q0 -93 -31.5 -160.5
t-89.5 -107t-132.5 -58t-168.5 -18.5q-186 0 -297 64q-28 40 -39.5 109t0.5 110z" />
    <glyph glyph-name="agrave" unicode="&#xe0;" horiz-adv-x="1110" 
d="M711 92h-13q-81 -133 -282 -133q-70 0 -129 17.5t-106 53.5t-74 98.5t-27 145.5q0 91 31 158.5t88 108.5t130.5 60.5t164.5 19.5q116 0 196 -31v39q0 112 -50 160.5t-163 48.5q-170 0 -319 -88q-15 44 -8 113.5t34 109.5q121 69 336 69q208 0 306 -91t98 -304v-403
q0 -43 17.5 -59.5t51.5 -16.5q53 0 92 27q6 -47 -6.5 -105t-36.5 -90q-64 -41 -151 -41q-152 0 -180 133zM692 248v170q-70 26 -157 26q-106 0 -164 -42t-58 -113q0 -66 47 -98.5t125 -32.5q143 0 207 90zM688 1233q-43 -75 -139 -90l-311 342q34 34 92.5 52.5t122.5 18.5z
" />
    <glyph glyph-name="aacute" unicode="&#xe1;" horiz-adv-x="1110" 
d="M711 92h-13q-81 -133 -282 -133q-70 0 -129 17.5t-106 53.5t-74 98.5t-27 145.5q0 91 31 158.5t88 108.5t130.5 60.5t164.5 19.5q116 0 196 -31v39q0 112 -50 160.5t-163 48.5q-170 0 -319 -88q-15 44 -8 113.5t34 109.5q121 69 336 69q208 0 306 -91t98 -304v-403
q0 -43 17.5 -59.5t51.5 -16.5q53 0 92 27q6 -47 -6.5 -105t-36.5 -90q-64 -41 -151 -41q-152 0 -180 133zM692 248v170q-70 26 -157 26q-106 0 -164 -42t-58 -113q0 -66 47 -98.5t125 -32.5q143 0 207 90zM825 1481l-333 -338q-85 21 -123 96l243 313q57 0 117.5 -19
t95.5 -52z" />
    <glyph glyph-name="acircumflex" unicode="&#xe2;" horiz-adv-x="1110" 
d="M711 92h-13q-81 -133 -282 -133q-70 0 -129 17.5t-106 53.5t-74 98.5t-27 145.5q0 91 31 158.5t88 108.5t130.5 60.5t164.5 19.5q116 0 196 -31v39q0 112 -50 160.5t-163 48.5q-170 0 -319 -88q-15 44 -8 113.5t34 109.5q121 69 336 69q208 0 306 -91t98 -304v-403
q0 -43 17.5 -59.5t51.5 -16.5q53 0 92 27q6 -47 -6.5 -105t-36.5 -90q-64 -41 -151 -41q-152 0 -180 133zM692 248v170q-70 26 -157 26q-106 0 -164 -42t-58 -113q0 -66 47 -98.5t125 -32.5q143 0 207 90zM217 1272l219 250q60 24 180 24l256 -303q-36 -79 -124 -104
l-218 229l-229 -240q-68 54 -84 144z" />
    <glyph glyph-name="atilde" unicode="&#xe3;" horiz-adv-x="1110" 
d="M711 92h-13q-81 -133 -282 -133q-70 0 -129 17.5t-106 53.5t-74 98.5t-27 145.5q0 91 31 158.5t88 108.5t130.5 60.5t164.5 19.5q116 0 196 -31v39q0 112 -50 160.5t-163 48.5q-170 0 -319 -88q-15 44 -8 113.5t34 109.5q121 69 336 69q208 0 306 -91t98 -304v-403
q0 -43 17.5 -59.5t51.5 -16.5q53 0 92 27q6 -47 -6.5 -105t-36.5 -90q-64 -41 -151 -41q-152 0 -180 133zM692 248v170q-70 26 -157 26q-106 0 -164 -42t-58 -113q0 -66 47 -98.5t125 -32.5q143 0 207 90zM885 1384q-5 -98 -62 -158.5t-153 -60.5q-43 0 -82.5 14.5t-64 31.5
t-56 31.5t-61.5 14.5q-71 0 -91 -83q-38 3 -77 26.5t-56 54.5q15 83 72.5 134t140.5 51q58 0 107 -23t88 -46t72 -23q70 0 79 79q88 0 144 -43z" />
    <glyph glyph-name="adieresis" unicode="&#xe4;" horiz-adv-x="1110" 
d="M711 92h-13q-81 -133 -282 -133q-70 0 -129 17.5t-106 53.5t-74 98.5t-27 145.5q0 91 31 158.5t88 108.5t130.5 60.5t164.5 19.5q116 0 196 -31v39q0 112 -50 160.5t-163 48.5q-170 0 -319 -88q-15 44 -8 113.5t34 109.5q121 69 336 69q208 0 306 -91t98 -304v-403
q0 -43 17.5 -59.5t51.5 -16.5q53 0 92 27q6 -47 -6.5 -105t-36.5 -90q-64 -41 -151 -41q-152 0 -180 133zM692 248v170q-70 26 -157 26q-106 0 -164 -42t-58 -113q0 -66 47 -98.5t125 -32.5q143 0 207 90zM311 1425q58 0 91.5 -33t33.5 -92t-34.5 -90.5t-92.5 -31.5
q-60 0 -92.5 31t-32.5 89q0 60 34.5 93.5t92.5 33.5zM762 1425q58 0 91.5 -33t33.5 -92t-34.5 -90.5t-92.5 -31.5q-60 0 -92.5 31t-32.5 89q0 60 34.5 93.5t92.5 33.5z" />
    <glyph glyph-name="aring" unicode="&#xe5;" horiz-adv-x="1110" 
d="M711 92h-13q-81 -133 -282 -133q-70 0 -129 17.5t-106 53.5t-74 98.5t-27 145.5q0 91 31 158.5t88 108.5t130.5 60.5t164.5 19.5q116 0 196 -31v39q0 112 -50 160.5t-163 48.5q-170 0 -319 -88q-15 44 -8 113.5t34 109.5q121 69 336 69q208 0 306 -91t98 -304v-403
q0 -43 17.5 -59.5t51.5 -16.5q53 0 92 27q6 -47 -6.5 -105t-36.5 -90q-64 -41 -151 -41q-152 0 -180 133zM692 248v170q-70 26 -157 26q-106 0 -164 -42t-58 -113q0 -66 47 -98.5t125 -32.5q143 0 207 90zM532 1581q110 0 174 -59t64 -162q0 -106 -64.5 -163.5t-173.5 -57.5
q-116 0 -176.5 56.5t-60.5 164.5q0 99 64.5 160t172.5 61zM532 1456q-45 0 -72.5 -26t-27.5 -70q0 -46 26.5 -71t73.5 -25q43 0 72 25.5t29 70.5t-28 70.5t-73 25.5z" />
    <glyph glyph-name="ae" unicode="&#xe6;" horiz-adv-x="1703" 
d="M1583 426h-653q15 -268 344 -268q179 0 317 71q5 -50 -12.5 -107.5t-46.5 -88.5q-125 -74 -315 -74q-289 0 -422 178h-13q-43 -77 -133 -127.5t-225 -50.5q-73 0 -133.5 17t-108.5 52.5t-75 98t-27 147.5q0 91 31 158.5t88 108.5t130.5 60.5t164.5 19.5q119 0 196 -31v39
q0 113 -50.5 161t-162.5 48q-170 0 -319 -88q-15 44 -8 113.5t34 109.5q121 69 336 69q132 0 204.5 -32.5t104.5 -106.5h13q127 139 352 139q206 0 311 -117.5t105 -316.5q0 -100 -27 -182zM485 158q152 0 238 125q-24 74 -29 135q-74 26 -159 26q-108 0 -165 -42t-57 -113
q0 -66 47 -98.5t125 -32.5zM930 606h450q3 37 1.5 73t-15.5 68.5t-35.5 57t-59.5 39t-87 14.5q-112 0 -179 -68t-75 -184z" />
    <glyph glyph-name="ccedilla" unicode="&#xe7;" horiz-adv-x="1005" 
d="M899 768q-115 68 -244 68q-154 0 -239.5 -81.5t-85.5 -248.5t86.5 -250.5t240.5 -83.5q139 0 265 68q6 -52 -13 -118.5t-51 -101.5q-87 -46 -201 -57l-14 -63q125 -43 125 -168q0 -96 -70.5 -157t-177.5 -77q-83 38 -112 119q67 8 109 36.5t42 72.5q0 36 -33 60t-84 34
l47 145q-192 26 -295.5 163t-103.5 361q0 139 39 246t109.5 173.5t164 100t205.5 33.5q162 0 250 -57q26 -35 38 -99.5t3 -117.5z" />
    <glyph glyph-name="egrave" unicode="&#xe8;" horiz-adv-x="1105" 
d="M985 426h-653q15 -268 344 -268q179 0 317 71q5 -50 -12.5 -107.5t-46.5 -88.5q-125 -74 -316 -74q-253 0 -390.5 141t-137.5 389q0 250 136.5 401.5t369.5 151.5q206 0 311 -117.5t105 -316.5q0 -100 -27 -182zM332 606h450q3 37 1.5 73t-15.5 68.5t-35.5 57t-59.5 39
t-87 14.5q-112 0 -179 -68t-75 -184zM725 1233q-43 -75 -139 -90l-312 342q34 34 92.5 52.5t122.5 18.5z" />
    <glyph glyph-name="eacute" unicode="&#xe9;" horiz-adv-x="1105" 
d="M985 426h-653q15 -268 344 -268q179 0 317 71q5 -50 -12.5 -107.5t-46.5 -88.5q-125 -74 -316 -74q-253 0 -390.5 141t-137.5 389q0 250 136.5 401.5t369.5 151.5q206 0 311 -117.5t105 -316.5q0 -100 -27 -182zM332 606h450q3 37 1.5 73t-15.5 68.5t-35.5 57t-59.5 39
t-87 14.5q-112 0 -179 -68t-75 -184zM868 1481l-333 -338q-85 21 -123 96l243 313q57 0 117.5 -19t95.5 -52z" />
    <glyph glyph-name="ecircumflex" unicode="&#xea;" horiz-adv-x="1105" 
d="M985 426h-653q15 -268 344 -268q179 0 317 71q5 -50 -12.5 -107.5t-46.5 -88.5q-125 -74 -316 -74q-253 0 -390.5 141t-137.5 389q0 250 136.5 401.5t369.5 151.5q206 0 311 -117.5t105 -316.5q0 -100 -27 -182zM332 606h450q3 37 1.5 73t-15.5 68.5t-35.5 57t-59.5 39
t-87 14.5q-112 0 -179 -68t-75 -184zM262 1272l219 250q60 24 181 24l256 -303q-36 -79 -125 -104l-218 229l-229 -240q-68 54 -84 144z" />
    <glyph glyph-name="edieresis" unicode="&#xeb;" horiz-adv-x="1105" 
d="M985 426h-653q15 -268 344 -268q179 0 317 71q5 -50 -12.5 -107.5t-46.5 -88.5q-125 -74 -316 -74q-253 0 -390.5 141t-137.5 389q0 250 136.5 401.5t369.5 151.5q206 0 311 -117.5t105 -316.5q0 -100 -27 -182zM332 606h450q3 37 1.5 73t-15.5 68.5t-35.5 57t-59.5 39
t-87 14.5q-112 0 -179 -68t-75 -184zM352 1425q58 0 91.5 -33t33.5 -92t-34.5 -90.5t-92.5 -31.5q-60 0 -92.5 31t-32.5 89q0 60 34.5 93.5t92.5 33.5zM803 1425q58 0 91.5 -33t33.5 -92t-34.5 -90.5t-92.5 -31.5q-60 0 -92.5 31t-32.5 89q0 60 34.5 93.5t92.5 33.5z" />
    <glyph glyph-name="igrave" unicode="&#xec;" horiz-adv-x="555" 
d="M160 12v977q36 19 116 19q83 0 119 -19v-977q-35 -18 -119 -18q-82 0 -116 18zM436 1233q-43 -75 -139 -90l-311 342q34 34 92.5 52.5t122.5 18.5z" />
    <glyph glyph-name="iacute" unicode="&#xed;" horiz-adv-x="555" 
d="M160 12v977q36 19 116 19q83 0 119 -19v-977q-35 -18 -119 -18q-82 0 -116 18zM563 1481l-334 -338q-85 21 -123 96l244 313q57 0 117.5 -19t95.5 -52z" />
    <glyph glyph-name="icircumflex" unicode="&#xee;" horiz-adv-x="555" 
d="M-39 1272l219 250q60 24 180 24l256 -303q-36 -79 -124 -104l-218 229l-229 -240q-68 54 -84 144zM160 12v977q36 19 116 19q83 0 119 -19v-977q-35 -18 -119 -18q-82 0 -116 18z" />
    <glyph glyph-name="idieresis" unicode="&#xef;" horiz-adv-x="555" 
d="M160 12v977q36 19 116 19q83 0 119 -19v-977q-35 -18 -119 -18q-82 0 -116 18zM92 1425q58 0 91.5 -33t33.5 -92t-34.5 -90.5t-92.5 -31.5q-60 0 -92.5 31t-32.5 89q0 60 34.5 93.5t92.5 33.5zM465 1425q58 0 91.5 -33t33.5 -92t-34.5 -90.5t-92.5 -31.5q-60 0 -92.5 31
t-32.5 89q0 60 34.5 93.5t92.5 33.5z" />
    <glyph glyph-name="eth" unicode="&#xf0;" horiz-adv-x="1181" 
d="M326 1542q231 -47 391 -147l229 114q29 -26 49 -69.5t23 -83.5l-158 -78q225 -230 225 -639q0 -117 -18 -216.5t-58.5 -186t-101.5 -147.5t-151.5 -95.5t-204.5 -34.5q-219 0 -343 124t-124 355q0 226 119 370t338 144q202 0 293 -127h12q-35 226 -187 365l-333 -166
q-29 62 -29 172l207 102q-110 56 -275 95q17 87 97 149zM850 641q-107 107 -256 107q-130 0 -203.5 -81t-73.5 -218q0 -134 68 -207.5t186 -73.5q79 0 136 33.5t88 92t45 125t14 144.5q0 58 -4 78z" />
    <glyph glyph-name="ntilde" unicode="&#xf1;" horiz-adv-x="1206" 
d="M395 690v-678q-35 -18 -119 -18q-82 0 -116 18v971q67 37 190 37l15 -160h12q39 82 123.5 132t218.5 50q53 0 96.5 -8t90.5 -33t79 -66.5t53 -113.5t21 -168v-641q-35 -18 -119 -18q-82 0 -117 18v596q0 108 -42.5 163.5t-145.5 55.5q-166 0 -240 -137zM969 1384
q-5 -98 -62 -158.5t-153 -60.5q-43 0 -83 14.5t-64.5 31.5t-56 31.5t-61.5 14.5q-70 0 -90 -83q-38 3 -77 26.5t-56 54.5q15 83 72.5 134t140.5 51q46 0 87 -14.5t66 -31.5t55.5 -31.5t57.5 -14.5q71 0 80 79q88 0 144 -43z" />
    <glyph glyph-name="ograve" unicode="&#xf2;" horiz-adv-x="1163" 
d="M584 1042q225 0 355 -136t130 -390q0 -269 -128.5 -413t-356.5 -144q-238 0 -364 140.5t-126 416.5q0 246 133 386t357 140zM334 516q0 -173 63.5 -266.5t186.5 -93.5q122 0 183.5 94t61.5 266q0 154 -64.5 242t-180.5 88q-123 0 -186.5 -87t-63.5 -243zM739 1233
q-43 -75 -139 -90l-311 342q34 34 92.5 52.5t122.5 18.5z" />
    <glyph glyph-name="oacute" unicode="&#xf3;" horiz-adv-x="1163" 
d="M584 1042q225 0 355 -136t130 -390q0 -269 -128.5 -413t-356.5 -144q-238 0 -364 140.5t-126 416.5q0 246 133 386t357 140zM334 516q0 -173 63.5 -266.5t186.5 -93.5q122 0 183.5 94t61.5 266q0 154 -64.5 242t-180.5 88q-123 0 -186.5 -87t-63.5 -243zM877 1481
l-334 -338q-85 21 -123 96l244 313q57 0 117.5 -19t95.5 -52z" />
    <glyph glyph-name="ocircumflex" unicode="&#xf4;" horiz-adv-x="1163" 
d="M584 1042q225 0 355 -136t130 -390q0 -269 -128.5 -413t-356.5 -144q-238 0 -364 140.5t-126 416.5q0 246 133 386t357 140zM334 516q0 -173 63.5 -266.5t186.5 -93.5q122 0 183.5 94t61.5 266q0 154 -64.5 242t-180.5 88q-123 0 -186.5 -87t-63.5 -243zM264 1272
l219 250q60 24 181 24l256 -303q-36 -79 -125 -104l-217 229l-230 -240q-68 54 -84 144z" />
    <glyph glyph-name="otilde" unicode="&#xf5;" horiz-adv-x="1163" 
d="M584 1042q225 0 355 -136t130 -390q0 -269 -128.5 -413t-356.5 -144q-238 0 -364 140.5t-126 416.5q0 246 133 386t357 140zM334 516q0 -173 63.5 -266.5t186.5 -93.5q122 0 183.5 94t61.5 266q0 154 -64.5 242t-180.5 88q-123 0 -186.5 -87t-63.5 -243zM934 1384
q-5 -98 -62 -158.5t-153 -60.5q-43 0 -82.5 14.5t-64 31.5t-56 31.5t-61.5 14.5q-70 0 -90 -83q-38 3 -77.5 26.5t-56.5 54.5q15 83 72.5 134t140.5 51q58 0 107 -23t88 -46t72 -23q71 0 80 79q87 0 143 -43z" />
    <glyph glyph-name="odieresis" unicode="&#xf6;" horiz-adv-x="1163" 
d="M358 1425q58 0 91.5 -33t33.5 -92t-34.5 -90.5t-92.5 -31.5q-60 0 -92.5 31t-32.5 89q0 60 34.5 93.5t92.5 33.5zM813 1425q58 0 91.5 -33t33.5 -92t-34.5 -90.5t-92.5 -31.5q-60 0 -92.5 31t-32.5 89q0 60 34.5 93.5t92.5 33.5zM584 1042q225 0 355 -136t130 -390
q0 -269 -128.5 -413t-356.5 -144q-238 0 -364 140.5t-126 416.5q0 246 133 386t357 140zM334 516q0 -173 63.5 -266.5t186.5 -93.5q122 0 183.5 94t61.5 266q0 154 -64.5 242t-180.5 88q-123 0 -186.5 -87t-63.5 -243z" />
    <glyph glyph-name="divide" unicode="&#xf7;" 
d="M119 668h940q18 -30 18 -103q0 -74 -18 -104h-973q0 128 33 207zM584 1065q57 0 90 -32.5t33 -92.5t-34 -91.5t-91 -31.5q-59 0 -91 31.5t-32 89.5q0 60 34 93.5t91 33.5zM584 307q57 0 90 -32.5t33 -92.5t-34 -91.5t-91 -31.5q-59 0 -91 31.5t-32 89.5q0 60 34 93.5
t91 33.5z" />
    <glyph glyph-name="oslash" unicode="&#xf8;" horiz-adv-x="1183" 
d="M594 1042q152 0 262 -61l102 127q50 -14 90 -44t60 -69l-113 -141q90 -129 90 -338q0 -269 -130 -413t-361 -144q-163 0 -270 61l-134 -167q-35 26 -63.5 72.5t-42.5 97.5l104 127q-90 136 -90 366q0 246 134.5 386t361.5 140zM338 516q0 -105 24 -178l375 463
q-61 45 -143 45q-126 0 -191 -87t-65 -243zM846 516q0 75 -21 150l-374 -467q56 -43 143 -43q125 0 188.5 94t63.5 266z" />
    <glyph glyph-name="ugrave" unicode="&#xf9;" horiz-adv-x="1198" 
d="M827 117h-12q-81 -158 -323 -158q-55 0 -99.5 8.5t-92 33.5t-80 67t-53 114.5t-20.5 169.5v619q83 47 236 47v-629q0 -108 41.5 -160.5t144.5 -52.5q157 0 234 109v704q36 19 117 19q82 0 118 -19v-971q-62 -36 -182 -36zM752 1233q-43 -75 -140 -90l-311 342
q34 34 92.5 52.5t122.5 18.5z" />
    <glyph glyph-name="uacute" unicode="&#xfa;" horiz-adv-x="1198" 
d="M827 117h-12q-81 -158 -323 -158q-55 0 -99.5 8.5t-92 33.5t-80 67t-53 114.5t-20.5 169.5v619q83 47 236 47v-629q0 -108 41.5 -160.5t144.5 -52.5q157 0 234 109v704q36 19 117 19q82 0 118 -19v-971q-62 -36 -182 -36zM897 1481l-334 -338q-85 21 -123 96l244 313
q57 0 117.5 -19t95.5 -52z" />
    <glyph glyph-name="ucircumflex" unicode="&#xfb;" horiz-adv-x="1198" 
d="M827 117h-12q-81 -158 -323 -158q-55 0 -99.5 8.5t-92 33.5t-80 67t-53 114.5t-20.5 169.5v619q83 47 236 47v-629q0 -108 41.5 -160.5t144.5 -52.5q157 0 234 109v704q36 19 117 19q82 0 118 -19v-971q-62 -36 -182 -36zM281 1272l219 250q60 24 180 24l256 -303
q-36 -79 -125 -104l-217 229l-229 -240q-68 54 -84 144z" />
    <glyph glyph-name="udieresis" unicode="&#xfc;" horiz-adv-x="1198" 
d="M827 117h-12q-81 -158 -323 -158q-55 0 -99.5 8.5t-92 33.5t-80 67t-53 114.5t-20.5 169.5v619q83 47 236 47v-629q0 -108 41.5 -160.5t144.5 -52.5q157 0 234 109v704q36 19 117 19q82 0 118 -19v-971q-62 -36 -182 -36zM379 1425q58 0 91.5 -33t33.5 -92t-34.5 -90.5
t-92.5 -31.5q-60 0 -92.5 31t-32.5 89q0 60 34.5 93.5t92.5 33.5zM829 1425q58 0 91.5 -33t33.5 -92t-34.5 -90.5t-92.5 -31.5q-60 0 -92.5 31t-32.5 89q0 60 34.5 93.5t92.5 33.5z" />
    <glyph glyph-name="yacute" unicode="&#xfd;" horiz-adv-x="1048" 
d="M543 139h12q17 154 53 262l191 594q34 17 100 17q90 0 133 -31l-153 -451q-71 -212 -129.5 -362.5t-122.5 -263.5q-87 -153 -204.5 -251.5t-287.5 -152.5q-40 31 -68 84.5t-34 110.5q243 66 373 280l-386 1006q43 31 140 31q66 0 100 -17l223 -598q39 -103 60 -258z
M834 1481l-334 -338q-85 21 -123 96l244 313q57 0 117.5 -19t95.5 -52z" />
    <glyph glyph-name="thorn" unicode="&#xfe;" horiz-adv-x="1187" 
d="M395 -4v-469q-36 -19 -119 -19q-80 0 -116 19v1939q80 50 235 50v-371q0 -152 -18 -266h12q32 72 106.5 117.5t188.5 45.5q65 0 123.5 -16t112.5 -53.5t93 -94t62 -143.5t23 -196q0 -268 -130 -424t-376 -156q-130 0 -197 37zM393 195q78 -29 158 -29q157 0 232 95
t75 255q0 158 -63 239t-181 81q-136 0 -221 -119v-522z" />
    <glyph glyph-name="ydieresis" unicode="&#xff;" horiz-adv-x="1048" 
d="M543 139h12q17 154 53 262l191 594q34 17 100 17q90 0 133 -31l-153 -451q-71 -212 -129.5 -362.5t-122.5 -263.5q-87 -153 -204.5 -251.5t-287.5 -152.5q-40 31 -68 84.5t-34 110.5q243 66 373 280l-386 1006q43 31 140 31q66 0 100 -17l223 -598q39 -103 60 -258z
M319 1425q58 0 91.5 -33t33.5 -92t-34.5 -90.5t-92.5 -31.5q-60 0 -92 31t-32 89q0 61 34 94t92 33zM770 1425q58 0 91.5 -33t33.5 -92t-34.5 -90.5t-92.5 -31.5q-60 0 -92.5 31t-32.5 89q0 60 34.5 93.5t92.5 33.5z" />
    <glyph glyph-name="Amacron" unicode="&#x100;" horiz-adv-x="1382" 
d="M1094 14l-123 361h-565l-121 -361q-37 -22 -125 -22q-96 0 -125 22l510 1422q45 18 147 18q105 0 150 -18l504 -1422q-29 -22 -127 -22q-88 0 -125 22zM471 575h432l-96 281q-72 212 -113 434h-12q-40 -208 -115 -430zM367 1796h647q16 -27 16 -90q0 -61 -16 -92h-647
q-17 33 -17 92q0 62 17 90z" />
    <glyph glyph-name="amacron" unicode="&#x101;" horiz-adv-x="1110" 
d="M711 92h-13q-81 -133 -282 -133q-70 0 -129 17.5t-106 53.5t-74 98.5t-27 145.5q0 91 31 158.5t88 108.5t130.5 60.5t164.5 19.5q116 0 196 -31v39q0 112 -50 160.5t-163 48.5q-170 0 -319 -88q-15 44 -8 113.5t34 109.5q121 69 336 69q208 0 306 -91t98 -304v-403
q0 -43 17.5 -59.5t51.5 -16.5q53 0 92 27q6 -47 -6.5 -105t-36.5 -90q-64 -41 -151 -41q-152 0 -180 133zM692 248v170q-70 26 -157 26q-106 0 -164 -42t-58 -113q0 -66 47 -98.5t125 -32.5q143 0 207 90zM246 1382h583q17 -27 17 -86t-17 -86h-612q0 96 29 172z" />
    <glyph glyph-name="Abreve" unicode="&#x102;" horiz-adv-x="1382" 
d="M1094 14l-123 361h-565l-121 -361q-37 -22 -125 -22q-96 0 -125 22l510 1422q45 18 147 18q105 0 150 -18l504 -1422q-29 -22 -127 -22q-88 0 -125 22zM471 575h432l-96 281q-72 212 -113 434h-12q-40 -208 -115 -430zM905 1886q99 0 154 -45q-26 -129 -123.5 -204.5
t-257.5 -75.5q-151 0 -239 69.5t-107 198.5q54 57 164 63q19 -83 66.5 -121t129.5 -38t132.5 37.5t80.5 115.5z" />
    <glyph glyph-name="abreve" unicode="&#x103;" horiz-adv-x="1110" 
d="M711 92h-13q-81 -133 -282 -133q-70 0 -129 17.5t-106 53.5t-74 98.5t-27 145.5q0 91 31 158.5t88 108.5t130.5 60.5t164.5 19.5q116 0 196 -31v39q0 112 -50 160.5t-163 48.5q-170 0 -319 -88q-15 44 -8 113.5t34 109.5q121 69 336 69q208 0 306 -91t98 -304v-403
q0 -43 17.5 -59.5t51.5 -16.5q53 0 92 27q6 -47 -6.5 -105t-36.5 -90q-64 -41 -151 -41q-152 0 -180 133zM692 248v170q-70 26 -157 26q-106 0 -164 -42t-58 -113q0 -66 47 -98.5t125 -32.5q143 0 207 90zM365 1516q14 -189 167 -189q147 0 183 178q92 0 149 -45
q-21 -142 -109.5 -223.5t-234.5 -81.5q-139 0 -219.5 76t-99.5 215q24 28 69 47.5t95 22.5z" />
    <glyph glyph-name="Aogonek" unicode="&#x104;" horiz-adv-x="1382" 
d="M1298 -315q22 -26 36 -71t14 -89q-61 -25 -148 -25q-122 0 -199 57.5t-77 176.5q0 85 44 154t132 104l-129 383h-565l-121 -361q-37 -22 -125 -22q-96 0 -125 22l510 1422q45 18 147 18q105 0 150 -18l504 -1420q-96 -45 -149.5 -109t-53.5 -128q0 -51 30.5 -77t79.5 -26
q24 0 45 9zM471 575h432l-96 281q-72 212 -113 434h-12q-40 -208 -115 -430z" />
    <glyph glyph-name="aogonek" unicode="&#x105;" horiz-adv-x="1110" 
d="M1055 -293q20 -27 33.5 -70.5t13.5 -85.5q-56 -24 -144 -24q-76 0 -135 21.5t-97 74t-38 131.5q0 68 30 124.5t85 84.5v12q-73 28 -92 117h-13q-81 -133 -282 -133q-70 0 -129 17.5t-106 53.5t-74 98.5t-27 145.5q0 91 31 158.5t88 108.5t130.5 60.5t164.5 19.5
q116 0 196 -31v39q0 112 -50 160.5t-163 48.5q-170 0 -319 -88q-15 44 -8 113.5t34 109.5q121 69 336 69q208 0 306 -91t98 -304v-403q0 -43 17.5 -59.5t51.5 -16.5q53 0 92 27q6 -47 -6.5 -105t-36.5 -90q-139 -88 -139 -201q0 -49 29.5 -74.5t77.5 -25.5q26 0 45 8z
M692 248v170q-70 26 -157 26q-106 0 -164 -42t-58 -113q0 -66 47 -98.5t125 -32.5q143 0 207 90z" />
    <glyph glyph-name="Cacute" unicode="&#x106;" horiz-adv-x="1300" 
d="M1190 1188q-157 80 -318 80q-114 0 -206.5 -32.5t-161.5 -98t-106.5 -172.5t-37.5 -248q0 -273 133.5 -407t362.5 -134q187 0 354 78q5 -49 -14.5 -119.5t-50.5 -105.5q-159 -76 -363 -76q-316 0 -494.5 198t-178.5 549q0 188 53 337.5t148 247t226.5 149t290.5 51.5
q201 0 314 -68q28 -39 43 -107.5t6 -121.5zM1081 1909q37 -31 58.5 -84.5t21.5 -108.5l-481 -186q-51 54 -51 160z" />
    <glyph glyph-name="cacute" unicode="&#x107;" horiz-adv-x="1005" 
d="M330 506q0 -167 86.5 -250.5t240.5 -83.5q139 0 265 68q6 -52 -13 -118.5t-51 -101.5q-115 -61 -276 -61q-236 0 -364 140t-128 390q0 139 39 246t109.5 173.5t164 100t205.5 33.5q162 0 250 -57q26 -35 38 -99.5t3 -117.5q-115 68 -244 68q-154 0 -239.5 -81.5
t-85.5 -248.5zM870 1481l-333 -338q-85 21 -123 96l243 313q57 0 117.5 -19t95.5 -52z" />
    <glyph glyph-name="Ccircumflex" unicode="&#x108;" horiz-adv-x="1300" 
d="M1190 1188q-157 80 -318 80q-114 0 -206.5 -32.5t-161.5 -98t-106.5 -172.5t-37.5 -248q0 -273 133.5 -407t362.5 -134q187 0 354 78q5 -49 -14.5 -119.5t-50.5 -105.5q-159 -76 -363 -76q-316 0 -494.5 198t-178.5 549q0 188 53 337.5t148 247t226.5 149t290.5 51.5
q201 0 314 -68q28 -39 43 -107.5t6 -121.5zM793 1698l-301 -158q-60 57 -60 154l248 164q40 16 113 16q72 0 112 -16l258 -177q-12 -100 -84 -145z" />
    <glyph glyph-name="ccircumflex" unicode="&#x109;" horiz-adv-x="1005" 
d="M330 506q0 -167 86.5 -250.5t240.5 -83.5q139 0 265 68q6 -52 -13 -118.5t-51 -101.5q-115 -61 -276 -61q-236 0 -364 140t-128 390q0 139 39 246t109.5 173.5t164 100t205.5 33.5q162 0 250 -57q26 -35 38 -99.5t3 -117.5q-115 68 -244 68q-154 0 -239.5 -81.5
t-85.5 -248.5zM256 1272l219 250q60 24 180 24l256 -303q-36 -79 -125 -104l-217 229l-229 -240q-68 54 -84 144z" />
    <glyph glyph-name="Cdotaccent" unicode="&#x10a;" horiz-adv-x="1300" 
d="M1190 1188q-157 80 -318 80q-114 0 -206.5 -32.5t-161.5 -98t-106.5 -172.5t-37.5 -248q0 -273 133.5 -407t362.5 -134q187 0 354 78q5 -49 -14.5 -119.5t-50.5 -105.5q-159 -76 -363 -76q-316 0 -494.5 198t-178.5 549q0 188 53 337.5t148 247t226.5 149t290.5 51.5
q201 0 314 -68q28 -39 43 -107.5t6 -121.5zM797 1851q65 0 103 -36t38 -103q0 -66 -38.5 -101.5t-104.5 -35.5q-68 0 -105 34.5t-37 100.5q0 68 39 104.5t105 36.5z" />
    <glyph glyph-name="cdotaccent" unicode="&#x10b;" horiz-adv-x="1005" 
d="M330 506q0 -167 86.5 -250.5t240.5 -83.5q139 0 265 68q6 -52 -13 -118.5t-51 -101.5q-115 -61 -276 -61q-236 0 -364 140t-128 390q0 139 39 246t109.5 173.5t164 100t205.5 33.5q162 0 250 -57q26 -35 38 -99.5t3 -117.5q-115 68 -244 68q-154 0 -239.5 -81.5
t-85.5 -248.5zM578 1450q62 0 98.5 -35.5t36.5 -99.5q0 -63 -37.5 -98t-100.5 -35q-65 0 -100 34t-35 97q0 65 37.5 101t100.5 36z" />
    <glyph glyph-name="Ccaron" unicode="&#x10c;" horiz-adv-x="1300" 
d="M1190 1188q-157 80 -318 80q-114 0 -206.5 -32.5t-161.5 -98t-106.5 -172.5t-37.5 -248q0 -273 133.5 -407t362.5 -134q187 0 354 78q5 -49 -14.5 -119.5t-50.5 -105.5q-159 -76 -363 -76q-316 0 -494.5 198t-178.5 549q0 188 53 337.5t148 247t226.5 149t290.5 51.5
q201 0 314 -68q28 -39 43 -107.5t6 -121.5zM526 1898l269 -157l284 147q34 -18 59.5 -54t32.5 -81l-266 -172q-40 -16 -110 -16q-71 0 -111 16l-262 182q20 94 104 135z" />
    <glyph glyph-name="ccaron" unicode="&#x10d;" horiz-adv-x="1005" 
d="M330 506q0 -167 86.5 -250.5t240.5 -83.5q139 0 265 68q6 -52 -13 -118.5t-51 -101.5q-115 -61 -276 -61q-236 0 -364 140t-128 390q0 139 39 246t109.5 173.5t164 100t205.5 33.5q162 0 250 -57q26 -35 38 -99.5t3 -117.5q-115 68 -244 68q-154 0 -239.5 -81.5
t-85.5 -248.5zM485 1153l-254 309q24 33 65.5 55t82.5 25l201 -215l213 223q78 -18 118 -96l-243 -280q-68 -21 -183 -21z" />
    <glyph glyph-name="Dcaron" unicode="&#x10e;" horiz-adv-x="1466" 
d="M190 2v1417q172 35 398 35q177 0 320.5 -44.5t249 -133t163 -229t57.5 -324.5t-57.5 -326.5t-159.5 -230.5t-235.5 -133t-292.5 -45q-271 0 -443 14zM434 1229v-1020q84 -8 201 -8q233 0 362 129t129 381q0 267 -142.5 399.5t-393.5 132.5q-93 0 -156 -14zM477 1898
l268 -157l285 147q34 -18 59.5 -54t32.5 -81l-266 -172q-40 -16 -111 -16q-70 0 -110 16l-262 182q20 94 104 135z" />
    <glyph glyph-name="dcaron" unicode="&#x10f;" horiz-adv-x="1204" 
d="M793 1008v458q80 50 235 50v-1498q-65 -36 -174 -36l-33 129h-12q-43 -74 -122 -113t-185 -39q-196 0 -304 133t-108 375q0 276 135.5 425.5t370.5 149.5q120 0 197 -34zM795 266v543q-64 31 -152 31q-159 0 -236 -96.5t-77 -264.5q0 -305 248 -305q75 0 123.5 24.5
t93.5 67.5zM1384 1534q-6 -116 -41 -245t-79 -212q-104 9 -152 74q59 171 70 336q74 47 202 47z" />
    <glyph glyph-name="Dcroat" unicode="&#x110;" horiz-adv-x="1474" 
d="M199 2v627h-164q-17 35 -17 98t17 98h164v594q172 35 397 35q177 0 320.5 -44.5t249 -133t163 -229t57.5 -324.5t-57.5 -326.5t-159.5 -230.5t-235.5 -133t-292.5 -45q-271 0 -442 14zM817 629h-375v-420q84 -8 201 -8q233 0 362.5 129t129.5 381q0 267 -143 399.5
t-394 132.5q-93 0 -156 -14v-404h375q17 -35 17 -98t-17 -98z" />
    <glyph glyph-name="dcroat" unicode="&#x111;" horiz-adv-x="1196" 
d="M795 983v154h-351q0 106 29 172h322v157q80 50 235 50v-207h150q16 -19 16 -86t-16 -86h-150v-1119q-65 -36 -174 -36l-33 129h-12q-43 -74 -122 -113t-185 -39q-195 0 -303.5 130t-108.5 366q0 270 135.5 416.5t370.5 146.5q118 0 197 -35zM797 266v518q-64 31 -152 31
q-160 0 -236.5 -92.5t-76.5 -255.5q0 -293 248 -293q75 0 123.5 24.5t93.5 67.5z" />
    <glyph glyph-name="Emacron" unicode="&#x112;" horiz-adv-x="1255" 
d="M190 1438h934q17 -39 17 -105q0 -65 -17 -104h-690v-395h639q17 -39 17 -103q0 -65 -17 -104h-639v-416h707q16 -37 16 -105q0 -69 -16 -106h-951v1438zM346 1796h647q17 -28 17 -90q0 -59 -17 -92h-647q-16 31 -16 92q0 63 16 90z" />
    <glyph glyph-name="emacron" unicode="&#x113;" horiz-adv-x="1105" 
d="M985 426h-653q15 -268 344 -268q179 0 317 71q5 -50 -12.5 -107.5t-46.5 -88.5q-125 -74 -316 -74q-253 0 -390.5 141t-137.5 389q0 250 136.5 401.5t369.5 151.5q206 0 311 -117.5t105 -316.5q0 -100 -27 -182zM332 606h450q3 37 1.5 73t-15.5 68.5t-35.5 57t-59.5 39
t-87 14.5q-112 0 -179 -68t-75 -184zM287 1382h583q17 -27 17 -86t-17 -86h-612q0 96 29 172z" />
    <glyph glyph-name="Ebreve" unicode="&#x114;" horiz-adv-x="1255" 
d="M190 1438h934q17 -39 17 -105q0 -65 -17 -104h-690v-395h639q17 -39 17 -103q0 -65 -17 -104h-639v-416h707q16 -37 16 -105q0 -69 -16 -106h-951v1438zM889 1886q98 0 153 -45q-26 -129 -123 -204.5t-257 -75.5q-151 0 -239.5 69.5t-107.5 198.5q54 57 164 63
q19 -83 67 -121t130 -38t132.5 37.5t80.5 115.5z" />
    <glyph glyph-name="ebreve" unicode="&#x115;" horiz-adv-x="1105" 
d="M985 426h-653q15 -268 344 -268q179 0 317 71q5 -50 -12.5 -107.5t-46.5 -88.5q-125 -74 -316 -74q-253 0 -390.5 141t-137.5 389q0 250 136.5 401.5t369.5 151.5q206 0 311 -117.5t105 -316.5q0 -100 -27 -182zM332 606h450q3 37 1.5 73t-15.5 68.5t-35.5 57t-59.5 39
t-87 14.5q-112 0 -179 -68t-75 -184zM416 1516q14 -189 168 -189q146 0 182 178q92 0 149 -45q-21 -142 -109.5 -223.5t-234.5 -81.5q-139 0 -219.5 76t-99.5 215q24 28 69 47.5t95 22.5z" />
    <glyph glyph-name="Edotaccent" unicode="&#x116;" horiz-adv-x="1255" 
d="M190 1438h934q17 -39 17 -105q0 -65 -17 -104h-690v-395h639q17 -39 17 -103q0 -65 -17 -104h-639v-416h707q16 -37 16 -105q0 -69 -16 -106h-951v1438zM676 1851q65 0 103 -36t38 -103q0 -66 -38.5 -101.5t-104.5 -35.5q-68 0 -105 34.5t-37 100.5q0 68 39 104.5
t105 36.5z" />
    <glyph glyph-name="edotaccent" unicode="&#x117;" horiz-adv-x="1105" 
d="M985 426h-653q15 -268 344 -268q179 0 317 71q5 -50 -12.5 -107.5t-46.5 -88.5q-125 -74 -316 -74q-253 0 -390.5 141t-137.5 389q0 250 136.5 401.5t369.5 151.5q206 0 311 -117.5t105 -316.5q0 -100 -27 -182zM332 606h450q3 37 1.5 73t-15.5 68.5t-35.5 57t-59.5 39
t-87 14.5q-112 0 -179 -68t-75 -184zM578 1450q62 0 98.5 -35.5t36.5 -99.5q0 -63 -37.5 -98t-100.5 -35q-65 0 -100 34t-35 97q0 65 37.5 101t100.5 36z" />
    <glyph glyph-name="Eogonek" unicode="&#x118;" horiz-adv-x="1255" 
d="M1128 -315q22 -26 36 -71t14 -89q-61 -25 -148 -25q-122 0 -199 57.5t-77 176.5q0 85 44 155.5t132 98.5v12h-740v1438h934q17 -39 17 -105q0 -65 -17 -104h-690v-395h639q17 -39 17 -103q0 -65 -17 -104h-639v-416h707q16 -37 16 -105q0 -69 -16 -106
q-81 -47 -124.5 -104.5t-43.5 -116.5q0 -51 30.5 -77t79.5 -26q24 0 45 9z" />
    <glyph glyph-name="eogonek" unicode="&#x119;" horiz-adv-x="1105" 
d="M889 -293q20 -27 33.5 -70.5t13.5 -85.5q-56 -24 -143 -24q-76 0 -135 21.5t-97.5 74t-38.5 131.5q0 142 109 195v10q-265 0 -403 139.5t-138 390.5q0 250 136.5 401.5t369.5 151.5q206 0 311 -117.5t105 -316.5q0 -100 -27 -182h-653q15 -268 344 -268q179 0 317 71
q5 -50 -12.5 -107.5t-46.5 -88.5q-93 -45 -145 -108t-52 -126q0 -49 29.5 -74.5t77.5 -25.5q26 0 45 8zM332 606h450q3 37 1.5 73t-15.5 68.5t-35.5 57t-59.5 39t-87 14.5q-112 0 -179 -68t-75 -184z" />
    <glyph glyph-name="Ecaron" unicode="&#x11a;" horiz-adv-x="1255" 
d="M190 1438h934q17 -39 17 -105q0 -65 -17 -104h-690v-395h639q17 -39 17 -103q0 -65 -17 -104h-639v-416h707q16 -37 16 -105q0 -69 -16 -106h-951v1438zM403 1898l269 -157l284 147q34 -18 60 -54t33 -81l-267 -172q-40 -16 -110 -16q-71 0 -111 16l-262 182
q20 94 104 135z" />
    <glyph glyph-name="ecaron" unicode="&#x11b;" horiz-adv-x="1105" 
d="M985 426h-653q15 -268 344 -268q179 0 317 71q5 -50 -12.5 -107.5t-46.5 -88.5q-125 -74 -316 -74q-253 0 -390.5 141t-137.5 389q0 250 136.5 401.5t369.5 151.5q206 0 311 -117.5t105 -316.5q0 -100 -27 -182zM332 606h450q3 37 1.5 73t-15.5 68.5t-35.5 57t-59.5 39
t-87 14.5q-112 0 -179 -68t-75 -184zM487 1153l-254 309q24 33 65.5 55t82.5 25l201 -215l213 223q78 -18 118 -96l-243 -280q-68 -21 -183 -21z" />
    <glyph glyph-name="Gcircumflex" unicode="&#x11c;" horiz-adv-x="1464" 
d="M1331 68q-95 -49 -231 -82t-277 -33q-340 0 -527 194t-187 547q0 377 208 584t562 207q224 0 346 -70q27 -41 41 -107t8 -122q-172 82 -369 82q-255 0 -400 -137.5t-145 -423.5q0 -272 132 -404.5t362 -132.5q145 0 250 43v387h-324q-16 37 -16 102q0 66 16 103h551v-737
zM831 1698l-301 -158q-59 56 -59 154l248 164q40 16 112 16q73 0 113 -16l258 -177q-12 -100 -84 -145z" />
    <glyph glyph-name="gcircumflex" unicode="&#x11d;" horiz-adv-x="1091" 
d="M229 360v13q-125 92 -125 297q0 180 114 276t304 96q126 0 213 -41h289q31 -70 31 -176h-156v-8q41 -52 41 -158q0 -173 -109 -269.5t-305 -96.5q-87 0 -137 20q-37 -27 -37 -80q0 -48 56 -65.5t180 -17.5q88 0 155.5 -7.5t129.5 -28.5t102 -55t64 -90.5t24 -132.5
q0 -364 -524 -364q-149 0 -256.5 30t-172.5 101.5t-65 181.5q0 95 44 158t114 86v12q-80 47 -80 149q0 62 28.5 107.5t77.5 62.5zM535 -41q-113 0 -168 18q-46 -25 -72.5 -65.5t-26.5 -87.5q0 -166 289 -166q285 0 285 166q0 74 -66 104.5t-241 30.5zM322 670
q0 -94 51 -145.5t149 -51.5q97 0 149 52.5t52 144.5q0 91 -52.5 141.5t-148.5 50.5q-98 0 -149 -50.5t-51 -141.5zM213 1272l219 250q60 24 180 24l256 -303q-36 -79 -125 -104l-217 229l-229 -240q-68 54 -84 144z" />
    <glyph glyph-name="Gbreve" unicode="&#x11e;" horiz-adv-x="1464" 
d="M1331 68q-95 -49 -231 -82t-277 -33q-340 0 -527 194t-187 547q0 377 208 584t562 207q224 0 346 -70q27 -41 41 -107t8 -122q-172 82 -369 82q-255 0 -400 -137.5t-145 -423.5q0 -272 132 -404.5t362 -132.5q145 0 250 43v387h-324q-16 37 -16 102q0 66 16 103h551v-737
zM1055 1886q98 0 153 -45q-26 -129 -123.5 -204.5t-257.5 -75.5q-151 0 -239 69.5t-107 198.5q54 57 164 63q19 -83 67 -121t130 -38t132.5 37.5t80.5 115.5z" />
    <glyph glyph-name="gbreve" unicode="&#x11f;" horiz-adv-x="1091" 
d="M229 360v13q-125 92 -125 297q0 180 114 276t304 96q126 0 213 -41h289q31 -70 31 -176h-156v-8q41 -52 41 -158q0 -173 -109 -269.5t-305 -96.5q-87 0 -137 20q-37 -27 -37 -80q0 -48 56 -65.5t180 -17.5q88 0 155.5 -7.5t129.5 -28.5t102 -55t64 -90.5t24 -132.5
q0 -364 -524 -364q-149 0 -256.5 30t-172.5 101.5t-65 181.5q0 95 44 158t114 86v12q-80 47 -80 149q0 62 28.5 107.5t77.5 62.5zM535 -41q-113 0 -168 18q-46 -25 -72.5 -65.5t-26.5 -87.5q0 -166 289 -166q285 0 285 166q0 74 -66 104.5t-241 30.5zM322 670
q0 -94 51 -145.5t149 -51.5q97 0 149 52.5t52 144.5q0 91 -52.5 141.5t-148.5 50.5q-98 0 -149 -50.5t-51 -141.5zM367 1516q14 -189 168 -189q146 0 182 178q92 0 149 -45q-21 -142 -109.5 -223.5t-234.5 -81.5q-139 0 -219.5 76t-99.5 215q24 28 69 47.5t95 22.5z" />
    <glyph glyph-name="Gdotaccent" unicode="&#x120;" horiz-adv-x="1464" 
d="M1331 68q-95 -49 -231 -82t-277 -33q-340 0 -527 194t-187 547q0 377 208 584t562 207q224 0 346 -70q27 -41 41 -107t8 -122q-172 82 -369 82q-255 0 -400 -137.5t-145 -423.5q0 -272 132 -404.5t362 -132.5q145 0 250 43v387h-324q-16 37 -16 102q0 66 16 103h551v-737
zM836 1851q65 0 103 -36t38 -103q0 -66 -38.5 -101.5t-104.5 -35.5q-68 0 -105 34.5t-37 100.5q0 68 39 104.5t105 36.5z" />
    <glyph glyph-name="gdotaccent" unicode="&#x121;" horiz-adv-x="1091" 
d="M229 360v13q-125 92 -125 297q0 180 114 276t304 96q126 0 213 -41h289q31 -70 31 -176h-156v-8q41 -52 41 -158q0 -173 -109 -269.5t-305 -96.5q-87 0 -137 20q-37 -27 -37 -80q0 -48 56 -65.5t180 -17.5q88 0 155.5 -7.5t129.5 -28.5t102 -55t64 -90.5t24 -132.5
q0 -364 -524 -364q-149 0 -256.5 30t-172.5 101.5t-65 181.5q0 95 44 158t114 86v12q-80 47 -80 149q0 62 28.5 107.5t77.5 62.5zM535 -41q-113 0 -168 18q-46 -25 -72.5 -65.5t-26.5 -87.5q0 -166 289 -166q285 0 285 166q0 74 -66 104.5t-241 30.5zM322 670
q0 -94 51 -145.5t149 -51.5q97 0 149 52.5t52 144.5q0 91 -52.5 141.5t-148.5 50.5q-98 0 -149 -50.5t-51 -141.5zM528 1450q62 0 99 -35.5t37 -99.5q0 -63 -37.5 -98t-100.5 -35q-65 0 -100 34t-35 97q0 65 37 101t100 36z" />
    <glyph glyph-name="Gcommaaccent" unicode="&#x122;" horiz-adv-x="1464" 
d="M1331 68q-95 -49 -231 -82t-277 -33q-340 0 -527 194t-187 547q0 377 208 584t562 207q224 0 346 -70q27 -41 41 -107t8 -122q-172 82 -369 82q-255 0 -400 -137.5t-145 -423.5q0 -272 132 -404.5t362 -132.5q145 0 250 43v387h-324q-16 37 -16 102q0 66 16 103h551v-737
zM711 -150q80 50 223 50q-6 -116 -42 -248.5t-79 -210.5q-114 9 -168 76q53 149 66 333z" />
    <glyph glyph-name="gcommaaccent" unicode="&#x123;" horiz-adv-x="1091" 
d="M229 360v13q-125 92 -125 297q0 180 114 276t304 96q126 0 213 -41h289q31 -70 31 -176h-156v-8q41 -52 41 -158q0 -173 -109 -269.5t-305 -96.5q-87 0 -137 20q-37 -27 -37 -80q0 -48 56 -65.5t180 -17.5q88 0 155.5 -7.5t129.5 -28.5t102 -55t64 -90.5t24 -132.5
q0 -364 -524 -364q-149 0 -256.5 30t-172.5 101.5t-65 181.5q0 95 44 158t114 86v12q-80 47 -80 149q0 62 28.5 107.5t77.5 62.5zM535 -41q-113 0 -168 18q-46 -25 -72.5 -65.5t-26.5 -87.5q0 -166 289 -166q285 0 285 166q0 74 -66 104.5t-241 30.5zM322 670
q0 -94 51 -145.5t149 -51.5q97 0 149 52.5t52 144.5q0 91 -52.5 141.5t-148.5 50.5q-98 0 -149 -50.5t-51 -141.5zM424 1180q6 90 32 184t62 164q71 47 197 47q-66 -177 -80 -385q-52 -25 -123 -25q-62 0 -88 15z" />
    <glyph glyph-name="Hcircumflex" unicode="&#x124;" horiz-adv-x="1556" 
d="M1122 12v621h-688v-621q-33 -20 -123 -20q-88 0 -121 20v1413q35 21 121 21q89 0 123 -21v-579h688v579q34 21 121 21q89 0 123 -21v-1413q-33 -20 -123 -20q-88 0 -121 20zM776 1698l-301 -158q-59 56 -59 154l248 164q40 16 112 16q73 0 113 -16l258 -177
q-12 -100 -84 -145z" />
    <glyph glyph-name="hcircumflex" unicode="&#x125;" horiz-adv-x="1216" 
d="M285 1694l-285 -150q-42 54 -45 148l223 145q65 21 184 21l271 -183q-15 -84 -78 -133zM395 690v-678q-35 -18 -119 -18q-82 0 -116 18v1454q80 50 235 50v-367q0 -157 -22 -283h12q84 176 336 176q54 0 99 -8t93 -33t81 -66.5t54 -113.5t21 -168v-641q-35 -18 -119 -18
q-82 0 -116 18v596q0 109 -44 164t-149 55q-170 0 -246 -137z" />
    <glyph glyph-name="Hbar" unicode="&#x126;" horiz-adv-x="1568" 
d="M1128 12v561h-688v-561q-33 -20 -123 -20q-87 0 -120 20v979h-150q-16 33 -16 99q0 65 16 98h150v237q35 21 120 21q89 0 123 -21v-247h688v247q34 21 121 21q89 0 123 -21v-237h150q16 -33 16 -98q0 -66 -16 -99h-150v-979q-33 -20 -123 -20q-88 0 -121 20zM440 786h688
v215h-688v-215z" />
    <glyph glyph-name="hbar" unicode="&#x127;" horiz-adv-x="1222" 
d="M41 1309h123v157q80 50 235 50v-207h349q16 -19 16 -86t-16 -86h-349v-27q0 -151 -22 -274h12q84 176 336 176q54 0 99 -8t93 -33t81 -66.5t54 -113.5t21 -168v-611q-35 -18 -119 -18q-82 0 -116 18v566q0 109 -44 164t-149 55q-170 0 -246 -138v-647q-35 -18 -118 -18
t-117 18v1125h-152q0 106 29 172z" />
    <glyph glyph-name="Itilde" unicode="&#x128;" horiz-adv-x="624" 
d="M190 12v1413q35 21 121 21q89 0 123 -21v-1413q-33 -20 -123 -20q-88 0 -121 20zM-102 1632q14 97 82.5 160t181.5 63q50 0 95.5 -16t73.5 -35t65.5 -35t74.5 -16q42 0 71 23.5t38 62.5q90 0 147 -43q-13 -100 -81.5 -166.5t-190.5 -66.5q-47 0 -90 16t-71 35t-68 35
t-81 16q-80 0 -108 -90q-95 7 -139 57z" />
    <glyph glyph-name="itilde" unicode="&#x129;" horiz-adv-x="555" 
d="M160 12v977q36 19 116 19q83 0 119 -19v-977q-35 -18 -119 -18q-82 0 -116 18zM629 1384q-5 -98 -62 -158.5t-153 -60.5q-43 0 -82.5 14.5t-64 31.5t-56 31.5t-61.5 14.5q-71 0 -91 -83q-38 3 -77 26.5t-56 54.5q15 83 72.5 134t140.5 51q58 0 107 -23t88 -46t72 -23
q70 0 79 79q88 0 144 -43z" />
    <glyph glyph-name="Imacron" unicode="&#x12a;" horiz-adv-x="624" 
d="M190 12v1413q35 21 121 21q89 0 123 -21v-1413q-33 -20 -123 -20q-88 0 -121 20zM47 1796h531q16 -27 16 -90q0 -61 -16 -92h-531q-16 31 -16 92q0 63 16 90z" />
    <glyph glyph-name="imacron" unicode="&#x12b;" horiz-adv-x="555" 
d="M160 12v977q36 19 116 19q83 0 119 -19v-977q-35 -18 -119 -18q-82 0 -116 18zM47 1382h469q16 -26 16 -86t-16 -86h-498q0 96 29 172z" />
    <glyph glyph-name="Ibreve" unicode="&#x12c;" horiz-adv-x="624" 
d="M190 12v1413q35 21 121 21q89 0 123 -21v-1413q-33 -20 -123 -20q-88 0 -121 20zM530 1886q99 0 154 -45q-26 -129 -123.5 -204.5t-257.5 -75.5q-151 0 -239 69.5t-107 198.5q54 57 164 63q19 -83 66.5 -121t129.5 -38t132.5 37.5t80.5 115.5z" />
    <glyph glyph-name="ibreve" unicode="&#x12d;" horiz-adv-x="555" 
d="M115 1516q14 -189 168 -189q146 0 182 178q92 0 149 -45q-21 -142 -109.5 -223.5t-234.5 -81.5q-139 0 -219.5 76t-99.5 215q24 28 69 47.5t95 22.5zM160 12v977q36 19 116 19q83 0 119 -19v-977q-35 -18 -119 -18q-82 0 -116 18z" />
    <glyph glyph-name="Iogonek" unicode="&#x12e;" horiz-adv-x="624" 
d="M399 -315q22 -26 36 -71t14 -89q-61 -25 -148 -25q-122 0 -199 57.5t-77 176.5q0 86 41 155t124 107v1429q35 21 121 21q89 0 123 -21v-1417q-91 -47 -140.5 -107.5t-49.5 -121.5q0 -51 30.5 -77t79.5 -26q24 0 45 9z" />
    <glyph glyph-name="iogonek" unicode="&#x12f;" horiz-adv-x="555" 
d="M279 1493q67 0 106 -39.5t39 -110.5q0 -70 -40 -108.5t-108 -38.5q-69 0 -107 38t-38 107q0 71 40.5 111.5t107.5 40.5zM393 -293q20 -27 33.5 -70.5t13.5 -85.5q-55 -24 -143 -24q-76 0 -135 21.5t-97 74t-38 131.5q0 87 41 148.5t122 85.5v12q-19 5 -30 12v977
q36 19 116 19q83 0 119 -19v-979q-73 -43 -113 -99.5t-40 -111.5q0 -49 29 -74.5t77 -25.5q26 0 45 8z" />
    <glyph glyph-name="Idotaccent" unicode="&#x130;" horiz-adv-x="624" 
d="M190 12v1413q35 21 121 21q89 0 123 -21v-1413q-33 -20 -123 -20q-88 0 -121 20zM313 1851q66 0 104 -36.5t38 -102.5t-39 -101.5t-105 -35.5q-68 0 -104.5 34.5t-36.5 100.5q0 68 38.5 104.5t104.5 36.5z" />
    <glyph glyph-name="dotlessi" unicode="&#x131;" horiz-adv-x="555" 
d="M160 12v977q36 19 116 19q83 0 119 -19v-977q-35 -18 -119 -18q-82 0 -116 18z" />
    <glyph glyph-name="IJ" unicode="&#x132;" horiz-adv-x="1323" 
d="M190 12v1413q35 21 121 21q89 0 123 -21v-1413q-33 -20 -123 -20q-88 0 -121 20zM1137 1425v-1112q0 -275 -105 -451t-323 -282q-46 28 -75.5 78.5t-37.5 112.5q160 87 228.5 207t68.5 309v1138q35 21 121 21q88 0 123 -21z" />
    <glyph glyph-name="ij" unicode="&#x133;" horiz-adv-x="1122" 
d="M160 12v977q36 19 116 19q83 0 119 -19v-977q-35 -18 -119 -18q-82 0 -116 18zM279 1493q67 0 106 -39.5t39 -110.5q0 -70 -40 -108.5t-108 -38.5q-69 0 -107 38t-38 107q0 71 40.5 111.5t107.5 40.5zM967 989v-739q0 -145 -20.5 -258t-63 -201.5t-97 -155t-133.5 -133.5
q-46 13 -84.5 53t-56.5 91q110 96 164.5 217t54.5 319v807q36 19 117 19q83 0 119 -19zM848 1493q67 0 106 -39.5t39 -110.5t-40 -109t-107 -38q-69 0 -107.5 38t-38.5 107q0 71 40.5 111.5t107.5 40.5z" />
    <glyph glyph-name="Jcircumflex" unicode="&#x134;" horiz-adv-x="698" 
d="M512 1425v-1112q0 -275 -105 -451t-323 -282q-46 28 -75.5 78.5t-37.5 112.5q160 87 228.5 207t68.5 309v1138q35 21 121 21q89 0 123 -21zM381 1698l-301 -158q-60 57 -60 154l248 164q40 16 113 16t113 -16l258 -177q-12 -100 -84 -145z" />
    <glyph glyph-name="jcircumflex" unicode="&#x135;" horiz-adv-x="567" 
d="M-31 1272l219 250q60 24 181 24l256 -303q-36 -79 -125 -104l-217 229l-230 -240q-68 54 -84 144zM412 989v-739q0 -145 -20.5 -258t-63 -201.5t-97 -155t-133.5 -133.5q-46 13 -84.5 53t-56.5 91q110 96 164.5 217t54.5 319v807q36 19 117 19q83 0 119 -19z" />
    <glyph glyph-name="Kcommaaccent" unicode="&#x136;" horiz-adv-x="1355" 
d="M190 12v1413q35 21 121 21q89 0 123 -21v-585h158l414 583q52 23 145 23q89 0 127 -23l-492 -686l539 -721q-27 -24 -139 -24q-108 0 -158 24l-450 613h-144v-617q-33 -20 -123 -20q-88 0 -121 20zM643 -150q80 50 223 50q-6 -116 -42 -248.5t-79 -210.5q-113 9 -167 76
q52 145 65 333z" />
    <glyph glyph-name="kcommaaccent" unicode="&#x137;" horiz-adv-x="1120" 
d="M395 1516v-877h125l271 358q35 15 100 15q106 0 151 -31l-333 -436q199 -318 385 -533q-33 -20 -133 -20q-118 0 -156 20q-157 193 -301 434h-109v-434q-35 -18 -119 -18q-82 0 -116 18v1454q80 50 235 50zM516 -141q77 47 213 47q-6 -110 -39.5 -232.5t-75.5 -197.5
q-110 9 -159 71q52 148 61 312z" />
    <glyph glyph-name="kgreenlandic" unicode="&#x138;" horiz-adv-x="1116" 
d="M160 12v977q36 19 116 19q83 0 119 -19v-383h127l285 391q35 15 98 15q105 0 150 -31l-346 -467q212 -316 381 -502q-33 -20 -134 -20q-115 0 -153 20q-133 149 -297 404h-111v-404q-35 -18 -119 -18q-82 0 -116 18z" />
    <glyph glyph-name="Lacute" unicode="&#x139;" horiz-adv-x="1177" 
d="M1102 0h-912v1425q35 21 121 21q89 0 123 -21v-1208h668q16 -37 16 -108q0 -72 -16 -109zM602 1909q37 -31 58.5 -84.5t21.5 -108.5l-481 -186q-51 54 -51 160z" />
    <glyph glyph-name="lacute" unicode="&#x13a;" horiz-adv-x="630" 
d="M537 1898q72 -66 75 -180l-456 -176q-39 55 -39 154zM555 0q-64 -41 -164 -41q-235 0 -235 277v1230q80 50 235 50v-1246q0 -59 21 -79.5t65 -20.5q72 0 127 39q9 -53 -6 -114.5t-43 -94.5z" />
    <glyph glyph-name="Lcommaaccent" unicode="&#x13b;" horiz-adv-x="1177" 
d="M1102 0h-912v1425q35 21 121 21q89 0 123 -21v-1208h668q16 -37 16 -108q0 -72 -16 -109zM580 -150q80 50 223 50q-6 -116 -42 -248.5t-79 -210.5q-114 9 -168 76q53 149 66 333z" />
    <glyph glyph-name="lcommaaccent" unicode="&#x13c;" horiz-adv-x="630" 
d="M555 0q-64 -41 -164 -41q-235 0 -235 277v1230q80 50 235 50v-1246q0 -59 21 -79.5t65 -20.5q72 0 127 39q9 -53 -6 -114.5t-43 -94.5zM279 -141q77 47 213 47q-6 -110 -39.5 -232.5t-75.5 -197.5q-111 10 -160 71q53 151 62 312z" />
    <glyph glyph-name="Lcaron" unicode="&#x13d;" horiz-adv-x="1183" 
d="M1102 0h-912v1425q35 21 121 21q89 0 123 -21v-1208h668q16 -37 16 -108q0 -72 -16 -109zM805 1403q76 49 215 49q-6 -119 -41 -254.5t-78 -216.5q-55 5 -99.5 24t-66.5 48q63 202 70 350z" />
    <glyph glyph-name="lcaron" unicode="&#x13e;" horiz-adv-x="645" 
d="M555 0q-64 -41 -164 -41q-235 0 -235 277v1230q80 50 235 50v-1246q0 -59 21 -79.5t65 -20.5q72 0 127 39q9 -53 -6 -114.5t-43 -94.5zM754 1534q-6 -116 -41.5 -245t-79.5 -212q-104 9 -152 74q59 171 70 336q74 47 203 47z" />
    <glyph glyph-name="Ldot" unicode="&#x13f;" horiz-adv-x="1193" 
d="M1102 0h-912v1425q35 21 121 21q89 0 123 -21v-1208h668q16 -37 16 -108q0 -72 -16 -109zM903 915q65 0 103 -36t38 -103q0 -66 -38.5 -101.5t-104.5 -35.5q-68 0 -104.5 34.5t-36.5 100.5q0 68 38.5 104.5t104.5 36.5z" />
    <glyph glyph-name="ldot" unicode="&#x140;" horiz-adv-x="815" 
d="M555 0q-64 -41 -164 -41q-235 0 -235 277v1230q80 50 235 50v-1246q0 -59 21 -79.5t65 -20.5q72 0 127 39q9 -53 -6 -114.5t-43 -94.5zM678 723q62 0 98.5 -35.5t36.5 -99.5q0 -63 -37 -98t-100 -35q-65 0 -100 34t-35 97q0 65 37 101t100 36z" />
    <glyph glyph-name="Lslash" unicode="&#x141;" horiz-adv-x="1189" 
d="M1108 0h-911v547l-123 -70q-32 32 -51 82t-19 98l193 109v659q35 21 120 21q89 0 123 -21v-567l287 158q32 -28 56.5 -78t27.5 -96l-371 -203v-422h668q16 -37 16 -108q0 -72 -16 -109z" />
    <glyph glyph-name="lslash" unicode="&#x142;" horiz-adv-x="641" 
d="M561 0q-64 -41 -164 -41q-235 0 -235 277v319l-121 -68q-20 31 -32.5 82.5t-12.5 102.5l166 96v698q80 50 235 50v-660l127 74q71 -68 84 -166l-211 -117v-377q0 -59 21 -79.5t65 -20.5q72 0 127 39q9 -53 -6 -114.5t-43 -94.5z" />
    <glyph glyph-name="Nacute" unicode="&#x143;" horiz-adv-x="1556" 
d="M422 1202v-1190q-29 -20 -117 -20q-86 0 -115 20v1418q52 18 162 18q115 0 156 -18l481 -824q88 -151 133 -344h13v1163q30 21 114 21q87 0 117 -21v-1419q-49 -18 -154 -18q-111 0 -147 18l-506 864q-84 143 -125 332h-12zM1053 1909q37 -31 58.5 -84.5t21.5 -108.5
l-482 -186q-51 54 -51 160z" />
    <glyph glyph-name="nacute" unicode="&#x144;" horiz-adv-x="1206" 
d="M395 690v-678q-35 -18 -119 -18q-82 0 -116 18v971q67 37 190 37l15 -160h12q39 82 123.5 132t218.5 50q53 0 96.5 -8t90.5 -33t79 -66.5t53 -113.5t21 -168v-641q-35 -18 -119 -18q-82 0 -117 18v596q0 108 -42.5 163.5t-145.5 55.5q-166 0 -240 -137zM911 1481
l-333 -338q-85 21 -123 96l243 313q57 0 117.5 -19t95.5 -52z" />
    <glyph glyph-name="Ncommaaccent" unicode="&#x145;" horiz-adv-x="1556" 
d="M422 1202v-1190q-29 -20 -117 -20q-86 0 -115 20v1418q52 18 162 18q115 0 156 -18l481 -824q88 -151 133 -344h13v1163q30 21 114 21q87 0 117 -21v-1419q-49 -18 -154 -18q-111 0 -147 18l-506 864q-84 143 -125 332h-12zM692 -150q80 50 223 50q-6 -116 -41.5 -248.5
t-78.5 -210.5q-114 9 -168 76q52 145 65 333z" />
    <glyph glyph-name="ncommaaccent" unicode="&#x146;" horiz-adv-x="1206" 
d="M395 690v-678q-35 -18 -119 -18q-82 0 -116 18v971q67 37 190 37l15 -160h12q39 82 123.5 132t218.5 50q53 0 96.5 -8t90.5 -33t79 -66.5t53 -113.5t21 -168v-641q-35 -18 -119 -18q-82 0 -117 18v596q0 108 -42.5 163.5t-145.5 55.5q-166 0 -240 -137zM510 -141
q77 47 213 47q-6 -110 -39.5 -232.5t-75.5 -197.5q-110 9 -159 71q52 148 61 312z" />
    <glyph glyph-name="Ncaron" unicode="&#x147;" horiz-adv-x="1556" 
d="M422 1202v-1190q-29 -20 -117 -20q-86 0 -115 20v1418q52 18 162 18q115 0 156 -18l481 -824q88 -151 133 -344h13v1163q30 21 114 21q87 0 117 -21v-1419q-49 -18 -154 -18q-111 0 -147 18l-506 864q-84 143 -125 332h-12zM508 1898l268 -157l285 147q34 -18 59.5 -54
t32.5 -81l-266 -172q-40 -16 -111 -16q-70 0 -110 16l-263 182q20 93 105 135z" />
    <glyph glyph-name="ncaron" unicode="&#x148;" horiz-adv-x="1206" 
d="M395 690v-678q-35 -18 -119 -18q-82 0 -116 18v971q67 37 190 37l15 -160h12q39 82 123.5 132t218.5 50q53 0 96.5 -8t90.5 -33t79 -66.5t53 -113.5t21 -168v-641q-35 -18 -119 -18q-82 0 -117 18v596q0 108 -42.5 163.5t-145.5 55.5q-166 0 -240 -137zM528 1153
l-254 309q24 33 65.5 55t82.5 25l201 -215l213 223q78 -18 118 -96l-243 -280q-67 -21 -183 -21z" />
    <glyph glyph-name="napostrophe" unicode="&#x149;" horiz-adv-x="1280" 
d="M469 690v-678q-35 -18 -119 -18q-82 0 -117 18v971q67 37 191 37l14 -160h13q39 82 123.5 132t218.5 50q53 0 96.5 -8t90.5 -33t79 -66.5t53 -113.5t21 -168v-641q-35 -18 -119 -18q-82 0 -117 18v596q0 108 -42.5 163.5t-145.5 55.5q-166 0 -240 -137zM219 1505
q-6 -119 -42.5 -250.5t-82.5 -216.5q-105 9 -153 74q62 173 73 346q74 47 205 47z" />
    <glyph glyph-name="Eng" unicode="&#x14a;" horiz-adv-x="1566" 
d="M422 1202v-1190q-29 -20 -117 -20q-86 0 -115 20v1418q52 18 160 18q113 0 154 -18l495 -771q85 -136 136 -331h12v1097q30 21 115 21q86 0 116 -21v-1284q0 -260 -95 -428.5t-290 -271.5q-43 26 -71.5 75.5t-32.5 106.5q115 70 175 161t77 220l-576 889
q-90 139 -131 309h-12z" />
    <glyph glyph-name="eng" unicode="&#x14b;" horiz-adv-x="1204" 
d="M395 690v-678q-35 -18 -119 -18q-82 0 -116 18v971q67 37 190 37l15 -160h12q39 82 123.5 132t218.5 50q53 0 96.5 -8t90.5 -33t79 -66.5t53 -113.5t21 -168v-368q0 -133 -20 -238t-61.5 -187t-96 -145t-133.5 -125q-46 13 -86 54.5t-58 91.5q72 61 117 125t73.5 164.5
t28.5 232.5v350q0 108 -42.5 163.5t-145.5 55.5q-166 0 -240 -137z" />
    <glyph glyph-name="Omacron" unicode="&#x14c;" horiz-adv-x="1558" 
d="M778 1485q149 0 272 -49t211 -142t136.5 -236t48.5 -323q0 -375 -179 -578.5t-489 -203.5q-323 0 -494 197t-171 585q0 231 85.5 402t235 259.5t344.5 88.5zM365 735q0 -270 107.5 -417.5t305.5 -147.5q201 0 308.5 147.5t107.5 417.5q0 249 -113 393t-303 144
q-200 0 -306.5 -141.5t-106.5 -395.5zM399 1796h758q17 -28 17 -90q0 -59 -17 -92h-758q-16 31 -16 92q0 63 16 90z" />
    <glyph glyph-name="omacron" unicode="&#x14d;" horiz-adv-x="1163" 
d="M584 1042q225 0 355 -136t130 -390q0 -269 -128.5 -413t-356.5 -144q-238 0 -364 140.5t-126 416.5q0 246 133 386t357 140zM334 516q0 -173 63.5 -266.5t186.5 -93.5q122 0 183.5 94t61.5 266q0 154 -64.5 242t-180.5 88q-123 0 -186.5 -87t-63.5 -243zM262 1382h651
q17 -27 17 -86t-17 -86h-680q0 96 29 172z" />
    <glyph glyph-name="Obreve" unicode="&#x14e;" horiz-adv-x="1558" 
d="M778 1485q149 0 272 -49t211 -142t136.5 -236t48.5 -323q0 -375 -179 -578.5t-489 -203.5q-323 0 -494 197t-171 585q0 231 85.5 402t235 259.5t344.5 88.5zM365 735q0 -270 107.5 -417.5t305.5 -147.5q201 0 308.5 147.5t107.5 417.5q0 249 -113 393t-303 144
q-200 0 -306.5 -141.5t-106.5 -395.5zM999 1886q99 0 154 -45q-26 -129 -123.5 -204.5t-257.5 -75.5q-151 0 -239 69.5t-107 198.5q54 57 164 63q19 -83 66.5 -121t129.5 -38t132.5 37.5t80.5 115.5z" />
    <glyph glyph-name="obreve" unicode="&#x14f;" horiz-adv-x="1163" 
d="M584 1042q225 0 355 -136t130 -390q0 -269 -128.5 -413t-356.5 -144q-238 0 -364 140.5t-126 416.5q0 246 133 386t357 140zM334 516q0 -173 63.5 -266.5t186.5 -93.5q122 0 183.5 94t61.5 266q0 154 -64.5 242t-180.5 88q-123 0 -186.5 -87t-63.5 -243zM416 1516
q14 -189 168 -189q146 0 182 178q92 0 149 -45q-21 -142 -109.5 -223.5t-234.5 -81.5q-139 0 -219.5 76t-99.5 215q24 28 69 47.5t95 22.5z" />
    <glyph glyph-name="Ohungarumlaut" unicode="&#x150;" horiz-adv-x="1558" 
d="M778 1485q149 0 272 -49t211 -142t136.5 -236t48.5 -323q0 -375 -179 -578.5t-489 -203.5q-323 0 -494 197t-171 585q0 231 85.5 402t235 259.5t344.5 88.5zM365 735q0 -270 107.5 -417.5t305.5 -147.5q201 0 308.5 147.5t107.5 417.5q0 249 -113 393t-303 144
q-200 0 -306.5 -141.5t-106.5 -395.5zM561 1526q-81 38 -106 127l299 295q48 -12 87 -48t60 -85zM1018 1526q-82 39 -107 127l299 295q48 -12 87.5 -48t60.5 -85z" />
    <glyph glyph-name="ohungarumlaut" unicode="&#x151;" horiz-adv-x="1163" 
d="M584 1042q225 0 355 -136t130 -390q0 -269 -128.5 -413t-356.5 -144q-238 0 -364 140.5t-126 416.5q0 246 133 386t357 140zM334 516q0 -173 63.5 -266.5t186.5 -93.5q122 0 183.5 94t61.5 266q0 154 -64.5 242t-180.5 88q-123 0 -186.5 -87t-63.5 -243zM649 1497
l-248 -352q-89 9 -133 76l191 344q113 0 190 -68zM1067 1497l-248 -352q-89 9 -133 76l191 344q113 0 190 -68z" />
    <glyph glyph-name="OE" unicode="&#x152;" horiz-adv-x="2099" 
d="M1038 1438h930q17 -39 17 -105q0 -65 -17 -104h-690v-395h639q16 -37 16 -103q0 -67 -16 -104h-639v-416h707q16 -37 16 -105q0 -69 -16 -106h-949q-101 -37 -245 -37q-322 0 -502 195t-180 547q0 362 186.5 566t499.5 204q137 0 243 -37zM821 180q123 0 213 35v1006
q-103 39 -219 39q-226 0 -340.5 -142t-114.5 -405t115.5 -398t345.5 -135z" />
    <glyph glyph-name="oe" unicode="&#x153;" horiz-adv-x="1837" 
d="M963 856q33 84 130 135t234 51q206 0 311 -117.5t105 -316.5q0 -100 -27 -182h-653q15 -268 344 -268q179 0 317 71q5 -50 -12.5 -107.5t-46.5 -88.5q-125 -74 -313 -74q-138 0 -250 48.5t-148 131.5h-12q-31 -81 -127.5 -130.5t-230.5 -49.5q-238 0 -364 140.5
t-126 416.5q0 246 133 386t357 140q143 0 239.5 -50t126.5 -136h13zM334 516q0 -173 63.5 -266.5t186.5 -93.5q122 0 183.5 94t61.5 266q0 154 -64.5 242t-180.5 88q-123 0 -186.5 -87t-63.5 -243zM1063 606h455q6 49 -1.5 92t-29.5 80t-65.5 58.5t-104.5 21.5
q-112 0 -179 -68t-75 -184z" />
    <glyph glyph-name="Racute" unicode="&#x154;" horiz-adv-x="1366" 
d="M190 12v1409q162 39 402 39q629 0 629 -465q0 -155 -66 -260.5t-184 -156.5l352 -562q-27 -24 -133 -24t-152 24l-307 504q-18 -2 -61 -2q-119 0 -236 17v-523q-33 -20 -123 -20q-88 0 -121 20zM604 1249q-98 0 -170 -16v-490q75 -16 201 -16q336 0 336 252
q0 270 -367 270zM971 1909q37 -31 58.5 -84.5t21.5 -108.5l-482 -186q-51 54 -51 160z" />
    <glyph glyph-name="racute" unicode="&#x155;" horiz-adv-x="813" 
d="M379 838q60 204 272 204q65 0 103 -18q32 -59 32 -147q0 -64 -14 -99q-61 33 -129 33q-178 0 -248 -207v-592q-35 -18 -119 -18q-82 0 -116 18v971q67 37 190 37l17 -182h12zM788 1481l-333 -338q-85 21 -123 96l243 313q57 0 117.5 -19t95.5 -52z" />
    <glyph glyph-name="Rcommaaccent" unicode="&#x156;" horiz-adv-x="1366" 
d="M190 12v1409q162 39 402 39q629 0 629 -465q0 -155 -66 -260.5t-184 -156.5l352 -562q-27 -24 -133 -24t-152 24l-307 504q-18 -2 -61 -2q-119 0 -236 17v-523q-33 -20 -123 -20q-88 0 -121 20zM604 1249q-98 0 -170 -16v-490q75 -16 201 -16q336 0 336 252
q0 270 -367 270zM637 -150q80 50 223 50q-6 -116 -42 -248.5t-79 -210.5q-114 9 -168 76q53 149 66 333z" />
    <glyph glyph-name="rcommaaccent" unicode="&#x157;" horiz-adv-x="813" 
d="M379 838q60 204 272 204q65 0 103 -18q32 -59 32 -147q0 -64 -14 -99q-61 33 -129 33q-178 0 -248 -207v-592q-35 -18 -119 -18q-82 0 -116 18v971q67 37 190 37l17 -182h12zM168 -141q77 47 213 47q-6 -110 -39.5 -232.5t-75.5 -197.5q-111 10 -160 71q53 151 62 312z
" />
    <glyph glyph-name="Rcaron" unicode="&#x158;" horiz-adv-x="1366" 
d="M190 12v1409q162 39 402 39q629 0 629 -465q0 -155 -66 -260.5t-184 -156.5l352 -562q-27 -24 -133 -24t-152 24l-307 504q-18 -2 -61 -2q-119 0 -236 17v-523q-33 -20 -123 -20q-88 0 -121 20zM604 1249q-98 0 -170 -16v-490q75 -16 201 -16q336 0 336 252
q0 270 -367 270zM426 1898l268 -157l285 147q34 -18 59.5 -54t32.5 -81l-266 -172q-40 -16 -111 -16q-70 0 -110 16l-262 182q20 94 104 135z" />
    <glyph glyph-name="rcaron" unicode="&#x159;" horiz-adv-x="813" 
d="M379 838q60 204 272 204q65 0 103 -18q32 -59 32 -147q0 -64 -14 -99q-61 33 -129 33q-178 0 -248 -207v-592q-35 -18 -119 -18q-82 0 -116 18v971q67 37 190 37l17 -182h12zM397 1153l-254 309q24 33 65.5 55t82.5 25l201 -215l213 223q78 -18 118 -96l-243 -280
q-68 -21 -183 -21z" />
    <glyph glyph-name="Sacute" unicode="&#x15a;" 
d="M96 285q86 -54 211.5 -86.5t241.5 -32.5q289 0 289 213q0 69 -39 118.5t-101 79.5t-137 55.5t-150.5 58t-137.5 76t-101 120t-39 180.5q0 202 126 310t353 108q212 0 355 -92q29 -44 42 -112.5t3 -125.5q-178 121 -385 121q-123 0 -185.5 -46t-62.5 -130q0 -52 24 -91.5
t64.5 -66t93.5 -49t111 -43t116 -44t111 -58t93.5 -78t64.5 -110t24 -150.5q0 -101 -27.5 -179.5t-75.5 -130t-116.5 -85.5t-146 -48t-168.5 -14q-249 0 -406 88q-30 46 -42 116.5t-3 127.5zM862 1909q37 -31 58.5 -84.5t21.5 -108.5l-481 -186q-51 54 -51 160z" />
    <glyph glyph-name="sacute" unicode="&#x15b;" horiz-adv-x="929" 
d="M96 244q60 -42 154.5 -68t179.5 -26q180 0 180 118q0 40 -26.5 69.5t-69 49t-94.5 38t-103.5 43t-94 56.5t-69 86t-26.5 125q0 148 91.5 227.5t262.5 79.5q165 0 275 -69q27 -35 39.5 -101t1.5 -114q-135 96 -291 96q-144 0 -144 -96q0 -37 26.5 -64.5t69.5 -46
t94.5 -36.5t103 -42.5t94.5 -57t69.5 -87.5t26.5 -127q0 -119 -55 -196.5t-144.5 -109.5t-212.5 -32q-186 0 -299 61q-28 40 -39.5 111.5t0.5 112.5zM776 1481l-334 -338q-85 21 -123 96l244 313q57 0 117.5 -19t95.5 -52z" />
    <glyph glyph-name="Scircumflex" unicode="&#x15c;" 
d="M96 285q86 -54 211.5 -86.5t241.5 -32.5q289 0 289 213q0 69 -39 118.5t-101 79.5t-137 55.5t-150.5 58t-137.5 76t-101 120t-39 180.5q0 202 126 310t353 108q212 0 355 -92q29 -44 42 -112.5t3 -125.5q-178 121 -385 121q-123 0 -185.5 -46t-62.5 -130q0 -52 24 -91.5
t64.5 -66t93.5 -49t111 -43t116 -44t111 -58t93.5 -78t64.5 -110t24 -150.5q0 -101 -27.5 -179.5t-75.5 -130t-116.5 -85.5t-146 -48t-168.5 -14q-249 0 -406 88q-30 46 -42 116.5t-3 127.5zM594 1698l-301 -158q-60 57 -60 154l248 164q40 16 113 16t113 -16l258 -177
q-12 -100 -84 -145z" />
    <glyph glyph-name="scircumflex" unicode="&#x15d;" horiz-adv-x="929" 
d="M96 244q60 -42 154.5 -68t179.5 -26q180 0 180 118q0 40 -26.5 69.5t-69 49t-94.5 38t-103.5 43t-94 56.5t-69 86t-26.5 125q0 148 91.5 227.5t262.5 79.5q165 0 275 -69q27 -35 39.5 -101t1.5 -114q-135 96 -291 96q-144 0 -144 -96q0 -37 26.5 -64.5t69.5 -46
t94.5 -36.5t103 -42.5t94.5 -57t69.5 -87.5t26.5 -127q0 -119 -55 -196.5t-144.5 -109.5t-212.5 -32q-186 0 -299 61q-28 40 -39.5 111.5t0.5 112.5zM162 1272l219 250q60 24 180 24l256 -303q-36 -79 -125 -104l-217 229l-229 -240q-68 54 -84 144z" />
    <glyph glyph-name="Scedilla" unicode="&#x15e;" 
d="M428 -190l45 145q-197 12 -332 86q-30 46 -42 116.5t-3 127.5q86 -54 211.5 -86.5t241.5 -32.5q289 0 289 213q0 69 -39 118.5t-101 79.5t-137 55.5t-150.5 58t-137.5 76t-101 120t-39 180.5q0 202 126 310t353 108q212 0 355 -92q29 -44 42 -112.5t3 -125.5
q-178 121 -385 121q-123 0 -185.5 -46t-62.5 -130q0 -52 24 -91.5t64.5 -66t93.5 -49t111 -43t116 -44t111 -58t93.5 -78t64.5 -110t24 -150.5q0 -110 -32 -193t-91 -135.5t-134 -82t-169 -40.5l-14 -65q135 -47 135 -183q0 -104 -75.5 -168.5t-190.5 -83.5q-86 41 -119 125
q73 8 118.5 39.5t45.5 81.5q0 41 -36 68t-91 37z" />
    <glyph glyph-name="scedilla" unicode="&#x15f;" horiz-adv-x="929" 
d="M797 758q-135 96 -291 96q-144 0 -144 -96q0 -37 26.5 -64.5t69.5 -46t94.5 -36.5t103 -42.5t94.5 -57t69.5 -87.5t26.5 -127q0 -283 -305 -332l-15 -65q125 -43 125 -168q0 -96 -70.5 -157t-177.5 -77q-83 38 -112 119q67 8 109 36.5t42 72.5q0 36 -32.5 60t-83.5 34
l45 141q-149 11 -236 59q-28 40 -39.5 111.5t0.5 112.5q60 -42 154.5 -68t179.5 -26q180 0 180 118q0 40 -26.5 69.5t-69 49t-94.5 38t-103.5 43t-94 56.5t-69 86t-26.5 125q0 148 91.5 227.5t262.5 79.5q165 0 275 -69q27 -35 39.5 -101t1.5 -114z" />
    <glyph glyph-name="Scaron" unicode="&#x160;" 
d="M96 285q86 -54 211.5 -86.5t241.5 -32.5q289 0 289 213q0 69 -39 118.5t-101 79.5t-137 55.5t-150.5 58t-137.5 76t-101 120t-39 180.5q0 202 126 310t353 108q212 0 355 -92q29 -44 42 -112.5t3 -125.5q-178 121 -385 121q-123 0 -185.5 -46t-62.5 -130q0 -52 24 -91.5
t64.5 -66t93.5 -49t111 -43t116 -44t111 -58t93.5 -78t64.5 -110t24 -150.5q0 -101 -27.5 -179.5t-75.5 -130t-116.5 -85.5t-146 -48t-168.5 -14q-249 0 -406 88q-30 46 -42 116.5t-3 127.5zM322 1898l268 -157l284 147q34 -18 60 -54t33 -81l-267 -172q-40 -16 -110 -16
q-71 0 -111 16l-262 182q20 93 105 135z" />
    <glyph glyph-name="scaron" unicode="&#x161;" horiz-adv-x="929" 
d="M96 244q60 -42 154.5 -68t179.5 -26q180 0 180 118q0 40 -26.5 69.5t-69 49t-94.5 38t-103.5 43t-94 56.5t-69 86t-26.5 125q0 148 91.5 227.5t262.5 79.5q165 0 275 -69q27 -35 39.5 -101t1.5 -114q-135 96 -291 96q-144 0 -144 -96q0 -37 26.5 -64.5t69.5 -46
t94.5 -36.5t103 -42.5t94.5 -57t69.5 -87.5t26.5 -127q0 -119 -55 -196.5t-144.5 -109.5t-212.5 -32q-186 0 -299 61q-28 40 -39.5 111.5t0.5 112.5zM387 1153l-254 309q24 33 65.5 55t82.5 25l200 -215l213 223q79 -18 119 -96l-244 -280q-67 -21 -182 -21z" />
    <glyph glyph-name="Tcommaaccent" unicode="&#x162;" horiz-adv-x="1210" 
d="M459 -190l61 188q-23 3 -37 14v1211h-428q-18 37 -18 108q0 69 18 107h1100q19 -40 19 -107q0 -68 -19 -108h-428v-1211q-12 -9 -35 -12l-20 -106q135 -47 135 -183q0 -104 -75.5 -168.5t-190.5 -83.5q-86 41 -119 125q73 8 118.5 39.5t45.5 81.5q0 41 -36 68t-91 37z
" />
    <glyph glyph-name="tcommaaccent" unicode="&#x163;" horiz-adv-x="798" 
d="M344 -180l47 149q-107 24 -154 107.5t-47 228.5v492h-155q0 128 33 204h122v224q78 66 236 69v-293h285q16 -32 16 -102t-16 -102h-285v-459q0 -84 29.5 -124t111.5 -40q107 0 195 66q7 -55 -9 -120.5t-44 -99.5q-61 -43 -150 -57l-14 -63q125 -43 125 -168
q0 -96 -70.5 -157t-177.5 -77q-85 38 -113 119q67 8 109.5 36.5t42.5 72.5q0 36 -33 60t-84 34z" />
    <glyph glyph-name="Tcaron" unicode="&#x164;" horiz-adv-x="1210" 
d="M1155 1223h-428v-1211q-33 -20 -123 -20q-88 0 -121 20v1211h-428q-18 37 -18 108q0 69 18 107h1100q19 -40 19 -107q0 -68 -19 -108zM334 1898l268 -157l285 147q34 -18 59.5 -54t32.5 -81l-266 -172q-40 -16 -111 -16q-70 0 -110 16l-263 182q20 93 105 135z" />
    <glyph glyph-name="tcaron" unicode="&#x165;" horiz-adv-x="808" 
d="M426 1001h285q16 -32 16 -102t-16 -102h-285v-459q0 -84 29.5 -124t111.5 -40q107 0 195 66q7 -55 -9 -120.5t-44 -99.5q-86 -61 -220 -61q-161 0 -230 86.5t-69 259.5v492h-155q0 128 33 204h122v224q78 66 236 69v-293zM678 1470q76 48 207 48q-6 -109 -37.5 -228
t-71.5 -192q-106 9 -153 73q46 137 55 299z" />
    <glyph glyph-name="Tbar" unicode="&#x166;" horiz-adv-x="1218" 
d="M1159 1438q19 -40 19 -107q0 -68 -19 -108h-428v-422h283q16 -33 16 -96q0 -64 -16 -97h-283v-596q-33 -20 -123 -20q-88 0 -121 20v596h-282q-17 35 -17 97q0 61 17 96h282v422h-428q-18 37 -18 108q0 69 18 107h1100z" />
    <glyph glyph-name="tbar" unicode="&#x167;" horiz-adv-x="806" 
d="M80 600h115v197h-156q0 128 33 204h123v224q78 66 235 69v-293h285q16 -32 16 -102t-16 -102h-285v-197h240q14 -21 14 -80t-14 -80h-240v-102q0 -84 29.5 -124t111.5 -40q107 0 195 66q7 -55 -9 -120.5t-44 -99.5q-86 -61 -219 -61q-161 0 -230 86.5t-69 259.5v135h-142
q0 94 27 160z" />
    <glyph glyph-name="Utilde" unicode="&#x168;" horiz-adv-x="1497" 
d="M416 1425v-888q0 -187 80 -275t249 -88q351 0 351 369v882q34 21 118 21t119 -21v-866q0 -292 -145 -449t-449 -157q-567 0 -567 561v911q34 21 121 21q89 0 123 -21zM340 1632q14 97 82.5 160t181.5 63q50 0 95.5 -16t73.5 -35t65.5 -35t74.5 -16q42 0 71 23.5t38 62.5
q90 0 147 -43q-13 -100 -81.5 -166.5t-190.5 -66.5q-47 0 -90 16t-70.5 35t-67.5 35t-81 16q-81 0 -109 -90q-95 7 -139 57z" />
    <glyph glyph-name="utilde" unicode="&#x169;" horiz-adv-x="1198" 
d="M827 117h-12q-81 -158 -323 -158q-55 0 -99.5 8.5t-92 33.5t-80 67t-53 114.5t-20.5 169.5v619q83 47 236 47v-629q0 -108 41.5 -160.5t144.5 -52.5q157 0 234 109v704q36 19 117 19q82 0 118 -19v-971q-62 -36 -182 -36zM952 1384q-5 -98 -62 -158.5t-153 -60.5
q-43 0 -82.5 14.5t-64 31.5t-56 31.5t-61.5 14.5q-70 0 -90 -83q-38 3 -77 26.5t-56 54.5q15 83 72.5 134t140.5 51q46 0 87 -14.5t66 -31.5t55.5 -31.5t57.5 -14.5q71 0 80 79q87 0 143 -43z" />
    <glyph glyph-name="Umacron" unicode="&#x16a;" horiz-adv-x="1497" 
d="M416 1425v-888q0 -187 80 -275t249 -88q351 0 351 369v882q34 21 118 21t119 -21v-866q0 -292 -145 -449t-449 -157q-567 0 -567 561v911q34 21 121 21q89 0 123 -21zM432 1796h647q17 -28 17 -90q0 -59 -17 -92h-647q-16 31 -16 92q0 63 16 90z" />
    <glyph glyph-name="umacron" unicode="&#x16b;" horiz-adv-x="1198" 
d="M827 117h-12q-81 -158 -323 -158q-55 0 -99.5 8.5t-92 33.5t-80 67t-53 114.5t-20.5 169.5v619q83 47 236 47v-629q0 -108 41.5 -160.5t144.5 -52.5q157 0 234 109v704q36 19 117 19q82 0 118 -19v-971q-62 -36 -182 -36zM315 1382h584q16 -26 16 -86t-16 -86h-612
q0 99 28 172z" />
    <glyph glyph-name="Ubreve" unicode="&#x16c;" horiz-adv-x="1497" 
d="M416 1425v-888q0 -187 80 -275t249 -88q351 0 351 369v882q34 21 118 21t119 -21v-866q0 -292 -145 -449t-449 -157q-567 0 -567 561v911q34 21 121 21q89 0 123 -21zM975 1886q98 0 153 -45q-26 -129 -123 -204.5t-257 -75.5q-151 0 -239.5 69.5t-107.5 198.5
q54 57 164 63q19 -83 67 -121t130 -38t132.5 37.5t80.5 115.5z" />
    <glyph glyph-name="ubreve" unicode="&#x16d;" horiz-adv-x="1198" 
d="M827 117h-12q-81 -158 -323 -158q-55 0 -99.5 8.5t-92 33.5t-80 67t-53 114.5t-20.5 169.5v619q83 47 236 47v-629q0 -108 41.5 -160.5t144.5 -52.5q157 0 234 109v704q36 19 117 19q82 0 118 -19v-971q-62 -36 -182 -36zM440 1516q14 -189 168 -189q147 0 183 178
q92 0 149 -45q-21 -142 -109.5 -223.5t-234.5 -81.5q-139 0 -220 76t-100 215q24 28 69 47.5t95 22.5z" />
    <glyph glyph-name="Uring" unicode="&#x16e;" horiz-adv-x="1497" 
d="M416 1425v-888q0 -187 80 -275t249 -88q351 0 351 369v882q34 21 118 21t119 -21v-866q0 -292 -145 -449t-449 -157q-567 0 -567 561v911q34 21 121 21q89 0 123 -21zM756 1987q118 0 188 -62.5t70 -171.5q0 -113 -70.5 -173t-187.5 -60q-124 0 -191 59.5t-67 173.5
q0 104 71 169t187 65zM756 1855q-47 0 -77 -28t-30 -74q0 -50 29 -76t78 -26q45 0 75.5 26.5t30.5 75.5q0 48 -29.5 75t-76.5 27z" />
    <glyph glyph-name="uring" unicode="&#x16f;" horiz-adv-x="1198" 
d="M827 117h-12q-81 -158 -323 -158q-55 0 -99.5 8.5t-92 33.5t-80 67t-53 114.5t-20.5 169.5v619q83 47 236 47v-629q0 -108 41.5 -160.5t144.5 -52.5q157 0 234 109v704q36 19 117 19q82 0 118 -19v-971q-62 -36 -182 -36zM602 1581q110 0 174 -59t64 -162
q0 -106 -64.5 -163.5t-173.5 -57.5q-116 0 -176.5 56.5t-60.5 164.5q0 99 64.5 160t172.5 61zM602 1456q-45 0 -72.5 -26t-27.5 -70q0 -46 26.5 -71t73.5 -25q43 0 71.5 25.5t28.5 70.5t-27.5 70.5t-72.5 25.5z" />
    <glyph glyph-name="Uhungarumlaut" unicode="&#x170;" horiz-adv-x="1497" 
d="M416 1425v-888q0 -187 80 -275t249 -88q351 0 351 369v882q34 21 118 21t119 -21v-866q0 -292 -145 -449t-449 -157q-567 0 -567 561v911q34 21 121 21q89 0 123 -21zM537 1526q-82 39 -107 127l299 295q48 -12 87.5 -48t60.5 -85zM993 1526q-81 38 -106 127l299 295
q48 -12 87 -48t60 -85z" />
    <glyph glyph-name="uhungarumlaut" unicode="&#x171;" horiz-adv-x="1198" 
d="M827 117h-12q-81 -158 -323 -158q-55 0 -99.5 8.5t-92 33.5t-80 67t-53 114.5t-20.5 169.5v619q83 47 236 47v-629q0 -108 41.5 -160.5t144.5 -52.5q157 0 234 109v704q36 19 117 19q82 0 118 -19v-971q-62 -36 -182 -36zM668 1497l-248 -352q-89 9 -133 76l190 344
q114 0 191 -68zM1085 1497l-247 -352q-89 9 -133 76l190 344q113 0 190 -68z" />
    <glyph glyph-name="Uogonek" unicode="&#x172;" horiz-adv-x="1497" 
d="M1001 -315q22 -26 36 -71t14 -89q-61 -25 -148 -25q-122 0 -199 57.5t-77 176.5q0 76 33.5 130t87.5 77v12q-291 0 -433.5 140.5t-142.5 420.5v911q34 21 121 21q89 0 123 -21v-888q0 -187 80 -275t249 -88q351 0 351 369v882q34 21 118 21t119 -21v-866
q0 -88 -14 -166.5t-43.5 -149t-80.5 -127t-120 -91.5q-47 -24 -83.5 -46.5t-72 -53t-54.5 -68t-19 -78.5q0 -51 30.5 -77t79.5 -26q24 0 45 9z" />
    <glyph glyph-name="uogonek" unicode="&#x173;" horiz-adv-x="1198" 
d="M827 117h-12q-81 -158 -323 -158q-55 0 -99.5 8.5t-92 33.5t-80 67t-53 114.5t-20.5 169.5v619q83 47 236 47v-629q0 -108 41.5 -160.5t144.5 -52.5q157 0 234 109v704q36 19 117 19q82 0 118 -19v-981q-72 -44 -111.5 -99t-39.5 -110q0 -49 29 -74.5t77 -25.5q26 0 45 8
q20 -27 33.5 -70.5t13.5 -85.5q-56 -24 -143 -24q-76 0 -135 21.5t-97 74t-38 131.5q0 84 45 152t133 102z" />
    <glyph glyph-name="Wcircumflex" unicode="&#x174;" horiz-adv-x="2009" 
d="M1442 160h12q16 183 47 321l221 942q34 23 115 23q86 0 117 -23l-346 -1419q-49 -18 -166 -18q-119 0 -168 18l-207 926q-39 170 -57 352h-13q-15 -174 -57 -356l-217 -922q-49 -18 -168 -18q-117 0 -166 18l-332 1419q31 23 123 23q85 0 123 -23l211 -940
q29 -135 45 -323h12q11 160 47 323l224 953q49 18 168 18t168 -18l208 -949q44 -210 56 -327zM1001 1698l-301 -158q-59 56 -59 154l248 164q40 16 112 16q73 0 113 -16l258 -177q-12 -100 -84 -145z" />
    <glyph glyph-name="wcircumflex" unicode="&#x175;" horiz-adv-x="1638" 
d="M1174 172h12q26 193 61 322l137 501q30 17 93 17q81 0 127 -31l-273 -971q-104 -35 -293 -35l-147 533q-50 174 -64 315h-12q-17 -167 -63 -317l-148 -496q-106 -35 -291 -35l-276 1006q46 31 131 31q64 0 94 -17l137 -497q43 -160 62 -326h12q12 145 51 289l150 518
q109 41 299 41l145 -567q38 -151 56 -281zM504 1272l219 250q60 24 180 24l256 -303q-36 -79 -125 -104l-217 229l-229 -240q-68 54 -84 144z" />
    <glyph glyph-name="Ycircumflex" unicode="&#x176;" horiz-adv-x="1239" 
d="M500 508l-477 915q31 23 133 23q91 0 129 -23l237 -450q65 -124 103 -289h12q31 164 96 291l234 448q38 23 125 23q96 0 127 -23l-476 -913v-498q-33 -20 -122 -20q-88 0 -121 20v496zM621 1698l-302 -158q-59 56 -59 154l248 164q40 16 113 16q72 0 112 -16l258 -177
q-12 -100 -84 -145z" />
    <glyph glyph-name="ycircumflex" unicode="&#x177;" horiz-adv-x="1048" 
d="M543 139h12q17 154 53 262l191 594q34 17 100 17q90 0 133 -31l-153 -451q-71 -212 -129.5 -362.5t-122.5 -263.5q-87 -153 -204.5 -251.5t-287.5 -152.5q-40 31 -68 84.5t-34 110.5q243 66 373 280l-386 1006q43 31 140 31q66 0 100 -17l223 -598q39 -103 60 -258z
M223 1272l219 250q60 24 181 24l256 -303q-36 -79 -125 -104l-217 229l-230 -240q-68 54 -84 144z" />
    <glyph glyph-name="Ydieresis" unicode="&#x178;" horiz-adv-x="1239" 
d="M500 508l-477 915q31 23 133 23q91 0 129 -23l237 -450q65 -124 103 -289h12q31 164 96 291l234 448q38 23 125 23q96 0 127 -23l-476 -913v-498q-33 -20 -122 -20q-88 0 -121 20v496zM885 1823q61 0 96 -34.5t35 -96.5t-36 -95.5t-97 -33.5q-63 0 -97 33t-34 94
q0 63 36 98t97 35zM367 1823q61 0 96 -34.5t35 -96.5t-36 -95.5t-97 -33.5q-63 0 -97.5 33t-34.5 94q0 63 36.5 98t97.5 35z" />
    <glyph glyph-name="Zacute" unicode="&#x179;" horiz-adv-x="1218" 
d="M1104 1249l-713 -1024v-12h727q19 -32 19 -107q0 -74 -19 -106h-999q-31 71 -31 193l715 1024v12h-676q-18 30 -18 104q0 75 18 105h946q31 -76 31 -189zM887 1909q37 -31 58.5 -84.5t21.5 -108.5l-482 -186q-51 54 -51 160z" />
    <glyph glyph-name="zacute" unicode="&#x17a;" horiz-adv-x="966" 
d="M868 836l-477 -625v-12h486q16 -32 16 -99q0 -68 -16 -100h-766q-29 69 -29 162l487 633v12h-475q0 115 31 194h711q32 -69 32 -165zM784 1481l-333 -338q-85 21 -123 96l243 313q57 0 117.5 -19t95.5 -52z" />
    <glyph glyph-name="Zdotaccent" unicode="&#x17b;" horiz-adv-x="1218" 
d="M1104 1249l-713 -1024v-12h727q19 -32 19 -107q0 -74 -19 -106h-999q-31 71 -31 193l715 1024v12h-676q-18 30 -18 104q0 75 18 105h946q31 -76 31 -189zM606 1851q66 0 104 -36.5t38 -102.5t-39 -101.5t-105 -35.5q-68 0 -104.5 34.5t-36.5 100.5q0 68 38.5 104.5
t104.5 36.5z" />
    <glyph glyph-name="zdotaccent" unicode="&#x17c;" horiz-adv-x="966" 
d="M868 836l-477 -625v-12h486q16 -32 16 -99q0 -68 -16 -100h-766q-29 69 -29 162l487 633v12h-475q0 115 31 194h711q32 -69 32 -165zM487 1450q62 0 99 -35.5t37 -99.5q0 -63 -37.5 -98t-100.5 -35q-65 0 -100 34t-35 97q0 65 37 101t100 36z" />
    <glyph glyph-name="Zcaron" unicode="&#x17d;" horiz-adv-x="1218" 
d="M1104 1249l-713 -1024v-12h727q19 -32 19 -107q0 -74 -19 -106h-999q-31 71 -31 193l715 1024v12h-676q-18 30 -18 104q0 75 18 105h946q31 -76 31 -189zM338 1898l268 -157l285 147q34 -18 59.5 -54t32.5 -81l-266 -172q-40 -16 -111 -16q-70 0 -110 16l-263 182
q20 93 105 135z" />
    <glyph glyph-name="zcaron" unicode="&#x17e;" horiz-adv-x="966" 
d="M868 836l-477 -625v-12h486q16 -32 16 -99q0 -68 -16 -100h-766q-29 69 -29 162l487 633v12h-475q0 115 31 194h711q32 -69 32 -165zM401 1153l-254 309q24 33 65.5 55t82.5 25l201 -215l213 223q78 -18 118 -96l-243 -280q-68 -21 -183 -21z" />
    <glyph glyph-name="longs" unicode="&#x17f;" horiz-adv-x="608" 
d="M160 12v1127q0 113 24.5 193t71.5 125t106.5 65t137.5 20q119 0 192 -45q27 -34 37.5 -99.5t-0.5 -115.5q-80 53 -174 53q-88 0 -124 -43.5t-36 -136.5v-1143q-35 -18 -119 -18q-82 0 -116 18z" />
    <glyph glyph-name="uni018F" unicode="&#x18f;" horiz-adv-x="1462" 
d="M190 797h920q-47 479 -512 479q-200 0 -371 -82q-5 55 12 118.5t46 98.5q65 36 167 55t207 19q170 0 304.5 -60.5t220.5 -168t131 -251t45 -313.5q0 -348 -179 -543.5t-483 -195.5q-113 0 -206.5 29t-158 80t-109 121t-65 151t-20.5 172q0 77 14 157t37 134zM1110 598
h-713q-10 -42 -10 -96q0 -66 18 -124t55.5 -108.5t104.5 -80t156 -29.5q184 0 282.5 119.5t106.5 318.5z" />
    <glyph glyph-name="florin" unicode="&#x192;" horiz-adv-x="933" 
d="M127 618h235l13 125q22 221 116.5 313.5t253.5 92.5q125 0 195 -49q24 -37 30 -98t-7 -109q-83 51 -177 51t-136 -47t-50 -147l-10 -132h256q10 -20 10 -61q0 -67 -27 -119h-256l-30 -368q-19 -220 -118 -313t-267 -93q-122 0 -193 45q-25 41 -31 103.5t9 113.5
q86 -51 184 -51q92 0 131.5 44t48.5 142l37 377h-264q4 108 47 180z" />
    <glyph glyph-name="uni01B5" unicode="&#x1b5;" horiz-adv-x="1226" 
d="M1022 629h-346l-281 -404v-12h727q19 -32 19 -107q0 -74 -19 -106h-999q-31 71 -31 193l305 436h-207q-16 33 -16 98t16 98h345l272 392v12h-676q-18 30 -18 104q0 75 18 105h946q31 -76 31 -189l-297 -424h211q16 -33 16 -98t-16 -98z" />
    <glyph glyph-name="uni01B6" unicode="&#x1b6;" horiz-adv-x="978" 
d="M164 592h254l155 203v12h-475q0 115 31 194h711q32 -69 32 -165l-186 -244h135q17 -20 17 -84t-17 -84h-262l-164 -213v-12h486q16 -32 16 -99q0 -68 -16 -100h-766q-29 69 -29 162l203 262h-154q0 102 29 168z" />
    <glyph glyph-name="Aringacute" unicode="&#x1fa;" horiz-adv-x="1382" 
d="M870 2148q32 -27 50 -71t18 -90l-465 -183q-43 49 -43 135zM688 1794q118 0 188 -62t70 -171q0 -128 -88 -187l488 -1360q-29 -22 -127 -22q-88 0 -125 22l-123 361h-565l-121 -361q-37 -22 -125 -22q-96 0 -125 22l489 1352q-94 60 -94 195q0 103 71 168t187 65z
M471 575h432l-96 281q-72 212 -113 434h-12q-40 -208 -115 -430zM688 1663q-47 0 -76.5 -28t-29.5 -74q0 -50 28.5 -76.5t77.5 -26.5q45 0 76 27t31 76q0 48 -30 75t-77 27z" />
    <glyph glyph-name="aringacute" unicode="&#x1fb;" horiz-adv-x="1110" 
d="M690 1872q68 -65 68 -170l-418 -162q-33 53 -33 148zM711 92h-13q-81 -133 -282 -133q-70 0 -129 17.5t-106 53.5t-74 98.5t-27 145.5q0 91 31 158.5t88 108.5t130.5 60.5t164.5 19.5q116 0 196 -31v39q0 112 -50 160.5t-163 48.5q-170 0 -319 -88q-15 44 -8 113.5
t34 109.5q121 69 336 69q208 0 306 -91t98 -304v-403q0 -43 17.5 -59.5t51.5 -16.5q53 0 92 27q6 -47 -6.5 -105t-36.5 -90q-64 -41 -151 -41q-152 0 -180 133zM692 248v170q-70 26 -157 26q-106 0 -164 -42t-58 -113q0 -66 47 -98.5t125 -32.5q143 0 207 90zM532 1536
q110 0 174 -59t64 -162q0 -106 -64.5 -163.5t-173.5 -57.5q-116 0 -176.5 56.5t-60.5 164.5q0 99 64.5 160t172.5 61zM532 1411q-45 0 -72.5 -26t-27.5 -70q0 -46 26.5 -71t73.5 -25q43 0 72 25.5t29 70.5t-28 70.5t-73 25.5z" />
    <glyph glyph-name="AEacute" unicode="&#x1fc;" horiz-adv-x="2076" 
d="M881 1438h1065q16 -37 16 -105q0 -67 -16 -104h-691v-395h639q17 -39 17 -103q0 -65 -17 -104h-639v-416h707q16 -37 16 -105q0 -69 -16 -106h-950v410h-494l-235 -394q-45 -22 -150 -22q-100 0 -125 22zM840 946l-201 -334h373v641h-13q-56 -133 -159 -307zM1360 1909
q37 -31 58.5 -84.5t21.5 -108.5l-482 -186q-51 54 -51 160z" />
    <glyph glyph-name="aeacute" unicode="&#x1fd;" horiz-adv-x="1703" 
d="M1583 426h-653q15 -268 344 -268q179 0 317 71q5 -50 -12.5 -107.5t-46.5 -88.5q-125 -74 -315 -74q-289 0 -422 178h-13q-43 -77 -133 -127.5t-225 -50.5q-73 0 -133.5 17t-108.5 52.5t-75 98t-27 147.5q0 91 31 158.5t88 108.5t130.5 60.5t164.5 19.5q119 0 196 -31v39
q0 113 -50.5 161t-162.5 48q-170 0 -319 -88q-15 44 -8 113.5t34 109.5q121 69 336 69q132 0 204.5 -32.5t104.5 -106.5h13q127 139 352 139q206 0 311 -117.5t105 -316.5q0 -100 -27 -182zM485 158q152 0 238 125q-24 74 -29 135q-74 26 -159 26q-108 0 -165 -42t-57 -113
q0 -66 47 -98.5t125 -32.5zM930 606h450q3 37 1.5 73t-15.5 68.5t-35.5 57t-59.5 39t-87 14.5q-112 0 -179 -68t-75 -184zM1120 1481l-334 -338q-83 20 -122 96l243 313q57 0 117.5 -19t95.5 -52z" />
    <glyph glyph-name="Oslashacute" unicode="&#x1fe;" horiz-adv-x="1570" 
d="M784 1485q241 0 402 -121l151 182q55 -15 100 -51t66 -84l-170 -203q121 -185 121 -473q0 -375 -180 -578.5t-490 -203.5q-253 0 -409 119l-166 -197q-55 18 -99 58.5t-61 91.5l178 213q-110 191 -110 497q0 174 49.5 315.5t138 236.5t211 146.5t268.5 51.5zM1202 735
q0 160 -49 283l-631 -752q104 -96 262 -96q202 0 310 147.5t108 417.5zM369 735q0 -180 49 -305l626 746q-107 96 -260 96q-200 0 -307.5 -142t-107.5 -395zM1059 1909q37 -31 58.5 -84.5t21.5 -108.5l-482 -186q-51 54 -51 160z" />
    <glyph glyph-name="oslashacute" unicode="&#x1ff;" horiz-adv-x="1183" 
d="M594 1042q152 0 262 -61l102 127q50 -14 90 -44t60 -69l-113 -141q90 -129 90 -338q0 -269 -130 -413t-361 -144q-163 0 -270 61l-134 -167q-35 26 -63.5 72.5t-42.5 97.5l104 127q-90 136 -90 366q0 246 134.5 386t361.5 140zM338 516q0 -105 24 -178l375 463
q-61 45 -143 45q-126 0 -191 -87t-65 -243zM846 516q0 75 -21 150l-374 -467q56 -43 143 -43q125 0 188.5 94t63.5 266zM883 1481l-334 -338q-85 21 -123 96l244 313q57 0 117.5 -19t95.5 -52z" />
    <glyph glyph-name="Scommaaccent" unicode="&#x218;" 
d="M96 285q86 -54 211.5 -86.5t241.5 -32.5q289 0 289 213q0 69 -39 118.5t-101 79.5t-137 55.5t-150.5 58t-137.5 76t-101 120t-39 180.5q0 202 126 310t353 108q212 0 355 -92q29 -44 42 -112.5t3 -125.5q-178 121 -385 121q-123 0 -185.5 -46t-62.5 -130q0 -52 24 -91.5
t64.5 -66t93.5 -49t111 -43t116 -44t111 -58t93.5 -78t64.5 -110t24 -150.5q0 -101 -27.5 -179.5t-75.5 -130t-116.5 -85.5t-146 -48t-168.5 -14q-249 0 -406 88q-30 46 -42 116.5t-3 127.5zM487 -150q80 50 224 50q-6 -116 -42 -248.5t-79 -210.5q-114 9 -168 76
q52 145 65 333z" />
    <glyph glyph-name="scommaaccent" unicode="&#x219;" horiz-adv-x="929" 
d="M96 244q60 -42 154.5 -68t179.5 -26q180 0 180 118q0 40 -26.5 69.5t-69 49t-94.5 38t-103.5 43t-94 56.5t-69 86t-26.5 125q0 148 91.5 227.5t262.5 79.5q165 0 275 -69q27 -35 39.5 -101t1.5 -114q-135 96 -291 96q-144 0 -144 -96q0 -37 26.5 -64.5t69.5 -46
t94.5 -36.5t103 -42.5t94.5 -57t69.5 -87.5t26.5 -127q0 -119 -55 -196.5t-144.5 -109.5t-212.5 -32q-186 0 -299 61q-28 40 -39.5 111.5t0.5 112.5zM367 -141q77 47 213 47q-6 -110 -39.5 -232.5t-75.5 -197.5q-111 10 -160 71q53 151 62 312z" />
    <glyph glyph-name="uni021A" unicode="&#x21a;" horiz-adv-x="1210" 
d="M1155 1223h-428v-1211q-33 -20 -123 -20q-88 0 -121 20v1211h-428q-18 37 -18 108q0 69 18 107h1100q19 -40 19 -107q0 -68 -19 -108zM489 -150q80 50 224 50q-6 -116 -42 -248.5t-79 -210.5q-114 9 -168 76q52 145 65 333z" />
    <glyph glyph-name="uni021B" unicode="&#x21b;" horiz-adv-x="798" 
d="M426 1001h285q16 -32 16 -102t-16 -102h-285v-459q0 -84 29.5 -124t111.5 -40q107 0 195 66q7 -55 -9 -120.5t-44 -99.5q-86 -61 -220 -61q-161 0 -230 86.5t-69 259.5v492h-155q0 128 33 204h122v224q78 66 236 69v-293zM379 -141q77 47 213 47q-6 -110 -39.5 -232.5
t-75.5 -197.5q-111 10 -160 71q53 151 62 312z" />
    <glyph glyph-name="uni0237" unicode="&#x237;" horiz-adv-x="567" 
d="M412 989v-739q0 -145 -20.5 -258t-63 -201.5t-97 -155t-133.5 -133.5q-46 13 -84.5 53t-56.5 91q110 96 164.5 217t54.5 319v807q36 19 117 19q83 0 119 -19z" />
    <glyph glyph-name="uni0259" unicode="&#x259;" horiz-adv-x="1116" 
d="M129 590h659q-25 258 -333 258q-163 0 -295 -62q-3 47 14 102.5t45 86.5q110 67 297 67q249 0 381.5 -141.5t132.5 -390.5q0 -255 -134 -403t-368 -148q-208 0 -321 116t-113 306q0 125 35 209zM791 410h-467q-4 -38 -2.5 -75.5t17 -71.5t39.5 -59.5t65.5 -41t95.5 -15.5
q115 0 179.5 69t72.5 194z" />
    <glyph glyph-name="uni02BB" unicode="&#x2bb;" horiz-adv-x="481" 
d="M111 997q9 121 43.5 246t81.5 219q74 47 219 47q-49 -111 -81 -246t-40 -255q-41 -27 -129 -27q-72 0 -94 16z" />
    <glyph glyph-name="afii57929" unicode="&#x2bc;" horiz-adv-x="481" 
d="M418 1505q-9 -138 -52 -293.5t-94 -248.5q-114 9 -172 77q80 194 93 420q82 45 225 45z" />
    <glyph glyph-name="circumflex" unicode="&#x2c6;" horiz-adv-x="923" 
d="M141 1272l219 250q60 24 181 24l256 -303q-36 -79 -125 -104l-217 229l-230 -240q-68 54 -84 144z" />
    <glyph glyph-name="caron" unicode="&#x2c7;" horiz-adv-x="923" 
d="M379 1153l-254 309q24 33 65 55t82 25l201 -215l213 223q79 -18 119 -96l-244 -280q-68 -21 -182 -21z" />
    <glyph glyph-name="breve" unicode="&#x2d8;" horiz-adv-x="923" 
d="M291 1516q14 -189 168 -189q146 0 182 178q93 0 150 -45q-21 -141 -110 -223t-235 -82q-139 0 -219.5 76t-99.5 215q24 28 69 47.5t95 22.5z" />
    <glyph glyph-name="dotaccent" unicode="&#x2d9;" horiz-adv-x="923" 
d="M463 1450q62 0 98.5 -35.5t36.5 -99.5q0 -63 -37 -98t-100 -35q-65 0 -100 34t-35 97q0 65 37 101t100 36z" />
    <glyph glyph-name="ring" unicode="&#x2da;" horiz-adv-x="923" 
d="M461 1581q109 0 173 -58.5t64 -162.5q0 -106 -64.5 -163.5t-172.5 -57.5q-116 0 -177 56.5t-61 164.5q0 99 65 160t173 61zM461 1456q-45 0 -73 -26t-28 -70q0 -46 27 -71t74 -25q43 0 71.5 25.5t28.5 70.5t-27.5 70.5t-72.5 25.5z" />
    <glyph glyph-name="ogonek" unicode="&#x2db;" horiz-adv-x="923" 
d="M621 -293q20 -27 33.5 -70.5t13.5 -85.5q-56 -24 -144 -24q-76 0 -135 21.5t-97 74t-38 131.5q0 84 45 152t133 102q100 35 256 35q-103 -45 -161 -111.5t-58 -132.5q0 -49 29 -74.5t77 -25.5q27 0 46 8z" />
    <glyph glyph-name="tilde" unicode="&#x2dc;" horiz-adv-x="923" 
d="M813 1384q-5 -98 -62 -158.5t-153 -60.5q-43 0 -82.5 14.5t-64 31.5t-56 31.5t-61.5 14.5q-70 0 -90 -83q-38 3 -77 26.5t-56 54.5q15 83 72.5 134t140.5 51q46 0 87 -14.5t66 -31.5t55.5 -31.5t57.5 -14.5q71 0 80 79q87 0 143 -43z" />
    <glyph glyph-name="hungarumlaut" unicode="&#x2dd;" horiz-adv-x="923" 
d="M461 1497l-248 -352q-89 9 -133 76l190 344q114 0 191 -68zM879 1497l-248 -352q-89 9 -133 76l190 344q114 0 191 -68z" />
    <glyph glyph-name="gravecomb" unicode="&#x300;" horiz-adv-x="2" 
d="M2 1233q-43 -75 -139 -90l-312 342q34 34 93 52.5t123 18.5z" />
    <glyph glyph-name="acutecomb" unicode="&#x301;" horiz-adv-x="2" 
d="M2 1481l-334 -338q-85 21 -123 96l244 313q57 0 117.5 -19t95.5 -52z" />
    <glyph glyph-name="uni0302" unicode="&#x302;" horiz-adv-x="2" 
d="M-653 1272l219 250q60 24 180 24l256 -303q-36 -79 -125 -104l-217 229l-229 -240q-68 54 -84 144z" />
    <glyph glyph-name="tildecomb" unicode="&#x303;" horiz-adv-x="2" 
d="M2 1384q-5 -98 -62 -158.5t-153 -60.5q-43 0 -82.5 14.5t-64 31.5t-56 31.5t-61.5 14.5q-70 0 -90 -83q-38 3 -77 26.5t-56 54.5q15 83 72.5 134t140.5 51q46 0 87 -14.5t66 -31.5t55.5 -31.5t57.5 -14.5q71 0 80 79q87 0 143 -43z" />
    <glyph glyph-name="uni0304" unicode="&#x304;" horiz-adv-x="2" 
d="M-598 1382h584q16 -26 16 -86t-16 -86h-613q0 96 29 172z" />
    <glyph glyph-name="uni0306" unicode="&#x306;" horiz-adv-x="2" 
d="M-498 1516q14 -189 168 -189q147 0 183 178q92 0 149 -45q-21 -142 -109.5 -223.5t-234.5 -81.5q-139 0 -220 76t-100 215q24 28 69 47.5t95 22.5z" />
    <glyph glyph-name="uni0307" unicode="&#x307;" horiz-adv-x="2" 
d="M-133 1450q62 0 98.5 -35.5t36.5 -99.5q0 -63 -37 -98t-100 -35q-65 0 -100 34t-35 97q0 65 37 101t100 36z" />
    <glyph glyph-name="uni0308" unicode="&#x308;" horiz-adv-x="2" 
d="M-573 1425q58 0 91 -33t33 -92t-34 -90.5t-92 -31.5q-60 0 -92.5 31t-32.5 89q0 60 34.5 93.5t92.5 33.5zM-123 1425q58 0 91.5 -33t33.5 -92t-34.5 -90.5t-92.5 -31.5q-60 0 -92.5 31t-32.5 89q0 60 34.5 93.5t92.5 33.5z" />
    <glyph glyph-name="uni030A" unicode="&#x30a;" horiz-adv-x="2" 
d="M-236 1581q110 0 174 -59t64 -162q0 -106 -64.5 -163.5t-173.5 -57.5q-116 0 -176.5 56.5t-60.5 164.5q0 99 64.5 160t172.5 61zM-236 1456q-45 0 -72.5 -26t-27.5 -70q0 -46 26.5 -71t73.5 -25q43 0 72 25.5t29 70.5t-28 70.5t-73 25.5z" />
    <glyph glyph-name="uni030B" unicode="&#x30b;" horiz-adv-x="2" 
d="M-416 1497l-248 -352q-89 9 -133 76l191 344q113 0 190 -68zM2 1497l-248 -352q-89 9 -133 76l191 344q113 0 190 -68z" />
    <glyph glyph-name="uni030C" unicode="&#x30c;" horiz-adv-x="2" 
d="M-424 1153l-254 309q24 33 65.5 55t82.5 25l200 -215l213 223q79 -18 119 -96l-244 -280q-67 -21 -182 -21z" />
    <glyph glyph-name="uni0312" unicode="&#x312;" horiz-adv-x="2" 
d="M-289 1174q6 90 32 184t62 164q71 47 197 47q-66 -177 -80 -385q-52 -25 -123 -25q-62 0 -88 15z" />
    <glyph glyph-name="uni0313" unicode="&#x313;" horiz-adv-x="2" 
d="M-205 1452q74 47 207 47q-6 -109 -37 -228t-71 -192q-50 4 -91 24t-63 50q46 137 55 299z" />
    <glyph glyph-name="uni0326" unicode="&#x326;" horiz-adv-x="2" 
d="M-211 -141q77 47 213 47q-6 -110 -39.5 -232.5t-75.5 -197.5q-110 9 -159 71q52 148 61 312z" />
    <glyph glyph-name="uni0394" unicode="&#x394;" horiz-adv-x="1345" 
d="M1247 0h-1149q-37 84 -37 205l443 1231q49 18 164 18q117 0 166 -18l450 -1231q0 -121 -37 -205zM1022 221l-219 617q-86 242 -131 454h-13q-51 -224 -129 -448l-213 -623h705z" />
    <glyph glyph-name="uni03A9" unicode="&#x3a9;" horiz-adv-x="1662" 
d="M84 219h336v12q-120 62 -194 210.5t-74 349.5q0 315 187.5 504.5t496.5 189.5q310 0 491.5 -188.5t181.5 -497.5q0 -210 -79.5 -357.5t-194.5 -210.5v-12h342q16 -37 16 -108q0 -74 -16 -111h-606q-33 88 -33 213q146 78 232.5 214.5t86.5 338.5q0 78 -13.5 149.5
t-46 137.5t-80.5 114t-121.5 76.5t-164.5 28.5q-111 0 -195.5 -41t-134 -112t-74 -158.5t-24.5 -188.5q0 -198 88.5 -343t239.5 -216q0 -131 -35 -213h-612q-16 37 -16 111q0 71 16 108z" />
    <glyph glyph-name="uni03BC" unicode="&#x3bc;" horiz-adv-x="1273" 
d="M836 289v700q36 19 116 19q83 0 119 -19v-733q0 -51 19.5 -68.5t56.5 -17.5q53 0 100 33q6 -49 -7 -105.5t-36 -91.5q-59 -47 -157 -47q-79 0 -123 35t-56 88h-12q-28 -51 -92.5 -87t-169.5 -36q-170 0 -221 111h-13q35 -125 35 -330v-213q-36 -19 -119 -19
q-80 0 -116 19v1444q83 47 235 47v-612q0 -110 48 -168t159 -58q82 0 143 31t91 78z" />
    <glyph glyph-name="pi" unicode="&#x3c0;" horiz-adv-x="1228" 
d="M47 1001h1129q16 -32 16 -100q0 -70 -16 -102h-189v-537q0 -54 19 -72t61 -18q57 0 98 33q7 -49 -9 -112t-42 -95q-61 -35 -143 -35q-112 0 -165.5 61.5t-53.5 186.5v588h-318v-787q-34 -18 -119 -18q-81 0 -116 18v787h-185q0 126 33 202z" />
    <glyph glyph-name="Wgrave" unicode="&#x1e80;" horiz-adv-x="2009" 
d="M1442 160h12q16 183 47 321l221 942q34 23 115 23q86 0 117 -23l-346 -1419q-49 -18 -166 -18q-119 0 -168 18l-207 926q-39 170 -57 352h-13q-15 -174 -57 -356l-217 -922q-49 -18 -168 -18q-117 0 -166 18l-332 1419q31 23 123 23q85 0 123 -23l211 -940
q29 -135 45 -323h12q11 160 47 323l224 953q49 18 168 18t168 -18l208 -949q44 -210 56 -327zM764 1907l432 -215q0 -46 -16.5 -89.5t-46.5 -70.5l-478 190q7 55 36.5 104.5t72.5 80.5z" />
    <glyph glyph-name="wgrave" unicode="&#x1e81;" horiz-adv-x="1638" 
d="M1174 172h12q26 193 61 322l137 501q30 17 93 17q81 0 127 -31l-273 -971q-104 -35 -293 -35l-147 533q-50 174 -64 315h-12q-17 -167 -63 -317l-148 -496q-106 -35 -291 -35l-276 1006q46 31 131 31q64 0 94 -17l137 -497q43 -160 62 -326h12q12 145 51 289l150 518
q109 41 299 41l145 -567q38 -151 56 -281zM967 1233q-43 -75 -140 -90l-311 342q34 34 92.5 52.5t122.5 18.5z" />
    <glyph glyph-name="Wacute" unicode="&#x1e82;" horiz-adv-x="2009" 
d="M1442 160h12q16 183 47 321l221 942q34 23 115 23q86 0 117 -23l-346 -1419q-49 -18 -166 -18q-119 0 -168 18l-207 926q-39 170 -57 352h-13q-15 -174 -57 -356l-217 -922q-49 -18 -168 -18q-117 0 -166 18l-332 1419q31 23 123 23q85 0 123 -23l211 -940
q29 -135 45 -323h12q11 160 47 323l224 953q49 18 168 18t168 -18l208 -949q44 -210 56 -327zM1276 1909q37 -31 58.5 -84.5t21.5 -108.5l-482 -186q-51 54 -51 160z" />
    <glyph glyph-name="wacute" unicode="&#x1e83;" horiz-adv-x="1638" 
d="M1174 172h12q26 193 61 322l137 501q30 17 93 17q81 0 127 -31l-273 -971q-104 -35 -293 -35l-147 533q-50 174 -64 315h-12q-17 -167 -63 -317l-148 -496q-106 -35 -291 -35l-276 1006q46 31 131 31q64 0 94 -17l137 -497q43 -160 62 -326h12q12 145 51 289l150 518
q109 41 299 41l145 -567q38 -151 56 -281zM1116 1481l-334 -338q-85 21 -123 96l244 313q57 0 117.5 -19t95.5 -52z" />
    <glyph glyph-name="Wdieresis" unicode="&#x1e84;" horiz-adv-x="2009" 
d="M1354 1823q61 0 96 -34.5t35 -96.5t-36 -95.5t-97 -33.5q-63 0 -97 33t-34 94q0 63 36 98t97 35zM659 1823q61 0 96.5 -34.5t35.5 -96.5t-36.5 -95.5t-97.5 -33.5q-63 0 -97 33t-34 94q0 63 36 98t97 35zM1442 160h12q16 183 47 321l221 942q34 23 115 23q86 0 117 -23
l-346 -1419q-49 -18 -166 -18q-119 0 -168 18l-207 926q-39 170 -57 352h-13q-15 -174 -57 -356l-217 -922q-49 -18 -168 -18q-117 0 -166 18l-332 1419q31 23 123 23q85 0 123 -23l211 -940q29 -135 45 -323h12q11 160 47 323l224 953q49 18 168 18t168 -18l208 -949
q44 -210 56 -327z" />
    <glyph glyph-name="wdieresis" unicode="&#x1e85;" horiz-adv-x="1638" 
d="M1174 172h12q26 193 61 322l137 501q30 17 93 17q81 0 127 -31l-273 -971q-104 -35 -293 -35l-147 533q-50 174 -64 315h-12q-17 -167 -63 -317l-148 -496q-106 -35 -291 -35l-276 1006q46 31 131 31q64 0 94 -17l137 -497q43 -160 62 -326h12q12 145 51 289l150 518
q109 41 299 41l145 -567q38 -151 56 -281zM516 1425q58 0 91.5 -33t33.5 -92t-34.5 -90.5t-92.5 -31.5q-60 0 -92.5 31t-32.5 89q0 60 34.5 93.5t92.5 33.5zM1130 1425q58 0 91.5 -33t33.5 -92t-34.5 -90.5t-92.5 -31.5q-60 0 -92 31t-32 89q0 61 34 94t92 33z" />
    <glyph glyph-name="uni1E8A" unicode="&#x1e8a;" horiz-adv-x="1308" 
d="M381 1421l223 -356q54 -85 70 -137h12q18 56 72 139l225 354q45 25 139 25q95 0 123 -25l-434 -667l463 -738q-27 -24 -129 -24q-105 0 -148 24l-264 428q-50 82 -69 138h-13q-19 -57 -73 -140l-273 -426q-43 -24 -143 -24q-98 0 -125 24l487 746l-411 659q28 25 125 25
q98 0 143 -25zM684 1851q65 0 103 -36t38 -103q0 -66 -38.5 -101.5t-104.5 -35.5q-68 0 -104.5 34.5t-36.5 100.5q0 68 38.5 104.5t104.5 36.5z" />
    <glyph glyph-name="uni1E8B" unicode="&#x1e8b;" horiz-adv-x="1071" 
d="M616 788l132 207q34 17 104 17q96 0 139 -31l-307 -459l352 -510q-30 -20 -121 -20q-110 0 -143 20l-166 244q-54 79 -63 115h-13q-8 -31 -57 -111l-166 -248q-33 -20 -141 -20q-89 0 -119 20l361 518l-308 451q43 31 144 31q72 0 106 -17l137 -202q55 -85 62 -115h12
q9 35 55 110zM551 1450q62 0 98.5 -35.5t36.5 -99.5q0 -63 -37 -98t-100 -35q-65 0 -100 34t-35 97q0 65 37 101t100 36z" />
    <glyph glyph-name="Ygrave" unicode="&#x1ef2;" horiz-adv-x="1239" 
d="M500 508l-477 915q31 23 133 23q91 0 129 -23l237 -450q65 -124 103 -289h12q31 164 96 291l234 448q38 23 125 23q96 0 127 -23l-476 -913v-498q-33 -20 -122 -20q-88 0 -121 20v496zM377 1907l432 -215q0 -45 -17 -89t-47 -71l-477 190q7 55 36.5 104.5t72.5 80.5z" />
    <glyph glyph-name="ygrave" unicode="&#x1ef3;" horiz-adv-x="1048" 
d="M543 139h12q17 154 53 262l191 594q34 17 100 17q90 0 133 -31l-153 -451q-71 -212 -129.5 -362.5t-122.5 -263.5q-87 -153 -204.5 -251.5t-287.5 -152.5q-40 31 -68 84.5t-34 110.5q243 66 373 280l-386 1006q43 31 140 31q66 0 100 -17l223 -598q39 -103 60 -258z
M690 1233q-43 -75 -139 -90l-311 342q34 34 92.5 52.5t122.5 18.5z" />
    <glyph glyph-name="uni2007" unicode="&#x2007;" horiz-adv-x="1288" 
 />
    <glyph glyph-name="uni2008" unicode="&#x2008;" horiz-adv-x="532" 
 />
    <glyph glyph-name="uni200B" unicode="&#x200b;" horiz-adv-x="0" 
 />
    <glyph glyph-name="endash" unicode="&#x2013;" horiz-adv-x="1024" 
d="M109 659h819q16 -32 16 -102t-16 -102h-852q0 128 33 204z" />
    <glyph glyph-name="emdash" unicode="&#x2014;" horiz-adv-x="2048" 
d="M109 659h1843q16 -32 16 -102t-16 -102h-1876q0 128 33 204z" />
    <glyph glyph-name="quoteleft" unicode="&#x2018;" horiz-adv-x="481" 
d="M111 997q9 121 43.5 246t81.5 219q74 47 219 47q-49 -111 -81 -246t-40 -255q-41 -27 -129 -27q-72 0 -94 16z" />
    <glyph glyph-name="quoteright" unicode="&#x2019;" horiz-adv-x="481" 
d="M418 1505q-9 -138 -52 -293.5t-94 -248.5q-114 9 -172 77q80 194 93 420q82 45 225 45z" />
    <glyph glyph-name="quotesinglbase" unicode="&#x201a;" horiz-adv-x="481" 
d="M375 217q-9 -140 -53 -298.5t-97 -252.5q-115 9 -174 78q81 199 94 428q82 45 230 45z" />
    <glyph glyph-name="quotereversed" unicode="&#x201b;" horiz-adv-x="481" 
d="M397 1028q-59 -69 -172 -78q-48 87 -90 226.5t-55 267.5q80 61 221 61q5 -116 31.5 -249t64.5 -228z" />
    <glyph glyph-name="quotedblleft" unicode="&#x201c;" horiz-adv-x="872" 
d="M109 997q9 121 43.5 246t80.5 219q74 47 218 47q-49 -111 -81 -246t-40 -255q-40 -27 -127 -27q-72 0 -94 16zM500 997q9 121 43.5 246t81.5 219q74 47 217 47q-49 -111 -81 -246t-40 -255q-41 -27 -127 -27q-72 0 -94 16z" />
    <glyph glyph-name="quotedblright" unicode="&#x201d;" horiz-adv-x="872" 
d="M416 1505q-9 -141 -51 -295.5t-95 -246.5q-112 9 -170 77q80 194 93 420q82 45 223 45zM807 1505q-9 -141 -50.5 -296t-94.5 -246q-112 9 -170 77q79 191 92 420q82 45 223 45z" />
    <glyph glyph-name="quotedblbase" unicode="&#x201e;" horiz-adv-x="872" 
d="M373 217q-9 -140 -53 -296t-97 -251q-113 9 -172 78q82 200 94 424q82 45 228 45zM766 217q-9 -140 -53 -296t-97 -251q-113 9 -172 78q83 203 95 424q82 45 227 45z" />
    <glyph glyph-name="dagger" unicode="&#x2020;" horiz-adv-x="1024" 
d="M72 1001h315l-6 426q68 29 156 29q57 0 94 -12l-6 -443h344q14 -31 14 -96t-14 -96h-348l-15 -1149q-29 -16 -100 -16q-69 0 -98 16l-17 1149h-352q0 111 33 192z" />
    <glyph glyph-name="daggerdbl" unicode="&#x2021;" horiz-adv-x="1024" 
d="M72 1001h315l-6 426q68 29 156 29q57 0 94 -12l-6 -443h344q14 -31 14 -96t-14 -96h-348l-5 -410h353q14 -32 14 -96q0 -65 -14 -96h-357l-6 -547q-29 -16 -100 -16q-69 0 -98 16l-7 547h-362q0 111 33 192h325l-6 410h-352q0 111 33 192z" />
    <glyph glyph-name="bullet" unicode="&#x2022;" horiz-adv-x="854" 
d="M428 801q133 0 211 -77t78 -216q0 -140 -79 -215.5t-212 -75.5q-136 0 -212.5 76.5t-76.5 212.5q0 138 79.5 216.5t211.5 78.5z" />
    <glyph glyph-name="ellipsis" unicode="&#x2026;" horiz-adv-x="1597" 
d="M264 264q67 0 106.5 -39t39.5 -110t-40.5 -109.5t-107.5 -38.5q-69 0 -107 38.5t-38 107.5q0 71 40 111t107 40zM797 264q67 0 106 -39t39 -110t-40 -109.5t-107 -38.5q-69 0 -107.5 38.5t-38.5 107.5q0 71 40.5 111t107.5 40zM1329 264q67 0 106.5 -39t39.5 -110
t-40.5 -109.5t-107.5 -38.5q-69 0 -107 38.5t-38 107.5q0 71 40 111t107 40z" />
    <glyph glyph-name="perthousand" unicode="&#x2030;" horiz-adv-x="2758" 
d="M1464 1112l-807 -1192q-52 8 -96 39t-59 72l766 1138q121 0 196 -57zM414 1149q156 0 247 -88t91 -248q0 -164 -92 -257t-246 -93q-164 0 -252 91t-88 259q0 156 93.5 246t246.5 90zM266 813q0 -88 39 -138t109 -50q69 0 107 51t38 137q0 83 -38.5 129.5t-106.5 46.5
q-72 0 -110 -46t-38 -130zM1524 645q156 0 247 -88t91 -248q0 -164 -92 -257t-246 -93q-164 0 -252 91t-88 259q0 156 93.5 246t246.5 90zM1376 309q0 -88 39 -138t109 -50q69 0 107 51t38 137q0 83 -38.5 129.5t-106.5 46.5q-72 0 -110 -46t-38 -130zM2347 645
q156 0 247 -88t91 -248q0 -164 -92 -257t-246 -93q-164 0 -252 91t-88 259q0 156 93.5 246t246.5 90zM2200 309q0 -88 38.5 -138t108.5 -50q69 0 107 51t38 137q0 83 -38.5 129.5t-106.5 46.5q-71 0 -109 -46t-38 -130z" />
    <glyph glyph-name="guilsinglleft" unicode="&#x2039;" horiz-adv-x="714" 
d="M383 539q106 -242 190 -387q-67 -78 -192 -93q-169 260 -254 463q67 162 209 400q88 49 258 49q-113 -201 -211 -432z" />
    <glyph glyph-name="guilsinglright" unicode="&#x203a;" horiz-adv-x="714" 
d="M332 61q-60 3 -109.5 28.5t-79.5 66.5q110 185 185 364q-79 180 -195 391q81 62 207 62q147 -229 246 -449q-85 -182 -254 -463z" />
    <glyph glyph-name="uni203E" unicode="&#x203e;" horiz-adv-x="1024" 
d="M-2 1513h1028q14 -32 14 -98q0 -69 -14 -100h-1059q0 119 31 198z" />
    <glyph glyph-name="fraction" unicode="&#x2044;" horiz-adv-x="397" 
d="M780 1401l-975 -1477q-115 22 -159 109l944 1425q113 0 190 -57z" />
    <glyph glyph-name="uni2070" unicode="&#x2070;" horiz-adv-x="788" 
d="M393 1591q165 0 253.5 -101.5t88.5 -303.5q0 -210 -87.5 -316t-254.5 -106q-342 0 -342 420q0 198 89.5 302.5t252.5 104.5zM248 1186q0 -123 36.5 -191.5t108.5 -68.5t109 68.5t37 191.5q0 116 -37 180t-109 64q-145 0 -145 -244z" />
    <glyph glyph-name="uni2074" unicode="&#x2074;" horiz-adv-x="788" 
d="M631 963v-172q-34 -15 -96 -15q-61 0 -95 15v172h-366q-29 57 -29 157l348 467q142 -3 238 -41v-428h94q12 -24 12 -76q0 -55 -12 -79h-94zM442 1116v193q0 49 7 77h-13l-188 -264v-12q24 6 80 6h114z" />
    <glyph glyph-name="uni2075" unicode="&#x2075;" horiz-adv-x="788" 
d="M162 1573h532q0 -101 -22 -160h-361l-10 -131q38 10 109 10q131 0 204.5 -61.5t73.5 -186.5q0 -100 -49 -164t-127.5 -90t-187.5 -26q-110 0 -183 27q-25 30 -37.5 78.5t-7.5 93.5q75 -37 217 -37q88 0 134.5 25t46.5 85q0 57 -41.5 81t-135.5 24q-107 0 -190 -29z" />
    <glyph glyph-name="uni2076" unicode="&#x2076;" horiz-adv-x="788" 
d="M496 1434q-102 0 -154.5 -49t-69.5 -158h13q52 82 178 82q123 0 188.5 -69.5t65.5 -188.5q0 -134 -83 -210.5t-231 -76.5q-323 0 -323 375q0 223 107.5 337.5t295.5 114.5q92 0 164 -35q24 -31 34.5 -84.5t4.5 -89.5q-93 52 -190 52zM406 1155q-81 0 -134 -65v-11
q0 -74 35.5 -116.5t100.5 -42.5q58 0 90 33t32 87q0 56 -32.5 85.5t-91.5 29.5z" />
    <glyph glyph-name="uni2077" unicode="&#x2077;" horiz-adv-x="788" 
d="M502 1405h-406q0 94 31 168h559q29 -64 29 -139q-221 -345 -303 -641q-31 -17 -109 -17t-104 15q96 336 303 602v12z" />
    <glyph glyph-name="uni2078" unicode="&#x2078;" horiz-adv-x="788" 
d="M569 1217v-13q69 -19 106.5 -69.5t37.5 -128.5q0 -121 -90 -181.5t-236 -60.5q-61 0 -114 11.5t-98.5 36t-72 69.5t-26.5 106q0 79 41.5 132t107.5 73v12q-116 39 -116 172q0 76 42.5 126t106 69.5t145.5 19.5q58 0 107.5 -10.5t91 -33t65 -62.5t23.5 -94q0 -69 -35 -114
t-86 -60zM377 1122q-113 -40 -113 -116q0 -49 37 -72t94 -23q56 0 91.5 21.5t35.5 68.5t-35.5 72t-109.5 49zM418 1282q92 31 92 96q0 38 -31.5 56t-77.5 18q-45 0 -75.5 -17.5t-30.5 -54.5q0 -20 8 -34.5t27 -26t36.5 -18.5t51.5 -19z" />
    <glyph glyph-name="uni2079" unicode="&#x2079;" horiz-adv-x="788" 
d="M522 1130h-12q-48 -75 -174 -75q-122 0 -187 70.5t-65 185.5q0 129 84 204.5t229 75.5q316 0 316 -372q0 -225 -108 -340t-294 -115q-106 0 -184 35q-25 30 -36 85t-3 97q40 -25 102.5 -42t118.5 -17q95 0 146.5 50.5t66.5 157.5zM393 1210q78 0 129 60v10q0 74 -33 115
t-96 41q-58 0 -88.5 -31.5t-30.5 -81.5q0 -53 30 -83t89 -30z" />
    <glyph glyph-name="uni2080" unicode="&#x2080;" horiz-adv-x="788" 
d="M393 623q165 0 253.5 -102t88.5 -304q0 -210 -87.5 -316t-254.5 -106q-342 0 -342 420q0 198 89.5 303t252.5 105zM248 217q0 -123 36.5 -191.5t108.5 -68.5t109 68.5t37 191.5q0 116 -37 180t-109 64q-145 0 -145 -244z" />
    <glyph glyph-name="uni2081" unicode="&#x2081;" horiz-adv-x="788" 
d="M332 -178v598l-201 -31q1 42 13.5 90t27.5 76q141 50 356 68v-801q-34 -15 -98 -15t-98 15z" />
    <glyph glyph-name="uni2082" unicode="&#x2082;" horiz-adv-x="788" 
d="M377 -14h295q14 -24 14 -84q0 -64 -14 -88h-566q-22 54 -22 141q30 26 90 73t101 81.5t85.5 78t67.5 87t23 85.5q0 97 -127 97q-113 0 -222 -74q-7 43 5.5 95.5t35.5 84.5q93 60 230 60q131 0 208.5 -59t77.5 -173q0 -116 -78 -217t-204 -176v-12z" />
    <glyph glyph-name="uni2083" unicode="&#x2083;" horiz-adv-x="788" 
d="M217 139q-10 31 -8 78t14 72q238 0 238 106q0 70 -119 70q-112 0 -217 -57q-6 39 6.5 89.5t38.5 82.5q75 43 219 43q126 0 199.5 -50t73.5 -155q0 -73 -36 -119.5t-100 -60.5v-13q158 -32 158 -188q0 -83 -47 -138.5t-121.5 -79.5t-173.5 -24q-117 0 -209 29
q-53 80 -33 174q39 -18 105.5 -29.5t126.5 -11.5q149 0 149 88q0 52 -56.5 73t-207.5 21z" />
    <glyph glyph-name="uni2084" unicode="&#x2084;" horiz-adv-x="788" 
d="M631 -6v-172q-34 -15 -96 -15q-61 0 -95 15v172h-366q-29 57 -29 158l348 466q145 -3 238 -40v-428h94q12 -24 12 -76q0 -56 -12 -80h-94zM442 147v193q0 50 7 78h-13l-188 -264v-13q24 6 80 6h114z" />
    <glyph glyph-name="uni2085" unicode="&#x2085;" horiz-adv-x="788" 
d="M162 604h532q0 -101 -22 -160h-361l-10 -131q42 11 109 11q131 0 204.5 -61.5t73.5 -186.5q0 -147 -98.5 -214t-265.5 -67q-110 0 -183 27q-25 30 -37.5 78.5t-7.5 93.5q75 -37 217 -37q181 0 181 111q0 57 -41 80.5t-136 23.5q-107 0 -190 -29z" />
    <glyph glyph-name="uni2086" unicode="&#x2086;" horiz-adv-x="788" 
d="M496 465q-102 0 -154.5 -49t-69.5 -158h13q52 82 178 82q123 0 188.5 -69.5t65.5 -188.5q0 -134 -83 -210.5t-231 -76.5q-323 0 -323 375q0 223 107.5 338t295.5 115q92 0 164 -35q24 -31 34.5 -84.5t4.5 -89.5q-91 51 -190 51zM406 186q-81 0 -134 -65v-10
q0 -75 35.5 -117.5t100.5 -42.5q58 0 90 33.5t32 87.5q0 56 -32.5 85t-91.5 29z" />
    <glyph glyph-name="uni2087" unicode="&#x2087;" horiz-adv-x="788" 
d="M502 436h-406q0 94 31 168h559q29 -64 29 -139q-221 -345 -303 -641q-31 -17 -109 -17t-104 15q96 336 303 602v12z" />
    <glyph glyph-name="uni2088" unicode="&#x2088;" horiz-adv-x="788" 
d="M569 248v-12q69 -19 106.5 -70t37.5 -129q0 -121 -90 -181.5t-236 -60.5q-61 0 -114 11.5t-98.5 36t-72 69.5t-26.5 106q0 79 41.5 132t107.5 73v13q-116 39 -116 172q0 76 42.5 126t106 69.5t145.5 19.5q46 0 86.5 -6.5t78 -21.5t64 -37.5t42.5 -57t16 -78.5
q0 -69 -35 -114t-86 -60zM377 154q-113 -40 -113 -117q0 -49 37 -71.5t94 -22.5q56 0 91.5 21.5t35.5 68.5t-35.5 72t-109.5 49zM418 313q92 31 92 97q0 38 -31 55.5t-78 17.5q-45 0 -75.5 -17t-30.5 -54q0 -38 28.5 -57.5t94.5 -41.5z" />
    <glyph glyph-name="uni2089" unicode="&#x2089;" horiz-adv-x="788" 
d="M522 162h-12q-49 -76 -174 -76q-122 0 -187 70.5t-65 185.5q0 129 84.5 205t228.5 76q316 0 316 -373q0 -225 -108 -340t-294 -115q-106 0 -184 35q-25 30 -36 85t-3 97q40 -25 102.5 -42t118.5 -17q95 0 146.5 50.5t66.5 158.5zM393 242q79 0 129 59v10q0 73 -33 114.5
t-96 41.5q-58 0 -88.5 -31.5t-30.5 -81.5q0 -52 30 -82t89 -30z" />
    <glyph glyph-name="Euro" unicode="&#x20ac;" horiz-adv-x="1163" 
d="M63 492h852q13 -20 13 -76t-13 -76h-450q87 -176 356 -176q143 0 291 55q6 -44 -14.5 -107t-53.5 -98q-124 -55 -303 -55q-206 0 -344 99.5t-188 281.5h-170q0 96 24 152zM915 627h-876q0 95 24 151h156q59 178 207.5 274.5t355.5 96.5q157 0 260 -53q30 -36 45 -97
t7 -114q-133 65 -269 65q-257 0 -352 -172h442q13 -20 13 -76t-13 -75z" />
    <glyph glyph-name="afii61289" unicode="&#x2113;" horiz-adv-x="966" 
d="M201 608v381q0 118 27.5 205.5t77.5 139t113.5 76t141.5 24.5q142 0 233 -80.5t91 -243.5q0 -176 -113 -332t-340 -309v-94q0 -112 36 -157.5t110 -45.5q63 0 109.5 31t90.5 102q115 -40 162 -133q-71 -109 -166 -164t-225 -55q-348 0 -348 391v18q-45 -27 -105 -55
q-47 70 -47 211q82 42 152 90zM430 731q227 165 227 350q0 75 -29.5 109.5t-76.5 34.5q-56 0 -88.5 -50.5t-32.5 -154.5v-289z" />
    <glyph glyph-name="afii61352" unicode="&#x2116;" horiz-adv-x="2156" 
d="M395 879v-869q-26 -16 -112 -16q-85 0 -111 16v1067q108 47 311 47l383 -643q52 -84 97 -221h12v838q26 16 110 16q87 0 113 -16v-1071q-107 -39 -297 -39l-383 635q-67 111 -110 256h-13zM1747 1149q156 0 247 -91t91 -257q0 -170 -91 -264.5t-247 -94.5q-166 0 -254 93
t-88 266q0 163 93.5 255.5t248.5 92.5zM1587 801q0 -98 40.5 -151.5t119.5 -53.5q76 0 116 54.5t40 150.5q0 92 -41 144t-115 52q-80 0 -120 -51.5t-40 -144.5zM1458 340h588q12 -18 12 -74q0 -58 -12 -76h-614q0 94 26 150z" />
    <glyph glyph-name="trademark" unicode="&#x2122;" horiz-adv-x="1806" 
d="M692 1286h-221v-477q-25 -14 -84 -14q-61 0 -86 14v477h-223q-12 28 -12 76t12 76h614q13 -30 13 -76t-13 -76zM1667 1427v-618q-28 -14 -82 -14t-82 14v506h-12q-13 -95 -43 -180l-113 -330q-28 -14 -104 -14q-77 0 -105 14l-116 330q-28 79 -39 180h-13v-506
q-28 -14 -81 -14q-54 0 -82 14v618q45 17 143 17q94 0 139 -17l113 -323q25 -77 39 -176h12q10 99 37 174l113 325q45 17 137 17q94 0 139 -17z" />
    <glyph glyph-name="Omega" unicode="&#x2126;" horiz-adv-x="1662" 
d="M84 219h336v12q-120 62 -194 210.5t-74 349.5q0 315 187.5 504.5t496.5 189.5q310 0 491.5 -188.5t181.5 -497.5q0 -210 -79.5 -357.5t-194.5 -210.5v-12h342q16 -37 16 -108q0 -74 -16 -111h-606q-33 88 -33 213q146 78 232.5 214.5t86.5 338.5q0 78 -13.5 149.5
t-46 137.5t-80.5 114t-121.5 76.5t-164.5 28.5q-111 0 -195.5 -41t-134 -112t-74 -158.5t-24.5 -188.5q0 -198 88.5 -343t239.5 -216q0 -131 -35 -213h-612q-16 37 -16 111q0 71 16 108z" />
    <glyph glyph-name="estimated" unicode="&#x212e;" horiz-adv-x="1796" 
d="M1735 670h-1327q-13 0 -13 -8v-402q0 -26 23 -49q93 -99 223.5 -157t276.5 -58q157 0 293 65.5t231 178.5h123q-114 -134 -284.5 -210.5t-365.5 -76.5q-167 0 -319.5 58.5t-262 157.5t-174.5 234.5t-65 284.5q0 152 65 290t174.5 238t261.5 159t320 59q167 0 319 -59
t261.5 -159t174.5 -238t65 -290v-18zM1434 733v402q0 31 -23 51q-95 96 -222.5 151.5t-270.5 55.5q-144 0 -273.5 -57.5t-224.5 -157.5q-25 -17 -25 -52v-393q0 -10 13 -10h1017q3 0 6 3.5t3 6.5z" />
    <glyph glyph-name="uni2150" unicode="&#x2150;" horiz-adv-x="1892" 
d="M332 604v598l-201 -31q1 42 13.5 90t27.5 76q141 50 356 68v-801q-32 -14 -98 -14t-98 14zM1487 1401l-975 -1477q-116 22 -160 109l944 1425q114 0 191 -57zM1606 623h-406q0 94 31 168h559q29 -64 29 -140q-221 -345 -303 -641q-29 -16 -109 -16q-79 0 -104 14
q96 336 303 602v13z" />
    <glyph glyph-name="uni2151" unicode="&#x2151;" horiz-adv-x="1892" 
d="M332 604v598l-201 -31q1 42 13.5 90t27.5 76q141 50 356 68v-801q-32 -14 -98 -14t-98 14zM1487 1401l-975 -1477q-116 22 -160 109l944 1425q114 0 191 -57zM1626 348h-12q-49 -76 -174 -76q-122 0 -187 70.5t-65 185.5q0 129 84.5 205t228.5 76q316 0 316 -373
q0 -225 -108 -339.5t-294 -114.5q-109 0 -184 34q-25 29 -36 85t-3 98q41 -25 103 -42.5t118 -17.5q95 0 146.5 50.5t66.5 158.5zM1497 428q79 0 129 59v11q0 73 -33 114t-96 41q-58 0 -88.5 -31t-30.5 -81q0 -53 30 -83t89 -30z" />
    <glyph glyph-name="uni2152" unicode="&#x2152;" horiz-adv-x="2588" 
d="M332 604v598l-201 -31q1 42 13.5 90t27.5 76q141 50 356 68v-801q-32 -14 -98 -14t-98 14zM1487 1401l-975 -1477q-116 22 -160 109l944 1425q114 0 191 -57zM1436 8v598l-201 -31q1 42 13.5 90t27.5 76q141 50 356 68v-801q-32 -14 -98 -14t-98 14zM2193 809
q165 0 253.5 -102t88.5 -304q0 -210 -87.5 -315.5t-254.5 -105.5q-342 0 -342 419q0 198 89.5 303t252.5 105zM2048 403q0 -123 36.5 -191.5t108.5 -68.5t109 68.5t37 191.5q0 116 -37 180t-109 64q-145 0 -145 -244z" />
    <glyph glyph-name="onethird" unicode="&#x2153;" horiz-adv-x="1892" 
d="M332 604v598l-201 -31q1 42 13.5 90t27.5 76q141 50 356 68v-801q-32 -14 -98 -14t-98 14zM1487 1401l-975 -1477q-116 22 -160 109l944 1425q114 0 191 -57zM1321 326q-10 31 -8 77.5t14 71.5q238 0 238 107q0 69 -119 69q-112 0 -217 -57q-6 39 6.5 89.5t38.5 82.5
q75 43 219 43q126 0 199 -50t73 -155q0 -73 -35.5 -119.5t-99.5 -60.5v-12q158 -32 158 -189q0 -122 -94.5 -181.5t-247.5 -59.5q-120 0 -209 28q-53 80 -33 174q39 -18 105.5 -29.5t126.5 -11.5q149 0 149 88q0 52 -56.5 73.5t-207.5 21.5z" />
    <glyph glyph-name="twothirds" unicode="&#x2154;" horiz-adv-x="1974" 
d="M377 768h295q14 -24 14 -84q0 -64 -14 -88h-566q-22 54 -22 141q30 26 90 73t101 81.5t85.5 78.5t67.5 87.5t23 85.5q0 96 -127 96q-113 0 -222 -74q-7 43 5.5 96t35.5 85q91 59 230 59q131 0 208.5 -59t77.5 -172q0 -116 -78 -217.5t-204 -176.5v-12zM1569 1401
l-975 -1477q-116 22 -160 109l944 1425q114 0 191 -57zM1403 326q-10 31 -8 77.5t14 71.5q238 0 238 107q0 69 -119 69q-112 0 -217 -57q-6 39 6.5 89.5t38.5 82.5q75 43 219 43q126 0 199 -50t73 -155q0 -73 -35.5 -119.5t-99.5 -60.5v-12q158 -32 158 -189
q0 -122 -94.5 -181.5t-247.5 -59.5q-120 0 -209 28q-53 80 -33 174q39 -18 105.5 -29.5t126.5 -11.5q149 0 149 88q0 52 -56.5 73.5t-207.5 21.5z" />
    <glyph glyph-name="uni2155" unicode="&#x2155;" horiz-adv-x="1892" 
d="M332 604v598l-201 -31q1 42 13.5 90t27.5 76q141 50 356 68v-801q-32 -14 -98 -14t-98 14zM1487 1401l-975 -1477q-116 22 -160 109l944 1425q114 0 191 -57zM1266 791h532q0 -101 -22 -160h-361l-10 -131q38 10 108 10q131 0 205 -61.5t74 -186.5q0 -75 -27.5 -130.5
t-78 -87.5t-114.5 -47t-145 -15q-112 0 -182 26q-25 30 -37.5 78.5t-7.5 93.5q75 -37 217 -37q87 0 133.5 25.5t46.5 85.5q0 57 -41 80.5t-135 23.5q-110 0 -190 -28z" />
    <glyph glyph-name="uni2156" unicode="&#x2156;" horiz-adv-x="1974" 
d="M377 768h295q14 -24 14 -84q0 -64 -14 -88h-566q-22 54 -22 141q30 26 90 73t101 81.5t85.5 78.5t67.5 87.5t23 85.5q0 96 -127 96q-113 0 -222 -74q-7 43 5.5 96t35.5 85q91 59 230 59q131 0 208.5 -59t77.5 -172q0 -116 -78 -217.5t-204 -176.5v-12zM1569 1401
l-975 -1477q-116 22 -160 109l944 1425q114 0 191 -57zM1348 791h532q0 -101 -22 -160h-361l-10 -131q38 10 108 10q131 0 205 -61.5t74 -186.5q0 -75 -27.5 -130.5t-78 -87.5t-114.5 -47t-145 -15q-112 0 -182 26q-25 30 -37.5 78.5t-7.5 93.5q75 -37 217 -37
q87 0 133.5 25.5t46.5 85.5q0 57 -41 80.5t-135 23.5q-110 0 -190 -28z" />
    <glyph glyph-name="uni2157" unicode="&#x2157;" horiz-adv-x="1974" 
d="M217 922q-10 31 -8 77.5t14 71.5q238 0 238 107q0 69 -119 69q-112 0 -217 -57q-6 39 6.5 89.5t38.5 82.5q75 43 219 43q126 0 199.5 -50t73.5 -155q0 -73 -36 -119.5t-100 -60.5v-12q158 -32 158 -189q0 -122 -94.5 -181.5t-247.5 -59.5q-120 0 -209 28q-53 80 -33 174
q39 -18 105.5 -29.5t126.5 -11.5q149 0 149 88q0 52 -56.5 73.5t-207.5 21.5zM1569 1401l-975 -1477q-116 22 -160 109l944 1425q114 0 191 -57zM1348 791h532q0 -101 -22 -160h-361l-10 -131q38 10 108 10q131 0 205 -61.5t74 -186.5q0 -75 -27.5 -130.5t-78 -87.5
t-114.5 -47t-145 -15q-112 0 -182 26q-25 30 -37.5 78.5t-7.5 93.5q75 -37 217 -37q87 0 133.5 25.5t46.5 85.5q0 57 -41 80.5t-135 23.5q-110 0 -190 -28z" />
    <glyph glyph-name="uni2158" unicode="&#x2158;" horiz-adv-x="1974" 
d="M631 776v-172q-31 -14 -96 -14q-63 0 -95 14v172h-366q-29 57 -29 158l348 467q142 -3 238 -41v-428h94q12 -24 12 -76q0 -56 -12 -80h-94zM442 930v192q0 50 7 78h-13l-188 -264v-12q24 6 80 6h114zM1569 1401l-975 -1477q-116 22 -160 109l944 1425q114 0 191 -57z
M1348 791h532q0 -101 -22 -160h-361l-10 -131q38 10 108 10q131 0 205 -61.5t74 -186.5q0 -75 -27.5 -130.5t-78 -87.5t-114.5 -47t-145 -15q-112 0 -182 26q-25 30 -37.5 78.5t-7.5 93.5q75 -37 217 -37q87 0 133.5 25.5t46.5 85.5q0 57 -41 80.5t-135 23.5
q-110 0 -190 -28z" />
    <glyph glyph-name="uni2159" unicode="&#x2159;" horiz-adv-x="1892" 
d="M332 604v598l-201 -31q1 42 13.5 90t27.5 76q141 50 356 68v-801q-32 -14 -98 -14t-98 14zM1487 1401l-975 -1477q-116 22 -160 109l944 1425q114 0 191 -57zM1599 651q-102 0 -154 -48.5t-69 -158.5h13q52 82 178 82q123 0 188.5 -69.5t65.5 -188.5q0 -134 -82.5 -210
t-231.5 -76q-323 0 -323 374q0 223 107.5 338t295.5 115q92 0 164 -35q24 -31 34.5 -84.5t4.5 -89.5q-91 51 -191 51zM1509 373q-79 0 -133 -66v-10q0 -75 35 -117.5t100 -42.5q58 0 90.5 33.5t32.5 87.5q0 56 -33 85.5t-92 29.5z" />
    <glyph glyph-name="uni215A" unicode="&#x215a;" horiz-adv-x="1974" 
d="M162 1386h532q0 -100 -22 -159h-361l-10 -131q38 10 109 10q131 0 204.5 -61.5t73.5 -186.5q0 -100 -49 -164t-127.5 -90t-187.5 -26q-113 0 -183 26q-25 30 -37.5 78.5t-7.5 93.5q75 -37 217 -37q181 0 181 111q0 57 -41 80.5t-136 23.5q-110 0 -190 -28zM1569 1401
l-975 -1477q-116 22 -160 109l944 1425q114 0 191 -57zM1681 651q-102 0 -154 -48.5t-69 -158.5h12q52 82 179 82q123 0 188.5 -69.5t65.5 -188.5q0 -134 -82.5 -210t-231.5 -76q-323 0 -323 374q0 223 107.5 338t295.5 115q92 0 164 -35q24 -31 34.5 -84.5t4.5 -89.5
q-91 51 -191 51zM1591 373q-79 0 -133 -66v-10q0 -75 35 -117.5t100 -42.5q58 0 90.5 33.5t32.5 87.5q0 56 -33 85.5t-92 29.5z" />
    <glyph glyph-name="oneeighth" unicode="&#x215b;" horiz-adv-x="1892" 
d="M332 604v598l-201 -31q1 42 13.5 90t27.5 76q141 50 356 68v-801q-32 -14 -98 -14t-98 14zM1487 1401l-975 -1477q-116 22 -160 109l944 1425q114 0 191 -57zM1673 434v-12q69 -19 106.5 -70t37.5 -129q0 -120 -90 -180.5t-236 -60.5q-61 0 -114 11.5t-98.5 36t-72 69.5
t-26.5 106q0 79 41.5 132t107.5 73v12q-117 40 -117 172q0 58 24 101t66 67t93 35.5t112 11.5q46 0 86.5 -6.5t78 -21.5t64 -37.5t42.5 -57t16 -78.5q0 -69 -35 -114t-86 -60zM1481 340q-113 -40 -113 -117q0 -49 37 -71.5t94 -22.5q56 0 91.5 21.5t35.5 68.5t-35.5 72
t-109.5 49zM1522 500q92 31 92 96q0 38 -31.5 56t-77.5 18q-45 0 -75.5 -17.5t-30.5 -54.5q0 -20 8 -34.5t27 -26t36.5 -18.5t51.5 -19z" />
    <glyph glyph-name="threeeighths" unicode="&#x215c;" horiz-adv-x="1974" 
d="M217 922q-10 31 -8 77.5t14 71.5q238 0 238 107q0 69 -119 69q-112 0 -217 -57q-6 39 6.5 89.5t38.5 82.5q75 43 219 43q126 0 199.5 -50t73.5 -155q0 -73 -36 -119.5t-100 -60.5v-12q158 -32 158 -189q0 -122 -94.5 -181.5t-247.5 -59.5q-120 0 -209 28q-53 80 -33 174
q39 -18 105.5 -29.5t126.5 -11.5q149 0 149 88q0 52 -56.5 73.5t-207.5 21.5zM1569 1401l-975 -1477q-116 22 -160 109l944 1425q114 0 191 -57zM1755 434v-12q68 -19 105.5 -70t37.5 -129q0 -120 -89.5 -180.5t-235.5 -60.5q-61 0 -114 11.5t-98.5 36t-72 69.5t-26.5 106
q0 79 41.5 132t107.5 73v12q-117 40 -117 172q0 58 24 101t66 67t93 35.5t112 11.5q46 0 86.5 -6.5t78 -21.5t64 -37.5t42.5 -57t16 -78.5q0 -69 -35 -114t-86 -60zM1563 340q-113 -40 -113 -117q0 -49 37 -71.5t94 -22.5q56 0 91.5 21.5t35.5 68.5t-35.5 72t-109.5 49z
M1604 500q92 31 92 96q0 38 -31.5 56t-77.5 18q-45 0 -75.5 -17.5t-30.5 -54.5q0 -20 8 -34.5t27 -26t36.5 -18.5t51.5 -19z" />
    <glyph glyph-name="fiveeighths" unicode="&#x215d;" horiz-adv-x="1974" 
d="M162 1386h532q0 -100 -22 -159h-361l-10 -131q38 10 109 10q131 0 204.5 -61.5t73.5 -186.5q0 -100 -49 -164t-127.5 -90t-187.5 -26q-113 0 -183 26q-25 30 -37.5 78.5t-7.5 93.5q75 -37 217 -37q181 0 181 111q0 57 -41 80.5t-136 23.5q-110 0 -190 -28zM1569 1401
l-975 -1477q-116 22 -160 109l944 1425q114 0 191 -57zM1755 434v-12q68 -19 105.5 -70t37.5 -129q0 -120 -89.5 -180.5t-235.5 -60.5q-61 0 -114 11.5t-98.5 36t-72 69.5t-26.5 106q0 79 41.5 132t107.5 73v12q-117 40 -117 172q0 58 24 101t66 67t93 35.5t112 11.5
q46 0 86.5 -6.5t78 -21.5t64 -37.5t42.5 -57t16 -78.5q0 -69 -35 -114t-86 -60zM1563 340q-113 -40 -113 -117q0 -49 37 -71.5t94 -22.5q56 0 91.5 21.5t35.5 68.5t-35.5 72t-109.5 49zM1604 500q92 31 92 96q0 38 -31.5 56t-77.5 18q-45 0 -75.5 -17.5t-30.5 -54.5
q0 -20 8 -34.5t27 -26t36.5 -18.5t51.5 -19z" />
    <glyph glyph-name="seveneighths" unicode="&#x215e;" horiz-adv-x="1851" 
d="M502 1219h-406q0 93 31 167h559q29 -64 29 -139q-221 -345 -303 -641q-29 -16 -109 -16q-79 0 -104 14q96 336 303 602v13zM1446 1401l-975 -1477q-116 22 -160 109l944 1425q114 0 191 -57zM1632 434v-12q69 -19 106.5 -70t37.5 -129q0 -120 -90 -180.5t-236 -60.5
q-61 0 -114 11.5t-98.5 36t-72 69.5t-26.5 106q0 79 41.5 132t107.5 73v12q-117 40 -117 172q0 58 24 101t66 67t93 35.5t112 11.5q46 0 86.5 -6.5t78 -21.5t64 -37.5t42.5 -57t16 -78.5q0 -69 -35 -114t-86 -60zM1440 340q-113 -40 -113 -117q0 -49 37 -71.5t94 -22.5
q56 0 91.5 21.5t35.5 68.5t-35.5 72t-109.5 49zM1481 500q92 31 92 96q0 38 -31.5 56t-77.5 18q-45 0 -75.5 -17.5t-30.5 -54.5q0 -20 8 -34.5t27 -26t36.5 -18.5t51.5 -19z" />
    <glyph glyph-name="uni215F" unicode="&#x215f;" horiz-adv-x="1103" 
d="M332 604v598l-201 -31q1 42 13.5 90t27.5 76q141 50 356 68v-801q-32 -14 -98 -14t-98 14zM1487 1401l-975 -1477q-116 22 -160 109l944 1425q114 0 191 -57z" />
    <glyph glyph-name="uni2189" unicode="&#x2189;" horiz-adv-x="1974" 
d="M393 1405q165 0 253.5 -102t88.5 -304q0 -210 -87.5 -315.5t-254.5 -105.5q-342 0 -342 419q0 198 89.5 303t252.5 105zM248 999q0 -123 36.5 -191.5t108.5 -68.5t109 68.5t37 191.5q0 116 -37 180t-109 64q-145 0 -145 -244zM1569 1401l-975 -1477q-116 22 -160 109
l944 1425q114 0 191 -57zM1403 326q-10 31 -8 77.5t14 71.5q238 0 238 107q0 69 -119 69q-112 0 -217 -57q-6 39 6.5 89.5t38.5 82.5q75 43 219 43q126 0 199 -50t73 -155q0 -73 -35.5 -119.5t-99.5 -60.5v-12q158 -32 158 -189q0 -122 -94.5 -181.5t-247.5 -59.5
q-120 0 -209 28q-53 80 -33 174q39 -18 105.5 -29.5t126.5 -11.5q149 0 149 88q0 52 -56.5 73.5t-207.5 21.5z" />
    <glyph glyph-name="arrowleft" unicode="&#x2190;" horiz-adv-x="2048" 
d="M1948 475h-1499l638 -629q-19 -51 -62 -93t-89 -56l-887 887l887 882q46 -14 89 -56t62 -93l-638 -629h1499q16 -29 16 -106q0 -78 -16 -107z" />
    <glyph glyph-name="arrowup" unicode="&#x2191;" horiz-adv-x="1863" 
d="M819 -356v1491l-624 -631q-50 19 -91 62t-55 91l883 883l883 -883q-14 -48 -55 -91t-91 -62l-625 631v-1491q-36 -19 -112 -19q-77 0 -113 19z" />
    <glyph glyph-name="arrowright" unicode="&#x2192;" horiz-adv-x="2048" 
d="M1599 475h-1499q-16 29 -16 107q0 77 16 106h1499l-638 629q19 51 62 93t89 56l887 -882l-887 -887q-46 14 -89 56t-62 93z" />
    <glyph glyph-name="arrowdown" unicode="&#x2193;" horiz-adv-x="1863" 
d="M1044 1501v-1491l625 631q50 -18 91 -62t55 -92l-883 -882l-883 882q14 48 55 92t91 62l624 -631v1491q36 19 113 19q76 0 112 -19z" />
    <glyph glyph-name="arrowboth" unicode="&#x2194;" horiz-adv-x="3026" 
d="M2580 477h-2134l601 -590q-19 -51 -62.5 -93t-89.5 -56l-846 846l846 841q46 -14 89.5 -56t62.5 -93l-601 -590h2134l-600 590q19 51 62.5 93t89.5 56l846 -841l-846 -846q-46 14 -89.5 56t-62.5 93z" />
    <glyph glyph-name="arrowupdn" unicode="&#x2195;" horiz-adv-x="1849" 
d="M1036 1548v-1929l586 594q50 -18 90.5 -62t54.5 -92l-841 -843l-842 843q14 48 54.5 92t90.5 62l586 -594v1929l-588 -596q-50 18 -90.5 62t-54.5 92l844 846l841 -844q-14 -48 -54.5 -92t-90.5 -62z" />
    <glyph glyph-name="uni2196" unicode="&#x2196;" horiz-adv-x="1740" 
d="M1511 -35l-1095 1096l4 -877q-34 -18 -113 -18q-75 0 -110 18v1254h1251q16 -29 16 -101q0 -73 -16 -102l-897 4l1118 -1116q-14 -46 -60 -92.5t-98 -65.5z" />
    <glyph glyph-name="uni2197" unicode="&#x2197;" horiz-adv-x="1740" 
d="M1325 1061l-1096 -1096q-52 19 -97.5 65.5t-59.5 92.5l1118 1116l-897 -4q-17 31 -17 102q0 70 17 101h1251v-1254q-34 -18 -110 -18q-78 0 -113 18z" />
    <glyph glyph-name="uni2198" unicode="&#x2198;" horiz-adv-x="1740" 
d="M229 1473l1096 -1096l-4 876q36 19 113 19q74 0 110 -19v-1253h-1251q-17 31 -17 100q0 72 17 103l897 -4l-1118 1116q14 46 59.5 92.5t97.5 65.5z" />
    <glyph glyph-name="uni2199" unicode="&#x2199;" horiz-adv-x="1740" 
d="M416 377l1095 1096q52 -19 98 -65.5t60 -92.5l-1118 -1116l897 4q16 -29 16 -103q0 -71 -16 -100h-1251v1253q36 19 110 19q77 0 113 -19z" />
    <glyph glyph-name="partialdiff" unicode="&#x2202;" horiz-adv-x="1142" 
d="M815 590q-99 115 -248 115q-135 0 -204.5 -80.5t-69.5 -204.5q0 -116 61.5 -182t169.5 -66q74 0 130 32.5t89.5 91t51 132t20.5 162.5zM809 784h12q-2 135 -24.5 237t-59 165t-90 102t-110 53.5t-127.5 14.5q-142 0 -256 -62q-13 39 -2 107t38 102q95 56 254 56
q101 0 188.5 -27.5t164.5 -89.5t132 -155.5t86.5 -233t31.5 -314.5q0 -170 -30.5 -309t-93.5 -246t-167.5 -166t-243.5 -59q-205 0 -328 122.5t-123 334.5q0 103 31 194t88.5 159.5t146.5 108.5t197 40q200 0 285 -134z" />
    <glyph glyph-name="Delta" unicode="&#x2206;" horiz-adv-x="1345" 
d="M1247 0h-1149q-37 84 -37 205l443 1231q49 18 164 18q117 0 166 -18l450 -1231q0 -121 -37 -205zM1022 221l-219 617q-86 242 -131 454h-13q-51 -224 -129 -448l-213 -623h705z" />
    <glyph glyph-name="product" unicode="&#x220f;" horiz-adv-x="1644" 
d="M1124 -326v1549h-606v-1549q-33 -20 -123 -20q-88 0 -121 20v1549h-202q-19 40 -19 108q0 67 19 107h1501q18 -38 18 -107q0 -71 -18 -108h-205v-1549q-33 -20 -123 -20q-88 0 -121 20z" />
    <glyph glyph-name="summation" unicode="&#x2211;" horiz-adv-x="1214" 
d="M313 -121h852q19 -40 19 -108q0 -71 -19 -111h-1093q-35 83 -35 211l557 692l-510 680q0 120 35 195h1026q18 -38 18 -107q0 -71 -18 -108h-787v-13q85 -71 154 -163l373 -486l-414 -506q-64 -80 -158 -164v-12z" />
    <glyph glyph-name="minus" unicode="&#x2212;" 
d="M125 670h926q18 -30 18 -105q0 -76 -18 -106h-959q0 132 33 211z" />
    <glyph glyph-name="uni2219" unicode="&#x2219;" 
d="M584 852q132 0 210 -77t78 -216q0 -140 -78.5 -215.5t-211.5 -75.5q-136 0 -212.5 76t-76.5 213q0 138 79.5 216.5t211.5 78.5z" />
    <glyph glyph-name="radical" unicode="&#x221a;" 
d="M328 924l190 -535q41 -114 68 -328h12q21 196 66 330l407 1251q144 0 221 -65l-555 -1683q-98 -33 -272 -33l-297 809l-148 -41q0 126 35 219z" />
    <glyph glyph-name="infinity" unicode="&#x221e;" horiz-adv-x="1763" 
d="M879 393q-183 -219 -430 -219q-181 0 -281 103.5t-100 263.5q0 164 104 274.5t289 110.5q129 0 232.5 -57.5t199.5 -166.5q81 110 191 167t237 57q173 0 274 -103.5t101 -259.5q0 -165 -108 -278t-283 -113q-223 0 -426 221zM758 545q-72 90 -143.5 140t-155.5 50
q-83 0 -133 -49.5t-50 -134.5t51 -135.5t140 -50.5q159 0 291 180zM1012 557q80 -92 153 -142t150 -50q79 0 126.5 54.5t47.5 133.5q0 85 -54 132.5t-139 47.5q-162 0 -284 -176z" />
    <glyph glyph-name="integral" unicode="&#x222b;" horiz-adv-x="673" 
d="M684 1667q43 -79 43 -217q-60 41 -141 41q-89 0 -125.5 -65.5t-36.5 -196.5q0 -156 30.5 -550t30.5 -558q0 -89 -9 -160.5t-33 -138t-63.5 -110.5t-103 -70.5t-147.5 -26.5q-126 0 -199 49q0 54 19 110t51 89q49 -29 106 -29q86 0 119 64.5t33 199.5q0 158 -28.5 555
t-28.5 570q0 477 344 477q89 0 139 -33z" />
    <glyph glyph-name="approxequal" unicode="&#x2248;" 
d="M106 782q36 65 106 105.5t167 40.5q65 0 123.5 -17t95.5 -37.5t89 -37.5t106 -17q99 0 151 82q38 -15 70 -47t45 -70q-86 -161 -289 -161q-63 0 -120 17t-93.5 37t-88.5 37t-106 17q-120 0 -194 -108q-56 65 -62 159zM106 356q36 65 106 105.5t167 40.5q65 0 123.5 -17
t95.5 -37.5t89 -37.5t106 -17q99 0 151 82q38 -15 70 -47t45 -70q-86 -161 -289 -161q-63 0 -120 17t-93.5 37t-88.5 37t-106 17q-120 0 -194 -108q-56 65 -62 159z" />
    <glyph glyph-name="notequal" unicode="&#x2260;" 
d="M215 127l76 123h-187q0 120 31 199h275l139 227h-445q0 119 31 198h531l108 179q99 0 160 -47l-80 -132h190q17 -31 17 -98q0 -69 -17 -100h-307l-139 -227h446q17 -31 17 -99q0 -69 -17 -100h-565l-131 -213q-44 7 -79.5 32t-53.5 58z" />
    <glyph glyph-name="lessequal" unicode="&#x2264;" 
d="M174 199h836q14 -33 14 -101q0 -61 -14 -98h-869q0 49 9.5 108.5t23.5 90.5zM209 895l604 375q103 -44 168 -133l-557 -326v-12l537 -322q-11 -53 -43.5 -103.5t-75.5 -72.5l-660 418q0 105 27 176z" />
    <glyph glyph-name="greaterequal" unicode="&#x2265;" 
d="M979 731l-649 -428q-45 25 -79 76.5t-44 101.5l508 316v12l-516 326q66 94 174 137l575 -373q31 -81 31 -168zM176 199h836q14 -33 14 -101q0 -61 -14 -98h-869q0 49 9.5 108.5t23.5 90.5z" />
    <glyph glyph-name="dotmath" unicode="&#x22c5;" 
d="M584 713q67 0 106 -39.5t39 -110.5t-40 -109t-107 -38q-69 0 -107.5 38t-38.5 107q0 71 40.5 111.5t107.5 40.5z" />
    <glyph glyph-name="H18543" unicode="&#x25aa;" 
d="M76 0v1001h1016v-1001h-1016z" />
    <glyph glyph-name="H18551" unicode="&#x25ab;" 
d="M76 0v1001h1016v-1001h-1016zM297 788v-575h573v575h-573z" />
    <glyph glyph-name="uni25B8" unicode="&#x25b8;" 
d="M123 -66q-31 194 -31 558q0 317 31 575q208 -86 534 -262t496 -295q-178 -127 -504 -309.5t-526 -266.5z" />
    <glyph glyph-name="uni25B9" unicode="&#x25b9;" 
d="M123 -66q-31 194 -31 558q0 317 31 575q208 -86 534 -262t496 -295q-178 -127 -504 -309.5t-526 -266.5zM309 254q95 37 244.5 117.5t228.5 136.5q-83 55 -232.5 131t-240.5 109q-10 -85 -10 -248q0 -148 10 -246z" />
    <glyph glyph-name="uni25C2" unicode="&#x25c2;" 
d="M1044 -66q-199 81 -523.5 261.5t-506.5 308.5q171 121 498 298.5t532 264.5q31 -246 31 -575q0 -350 -31 -558z" />
    <glyph glyph-name="uni25C3" unicode="&#x25c3;" 
d="M1044 -66q-199 81 -523.5 261.5t-506.5 308.5q171 121 498 298.5t532 264.5q31 -246 31 -575q0 -350 -31 -558zM856 260q10 110 10 262q0 166 -10 232q-94 -38 -242.5 -116t-224.5 -130q81 -57 228 -135t239 -113z" />
    <glyph glyph-name="lozenge" unicode="&#x25ca;" horiz-adv-x="1159" 
d="M276 709l187 -316q69 -116 115 -282h12q27 137 106 280l185 332l-185 301q-73 121 -116 274h-13q-41 -165 -114 -288zM23 705l428 739q102 29 260 29l426 -760l-432 -746q-95 -28 -250 -28z" />
    <glyph glyph-name="circle" unicode="&#x25cb;" 
d="M586 1042q158 0 280.5 -61t194.5 -183.5t72 -289.5q0 -128 -43.5 -233t-119.5 -173.5t-177.5 -105.5t-219.5 -37q-240 0 -390 147.5t-150 393.5q0 247 151 394.5t402 147.5zM586 827q-149 0 -236.5 -85.5t-87.5 -237.5t87.5 -241t228.5 -89q143 0 234 90t91 246
q0 152 -87 234.5t-230 82.5z" />
    <glyph glyph-name="H18533" unicode="&#x25cf;" 
d="M586 1042q158 0 280.5 -61t194.5 -183.5t72 -289.5q0 -128 -43.5 -233t-119.5 -173.5t-177.5 -105.5t-219.5 -37q-240 0 -390 147.5t-150 393.5q0 247 151 394.5t402 147.5z" />
    <glyph glyph-name="uniFB00" unicode="&#xfb00;" horiz-adv-x="1337" 
d="M78 1001h123v132q0 391 329 391q111 0 187 -45q27 -34 37.5 -98.5t-0.5 -114.5q-73 51 -160 51q-158 0 -158 -170v-146h398v158q0 218 94.5 312t263.5 94q128 0 207 -52q27 -34 37.5 -99.5t-0.5 -115.5q-92 60 -195 60q-95 0 -133.5 -44.5t-38.5 -137.5v-175h260
q17 -34 17 -102t-17 -102h-260v-785q-35 -18 -119 -18q-82 0 -116 18v785h-398v-785q-34 -18 -119 -18q-81 0 -116 18v785h-156q0 128 33 204z" />
    <glyph glyph-name="fi" unicode="&#xfb01;" horiz-adv-x="1206" 
d="M78 1001h123v78q0 486 452 486q170 0 283 -76q27 -33 39.5 -99t1.5 -118q-138 86 -291 86q-56 0 -97.5 -11t-78 -39t-55.5 -82.5t-19 -133.5v-91h238q16 -32 16 -102t-16 -102h-238v-785q-34 -18 -119 -18q-81 0 -116 18v785h-156q0 128 33 204zM811 12v977q36 19 117 19
q83 0 119 -19v-977q-35 -18 -119 -18q-82 0 -117 18z" />
    <glyph glyph-name="fl" unicode="&#xfb02;" horiz-adv-x="1286" 
d="M78 1001h123v80q0 107 23.5 191t63.5 138.5t98 89.5t123.5 50t143.5 15q228 0 394 -109v-1186q0 -59 21 -79.5t65 -20.5q72 0 127 39q9 -53 -6.5 -114.5t-43.5 -94.5q-64 -41 -163 -41q-236 0 -236 277v1097q-58 27 -137 27q-52 0 -91.5 -11.5t-74.5 -39.5t-53.5 -81.5
t-18.5 -131.5v-95h238q16 -32 16 -102t-16 -102h-238v-785q-34 -18 -119 -18q-81 0 -116 18v785h-156q0 128 33 204z" />
    <glyph glyph-name="uniFB03" unicode="&#xfb03;" horiz-adv-x="1839" 
d="M78 1001h123v132q0 391 329 391q111 0 187 -45q27 -34 37.5 -98.5t-0.5 -114.5q-73 51 -160 51q-158 0 -158 -170v-146h398v78q0 486 452 486q170 0 283 -76q27 -33 39.5 -99t1.5 -118q-138 86 -291 86q-56 0 -97.5 -11t-78 -39t-55.5 -82.5t-19 -133.5v-91h238
q16 -32 16 -102t-16 -102h-238v-785q-35 -18 -119 -18q-82 0 -116 18v785h-398v-785q-34 -18 -119 -18q-81 0 -116 18v785h-156q0 128 33 204zM1444 12v977q36 19 117 19q82 0 118 -19v-977q-35 -18 -118 -18t-117 18z" />
    <glyph glyph-name="uniFB04" unicode="&#xfb04;" horiz-adv-x="1918" 
d="M78 1001h123v132q0 391 329 391q111 0 187 -45q27 -34 37.5 -98.5t-0.5 -114.5q-73 51 -160 51q-158 0 -158 -170v-146h398v80q0 107 23.5 191t63.5 138.5t98 89.5t123.5 50t143.5 15q227 0 393 -109v-1186q0 -59 21 -79.5t65 -20.5q72 0 127 39q9 -53 -6 -114.5
t-43 -94.5q-64 -41 -164 -41q-235 0 -235 277v1097q-58 27 -137 27q-52 0 -91.5 -11.5t-74.5 -39.5t-53.5 -81.5t-18.5 -131.5v-95h238q16 -32 16 -102t-16 -102h-238v-785q-35 -18 -119 -18q-82 0 -116 18v785h-398v-785q-34 -18 -119 -18q-81 0 -116 18v785h-156
q0 128 33 204z" />
    <glyph glyph-name="uniFB06" unicode="&#xfb06;" horiz-adv-x="1701" 
d="M96 244q60 -42 154.5 -68t179.5 -26q180 0 180 118q0 40 -26.5 69.5t-69 49t-94.5 38t-103.5 43t-94 56.5t-69 86t-26.5 125q0 148 91.5 227.5t262.5 79.5q55 0 78 -6v13q-63 54 -63 174q0 61 20.5 113t65 97.5t126 72t191.5 26.5q426 0 426 -391v-140h289
q16 -32 16 -102t-16 -102h-285v-459q0 -84 29.5 -124t111.5 -40q107 0 195 66q7 -55 -9 -120.5t-44 -99.5q-86 -61 -219 -61q-161 0 -230 86.5t-69 259.5v492h-156q0 128 33 204h127v129q0 99 -48 160.5t-157 61.5q-106 0 -154.5 -54.5t-48.5 -132.5q0 -101 64 -192
q27 -37 40 -102.5t3 -112.5q-135 96 -291 96q-144 0 -144 -96q0 -37 26.5 -64.5t69.5 -46t94.5 -36.5t103 -42.5t94.5 -57t69.5 -87.5t26.5 -127q0 -119 -55 -196.5t-144.5 -109.5t-212.5 -32q-186 0 -299 61q-28 40 -39.5 111.5t0.5 112.5z" />
    <glyph glyph-name="uniFEFF" unicode="&#xfeff;" horiz-adv-x="0" 
 />
    <glyph glyph-name="i.latn_TRK" horiz-adv-x="555" 
d="M160 12v977q36 19 116 19q83 0 119 -19v-977q-35 -18 -119 -18q-82 0 -116 18zM279 1493q67 0 106 -39.5t39 -110.5q0 -70 -40 -108.5t-108 -38.5q-69 0 -107 38t-38 107q0 71 40.5 111.5t107.5 40.5z" />
    <glyph glyph-name="Ldot.latn_CAT" horiz-adv-x="1193" 
d="M1102 0h-912v1425q35 21 121 21q89 0 123 -21v-1208h668q16 -37 16 -108q0 -72 -16 -109zM903 915q65 0 103 -36t38 -103q0 -66 -38.5 -101.5t-104.5 -35.5q-68 0 -104.5 34.5t-36.5 100.5q0 68 38.5 104.5t104.5 36.5z" />
    <glyph glyph-name="ldot.latn_CAT" horiz-adv-x="815" 
d="M555 0q-64 -41 -164 -41q-235 0 -235 277v1230q80 50 235 50v-1246q0 -59 21 -79.5t65 -20.5q72 0 127 39q9 -53 -6 -114.5t-43 -94.5zM678 723q62 0 98.5 -35.5t36.5 -99.5q0 -63 -37 -98t-100 -35q-65 0 -100 34t-35 97q0 65 37 101t100 36z" />
    <glyph glyph-name="zero.numr" horiz-adv-x="788" 
d="M393 1405q165 0 253.5 -102t88.5 -304q0 -210 -87.5 -315.5t-254.5 -105.5q-342 0 -342 419q0 198 89.5 303t252.5 105zM248 999q0 -123 36.5 -191.5t108.5 -68.5t109 68.5t37 191.5q0 116 -37 180t-109 64q-145 0 -145 -244z" />
    <glyph glyph-name="one.numr" horiz-adv-x="788" 
d="M332 604v598l-201 -31q1 42 13.5 90t27.5 76q141 50 356 68v-801q-32 -14 -98 -14t-98 14z" />
    <glyph glyph-name="two.numr" horiz-adv-x="788" 
d="M377 768h295q14 -24 14 -84q0 -64 -14 -88h-566q-22 54 -22 141q30 26 90 73t101 81.5t85.5 78.5t67.5 87.5t23 85.5q0 96 -127 96q-113 0 -222 -74q-7 43 5.5 96t35.5 85q91 59 230 59q131 0 208.5 -59t77.5 -172q0 -116 -78 -217.5t-204 -176.5v-12z" />
    <glyph glyph-name="three.numr" horiz-adv-x="788" 
d="M217 922q-10 31 -8 77.5t14 71.5q238 0 238 107q0 69 -119 69q-112 0 -217 -57q-6 39 6.5 89.5t38.5 82.5q75 43 219 43q126 0 199.5 -50t73.5 -155q0 -73 -36 -119.5t-100 -60.5v-12q158 -32 158 -189q0 -122 -94.5 -181.5t-247.5 -59.5q-120 0 -209 28q-53 80 -33 174
q39 -18 105.5 -29.5t126.5 -11.5q149 0 149 88q0 52 -56.5 73.5t-207.5 21.5z" />
    <glyph glyph-name="four.numr" horiz-adv-x="788" 
d="M631 776v-172q-31 -14 -96 -14q-63 0 -95 14v172h-366q-29 57 -29 158l348 467q142 -3 238 -41v-428h94q12 -24 12 -76q0 -56 -12 -80h-94zM442 930v192q0 50 7 78h-13l-188 -264v-12q24 6 80 6h114z" />
    <glyph glyph-name="five.numr" horiz-adv-x="788" 
d="M162 1386h532q0 -100 -22 -159h-361l-10 -131q38 10 109 10q131 0 204.5 -61.5t73.5 -186.5q0 -100 -49 -164t-127.5 -90t-187.5 -26q-113 0 -183 26q-25 30 -37.5 78.5t-7.5 93.5q75 -37 217 -37q181 0 181 111q0 57 -41 80.5t-136 23.5q-110 0 -190 -28z" />
    <glyph glyph-name="six.numr" horiz-adv-x="788" 
d="M496 1247q-102 0 -154.5 -49t-69.5 -158h13q52 82 178 82q123 0 188.5 -69.5t65.5 -188.5q0 -134 -82.5 -210t-231.5 -76q-323 0 -323 374q0 223 107.5 338t295.5 115q92 0 164 -35q24 -31 34.5 -84.5t4.5 -89.5q-91 51 -190 51zM406 969q-80 0 -134 -66v-10
q0 -75 35.5 -117.5t100.5 -42.5q58 0 90 33.5t32 87.5q0 56 -32.5 85.5t-91.5 29.5z" />
    <glyph glyph-name="seven.numr" horiz-adv-x="788" 
d="M502 1219h-406q0 93 31 167h559q29 -64 29 -139q-221 -345 -303 -641q-29 -16 -109 -16q-79 0 -104 14q96 336 303 602v13z" />
    <glyph glyph-name="eight.numr" horiz-adv-x="788" 
d="M569 1030v-12q69 -19 106.5 -70t37.5 -129q0 -120 -90 -180.5t-236 -60.5q-61 0 -114 11.5t-98.5 36t-72 69.5t-26.5 106q0 79 41.5 132t107.5 73v12q-116 39 -116 172q0 76 42.5 126t106 69.5t145.5 19.5q46 0 86.5 -6.5t78 -21.5t64 -37.5t42.5 -57t16 -78.5
q0 -69 -35 -114t-86 -60zM377 936q-113 -40 -113 -117q0 -49 37 -71.5t94 -22.5q56 0 91.5 21.5t35.5 68.5t-35.5 72t-109.5 49zM418 1096q92 31 92 96q0 38 -31.5 56t-77.5 18q-45 0 -75.5 -17.5t-30.5 -54.5q0 -20 8 -34.5t27 -26t36.5 -18.5t51.5 -19z" />
    <glyph glyph-name="nine.numr" horiz-adv-x="788" 
d="M522 944h-12q-49 -76 -174 -76q-122 0 -187 70.5t-65 185.5q0 129 84.5 205t228.5 76q316 0 316 -373q0 -225 -108 -339.5t-294 -114.5q-109 0 -184 34q-25 29 -36 85t-3 98q41 -25 103 -42.5t118 -17.5q95 0 146.5 50.5t66.5 158.5zM393 1024q79 0 129 59v11
q0 73 -33 114t-96 41q-58 0 -88.5 -31t-30.5 -81q0 -53 30 -83t89 -30z" />
    <glyph glyph-name="zero.dnom" horiz-adv-x="788" 
d="M393 809q165 0 253.5 -102t88.5 -304q0 -210 -87.5 -315.5t-254.5 -105.5q-342 0 -342 419q0 198 89.5 303t252.5 105zM248 403q0 -123 36.5 -191.5t108.5 -68.5t109 68.5t37 191.5q0 116 -37 180t-109 64q-145 0 -145 -244z" />
    <glyph glyph-name="one.dnom" horiz-adv-x="788" 
d="M332 8v598l-201 -31q1 42 13.5 90t27.5 76q141 50 356 68v-801q-32 -14 -98 -14t-98 14z" />
    <glyph glyph-name="two.dnom" horiz-adv-x="788" 
d="M377 172h295q14 -25 14 -84q0 -64 -14 -88h-566q-22 54 -22 141q30 26 90 73t101 81.5t85.5 78.5t67.5 87.5t23 85.5q0 96 -127 96q-113 0 -222 -74q-7 43 5.5 96t35.5 85q91 59 230 59q131 0 208.5 -59t77.5 -172q0 -116 -78 -217.5t-204 -176.5v-12z" />
    <glyph glyph-name="three.dnom" horiz-adv-x="788" 
d="M217 326q-10 31 -8 77.5t14 71.5q238 0 238 107q0 69 -119 69q-112 0 -217 -57q-6 39 6.5 89.5t38.5 82.5q75 43 219 43q126 0 199.5 -50t73.5 -155q0 -73 -36 -119.5t-100 -60.5v-12q158 -32 158 -189q0 -122 -94.5 -181.5t-247.5 -59.5q-120 0 -209 28q-53 80 -33 174
q39 -18 105.5 -29.5t126.5 -11.5q149 0 149 88q0 52 -56.5 73.5t-207.5 21.5z" />
    <glyph glyph-name="four.dnom" horiz-adv-x="788" 
d="M631 180v-172q-31 -14 -96 -14q-63 0 -95 14v172h-366q-29 57 -29 158l348 467q142 -3 238 -41v-428h94q12 -24 12 -76q0 -56 -12 -80h-94zM442 334v192q0 50 7 78h-13l-188 -264v-12q24 6 80 6h114z" />
    <glyph glyph-name="five.dnom" horiz-adv-x="788" 
d="M162 791h532q0 -101 -22 -160h-361l-10 -131q38 10 109 10q131 0 204.5 -61.5t73.5 -186.5q0 -100 -49 -164t-127.5 -90t-187.5 -26q-113 0 -183 26q-25 30 -37.5 78.5t-7.5 93.5q75 -37 217 -37q181 0 181 111q0 57 -41 80.5t-136 23.5q-110 0 -190 -28z" />
    <glyph glyph-name="six.dnom" horiz-adv-x="788" 
d="M496 651q-102 0 -154.5 -49t-69.5 -158h13q52 82 178 82q123 0 188.5 -69.5t65.5 -188.5q0 -134 -82.5 -210t-231.5 -76q-323 0 -323 374q0 223 107.5 338t295.5 115q92 0 164 -35q24 -31 34.5 -84.5t4.5 -89.5q-91 51 -190 51zM406 373q-80 0 -134 -66v-10
q0 -75 35.5 -117.5t100.5 -42.5q58 0 90 33.5t32 87.5q0 56 -32.5 85.5t-91.5 29.5z" />
    <glyph glyph-name="seven.dnom" horiz-adv-x="788" 
d="M502 623h-406q0 94 31 168h559q29 -64 29 -140q-221 -345 -303 -641q-29 -16 -109 -16q-79 0 -104 14q96 336 303 602v13z" />
    <glyph glyph-name="eight.dnom" horiz-adv-x="788" 
d="M569 434v-12q69 -19 106.5 -70t37.5 -129q0 -120 -90 -180.5t-236 -60.5q-61 0 -114 11.5t-98.5 36t-72 69.5t-26.5 106q0 79 41.5 132t107.5 73v12q-116 39 -116 172q0 76 42.5 126t106 69.5t145.5 19.5q46 0 86.5 -6.5t78 -21.5t64 -37.5t42.5 -57t16 -78.5
q0 -69 -35 -114t-86 -60zM377 340q-113 -40 -113 -117q0 -49 37 -71.5t94 -22.5q56 0 91.5 21.5t35.5 68.5t-35.5 72t-109.5 49zM418 500q92 31 92 96q0 38 -31.5 56t-77.5 18q-45 0 -75.5 -17.5t-30.5 -54.5q0 -20 8 -34.5t27 -26t36.5 -18.5t51.5 -19z" />
    <glyph glyph-name="nine.dnom" horiz-adv-x="788" 
d="M522 348h-12q-49 -76 -174 -76q-122 0 -187 70.5t-65 185.5q0 129 84.5 205t228.5 76q316 0 316 -373q0 -225 -108 -339.5t-294 -114.5q-109 0 -184 34q-25 29 -36 85t-3 98q41 -25 103 -42.5t118 -17.5q95 0 146.5 50.5t66.5 158.5zM393 428q79 0 129 59v11
q0 73 -33 114t-96 41q-58 0 -88.5 -31t-30.5 -81q0 -53 30 -83t89 -30z" />
    <glyph glyph-name="space.frac" horiz-adv-x="83" 
 />
    </font>
</defs>
</svg>
